<svg width="1363" height="163" viewBox="0 0 1363 163" fill="none" xmlns="http://www.w3.org/2000/svg">
<path d="M0 15C0 6.71573 6.71573 0 15 0H37V163H15C6.71573 163 0 156.284 0 148V15Z" fill="#F7713D"/>
<rect width="1097" height="163" transform="translate(37)" fill="#F0F0F0"/>
<path d="M101.906 53.9219L94.3945 51.2383V48.0859L104.602 52.375V54.6367L101.906 53.9219ZM94.3945 56.1719L101.918 53.4297L104.602 52.7852V55.0352L94.3945 59.3242V56.1719ZM119.578 53.5117H115.195L115.172 51.0977H118.852C119.5 51.0977 120.031 51.0156 120.445 50.8516C120.859 50.6797 121.168 50.4336 121.371 50.1133C121.582 49.7852 121.688 49.3867 121.688 48.918C121.688 48.3867 121.586 47.957 121.383 47.6289C121.188 47.3008 120.879 47.0625 120.457 46.9141C120.043 46.7656 119.508 46.6914 118.852 46.6914H116.414V61H112.898V43.9375H118.852C119.844 43.9375 120.73 44.0312 121.512 44.2188C122.301 44.4062 122.969 44.6914 123.516 45.0742C124.062 45.457 124.48 45.9414 124.77 46.5273C125.059 47.1055 125.203 47.793 125.203 48.5898C125.203 49.293 125.043 49.9414 124.723 50.5352C124.41 51.1289 123.914 51.6133 123.234 51.9883C122.562 52.3633 121.684 52.5703 120.598 52.6094L119.578 53.5117ZM119.426 61H114.234L115.605 58.2578H119.426C120.043 58.2578 120.547 58.1602 120.938 57.9648C121.328 57.7617 121.617 57.4883 121.805 57.1445C121.992 56.8008 122.086 56.4062 122.086 55.9609C122.086 55.4609 122 55.0273 121.828 54.6602C121.664 54.293 121.398 54.0117 121.031 53.8164C120.664 53.6133 120.18 53.5117 119.578 53.5117H116.191L116.215 51.0977H120.434L121.242 52.0469C122.281 52.0312 123.117 52.2148 123.75 52.5977C124.391 52.9727 124.855 53.4609 125.145 54.0625C125.441 54.6641 125.59 55.3086 125.59 55.9961C125.59 57.0898 125.352 58.0117 124.875 58.7617C124.398 59.5039 123.699 60.0625 122.777 60.4375C121.863 60.8125 120.746 61 119.426 61ZM134.859 58.1406V52.4922C134.859 52.0859 134.793 51.7383 134.66 51.4492C134.527 51.1523 134.32 50.9219 134.039 50.7578C133.766 50.5938 133.41 50.5117 132.973 50.5117C132.598 50.5117 132.273 50.5781 132 50.7109C131.727 50.8359 131.516 51.0195 131.367 51.2617C131.219 51.4961 131.145 51.7734 131.145 52.0938H127.77C127.77 51.5547 127.895 51.043 128.145 50.5586C128.395 50.0742 128.758 49.6484 129.234 49.2812C129.711 48.9062 130.277 48.6133 130.934 48.4023C131.598 48.1914 132.34 48.0859 133.16 48.0859C134.145 48.0859 135.02 48.25 135.785 48.5781C136.551 48.9062 137.152 49.3984 137.59 50.0547C138.035 50.7109 138.258 51.5312 138.258 52.5156V57.9414C138.258 58.6367 138.301 59.207 138.387 59.6523C138.473 60.0898 138.598 60.4727 138.762 60.8008V61H135.352C135.188 60.6562 135.062 60.2266 134.977 59.7109C134.898 59.1875 134.859 58.6641 134.859 58.1406ZM135.305 53.2773L135.328 55.1875H133.441C132.996 55.1875 132.609 55.2383 132.281 55.3398C131.953 55.4414 131.684 55.5859 131.473 55.7734C131.262 55.9531 131.105 56.1641 131.004 56.4062C130.91 56.6484 130.863 56.9141 130.863 57.2031C130.863 57.4922 130.93 57.7539 131.062 57.9883C131.195 58.2148 131.387 58.3945 131.637 58.5273C131.887 58.6523 132.18 58.7148 132.516 58.7148C133.023 58.7148 133.465 58.6133 133.84 58.4102C134.215 58.207 134.504 57.957 134.707 57.6602C134.918 57.3633 135.027 57.082 135.035 56.8164L135.926 58.2461C135.801 58.5664 135.629 58.8984 135.41 59.2422C135.199 59.5859 134.93 59.9102 134.602 60.2148C134.273 60.5117 133.879 60.7578 133.418 60.9531C132.957 61.1406 132.41 61.2344 131.777 61.2344C130.973 61.2344 130.242 61.0742 129.586 60.7539C128.938 60.4258 128.422 59.9766 128.039 59.4062C127.664 58.8281 127.477 58.1719 127.477 57.4375C127.477 56.7734 127.602 56.1836 127.852 55.668C128.102 55.1523 128.469 54.7188 128.953 54.3672C129.445 54.0078 130.059 53.7383 130.793 53.5586C131.527 53.3711 132.379 53.2773 133.348 53.2773H135.305ZM147.07 48.3203V50.7109H139.688V48.3203H147.07ZM141.516 45.1914H144.891V57.1797C144.891 57.5469 144.938 57.8281 145.031 58.0234C145.133 58.2188 145.281 58.3555 145.477 58.4336C145.672 58.5039 145.918 58.5391 146.215 58.5391C146.426 58.5391 146.613 58.5312 146.777 58.5156C146.949 58.4922 147.094 58.4688 147.211 58.4453L147.223 60.9297C146.934 61.0234 146.621 61.0977 146.285 61.1523C145.949 61.207 145.578 61.2344 145.172 61.2344C144.43 61.2344 143.781 61.1133 143.227 60.8711C142.68 60.6211 142.258 60.2227 141.961 59.6758C141.664 59.1289 141.516 58.4102 141.516 57.5195V45.1914ZM155.836 58.1406V52.4922C155.836 52.0859 155.77 51.7383 155.637 51.4492C155.504 51.1523 155.297 50.9219 155.016 50.7578C154.742 50.5938 154.387 50.5117 153.949 50.5117C153.574 50.5117 153.25 50.5781 152.977 50.7109C152.703 50.8359 152.492 51.0195 152.344 51.2617C152.195 51.4961 152.121 51.7734 152.121 52.0938H148.746C148.746 51.5547 148.871 51.043 149.121 50.5586C149.371 50.0742 149.734 49.6484 150.211 49.2812C150.688 48.9062 151.254 48.6133 151.91 48.4023C152.574 48.1914 153.316 48.0859 154.137 48.0859C155.121 48.0859 155.996 48.25 156.762 48.5781C157.527 48.9062 158.129 49.3984 158.566 50.0547C159.012 50.7109 159.234 51.5312 159.234 52.5156V57.9414C159.234 58.6367 159.277 59.207 159.363 59.6523C159.449 60.0898 159.574 60.4727 159.738 60.8008V61H156.328C156.164 60.6562 156.039 60.2266 155.953 59.7109C155.875 59.1875 155.836 58.6641 155.836 58.1406ZM156.281 53.2773L156.305 55.1875H154.418C153.973 55.1875 153.586 55.2383 153.258 55.3398C152.93 55.4414 152.66 55.5859 152.449 55.7734C152.238 55.9531 152.082 56.1641 151.98 56.4062C151.887 56.6484 151.84 56.9141 151.84 57.2031C151.84 57.4922 151.906 57.7539 152.039 57.9883C152.172 58.2148 152.363 58.3945 152.613 58.5273C152.863 58.6523 153.156 58.7148 153.492 58.7148C154 58.7148 154.441 58.6133 154.816 58.4102C155.191 58.207 155.48 57.957 155.684 57.6602C155.895 57.3633 156.004 57.082 156.012 56.8164L156.902 58.2461C156.777 58.5664 156.605 58.8984 156.387 59.2422C156.176 59.5859 155.906 59.9102 155.578 60.2148C155.25 60.5117 154.855 60.7578 154.395 60.9531C153.934 61.1406 153.387 61.2344 152.754 61.2344C151.949 61.2344 151.219 61.0742 150.562 60.7539C149.914 60.4258 149.398 59.9766 149.016 59.4062C148.641 58.8281 148.453 58.1719 148.453 57.4375C148.453 56.7734 148.578 56.1836 148.828 55.668C149.078 55.1523 149.445 54.7188 149.93 54.3672C150.422 54.0078 151.035 53.7383 151.77 53.5586C152.504 53.3711 153.355 53.2773 154.324 53.2773H156.281ZM165.398 43V61H162.012V43H165.398ZM168.316 59.3711C168.316 58.8711 168.488 58.4531 168.832 58.1172C169.184 57.7812 169.648 57.6133 170.227 57.6133C170.805 57.6133 171.266 57.7812 171.609 58.1172C171.961 58.4531 172.137 58.8711 172.137 59.3711C172.137 59.8711 171.961 60.2891 171.609 60.625C171.266 60.9609 170.805 61.1289 170.227 61.1289C169.648 61.1289 169.184 60.9609 168.832 60.625C168.488 60.2891 168.316 59.8711 168.316 59.3711ZM168.316 49.7031C168.316 49.2031 168.488 48.7852 168.832 48.4492C169.184 48.1133 169.648 47.9453 170.227 47.9453C170.805 47.9453 171.266 48.1133 171.609 48.4492C171.961 48.7852 172.137 49.2031 172.137 49.7031C172.137 50.2031 171.961 50.6211 171.609 50.957C171.266 51.293 170.805 51.4609 170.227 51.4609C169.648 51.4609 169.184 51.293 168.832 50.957C168.488 50.6211 168.316 50.2031 168.316 49.7031ZM184.664 43.9375V61H181.148V43.9375H184.664ZM191.461 51.2266V53.9688H183.703V51.2266H191.461ZM192.281 43.9375V46.6914H183.703V43.9375H192.281ZM197.672 48.3203V61H194.285V48.3203H197.672ZM194.074 45.0156C194.074 44.5234 194.246 44.1172 194.59 43.7969C194.934 43.4766 195.395 43.3164 195.973 43.3164C196.543 43.3164 197 43.4766 197.344 43.7969C197.695 44.1172 197.871 44.5234 197.871 45.0156C197.871 45.5078 197.695 45.9141 197.344 46.2344C197 46.5547 196.543 46.7148 195.973 46.7148C195.395 46.7148 194.934 46.5547 194.59 46.2344C194.246 45.9141 194.074 45.5078 194.074 45.0156ZM206.672 48.3203V50.7109H199.289V48.3203H206.672ZM201.117 45.1914H204.492V57.1797C204.492 57.5469 204.539 57.8281 204.633 58.0234C204.734 58.2188 204.883 58.3555 205.078 58.4336C205.273 58.5039 205.52 58.5391 205.816 58.5391C206.027 58.5391 206.215 58.5312 206.379 58.5156C206.551 58.4922 206.695 58.4688 206.812 58.4453L206.824 60.9297C206.535 61.0234 206.223 61.0977 205.887 61.1523C205.551 61.207 205.18 61.2344 204.773 61.2344C204.031 61.2344 203.383 61.1133 202.828 60.8711C202.281 60.6211 201.859 60.2227 201.562 59.6758C201.266 59.1289 201.117 58.4102 201.117 57.5195V45.1914ZM211.898 51.0273V61H208.523V48.3203H211.688L211.898 51.0273ZM211.406 54.2148H210.492C210.492 53.2773 210.613 52.4336 210.855 51.6836C211.098 50.9258 211.438 50.2812 211.875 49.75C212.312 49.2109 212.832 48.8008 213.434 48.5195C214.043 48.2305 214.723 48.0859 215.473 48.0859C216.066 48.0859 216.609 48.1719 217.102 48.3438C217.594 48.5156 218.016 48.7891 218.367 49.1641C218.727 49.5391 219 50.0352 219.188 50.6523C219.383 51.2695 219.48 52.0234 219.48 52.9141V61H216.082V52.9023C216.082 52.3398 216.004 51.9023 215.848 51.5898C215.691 51.2773 215.461 51.0586 215.156 50.9336C214.859 50.8008 214.492 50.7344 214.055 50.7344C213.602 50.7344 213.207 50.8242 212.871 51.0039C212.543 51.1836 212.27 51.4336 212.051 51.7539C211.84 52.0664 211.68 52.4336 211.57 52.8555C211.461 53.2773 211.406 53.7305 211.406 54.2148ZM227.883 61.2344C226.898 61.2344 226.016 61.0781 225.234 60.7656C224.453 60.4453 223.789 60.0039 223.242 59.4414C222.703 58.8789 222.289 58.2266 222 57.4844C221.711 56.7344 221.566 55.9375 221.566 55.0938V54.625C221.566 53.6641 221.703 52.7852 221.977 51.9883C222.25 51.1914 222.641 50.5 223.148 49.9141C223.664 49.3281 224.289 48.8789 225.023 48.5664C225.758 48.2461 226.586 48.0859 227.508 48.0859C228.406 48.0859 229.203 48.2344 229.898 48.5312C230.594 48.8281 231.176 49.25 231.645 49.7969C232.121 50.3438 232.48 51 232.723 51.7656C232.965 52.5234 233.086 53.3672 233.086 54.2969V55.7031H223.008V53.4531H229.77V53.1953C229.77 52.7266 229.684 52.3086 229.512 51.9414C229.348 51.5664 229.098 51.2695 228.762 51.0508C228.426 50.832 227.996 50.7227 227.473 50.7227C227.027 50.7227 226.645 50.8203 226.324 51.0156C226.004 51.2109 225.742 51.4844 225.539 51.8359C225.344 52.1875 225.195 52.6016 225.094 53.0781C225 53.5469 224.953 54.0625 224.953 54.625V55.0938C224.953 55.6016 225.023 56.0703 225.164 56.5C225.312 56.9297 225.52 57.3008 225.785 57.6133C226.059 57.9258 226.387 58.168 226.77 58.3398C227.16 58.5117 227.602 58.5977 228.094 58.5977C228.703 58.5977 229.27 58.4805 229.793 58.2461C230.324 58.0039 230.781 57.6406 231.164 57.1562L232.805 58.9375C232.539 59.3203 232.176 59.6875 231.715 60.0391C231.262 60.3906 230.715 60.6797 230.074 60.9062C229.434 61.125 228.703 61.2344 227.883 61.2344ZM241.863 57.4961C241.863 57.2539 241.793 57.0352 241.652 56.8398C241.512 56.6445 241.25 56.4648 240.867 56.3008C240.492 56.1289 239.949 55.9727 239.238 55.832C238.598 55.6914 238 55.5156 237.445 55.3047C236.898 55.0859 236.422 54.8242 236.016 54.5195C235.617 54.2148 235.305 53.8555 235.078 53.4414C234.852 53.0195 234.738 52.5391 234.738 52C234.738 51.4688 234.852 50.9688 235.078 50.5C235.312 50.0312 235.645 49.6172 236.074 49.2578C236.512 48.8906 237.043 48.6055 237.668 48.4023C238.301 48.1914 239.012 48.0859 239.801 48.0859C240.902 48.0859 241.848 48.2617 242.637 48.6133C243.434 48.9648 244.043 49.4492 244.465 50.0664C244.895 50.6758 245.109 51.3711 245.109 52.1523H241.734C241.734 51.8242 241.664 51.5312 241.523 51.2734C241.391 51.0078 241.18 50.8008 240.891 50.6523C240.609 50.4961 240.242 50.418 239.789 50.418C239.414 50.418 239.09 50.4844 238.816 50.6172C238.543 50.7422 238.332 50.9141 238.184 51.1328C238.043 51.3438 237.973 51.5781 237.973 51.8359C237.973 52.0312 238.012 52.207 238.09 52.3633C238.176 52.5117 238.312 52.6484 238.5 52.7734C238.688 52.8984 238.93 53.0156 239.227 53.125C239.531 53.2266 239.906 53.3203 240.352 53.4062C241.266 53.5938 242.082 53.8398 242.801 54.1445C243.52 54.4414 244.09 54.8477 244.512 55.3633C244.934 55.8711 245.145 56.5391 245.145 57.3672C245.145 57.9297 245.02 58.4453 244.77 58.9141C244.52 59.3828 244.16 59.793 243.691 60.1445C243.223 60.4883 242.66 60.7578 242.004 60.9531C241.355 61.1406 240.625 61.2344 239.812 61.2344C238.633 61.2344 237.633 61.0234 236.812 60.6016C236 60.1797 235.383 59.6445 234.961 58.9961C234.547 58.3398 234.34 57.668 234.34 56.9805H237.539C237.555 57.4414 237.672 57.8125 237.891 58.0938C238.117 58.375 238.402 58.5781 238.746 58.7031C239.098 58.8281 239.477 58.8906 239.883 58.8906C240.32 58.8906 240.684 58.832 240.973 58.7148C241.262 58.5898 241.48 58.4258 241.629 58.2227C241.785 58.0117 241.863 57.7695 241.863 57.4961ZM254.191 57.4961C254.191 57.2539 254.121 57.0352 253.98 56.8398C253.84 56.6445 253.578 56.4648 253.195 56.3008C252.82 56.1289 252.277 55.9727 251.566 55.832C250.926 55.6914 250.328 55.5156 249.773 55.3047C249.227 55.0859 248.75 54.8242 248.344 54.5195C247.945 54.2148 247.633 53.8555 247.406 53.4414C247.18 53.0195 247.066 52.5391 247.066 52C247.066 51.4688 247.18 50.9688 247.406 50.5C247.641 50.0312 247.973 49.6172 248.402 49.2578C248.84 48.8906 249.371 48.6055 249.996 48.4023C250.629 48.1914 251.34 48.0859 252.129 48.0859C253.23 48.0859 254.176 48.2617 254.965 48.6133C255.762 48.9648 256.371 49.4492 256.793 50.0664C257.223 50.6758 257.438 51.3711 257.438 52.1523H254.062C254.062 51.8242 253.992 51.5312 253.852 51.2734C253.719 51.0078 253.508 50.8008 253.219 50.6523C252.938 50.4961 252.57 50.418 252.117 50.418C251.742 50.418 251.418 50.4844 251.145 50.6172C250.871 50.7422 250.66 50.9141 250.512 51.1328C250.371 51.3438 250.301 51.5781 250.301 51.8359C250.301 52.0312 250.34 52.207 250.418 52.3633C250.504 52.5117 250.641 52.6484 250.828 52.7734C251.016 52.8984 251.258 53.0156 251.555 53.125C251.859 53.2266 252.234 53.3203 252.68 53.4062C253.594 53.5938 254.41 53.8398 255.129 54.1445C255.848 54.4414 256.418 54.8477 256.84 55.3633C257.262 55.8711 257.473 56.5391 257.473 57.3672C257.473 57.9297 257.348 58.4453 257.098 58.9141C256.848 59.3828 256.488 59.793 256.02 60.1445C255.551 60.4883 254.988 60.7578 254.332 60.9531C253.684 61.1406 252.953 61.2344 252.141 61.2344C250.961 61.2344 249.961 61.0234 249.141 60.6016C248.328 60.1797 247.711 59.6445 247.289 58.9961C246.875 58.3398 246.668 57.668 246.668 56.9805H249.867C249.883 57.4414 250 57.8125 250.219 58.0938C250.445 58.375 250.73 58.5781 251.074 58.7031C251.426 58.8281 251.805 58.8906 252.211 58.8906C252.648 58.8906 253.012 58.832 253.301 58.7148C253.59 58.5898 253.809 58.4258 253.957 58.2227C254.113 58.0117 254.191 57.7695 254.191 57.4961ZM272.496 54.918H268.148V52.1758H272.496C273.168 52.1758 273.715 52.0664 274.137 51.8477C274.559 51.6211 274.867 51.3086 275.062 50.9102C275.258 50.5117 275.355 50.0625 275.355 49.5625C275.355 49.0547 275.258 48.582 275.062 48.1445C274.867 47.707 274.559 47.3555 274.137 47.0898C273.715 46.8242 273.168 46.6914 272.496 46.6914H269.367V61H265.852V43.9375H272.496C273.832 43.9375 274.977 44.1797 275.93 44.6641C276.891 45.1406 277.625 45.8008 278.133 46.6445C278.641 47.4883 278.895 48.4531 278.895 49.5391C278.895 50.6406 278.641 51.5938 278.133 52.3984C277.625 53.2031 276.891 53.8242 275.93 54.2617C274.977 54.6992 273.832 54.918 272.496 54.918ZM280.406 54.7891V54.543C280.406 53.6133 280.539 52.7578 280.805 51.9766C281.07 51.1875 281.457 50.5039 281.965 49.9258C282.473 49.3477 283.098 48.8984 283.84 48.5781C284.582 48.25 285.434 48.0859 286.395 48.0859C287.355 48.0859 288.211 48.25 288.961 48.5781C289.711 48.8984 290.34 49.3477 290.848 49.9258C291.363 50.5039 291.754 51.1875 292.02 51.9766C292.285 52.7578 292.418 53.6133 292.418 54.543V54.7891C292.418 55.7109 292.285 56.5664 292.02 57.3555C291.754 58.1367 291.363 58.8203 290.848 59.4062C290.34 59.9844 289.715 60.4336 288.973 60.7539C288.23 61.0742 287.379 61.2344 286.418 61.2344C285.457 61.2344 284.602 61.0742 283.852 60.7539C283.109 60.4336 282.48 59.9844 281.965 59.4062C281.457 58.8203 281.07 58.1367 280.805 57.3555C280.539 56.5664 280.406 55.7109 280.406 54.7891ZM283.781 54.543V54.7891C283.781 55.3203 283.828 55.8164 283.922 56.2773C284.016 56.7383 284.164 57.1445 284.367 57.4961C284.578 57.8398 284.852 58.1094 285.188 58.3047C285.523 58.5 285.934 58.5977 286.418 58.5977C286.887 58.5977 287.289 58.5 287.625 58.3047C287.961 58.1094 288.23 57.8398 288.434 57.4961C288.637 57.1445 288.785 56.7383 288.879 56.2773C288.98 55.8164 289.031 55.3203 289.031 54.7891V54.543C289.031 54.0273 288.98 53.543 288.879 53.0898C288.785 52.6289 288.633 52.2227 288.422 51.8711C288.219 51.5117 287.949 51.2305 287.613 51.0273C287.277 50.8242 286.871 50.7227 286.395 50.7227C285.918 50.7227 285.512 50.8242 285.176 51.0273C284.848 51.2305 284.578 51.5117 284.367 51.8711C284.164 52.2227 284.016 52.6289 283.922 53.0898C283.828 53.543 283.781 54.0273 283.781 54.543ZM301.348 57.4961C301.348 57.2539 301.277 57.0352 301.137 56.8398C300.996 56.6445 300.734 56.4648 300.352 56.3008C299.977 56.1289 299.434 55.9727 298.723 55.832C298.082 55.6914 297.484 55.5156 296.93 55.3047C296.383 55.0859 295.906 54.8242 295.5 54.5195C295.102 54.2148 294.789 53.8555 294.562 53.4414C294.336 53.0195 294.223 52.5391 294.223 52C294.223 51.4688 294.336 50.9688 294.562 50.5C294.797 50.0312 295.129 49.6172 295.559 49.2578C295.996 48.8906 296.527 48.6055 297.152 48.4023C297.785 48.1914 298.496 48.0859 299.285 48.0859C300.387 48.0859 301.332 48.2617 302.121 48.6133C302.918 48.9648 303.527 49.4492 303.949 50.0664C304.379 50.6758 304.594 51.3711 304.594 52.1523H301.219C301.219 51.8242 301.148 51.5312 301.008 51.2734C300.875 51.0078 300.664 50.8008 300.375 50.6523C300.094 50.4961 299.727 50.418 299.273 50.418C298.898 50.418 298.574 50.4844 298.301 50.6172C298.027 50.7422 297.816 50.9141 297.668 51.1328C297.527 51.3438 297.457 51.5781 297.457 51.8359C297.457 52.0312 297.496 52.207 297.574 52.3633C297.66 52.5117 297.797 52.6484 297.984 52.7734C298.172 52.8984 298.414 53.0156 298.711 53.125C299.016 53.2266 299.391 53.3203 299.836 53.4062C300.75 53.5938 301.566 53.8398 302.285 54.1445C303.004 54.4414 303.574 54.8477 303.996 55.3633C304.418 55.8711 304.629 56.5391 304.629 57.3672C304.629 57.9297 304.504 58.4453 304.254 58.9141C304.004 59.3828 303.645 59.793 303.176 60.1445C302.707 60.4883 302.145 60.7578 301.488 60.9531C300.84 61.1406 300.109 61.2344 299.297 61.2344C298.117 61.2344 297.117 61.0234 296.297 60.6016C295.484 60.1797 294.867 59.6445 294.445 58.9961C294.031 58.3398 293.824 57.668 293.824 56.9805H297.023C297.039 57.4414 297.156 57.8125 297.375 58.0938C297.602 58.375 297.887 58.5781 298.23 58.7031C298.582 58.8281 298.961 58.8906 299.367 58.8906C299.805 58.8906 300.168 58.832 300.457 58.7148C300.746 58.5898 300.965 58.4258 301.113 58.2227C301.27 58.0117 301.348 57.7695 301.348 57.4961ZM312.656 61.2344C311.672 61.2344 310.789 61.0781 310.008 60.7656C309.227 60.4453 308.562 60.0039 308.016 59.4414C307.477 58.8789 307.062 58.2266 306.773 57.4844C306.484 56.7344 306.34 55.9375 306.34 55.0938V54.625C306.34 53.6641 306.477 52.7852 306.75 51.9883C307.023 51.1914 307.414 50.5 307.922 49.9141C308.438 49.3281 309.062 48.8789 309.797 48.5664C310.531 48.2461 311.359 48.0859 312.281 48.0859C313.18 48.0859 313.977 48.2344 314.672 48.5312C315.367 48.8281 315.949 49.25 316.418 49.7969C316.895 50.3438 317.254 51 317.496 51.7656C317.738 52.5234 317.859 53.3672 317.859 54.2969V55.7031H307.781V53.4531H314.543V53.1953C314.543 52.7266 314.457 52.3086 314.285 51.9414C314.121 51.5664 313.871 51.2695 313.535 51.0508C313.199 50.832 312.77 50.7227 312.246 50.7227C311.801 50.7227 311.418 50.8203 311.098 51.0156C310.777 51.2109 310.516 51.4844 310.312 51.8359C310.117 52.1875 309.969 52.6016 309.867 53.0781C309.773 53.5469 309.727 54.0625 309.727 54.625V55.0938C309.727 55.6016 309.797 56.0703 309.938 56.5C310.086 56.9297 310.293 57.3008 310.559 57.6133C310.832 57.9258 311.16 58.168 311.543 58.3398C311.934 58.5117 312.375 58.5977 312.867 58.5977C313.477 58.5977 314.043 58.4805 314.566 58.2461C315.098 58.0039 315.555 57.6406 315.938 57.1562L317.578 58.9375C317.312 59.3203 316.949 59.6875 316.488 60.0391C316.035 60.3906 315.488 60.6797 314.848 60.9062C314.207 61.125 313.477 61.2344 312.656 61.2344ZM331.207 61H327.492L327.516 58.2578H331.207C332.129 58.2578 332.906 58.0508 333.539 57.6367C334.172 57.2148 334.648 56.6016 334.969 55.7969C335.297 54.9922 335.461 54.0195 335.461 52.8789V52.0469C335.461 51.1719 335.367 50.4023 335.18 49.7383C335 49.0742 334.73 48.5156 334.371 48.0625C334.012 47.6094 333.57 47.2695 333.047 47.043C332.523 46.8086 331.922 46.6914 331.242 46.6914H327.422V43.9375H331.242C332.383 43.9375 333.426 44.1328 334.371 44.5234C335.324 44.9062 336.148 45.457 336.844 46.1758C337.539 46.8945 338.074 47.7539 338.449 48.7539C338.832 49.7461 339.023 50.8516 339.023 52.0703V52.8789C339.023 54.0898 338.832 55.1953 338.449 56.1953C338.074 57.1953 337.539 58.0547 336.844 58.7734C336.156 59.4844 335.332 60.0352 334.371 60.4258C333.418 60.8086 332.363 61 331.207 61ZM329.484 43.9375V61H325.969V43.9375H329.484ZM347.203 61.2344C346.219 61.2344 345.336 61.0781 344.555 60.7656C343.773 60.4453 343.109 60.0039 342.562 59.4414C342.023 58.8789 341.609 58.2266 341.32 57.4844C341.031 56.7344 340.887 55.9375 340.887 55.0938V54.625C340.887 53.6641 341.023 52.7852 341.297 51.9883C341.57 51.1914 341.961 50.5 342.469 49.9141C342.984 49.3281 343.609 48.8789 344.344 48.5664C345.078 48.2461 345.906 48.0859 346.828 48.0859C347.727 48.0859 348.523 48.2344 349.219 48.5312C349.914 48.8281 350.496 49.25 350.965 49.7969C351.441 50.3438 351.801 51 352.043 51.7656C352.285 52.5234 352.406 53.3672 352.406 54.2969V55.7031H342.328V53.4531H349.09V53.1953C349.09 52.7266 349.004 52.3086 348.832 51.9414C348.668 51.5664 348.418 51.2695 348.082 51.0508C347.746 50.832 347.316 50.7227 346.793 50.7227C346.348 50.7227 345.965 50.8203 345.645 51.0156C345.324 51.2109 345.062 51.4844 344.859 51.8359C344.664 52.1875 344.516 52.6016 344.414 53.0781C344.32 53.5469 344.273 54.0625 344.273 54.625V55.0938C344.273 55.6016 344.344 56.0703 344.484 56.5C344.633 56.9297 344.84 57.3008 345.105 57.6133C345.379 57.9258 345.707 58.168 346.09 58.3398C346.48 58.5117 346.922 58.5977 347.414 58.5977C348.023 58.5977 348.59 58.4805 349.113 58.2461C349.645 58.0039 350.102 57.6406 350.484 57.1562L352.125 58.9375C351.859 59.3203 351.496 59.6875 351.035 60.0391C350.582 60.3906 350.035 60.6797 349.395 60.9062C348.754 61.125 348.023 61.2344 347.203 61.2344ZM360.539 48.3203V50.7109H353.156V48.3203H360.539ZM354.984 45.1914H358.359V57.1797C358.359 57.5469 358.406 57.8281 358.5 58.0234C358.602 58.2188 358.75 58.3555 358.945 58.4336C359.141 58.5039 359.387 58.5391 359.684 58.5391C359.895 58.5391 360.082 58.5312 360.246 58.5156C360.418 58.4922 360.562 58.4688 360.68 58.4453L360.691 60.9297C360.402 61.0234 360.09 61.0977 359.754 61.1523C359.418 61.207 359.047 61.2344 358.641 61.2344C357.898 61.2344 357.25 61.1133 356.695 60.8711C356.148 60.6211 355.727 60.2227 355.43 59.6758C355.133 59.1289 354.984 58.4102 354.984 57.5195V45.1914ZM368.297 61.2344C367.312 61.2344 366.43 61.0781 365.648 60.7656C364.867 60.4453 364.203 60.0039 363.656 59.4414C363.117 58.8789 362.703 58.2266 362.414 57.4844C362.125 56.7344 361.98 55.9375 361.98 55.0938V54.625C361.98 53.6641 362.117 52.7852 362.391 51.9883C362.664 51.1914 363.055 50.5 363.562 49.9141C364.078 49.3281 364.703 48.8789 365.438 48.5664C366.172 48.2461 367 48.0859 367.922 48.0859C368.82 48.0859 369.617 48.2344 370.312 48.5312C371.008 48.8281 371.59 49.25 372.059 49.7969C372.535 50.3438 372.895 51 373.137 51.7656C373.379 52.5234 373.5 53.3672 373.5 54.2969V55.7031H363.422V53.4531H370.184V53.1953C370.184 52.7266 370.098 52.3086 369.926 51.9414C369.762 51.5664 369.512 51.2695 369.176 51.0508C368.84 50.832 368.41 50.7227 367.887 50.7227C367.441 50.7227 367.059 50.8203 366.738 51.0156C366.418 51.2109 366.156 51.4844 365.953 51.8359C365.758 52.1875 365.609 52.6016 365.508 53.0781C365.414 53.5469 365.367 54.0625 365.367 54.625V55.0938C365.367 55.6016 365.438 56.0703 365.578 56.5C365.727 56.9297 365.934 57.3008 366.199 57.6133C366.473 57.9258 366.801 58.168 367.184 58.3398C367.574 58.5117 368.016 58.5977 368.508 58.5977C369.117 58.5977 369.684 58.4805 370.207 58.2461C370.738 58.0039 371.195 57.6406 371.578 57.1562L373.219 58.9375C372.953 59.3203 372.59 59.6875 372.129 60.0391C371.676 60.3906 371.129 60.6797 370.488 60.9062C369.848 61.125 369.117 61.2344 368.297 61.2344ZM380.66 58.5977C381.074 58.5977 381.441 58.5195 381.762 58.3633C382.082 58.1992 382.332 57.9727 382.512 57.6836C382.699 57.3867 382.797 57.0391 382.805 56.6406H385.98C385.973 57.5312 385.734 58.3242 385.266 59.0195C384.797 59.707 384.168 60.25 383.379 60.6484C382.59 61.0391 381.707 61.2344 380.73 61.2344C379.746 61.2344 378.887 61.0703 378.152 60.7422C377.426 60.4141 376.82 59.9609 376.336 59.3828C375.852 58.7969 375.488 58.1172 375.246 57.3438C375.004 56.5625 374.883 55.7266 374.883 54.8359V54.4961C374.883 53.5977 375.004 52.7617 375.246 51.9883C375.488 51.207 375.852 50.5273 376.336 49.9492C376.82 49.3633 377.426 48.9062 378.152 48.5781C378.879 48.25 379.73 48.0859 380.707 48.0859C381.746 48.0859 382.656 48.2852 383.438 48.6836C384.227 49.082 384.844 49.6523 385.289 50.3945C385.742 51.1289 385.973 52 385.98 53.0078H382.805C382.797 52.5859 382.707 52.2031 382.535 51.8594C382.371 51.5156 382.129 51.2422 381.809 51.0391C381.496 50.8281 381.109 50.7227 380.648 50.7227C380.156 50.7227 379.754 50.8281 379.441 51.0391C379.129 51.2422 378.887 51.5234 378.715 51.8828C378.543 52.2344 378.422 52.6367 378.352 53.0898C378.289 53.5352 378.258 54.0039 378.258 54.4961V54.8359C378.258 55.3281 378.289 55.8008 378.352 56.2539C378.414 56.707 378.531 57.1094 378.703 57.4609C378.883 57.8125 379.129 58.0898 379.441 58.293C379.754 58.4961 380.16 58.5977 380.66 58.5977ZM394.148 48.3203V50.7109H386.766V48.3203H394.148ZM388.594 45.1914H391.969V57.1797C391.969 57.5469 392.016 57.8281 392.109 58.0234C392.211 58.2188 392.359 58.3555 392.555 58.4336C392.75 58.5039 392.996 58.5391 393.293 58.5391C393.504 58.5391 393.691 58.5312 393.855 58.5156C394.027 58.4922 394.172 58.4688 394.289 58.4453L394.301 60.9297C394.012 61.0234 393.699 61.0977 393.363 61.1523C393.027 61.207 392.656 61.2344 392.25 61.2344C391.508 61.2344 390.859 61.1133 390.305 60.8711C389.758 60.6211 389.336 60.2227 389.039 59.6758C388.742 59.1289 388.594 58.4102 388.594 57.5195V45.1914ZM395.227 54.7891V54.543C395.227 53.6133 395.359 52.7578 395.625 51.9766C395.891 51.1875 396.277 50.5039 396.785 49.9258C397.293 49.3477 397.918 48.8984 398.66 48.5781C399.402 48.25 400.254 48.0859 401.215 48.0859C402.176 48.0859 403.031 48.25 403.781 48.5781C404.531 48.8984 405.16 49.3477 405.668 49.9258C406.184 50.5039 406.574 51.1875 406.84 51.9766C407.105 52.7578 407.238 53.6133 407.238 54.543V54.7891C407.238 55.7109 407.105 56.5664 406.84 57.3555C406.574 58.1367 406.184 58.8203 405.668 59.4062C405.16 59.9844 404.535 60.4336 403.793 60.7539C403.051 61.0742 402.199 61.2344 401.238 61.2344C400.277 61.2344 399.422 61.0742 398.672 60.7539C397.93 60.4336 397.301 59.9844 396.785 59.4062C396.277 58.8203 395.891 58.1367 395.625 57.3555C395.359 56.5664 395.227 55.7109 395.227 54.7891ZM398.602 54.543V54.7891C398.602 55.3203 398.648 55.8164 398.742 56.2773C398.836 56.7383 398.984 57.1445 399.188 57.4961C399.398 57.8398 399.672 58.1094 400.008 58.3047C400.344 58.5 400.754 58.5977 401.238 58.5977C401.707 58.5977 402.109 58.5 402.445 58.3047C402.781 58.1094 403.051 57.8398 403.254 57.4961C403.457 57.1445 403.605 56.7383 403.699 56.2773C403.801 55.8164 403.852 55.3203 403.852 54.7891V54.543C403.852 54.0273 403.801 53.543 403.699 53.0898C403.605 52.6289 403.453 52.2227 403.242 51.8711C403.039 51.5117 402.77 51.2305 402.434 51.0273C402.098 50.8242 401.691 50.7227 401.215 50.7227C400.738 50.7227 400.332 50.8242 399.996 51.0273C399.668 51.2305 399.398 51.5117 399.188 51.8711C398.984 52.2227 398.836 52.6289 398.742 53.0898C398.648 53.543 398.602 54.0273 398.602 54.543ZM412.688 51.0859V61H409.312V48.3203H412.488L412.688 51.0859ZM416.508 48.2383L416.449 51.3672C416.285 51.3438 416.086 51.3242 415.852 51.3086C415.625 51.2852 415.418 51.2734 415.23 51.2734C414.754 51.2734 414.34 51.3359 413.988 51.4609C413.645 51.5781 413.355 51.7539 413.121 51.9883C412.895 52.2227 412.723 52.5078 412.605 52.8438C412.496 53.1797 412.434 53.5625 412.418 53.9922L411.738 53.7812C411.738 52.9609 411.82 52.207 411.984 51.5195C412.148 50.8242 412.387 50.2188 412.699 49.7031C413.02 49.1875 413.41 48.7891 413.871 48.5078C414.332 48.2266 414.859 48.0859 415.453 48.0859C415.641 48.0859 415.832 48.1016 416.027 48.1328C416.223 48.1562 416.383 48.1914 416.508 48.2383Z" fill="#888888"/>
<path d="M118.594 98.4219V104.75H101.086V98.4219H118.594ZM103.828 84.875V119H95.6016V84.875H103.828ZM124.125 84.875V119H115.922V84.875H124.125ZM127.992 106.578V106.086C127.992 104.227 128.258 102.516 128.789 100.953C129.32 99.375 130.102 98.0078 131.133 96.8516C132.164 95.6953 133.438 94.7969 134.953 94.1562C136.469 93.5 138.219 93.1719 140.203 93.1719C142.203 93.1719 143.961 93.5 145.477 94.1562C147.008 94.7969 148.289 95.6953 149.32 96.8516C150.352 98.0078 151.133 99.375 151.664 100.953C152.195 102.516 152.461 104.227 152.461 106.086V106.578C152.461 108.422 152.195 110.133 151.664 111.711C151.133 113.273 150.352 114.641 149.32 115.812C148.289 116.969 147.016 117.867 145.5 118.508C143.984 119.148 142.234 119.469 140.25 119.469C138.266 119.469 136.508 119.148 134.977 118.508C133.445 117.867 132.164 116.969 131.133 115.812C130.102 114.641 129.32 113.273 128.789 111.711C128.258 110.133 127.992 108.422 127.992 106.578ZM135.891 106.086V106.578C135.891 107.531 135.961 108.422 136.102 109.25C136.242 110.078 136.477 110.805 136.805 111.43C137.133 112.039 137.578 112.516 138.141 112.859C138.703 113.203 139.406 113.375 140.25 113.375C141.078 113.375 141.766 113.203 142.312 112.859C142.875 112.516 143.32 112.039 143.648 111.43C143.977 110.805 144.211 110.078 144.352 109.25C144.492 108.422 144.562 107.531 144.562 106.578V106.086C144.562 105.164 144.492 104.297 144.352 103.484C144.211 102.656 143.977 101.93 143.648 101.305C143.32 100.664 142.875 100.164 142.312 99.8047C141.75 99.4453 141.047 99.2656 140.203 99.2656C139.375 99.2656 138.68 99.4453 138.117 99.8047C137.57 100.164 137.133 100.664 136.805 101.305C136.477 101.93 136.242 102.656 136.102 103.484C135.961 104.297 135.891 105.164 135.891 106.086ZM163.688 111.453L168.375 93.6406H173.32L171.562 102.57L166.922 119H162.961L163.688 111.453ZM161.836 93.6406L164.742 111.312L165.07 119H160.266L154.266 93.6406H161.836ZM177.492 110.938L180.422 93.6406H187.992L182.039 119H177.234L177.492 110.938ZM173.883 93.6406L178.617 111.406L179.344 119H175.336L170.789 102.617L169.102 93.6406H173.883ZM218.297 84.875V119H210.07V84.875H218.297ZM228.562 84.875V91.2266H200.039V84.875H228.562ZM225.773 106.578V106.086C225.773 104.227 226.039 102.516 226.57 100.953C227.102 99.375 227.883 98.0078 228.914 96.8516C229.945 95.6953 231.219 94.7969 232.734 94.1562C234.25 93.5 236 93.1719 237.984 93.1719C239.984 93.1719 241.742 93.5 243.258 94.1562C244.789 94.7969 246.07 95.6953 247.102 96.8516C248.133 98.0078 248.914 99.375 249.445 100.953C249.977 102.516 250.242 104.227 250.242 106.086V106.578C250.242 108.422 249.977 110.133 249.445 111.711C248.914 113.273 248.133 114.641 247.102 115.812C246.07 116.969 244.797 117.867 243.281 118.508C241.766 119.148 240.016 119.469 238.031 119.469C236.047 119.469 234.289 119.148 232.758 118.508C231.227 117.867 229.945 116.969 228.914 115.812C227.883 114.641 227.102 113.273 226.57 111.711C226.039 110.133 225.773 108.422 225.773 106.578ZM233.672 106.086V106.578C233.672 107.531 233.742 108.422 233.883 109.25C234.023 110.078 234.258 110.805 234.586 111.43C234.914 112.039 235.359 112.516 235.922 112.859C236.484 113.203 237.188 113.375 238.031 113.375C238.859 113.375 239.547 113.203 240.094 112.859C240.656 112.516 241.102 112.039 241.43 111.43C241.758 110.805 241.992 110.078 242.133 109.25C242.273 108.422 242.344 107.531 242.344 106.578V106.086C242.344 105.164 242.273 104.297 242.133 103.484C241.992 102.656 241.758 101.93 241.43 101.305C241.102 100.664 240.656 100.164 240.094 99.8047C239.531 99.4453 238.828 99.2656 237.984 99.2656C237.156 99.2656 236.461 99.4453 235.898 99.8047C235.352 100.164 234.914 100.664 234.586 101.305C234.258 101.93 234.023 102.656 233.883 103.484C233.742 104.297 233.672 105.164 233.672 106.086ZM266.086 84.875H279.516C282.141 84.875 284.422 85.2656 286.359 86.0469C288.297 86.8281 289.789 87.9844 290.836 89.5156C291.898 91.0469 292.43 92.9375 292.43 95.1875C292.43 97.1406 292.125 98.7734 291.516 100.086C290.906 101.398 290.055 102.484 288.961 103.344C287.883 104.188 286.625 104.883 285.188 105.43L282.492 106.953H271.219L271.172 100.602H279.516C280.562 100.602 281.43 100.414 282.117 100.039C282.805 99.6641 283.32 99.1328 283.664 98.4453C284.023 97.7422 284.203 96.9062 284.203 95.9375C284.203 94.9531 284.023 94.1094 283.664 93.4062C283.305 92.7031 282.773 92.1641 282.07 91.7891C281.383 91.4141 280.531 91.2266 279.516 91.2266H274.312V119H266.086V84.875ZM284.766 119L277.219 103.906L285.938 103.859L293.578 118.648V119H284.766ZM311.836 112.836V93.6406H319.758V119H312.352L311.836 112.836ZM312.586 107.68L314.648 107.633C314.648 109.336 314.445 110.914 314.039 112.367C313.633 113.805 313.031 115.055 312.234 116.117C311.453 117.18 310.484 118.008 309.328 118.602C308.188 119.18 306.867 119.469 305.367 119.469C304.117 119.469 302.969 119.297 301.922 118.953C300.891 118.594 300 118.039 299.25 117.289C298.5 116.523 297.914 115.547 297.492 114.359C297.086 113.156 296.883 111.719 296.883 110.047V93.6406H304.781V110.094C304.781 110.656 304.852 111.141 304.992 111.547C305.133 111.953 305.336 112.297 305.602 112.578C305.867 112.844 306.195 113.047 306.586 113.188C306.992 113.312 307.453 113.375 307.969 113.375C309.156 113.375 310.086 113.125 310.758 112.625C311.43 112.125 311.898 111.445 312.164 110.586C312.445 109.727 312.586 108.758 312.586 107.68ZM331.875 99.0547V119H323.977V93.6406H331.383L331.875 99.0547ZM330.938 105.453L329.086 105.5C329.086 103.562 329.32 101.836 329.789 100.32C330.258 98.7891 330.922 97.4922 331.781 96.4297C332.641 95.3672 333.664 94.5625 334.852 94.0156C336.055 93.4531 337.391 93.1719 338.859 93.1719C340.031 93.1719 341.102 93.3438 342.07 93.6875C343.055 94.0312 343.898 94.5859 344.602 95.3516C345.32 96.1172 345.867 97.1328 346.242 98.3984C346.633 99.6484 346.828 101.195 346.828 103.039V119H338.883V103.016C338.883 102 338.742 101.227 338.461 100.695C338.18 100.148 337.773 99.7734 337.242 99.5703C336.711 99.3672 336.062 99.2656 335.297 99.2656C334.484 99.2656 333.797 99.4219 333.234 99.7344C332.672 100.047 332.219 100.484 331.875 101.047C331.547 101.594 331.305 102.242 331.148 102.992C331.008 103.742 330.938 104.562 330.938 105.453ZM363.773 108.195H357.047C357.047 106.82 357.141 105.609 357.328 104.562C357.531 103.5 357.875 102.547 358.359 101.703C358.844 100.859 359.5 100.078 360.328 99.3594C361.062 98.75 361.695 98.1641 362.227 97.6016C362.758 97.0391 363.164 96.4688 363.445 95.8906C363.727 95.3125 363.867 94.6953 363.867 94.0391C363.867 93.2266 363.75 92.5625 363.516 92.0469C363.297 91.5312 362.961 91.1484 362.508 90.8984C362.07 90.6328 361.516 90.5 360.844 90.5C360.297 90.5 359.781 90.6328 359.297 90.8984C358.828 91.1641 358.445 91.5781 358.148 92.1406C357.852 92.6875 357.688 93.4141 357.656 94.3203H349.711C349.758 91.9922 350.273 90.1016 351.258 88.6484C352.258 87.1797 353.586 86.1094 355.242 85.4375C356.914 84.75 358.781 84.4062 360.844 84.4062C363.125 84.4062 365.086 84.7578 366.727 85.4609C368.367 86.1641 369.625 87.2109 370.5 88.6016C371.375 89.9766 371.812 91.6719 371.812 93.6875C371.812 95.0312 371.555 96.2031 371.039 97.2031C370.539 98.1875 369.859 99.1094 369 99.9688C368.156 100.812 367.211 101.719 366.164 102.688C365.258 103.484 364.641 104.297 364.312 105.125C363.984 105.938 363.805 106.961 363.773 108.195ZM356.086 115.32C356.086 114.195 356.492 113.258 357.305 112.508C358.117 111.742 359.172 111.359 360.469 111.359C361.766 111.359 362.82 111.742 363.633 112.508C364.445 113.258 364.852 114.195 364.852 115.32C364.852 116.445 364.445 117.391 363.633 118.156C362.82 118.906 361.766 119.281 360.469 119.281C359.172 119.281 358.117 118.906 357.305 118.156C356.492 117.391 356.086 116.445 356.086 115.32Z" fill="black"/>
<path d="M1134 0H1348C1356.28 0 1363 6.71573 1363 15V148C1363 156.284 1356.28 163 1348 163H1134V0Z" fill="#F7713D"/>
<path d="M1260.62 78.8847C1263.81 78.8847 1266.93 79.805 1269.59 81.5293C1272.25 83.2536 1274.32 85.7044 1275.54 88.5718C1276.76 91.4391 1277.08 94.5943 1276.46 97.6383C1275.84 100.682 1274.3 103.478 1272.04 105.673C1269.78 107.868 1266.9 109.362 1263.77 109.968C1260.63 110.573 1257.39 110.262 1254.43 109.075C1251.48 107.887 1248.96 105.876 1247.18 103.295C1245.41 100.714 1244.46 97.6806 1244.46 94.5769C1244.46 90.4151 1246.16 86.4237 1249.19 83.4808C1252.22 80.538 1256.33 78.8847 1260.62 78.8847ZM1260.62 73.6539C1256.36 73.6539 1252.19 74.881 1248.65 77.1801C1245.11 79.4791 1242.35 82.7469 1240.72 86.57C1239.09 90.3932 1238.66 94.6001 1239.49 98.6588C1240.32 102.717 1242.37 106.446 1245.39 109.372C1248.4 112.298 1252.24 114.291 1256.41 115.098C1260.59 115.905 1264.92 115.491 1268.86 113.907C1272.79 112.324 1276.16 109.642 1278.52 106.201C1280.89 102.76 1282.15 98.7151 1282.15 94.5769C1282.15 89.0278 1279.88 83.706 1275.85 79.7821C1271.81 75.8583 1266.33 73.6539 1260.62 73.6539Z" fill="white"/>
<path d="M1274.08 47.5H1220.23C1218.8 47.5 1217.43 48.0511 1216.42 49.0321C1215.41 50.013 1214.85 51.3435 1214.85 52.7307V105.038C1214.85 106.426 1215.41 107.756 1216.42 108.737C1217.43 109.718 1218.8 110.269 1220.23 110.269H1231V105.038H1220.23V68.423H1279.46V52.7307C1279.46 51.3435 1278.89 50.013 1277.88 49.0321C1276.87 48.0511 1275.5 47.5 1274.08 47.5ZM1220.23 63.1922V52.7307H1274.08V63.1922H1220.23Z" fill="white"/>
<path d="M1255.23 86.731V102.423L1268.69 94.5771L1255.23 86.731Z" fill="white"/>
</svg>
