<svg width="1363" height="163" viewBox="0 0 1363 163" fill="none" xmlns="http://www.w3.org/2000/svg">
<path d="M0 15C0 6.71573 6.71573 0 15 0H37V163H15C6.71573 163 0 156.284 0 148V15Z" fill="#F7713D"/>
<rect width="1097" height="163" transform="translate(37)" fill="#F0F0F0"/>
<path d="M101.906 53.9219L94.3945 51.2383V48.0859L104.602 52.375V54.6367L101.906 53.9219ZM94.3945 56.1719L101.918 53.4297L104.602 52.7852V55.0352L94.3945 59.3242V56.1719ZM119.578 53.5117H115.195L115.172 51.0977H118.852C119.5 51.0977 120.031 51.0156 120.445 50.8516C120.859 50.6797 121.168 50.4336 121.371 50.1133C121.582 49.7852 121.688 49.3867 121.688 48.918C121.688 48.3867 121.586 47.957 121.383 47.6289C121.188 47.3008 120.879 47.0625 120.457 46.9141C120.043 46.7656 119.508 46.6914 118.852 46.6914H116.414V61H112.898V43.9375H118.852C119.844 43.9375 120.73 44.0312 121.512 44.2188C122.301 44.4062 122.969 44.6914 123.516 45.0742C124.062 45.457 124.48 45.9414 124.77 46.5273C125.059 47.1055 125.203 47.793 125.203 48.5898C125.203 49.293 125.043 49.9414 124.723 50.5352C124.41 51.1289 123.914 51.6133 123.234 51.9883C122.562 52.3633 121.684 52.5703 120.598 52.6094L119.578 53.5117ZM119.426 61H114.234L115.605 58.2578H119.426C120.043 58.2578 120.547 58.1602 120.938 57.9648C121.328 57.7617 121.617 57.4883 121.805 57.1445C121.992 56.8008 122.086 56.4062 122.086 55.9609C122.086 55.4609 122 55.0273 121.828 54.6602C121.664 54.293 121.398 54.0117 121.031 53.8164C120.664 53.6133 120.18 53.5117 119.578 53.5117H116.191L116.215 51.0977H120.434L121.242 52.0469C122.281 52.0312 123.117 52.2148 123.75 52.5977C124.391 52.9727 124.855 53.4609 125.145 54.0625C125.441 54.6641 125.59 55.3086 125.59 55.9961C125.59 57.0898 125.352 58.0117 124.875 58.7617C124.398 59.5039 123.699 60.0625 122.777 60.4375C121.863 60.8125 120.746 61 119.426 61ZM134.859 58.1406V52.4922C134.859 52.0859 134.793 51.7383 134.66 51.4492C134.527 51.1523 134.32 50.9219 134.039 50.7578C133.766 50.5938 133.41 50.5117 132.973 50.5117C132.598 50.5117 132.273 50.5781 132 50.7109C131.727 50.8359 131.516 51.0195 131.367 51.2617C131.219 51.4961 131.145 51.7734 131.145 52.0938H127.77C127.77 51.5547 127.895 51.043 128.145 50.5586C128.395 50.0742 128.758 49.6484 129.234 49.2812C129.711 48.9062 130.277 48.6133 130.934 48.4023C131.598 48.1914 132.34 48.0859 133.16 48.0859C134.145 48.0859 135.02 48.25 135.785 48.5781C136.551 48.9062 137.152 49.3984 137.59 50.0547C138.035 50.7109 138.258 51.5312 138.258 52.5156V57.9414C138.258 58.6367 138.301 59.207 138.387 59.6523C138.473 60.0898 138.598 60.4727 138.762 60.8008V61H135.352C135.188 60.6562 135.062 60.2266 134.977 59.7109C134.898 59.1875 134.859 58.6641 134.859 58.1406ZM135.305 53.2773L135.328 55.1875H133.441C132.996 55.1875 132.609 55.2383 132.281 55.3398C131.953 55.4414 131.684 55.5859 131.473 55.7734C131.262 55.9531 131.105 56.1641 131.004 56.4062C130.91 56.6484 130.863 56.9141 130.863 57.2031C130.863 57.4922 130.93 57.7539 131.062 57.9883C131.195 58.2148 131.387 58.3945 131.637 58.5273C131.887 58.6523 132.18 58.7148 132.516 58.7148C133.023 58.7148 133.465 58.6133 133.84 58.4102C134.215 58.207 134.504 57.957 134.707 57.6602C134.918 57.3633 135.027 57.082 135.035 56.8164L135.926 58.2461C135.801 58.5664 135.629 58.8984 135.41 59.2422C135.199 59.5859 134.93 59.9102 134.602 60.2148C134.273 60.5117 133.879 60.7578 133.418 60.9531C132.957 61.1406 132.41 61.2344 131.777 61.2344C130.973 61.2344 130.242 61.0742 129.586 60.7539C128.938 60.4258 128.422 59.9766 128.039 59.4062C127.664 58.8281 127.477 58.1719 127.477 57.4375C127.477 56.7734 127.602 56.1836 127.852 55.668C128.102 55.1523 128.469 54.7188 128.953 54.3672C129.445 54.0078 130.059 53.7383 130.793 53.5586C131.527 53.3711 132.379 53.2773 133.348 53.2773H135.305ZM147.07 48.3203V50.7109H139.688V48.3203H147.07ZM141.516 45.1914H144.891V57.1797C144.891 57.5469 144.938 57.8281 145.031 58.0234C145.133 58.2188 145.281 58.3555 145.477 58.4336C145.672 58.5039 145.918 58.5391 146.215 58.5391C146.426 58.5391 146.613 58.5312 146.777 58.5156C146.949 58.4922 147.094 58.4688 147.211 58.4453L147.223 60.9297C146.934 61.0234 146.621 61.0977 146.285 61.1523C145.949 61.207 145.578 61.2344 145.172 61.2344C144.43 61.2344 143.781 61.1133 143.227 60.8711C142.68 60.6211 142.258 60.2227 141.961 59.6758C141.664 59.1289 141.516 58.4102 141.516 57.5195V45.1914ZM155.836 58.1406V52.4922C155.836 52.0859 155.77 51.7383 155.637 51.4492C155.504 51.1523 155.297 50.9219 155.016 50.7578C154.742 50.5938 154.387 50.5117 153.949 50.5117C153.574 50.5117 153.25 50.5781 152.977 50.7109C152.703 50.8359 152.492 51.0195 152.344 51.2617C152.195 51.4961 152.121 51.7734 152.121 52.0938H148.746C148.746 51.5547 148.871 51.043 149.121 50.5586C149.371 50.0742 149.734 49.6484 150.211 49.2812C150.688 48.9062 151.254 48.6133 151.91 48.4023C152.574 48.1914 153.316 48.0859 154.137 48.0859C155.121 48.0859 155.996 48.25 156.762 48.5781C157.527 48.9062 158.129 49.3984 158.566 50.0547C159.012 50.7109 159.234 51.5312 159.234 52.5156V57.9414C159.234 58.6367 159.277 59.207 159.363 59.6523C159.449 60.0898 159.574 60.4727 159.738 60.8008V61H156.328C156.164 60.6562 156.039 60.2266 155.953 59.7109C155.875 59.1875 155.836 58.6641 155.836 58.1406ZM156.281 53.2773L156.305 55.1875H154.418C153.973 55.1875 153.586 55.2383 153.258 55.3398C152.93 55.4414 152.66 55.5859 152.449 55.7734C152.238 55.9531 152.082 56.1641 151.98 56.4062C151.887 56.6484 151.84 56.9141 151.84 57.2031C151.84 57.4922 151.906 57.7539 152.039 57.9883C152.172 58.2148 152.363 58.3945 152.613 58.5273C152.863 58.6523 153.156 58.7148 153.492 58.7148C154 58.7148 154.441 58.6133 154.816 58.4102C155.191 58.207 155.48 57.957 155.684 57.6602C155.895 57.3633 156.004 57.082 156.012 56.8164L156.902 58.2461C156.777 58.5664 156.605 58.8984 156.387 59.2422C156.176 59.5859 155.906 59.9102 155.578 60.2148C155.25 60.5117 154.855 60.7578 154.395 60.9531C153.934 61.1406 153.387 61.2344 152.754 61.2344C151.949 61.2344 151.219 61.0742 150.562 60.7539C149.914 60.4258 149.398 59.9766 149.016 59.4062C148.641 58.8281 148.453 58.1719 148.453 57.4375C148.453 56.7734 148.578 56.1836 148.828 55.668C149.078 55.1523 149.445 54.7188 149.93 54.3672C150.422 54.0078 151.035 53.7383 151.77 53.5586C152.504 53.3711 153.355 53.2773 154.324 53.2773H156.281ZM165.398 43V61H162.012V43H165.398ZM168.316 59.3711C168.316 58.8711 168.488 58.4531 168.832 58.1172C169.184 57.7812 169.648 57.6133 170.227 57.6133C170.805 57.6133 171.266 57.7812 171.609 58.1172C171.961 58.4531 172.137 58.8711 172.137 59.3711C172.137 59.8711 171.961 60.2891 171.609 60.625C171.266 60.9609 170.805 61.1289 170.227 61.1289C169.648 61.1289 169.184 60.9609 168.832 60.625C168.488 60.2891 168.316 59.8711 168.316 59.3711ZM168.316 49.7031C168.316 49.2031 168.488 48.7852 168.832 48.4492C169.184 48.1133 169.648 47.9453 170.227 47.9453C170.805 47.9453 171.266 48.1133 171.609 48.4492C171.961 48.7852 172.137 49.2031 172.137 49.7031C172.137 50.2031 171.961 50.6211 171.609 50.957C171.266 51.293 170.805 51.4609 170.227 51.4609C169.648 51.4609 169.184 51.293 168.832 50.957C168.488 50.6211 168.316 50.2031 168.316 49.7031ZM184.664 43.9375V61H181.148V43.9375H184.664ZM191.461 51.2266V53.9688H183.703V51.2266H191.461ZM192.281 43.9375V46.6914H183.703V43.9375H192.281ZM197.672 48.3203V61H194.285V48.3203H197.672ZM194.074 45.0156C194.074 44.5234 194.246 44.1172 194.59 43.7969C194.934 43.4766 195.395 43.3164 195.973 43.3164C196.543 43.3164 197 43.4766 197.344 43.7969C197.695 44.1172 197.871 44.5234 197.871 45.0156C197.871 45.5078 197.695 45.9141 197.344 46.2344C197 46.5547 196.543 46.7148 195.973 46.7148C195.395 46.7148 194.934 46.5547 194.59 46.2344C194.246 45.9141 194.074 45.5078 194.074 45.0156ZM206.672 48.3203V50.7109H199.289V48.3203H206.672ZM201.117 45.1914H204.492V57.1797C204.492 57.5469 204.539 57.8281 204.633 58.0234C204.734 58.2188 204.883 58.3555 205.078 58.4336C205.273 58.5039 205.52 58.5391 205.816 58.5391C206.027 58.5391 206.215 58.5312 206.379 58.5156C206.551 58.4922 206.695 58.4688 206.812 58.4453L206.824 60.9297C206.535 61.0234 206.223 61.0977 205.887 61.1523C205.551 61.207 205.18 61.2344 204.773 61.2344C204.031 61.2344 203.383 61.1133 202.828 60.8711C202.281 60.6211 201.859 60.2227 201.562 59.6758C201.266 59.1289 201.117 58.4102 201.117 57.5195V45.1914ZM211.898 51.0273V61H208.523V48.3203H211.688L211.898 51.0273ZM211.406 54.2148H210.492C210.492 53.2773 210.613 52.4336 210.855 51.6836C211.098 50.9258 211.438 50.2812 211.875 49.75C212.312 49.2109 212.832 48.8008 213.434 48.5195C214.043 48.2305 214.723 48.0859 215.473 48.0859C216.066 48.0859 216.609 48.1719 217.102 48.3438C217.594 48.5156 218.016 48.7891 218.367 49.1641C218.727 49.5391 219 50.0352 219.188 50.6523C219.383 51.2695 219.48 52.0234 219.48 52.9141V61H216.082V52.9023C216.082 52.3398 216.004 51.9023 215.848 51.5898C215.691 51.2773 215.461 51.0586 215.156 50.9336C214.859 50.8008 214.492 50.7344 214.055 50.7344C213.602 50.7344 213.207 50.8242 212.871 51.0039C212.543 51.1836 212.27 51.4336 212.051 51.7539C211.84 52.0664 211.68 52.4336 211.57 52.8555C211.461 53.2773 211.406 53.7305 211.406 54.2148ZM227.883 61.2344C226.898 61.2344 226.016 61.0781 225.234 60.7656C224.453 60.4453 223.789 60.0039 223.242 59.4414C222.703 58.8789 222.289 58.2266 222 57.4844C221.711 56.7344 221.566 55.9375 221.566 55.0938V54.625C221.566 53.6641 221.703 52.7852 221.977 51.9883C222.25 51.1914 222.641 50.5 223.148 49.9141C223.664 49.3281 224.289 48.8789 225.023 48.5664C225.758 48.2461 226.586 48.0859 227.508 48.0859C228.406 48.0859 229.203 48.2344 229.898 48.5312C230.594 48.8281 231.176 49.25 231.645 49.7969C232.121 50.3438 232.48 51 232.723 51.7656C232.965 52.5234 233.086 53.3672 233.086 54.2969V55.7031H223.008V53.4531H229.77V53.1953C229.77 52.7266 229.684 52.3086 229.512 51.9414C229.348 51.5664 229.098 51.2695 228.762 51.0508C228.426 50.832 227.996 50.7227 227.473 50.7227C227.027 50.7227 226.645 50.8203 226.324 51.0156C226.004 51.2109 225.742 51.4844 225.539 51.8359C225.344 52.1875 225.195 52.6016 225.094 53.0781C225 53.5469 224.953 54.0625 224.953 54.625V55.0938C224.953 55.6016 225.023 56.0703 225.164 56.5C225.312 56.9297 225.52 57.3008 225.785 57.6133C226.059 57.9258 226.387 58.168 226.77 58.3398C227.16 58.5117 227.602 58.5977 228.094 58.5977C228.703 58.5977 229.27 58.4805 229.793 58.2461C230.324 58.0039 230.781 57.6406 231.164 57.1562L232.805 58.9375C232.539 59.3203 232.176 59.6875 231.715 60.0391C231.262 60.3906 230.715 60.6797 230.074 60.9062C229.434 61.125 228.703 61.2344 227.883 61.2344ZM241.863 57.4961C241.863 57.2539 241.793 57.0352 241.652 56.8398C241.512 56.6445 241.25 56.4648 240.867 56.3008C240.492 56.1289 239.949 55.9727 239.238 55.832C238.598 55.6914 238 55.5156 237.445 55.3047C236.898 55.0859 236.422 54.8242 236.016 54.5195C235.617 54.2148 235.305 53.8555 235.078 53.4414C234.852 53.0195 234.738 52.5391 234.738 52C234.738 51.4688 234.852 50.9688 235.078 50.5C235.312 50.0312 235.645 49.6172 236.074 49.2578C236.512 48.8906 237.043 48.6055 237.668 48.4023C238.301 48.1914 239.012 48.0859 239.801 48.0859C240.902 48.0859 241.848 48.2617 242.637 48.6133C243.434 48.9648 244.043 49.4492 244.465 50.0664C244.895 50.6758 245.109 51.3711 245.109 52.1523H241.734C241.734 51.8242 241.664 51.5312 241.523 51.2734C241.391 51.0078 241.18 50.8008 240.891 50.6523C240.609 50.4961 240.242 50.418 239.789 50.418C239.414 50.418 239.09 50.4844 238.816 50.6172C238.543 50.7422 238.332 50.9141 238.184 51.1328C238.043 51.3438 237.973 51.5781 237.973 51.8359C237.973 52.0312 238.012 52.207 238.09 52.3633C238.176 52.5117 238.312 52.6484 238.5 52.7734C238.688 52.8984 238.93 53.0156 239.227 53.125C239.531 53.2266 239.906 53.3203 240.352 53.4062C241.266 53.5938 242.082 53.8398 242.801 54.1445C243.52 54.4414 244.09 54.8477 244.512 55.3633C244.934 55.8711 245.145 56.5391 245.145 57.3672C245.145 57.9297 245.02 58.4453 244.77 58.9141C244.52 59.3828 244.16 59.793 243.691 60.1445C243.223 60.4883 242.66 60.7578 242.004 60.9531C241.355 61.1406 240.625 61.2344 239.812 61.2344C238.633 61.2344 237.633 61.0234 236.812 60.6016C236 60.1797 235.383 59.6445 234.961 58.9961C234.547 58.3398 234.34 57.668 234.34 56.9805H237.539C237.555 57.4414 237.672 57.8125 237.891 58.0938C238.117 58.375 238.402 58.5781 238.746 58.7031C239.098 58.8281 239.477 58.8906 239.883 58.8906C240.32 58.8906 240.684 58.832 240.973 58.7148C241.262 58.5898 241.48 58.4258 241.629 58.2227C241.785 58.0117 241.863 57.7695 241.863 57.4961ZM254.191 57.4961C254.191 57.2539 254.121 57.0352 253.98 56.8398C253.84 56.6445 253.578 56.4648 253.195 56.3008C252.82 56.1289 252.277 55.9727 251.566 55.832C250.926 55.6914 250.328 55.5156 249.773 55.3047C249.227 55.0859 248.75 54.8242 248.344 54.5195C247.945 54.2148 247.633 53.8555 247.406 53.4414C247.18 53.0195 247.066 52.5391 247.066 52C247.066 51.4688 247.18 50.9688 247.406 50.5C247.641 50.0312 247.973 49.6172 248.402 49.2578C248.84 48.8906 249.371 48.6055 249.996 48.4023C250.629 48.1914 251.34 48.0859 252.129 48.0859C253.23 48.0859 254.176 48.2617 254.965 48.6133C255.762 48.9648 256.371 49.4492 256.793 50.0664C257.223 50.6758 257.438 51.3711 257.438 52.1523H254.062C254.062 51.8242 253.992 51.5312 253.852 51.2734C253.719 51.0078 253.508 50.8008 253.219 50.6523C252.938 50.4961 252.57 50.418 252.117 50.418C251.742 50.418 251.418 50.4844 251.145 50.6172C250.871 50.7422 250.66 50.9141 250.512 51.1328C250.371 51.3438 250.301 51.5781 250.301 51.8359C250.301 52.0312 250.34 52.207 250.418 52.3633C250.504 52.5117 250.641 52.6484 250.828 52.7734C251.016 52.8984 251.258 53.0156 251.555 53.125C251.859 53.2266 252.234 53.3203 252.68 53.4062C253.594 53.5938 254.41 53.8398 255.129 54.1445C255.848 54.4414 256.418 54.8477 256.84 55.3633C257.262 55.8711 257.473 56.5391 257.473 57.3672C257.473 57.9297 257.348 58.4453 257.098 58.9141C256.848 59.3828 256.488 59.793 256.02 60.1445C255.551 60.4883 254.988 60.7578 254.332 60.9531C253.684 61.1406 252.953 61.2344 252.141 61.2344C250.961 61.2344 249.961 61.0234 249.141 60.6016C248.328 60.1797 247.711 59.6445 247.289 58.9961C246.875 58.3398 246.668 57.668 246.668 56.9805H249.867C249.883 57.4414 250 57.8125 250.219 58.0938C250.445 58.375 250.73 58.5781 251.074 58.7031C251.426 58.8281 251.805 58.8906 252.211 58.8906C252.648 58.8906 253.012 58.832 253.301 58.7148C253.59 58.5898 253.809 58.4258 253.957 58.2227C254.113 58.0117 254.191 57.7695 254.191 57.4961ZM272.496 54.918H268.148V52.1758H272.496C273.168 52.1758 273.715 52.0664 274.137 51.8477C274.559 51.6211 274.867 51.3086 275.062 50.9102C275.258 50.5117 275.355 50.0625 275.355 49.5625C275.355 49.0547 275.258 48.582 275.062 48.1445C274.867 47.707 274.559 47.3555 274.137 47.0898C273.715 46.8242 273.168 46.6914 272.496 46.6914H269.367V61H265.852V43.9375H272.496C273.832 43.9375 274.977 44.1797 275.93 44.6641C276.891 45.1406 277.625 45.8008 278.133 46.6445C278.641 47.4883 278.895 48.4531 278.895 49.5391C278.895 50.6406 278.641 51.5938 278.133 52.3984C277.625 53.2031 276.891 53.8242 275.93 54.2617C274.977 54.6992 273.832 54.918 272.496 54.918ZM280.406 54.7891V54.543C280.406 53.6133 280.539 52.7578 280.805 51.9766C281.07 51.1875 281.457 50.5039 281.965 49.9258C282.473 49.3477 283.098 48.8984 283.84 48.5781C284.582 48.25 285.434 48.0859 286.395 48.0859C287.355 48.0859 288.211 48.25 288.961 48.5781C289.711 48.8984 290.34 49.3477 290.848 49.9258C291.363 50.5039 291.754 51.1875 292.02 51.9766C292.285 52.7578 292.418 53.6133 292.418 54.543V54.7891C292.418 55.7109 292.285 56.5664 292.02 57.3555C291.754 58.1367 291.363 58.8203 290.848 59.4062C290.34 59.9844 289.715 60.4336 288.973 60.7539C288.23 61.0742 287.379 61.2344 286.418 61.2344C285.457 61.2344 284.602 61.0742 283.852 60.7539C283.109 60.4336 282.48 59.9844 281.965 59.4062C281.457 58.8203 281.07 58.1367 280.805 57.3555C280.539 56.5664 280.406 55.7109 280.406 54.7891ZM283.781 54.543V54.7891C283.781 55.3203 283.828 55.8164 283.922 56.2773C284.016 56.7383 284.164 57.1445 284.367 57.4961C284.578 57.8398 284.852 58.1094 285.188 58.3047C285.523 58.5 285.934 58.5977 286.418 58.5977C286.887 58.5977 287.289 58.5 287.625 58.3047C287.961 58.1094 288.23 57.8398 288.434 57.4961C288.637 57.1445 288.785 56.7383 288.879 56.2773C288.98 55.8164 289.031 55.3203 289.031 54.7891V54.543C289.031 54.0273 288.98 53.543 288.879 53.0898C288.785 52.6289 288.633 52.2227 288.422 51.8711C288.219 51.5117 287.949 51.2305 287.613 51.0273C287.277 50.8242 286.871 50.7227 286.395 50.7227C285.918 50.7227 285.512 50.8242 285.176 51.0273C284.848 51.2305 284.578 51.5117 284.367 51.8711C284.164 52.2227 284.016 52.6289 283.922 53.0898C283.828 53.543 283.781 54.0273 283.781 54.543ZM301.348 57.4961C301.348 57.2539 301.277 57.0352 301.137 56.8398C300.996 56.6445 300.734 56.4648 300.352 56.3008C299.977 56.1289 299.434 55.9727 298.723 55.832C298.082 55.6914 297.484 55.5156 296.93 55.3047C296.383 55.0859 295.906 54.8242 295.5 54.5195C295.102 54.2148 294.789 53.8555 294.562 53.4414C294.336 53.0195 294.223 52.5391 294.223 52C294.223 51.4688 294.336 50.9688 294.562 50.5C294.797 50.0312 295.129 49.6172 295.559 49.2578C295.996 48.8906 296.527 48.6055 297.152 48.4023C297.785 48.1914 298.496 48.0859 299.285 48.0859C300.387 48.0859 301.332 48.2617 302.121 48.6133C302.918 48.9648 303.527 49.4492 303.949 50.0664C304.379 50.6758 304.594 51.3711 304.594 52.1523H301.219C301.219 51.8242 301.148 51.5312 301.008 51.2734C300.875 51.0078 300.664 50.8008 300.375 50.6523C300.094 50.4961 299.727 50.418 299.273 50.418C298.898 50.418 298.574 50.4844 298.301 50.6172C298.027 50.7422 297.816 50.9141 297.668 51.1328C297.527 51.3438 297.457 51.5781 297.457 51.8359C297.457 52.0312 297.496 52.207 297.574 52.3633C297.66 52.5117 297.797 52.6484 297.984 52.7734C298.172 52.8984 298.414 53.0156 298.711 53.125C299.016 53.2266 299.391 53.3203 299.836 53.4062C300.75 53.5938 301.566 53.8398 302.285 54.1445C303.004 54.4414 303.574 54.8477 303.996 55.3633C304.418 55.8711 304.629 56.5391 304.629 57.3672C304.629 57.9297 304.504 58.4453 304.254 58.9141C304.004 59.3828 303.645 59.793 303.176 60.1445C302.707 60.4883 302.145 60.7578 301.488 60.9531C300.84 61.1406 300.109 61.2344 299.297 61.2344C298.117 61.2344 297.117 61.0234 296.297 60.6016C295.484 60.1797 294.867 59.6445 294.445 58.9961C294.031 58.3398 293.824 57.668 293.824 56.9805H297.023C297.039 57.4414 297.156 57.8125 297.375 58.0938C297.602 58.375 297.887 58.5781 298.23 58.7031C298.582 58.8281 298.961 58.8906 299.367 58.8906C299.805 58.8906 300.168 58.832 300.457 58.7148C300.746 58.5898 300.965 58.4258 301.113 58.2227C301.27 58.0117 301.348 57.7695 301.348 57.4961ZM312.656 61.2344C311.672 61.2344 310.789 61.0781 310.008 60.7656C309.227 60.4453 308.562 60.0039 308.016 59.4414C307.477 58.8789 307.062 58.2266 306.773 57.4844C306.484 56.7344 306.34 55.9375 306.34 55.0938V54.625C306.34 53.6641 306.477 52.7852 306.75 51.9883C307.023 51.1914 307.414 50.5 307.922 49.9141C308.438 49.3281 309.062 48.8789 309.797 48.5664C310.531 48.2461 311.359 48.0859 312.281 48.0859C313.18 48.0859 313.977 48.2344 314.672 48.5312C315.367 48.8281 315.949 49.25 316.418 49.7969C316.895 50.3438 317.254 51 317.496 51.7656C317.738 52.5234 317.859 53.3672 317.859 54.2969V55.7031H307.781V53.4531H314.543V53.1953C314.543 52.7266 314.457 52.3086 314.285 51.9414C314.121 51.5664 313.871 51.2695 313.535 51.0508C313.199 50.832 312.77 50.7227 312.246 50.7227C311.801 50.7227 311.418 50.8203 311.098 51.0156C310.777 51.2109 310.516 51.4844 310.312 51.8359C310.117 52.1875 309.969 52.6016 309.867 53.0781C309.773 53.5469 309.727 54.0625 309.727 54.625V55.0938C309.727 55.6016 309.797 56.0703 309.938 56.5C310.086 56.9297 310.293 57.3008 310.559 57.6133C310.832 57.9258 311.16 58.168 311.543 58.3398C311.934 58.5117 312.375 58.5977 312.867 58.5977C313.477 58.5977 314.043 58.4805 314.566 58.2461C315.098 58.0039 315.555 57.6406 315.938 57.1562L317.578 58.9375C317.312 59.3203 316.949 59.6875 316.488 60.0391C316.035 60.3906 315.488 60.6797 314.848 60.9062C314.207 61.125 313.477 61.2344 312.656 61.2344ZM331.207 61H327.492L327.516 58.2578H331.207C332.129 58.2578 332.906 58.0508 333.539 57.6367C334.172 57.2148 334.648 56.6016 334.969 55.7969C335.297 54.9922 335.461 54.0195 335.461 52.8789V52.0469C335.461 51.1719 335.367 50.4023 335.18 49.7383C335 49.0742 334.73 48.5156 334.371 48.0625C334.012 47.6094 333.57 47.2695 333.047 47.043C332.523 46.8086 331.922 46.6914 331.242 46.6914H327.422V43.9375H331.242C332.383 43.9375 333.426 44.1328 334.371 44.5234C335.324 44.9062 336.148 45.457 336.844 46.1758C337.539 46.8945 338.074 47.7539 338.449 48.7539C338.832 49.7461 339.023 50.8516 339.023 52.0703V52.8789C339.023 54.0898 338.832 55.1953 338.449 56.1953C338.074 57.1953 337.539 58.0547 336.844 58.7734C336.156 59.4844 335.332 60.0352 334.371 60.4258C333.418 60.8086 332.363 61 331.207 61ZM329.484 43.9375V61H325.969V43.9375H329.484ZM347.203 61.2344C346.219 61.2344 345.336 61.0781 344.555 60.7656C343.773 60.4453 343.109 60.0039 342.562 59.4414C342.023 58.8789 341.609 58.2266 341.32 57.4844C341.031 56.7344 340.887 55.9375 340.887 55.0938V54.625C340.887 53.6641 341.023 52.7852 341.297 51.9883C341.57 51.1914 341.961 50.5 342.469 49.9141C342.984 49.3281 343.609 48.8789 344.344 48.5664C345.078 48.2461 345.906 48.0859 346.828 48.0859C347.727 48.0859 348.523 48.2344 349.219 48.5312C349.914 48.8281 350.496 49.25 350.965 49.7969C351.441 50.3438 351.801 51 352.043 51.7656C352.285 52.5234 352.406 53.3672 352.406 54.2969V55.7031H342.328V53.4531H349.09V53.1953C349.09 52.7266 349.004 52.3086 348.832 51.9414C348.668 51.5664 348.418 51.2695 348.082 51.0508C347.746 50.832 347.316 50.7227 346.793 50.7227C346.348 50.7227 345.965 50.8203 345.645 51.0156C345.324 51.2109 345.062 51.4844 344.859 51.8359C344.664 52.1875 344.516 52.6016 344.414 53.0781C344.32 53.5469 344.273 54.0625 344.273 54.625V55.0938C344.273 55.6016 344.344 56.0703 344.484 56.5C344.633 56.9297 344.84 57.3008 345.105 57.6133C345.379 57.9258 345.707 58.168 346.09 58.3398C346.48 58.5117 346.922 58.5977 347.414 58.5977C348.023 58.5977 348.59 58.4805 349.113 58.2461C349.645 58.0039 350.102 57.6406 350.484 57.1562L352.125 58.9375C351.859 59.3203 351.496 59.6875 351.035 60.0391C350.582 60.3906 350.035 60.6797 349.395 60.9062C348.754 61.125 348.023 61.2344 347.203 61.2344ZM360.539 48.3203V50.7109H353.156V48.3203H360.539ZM354.984 45.1914H358.359V57.1797C358.359 57.5469 358.406 57.8281 358.5 58.0234C358.602 58.2188 358.75 58.3555 358.945 58.4336C359.141 58.5039 359.387 58.5391 359.684 58.5391C359.895 58.5391 360.082 58.5312 360.246 58.5156C360.418 58.4922 360.562 58.4688 360.68 58.4453L360.691 60.9297C360.402 61.0234 360.09 61.0977 359.754 61.1523C359.418 61.207 359.047 61.2344 358.641 61.2344C357.898 61.2344 357.25 61.1133 356.695 60.8711C356.148 60.6211 355.727 60.2227 355.43 59.6758C355.133 59.1289 354.984 58.4102 354.984 57.5195V45.1914ZM368.297 61.2344C367.312 61.2344 366.43 61.0781 365.648 60.7656C364.867 60.4453 364.203 60.0039 363.656 59.4414C363.117 58.8789 362.703 58.2266 362.414 57.4844C362.125 56.7344 361.98 55.9375 361.98 55.0938V54.625C361.98 53.6641 362.117 52.7852 362.391 51.9883C362.664 51.1914 363.055 50.5 363.562 49.9141C364.078 49.3281 364.703 48.8789 365.438 48.5664C366.172 48.2461 367 48.0859 367.922 48.0859C368.82 48.0859 369.617 48.2344 370.312 48.5312C371.008 48.8281 371.59 49.25 372.059 49.7969C372.535 50.3438 372.895 51 373.137 51.7656C373.379 52.5234 373.5 53.3672 373.5 54.2969V55.7031H363.422V53.4531H370.184V53.1953C370.184 52.7266 370.098 52.3086 369.926 51.9414C369.762 51.5664 369.512 51.2695 369.176 51.0508C368.84 50.832 368.41 50.7227 367.887 50.7227C367.441 50.7227 367.059 50.8203 366.738 51.0156C366.418 51.2109 366.156 51.4844 365.953 51.8359C365.758 52.1875 365.609 52.6016 365.508 53.0781C365.414 53.5469 365.367 54.0625 365.367 54.625V55.0938C365.367 55.6016 365.438 56.0703 365.578 56.5C365.727 56.9297 365.934 57.3008 366.199 57.6133C366.473 57.9258 366.801 58.168 367.184 58.3398C367.574 58.5117 368.016 58.5977 368.508 58.5977C369.117 58.5977 369.684 58.4805 370.207 58.2461C370.738 58.0039 371.195 57.6406 371.578 57.1562L373.219 58.9375C372.953 59.3203 372.59 59.6875 372.129 60.0391C371.676 60.3906 371.129 60.6797 370.488 60.9062C369.848 61.125 369.117 61.2344 368.297 61.2344ZM380.66 58.5977C381.074 58.5977 381.441 58.5195 381.762 58.3633C382.082 58.1992 382.332 57.9727 382.512 57.6836C382.699 57.3867 382.797 57.0391 382.805 56.6406H385.98C385.973 57.5312 385.734 58.3242 385.266 59.0195C384.797 59.707 384.168 60.25 383.379 60.6484C382.59 61.0391 381.707 61.2344 380.73 61.2344C379.746 61.2344 378.887 61.0703 378.152 60.7422C377.426 60.4141 376.82 59.9609 376.336 59.3828C375.852 58.7969 375.488 58.1172 375.246 57.3438C375.004 56.5625 374.883 55.7266 374.883 54.8359V54.4961C374.883 53.5977 375.004 52.7617 375.246 51.9883C375.488 51.207 375.852 50.5273 376.336 49.9492C376.82 49.3633 377.426 48.9062 378.152 48.5781C378.879 48.25 379.73 48.0859 380.707 48.0859C381.746 48.0859 382.656 48.2852 383.438 48.6836C384.227 49.082 384.844 49.6523 385.289 50.3945C385.742 51.1289 385.973 52 385.98 53.0078H382.805C382.797 52.5859 382.707 52.2031 382.535 51.8594C382.371 51.5156 382.129 51.2422 381.809 51.0391C381.496 50.8281 381.109 50.7227 380.648 50.7227C380.156 50.7227 379.754 50.8281 379.441 51.0391C379.129 51.2422 378.887 51.5234 378.715 51.8828C378.543 52.2344 378.422 52.6367 378.352 53.0898C378.289 53.5352 378.258 54.0039 378.258 54.4961V54.8359C378.258 55.3281 378.289 55.8008 378.352 56.2539C378.414 56.707 378.531 57.1094 378.703 57.4609C378.883 57.8125 379.129 58.0898 379.441 58.293C379.754 58.4961 380.16 58.5977 380.66 58.5977ZM394.148 48.3203V50.7109H386.766V48.3203H394.148ZM388.594 45.1914H391.969V57.1797C391.969 57.5469 392.016 57.8281 392.109 58.0234C392.211 58.2188 392.359 58.3555 392.555 58.4336C392.75 58.5039 392.996 58.5391 393.293 58.5391C393.504 58.5391 393.691 58.5312 393.855 58.5156C394.027 58.4922 394.172 58.4688 394.289 58.4453L394.301 60.9297C394.012 61.0234 393.699 61.0977 393.363 61.1523C393.027 61.207 392.656 61.2344 392.25 61.2344C391.508 61.2344 390.859 61.1133 390.305 60.8711C389.758 60.6211 389.336 60.2227 389.039 59.6758C388.742 59.1289 388.594 58.4102 388.594 57.5195V45.1914ZM395.227 54.7891V54.543C395.227 53.6133 395.359 52.7578 395.625 51.9766C395.891 51.1875 396.277 50.5039 396.785 49.9258C397.293 49.3477 397.918 48.8984 398.66 48.5781C399.402 48.25 400.254 48.0859 401.215 48.0859C402.176 48.0859 403.031 48.25 403.781 48.5781C404.531 48.8984 405.16 49.3477 405.668 49.9258C406.184 50.5039 406.574 51.1875 406.84 51.9766C407.105 52.7578 407.238 53.6133 407.238 54.543V54.7891C407.238 55.7109 407.105 56.5664 406.84 57.3555C406.574 58.1367 406.184 58.8203 405.668 59.4062C405.16 59.9844 404.535 60.4336 403.793 60.7539C403.051 61.0742 402.199 61.2344 401.238 61.2344C400.277 61.2344 399.422 61.0742 398.672 60.7539C397.93 60.4336 397.301 59.9844 396.785 59.4062C396.277 58.8203 395.891 58.1367 395.625 57.3555C395.359 56.5664 395.227 55.7109 395.227 54.7891ZM398.602 54.543V54.7891C398.602 55.3203 398.648 55.8164 398.742 56.2773C398.836 56.7383 398.984 57.1445 399.188 57.4961C399.398 57.8398 399.672 58.1094 400.008 58.3047C400.344 58.5 400.754 58.5977 401.238 58.5977C401.707 58.5977 402.109 58.5 402.445 58.3047C402.781 58.1094 403.051 57.8398 403.254 57.4961C403.457 57.1445 403.605 56.7383 403.699 56.2773C403.801 55.8164 403.852 55.3203 403.852 54.7891V54.543C403.852 54.0273 403.801 53.543 403.699 53.0898C403.605 52.6289 403.453 52.2227 403.242 51.8711C403.039 51.5117 402.77 51.2305 402.434 51.0273C402.098 50.8242 401.691 50.7227 401.215 50.7227C400.738 50.7227 400.332 50.8242 399.996 51.0273C399.668 51.2305 399.398 51.5117 399.188 51.8711C398.984 52.2227 398.836 52.6289 398.742 53.0898C398.648 53.543 398.602 54.0273 398.602 54.543ZM412.688 51.0859V61H409.312V48.3203H412.488L412.688 51.0859ZM416.508 48.2383L416.449 51.3672C416.285 51.3438 416.086 51.3242 415.852 51.3086C415.625 51.2852 415.418 51.2734 415.23 51.2734C414.754 51.2734 414.34 51.3359 413.988 51.4609C413.645 51.5781 413.355 51.7539 413.121 51.9883C412.895 52.2227 412.723 52.5078 412.605 52.8438C412.496 53.1797 412.434 53.5625 412.418 53.9922L411.738 53.7812C411.738 52.9609 411.82 52.207 411.984 51.5195C412.148 50.8242 412.387 50.2188 412.699 49.7031C413.02 49.1875 413.41 48.7891 413.871 48.5078C414.332 48.2266 414.859 48.0859 415.453 48.0859C415.641 48.0859 415.832 48.1016 416.027 48.1328C416.223 48.1562 416.383 48.1914 416.508 48.2383Z" fill="#888888"/>
<path d="M109.219 107.422H100.734V101.07H109.219C110.375 101.07 111.312 100.875 112.031 100.484C112.75 100.094 113.273 99.5547 113.602 98.8672C113.945 98.1641 114.117 97.375 114.117 96.5C114.117 95.5625 113.945 94.6953 113.602 93.8984C113.273 93.1016 112.75 92.4609 112.031 91.9766C111.312 91.4766 110.375 91.2266 109.219 91.2266H103.828V119H95.6016V84.875H109.219C111.953 84.875 114.305 85.375 116.273 86.375C118.258 87.375 119.781 88.75 120.844 90.5C121.906 92.2344 122.438 94.2188 122.438 96.4531C122.438 98.6562 121.906 100.578 120.844 102.219C119.781 103.859 118.258 105.141 116.273 106.062C114.305 106.969 111.953 107.422 109.219 107.422ZM134.461 99.9219V119H126.562V93.6406H133.945L134.461 99.9219ZM141.961 93.4531L141.82 100.789C141.508 100.758 141.086 100.719 140.555 100.672C140.023 100.625 139.578 100.602 139.219 100.602C138.297 100.602 137.5 100.711 136.828 100.93C136.172 101.133 135.625 101.445 135.188 101.867C134.766 102.273 134.453 102.789 134.25 103.414C134.062 104.039 133.977 104.766 133.992 105.594L132.562 104.656C132.562 102.953 132.727 101.406 133.055 100.016C133.398 98.6094 133.883 97.3984 134.508 96.3828C135.133 95.3516 135.891 94.5625 136.781 94.0156C137.672 93.4531 138.672 93.1719 139.781 93.1719C140.172 93.1719 140.555 93.1953 140.93 93.2422C141.32 93.2891 141.664 93.3594 141.961 93.4531ZM142.852 106.578V106.086C142.852 104.227 143.117 102.516 143.648 100.953C144.18 99.375 144.961 98.0078 145.992 96.8516C147.023 95.6953 148.297 94.7969 149.812 94.1562C151.328 93.5 153.078 93.1719 155.062 93.1719C157.062 93.1719 158.82 93.5 160.336 94.1562C161.867 94.7969 163.148 95.6953 164.18 96.8516C165.211 98.0078 165.992 99.375 166.523 100.953C167.055 102.516 167.32 104.227 167.32 106.086V106.578C167.32 108.422 167.055 110.133 166.523 111.711C165.992 113.273 165.211 114.641 164.18 115.812C163.148 116.969 161.875 117.867 160.359 118.508C158.844 119.148 157.094 119.469 155.109 119.469C153.125 119.469 151.367 119.148 149.836 118.508C148.305 117.867 147.023 116.969 145.992 115.812C144.961 114.641 144.18 113.273 143.648 111.711C143.117 110.133 142.852 108.422 142.852 106.578ZM150.75 106.086V106.578C150.75 107.531 150.82 108.422 150.961 109.25C151.102 110.078 151.336 110.805 151.664 111.43C151.992 112.039 152.438 112.516 153 112.859C153.562 113.203 154.266 113.375 155.109 113.375C155.938 113.375 156.625 113.203 157.172 112.859C157.734 112.516 158.18 112.039 158.508 111.43C158.836 110.805 159.07 110.078 159.211 109.25C159.352 108.422 159.422 107.531 159.422 106.578V106.086C159.422 105.164 159.352 104.297 159.211 103.484C159.07 102.656 158.836 101.93 158.508 101.305C158.18 100.664 157.734 100.164 157.172 99.8047C156.609 99.4453 155.906 99.2656 155.062 99.2656C154.234 99.2656 153.539 99.4453 152.977 99.8047C152.43 100.164 151.992 100.664 151.664 101.305C151.336 101.93 151.102 102.656 150.961 103.484C150.82 104.297 150.75 105.164 150.75 106.086ZM171.422 93.6406H179.344V119.82C179.344 121.852 178.953 123.562 178.172 124.953C177.391 126.359 176.273 127.422 174.82 128.141C173.367 128.875 171.633 129.242 169.617 129.242C168.945 129.242 168.328 129.211 167.766 129.148C167.188 129.102 166.555 129 165.867 128.844V122.867C166.273 122.93 166.648 122.977 166.992 123.008C167.336 123.055 167.711 123.078 168.117 123.078C168.836 123.078 169.438 122.961 169.922 122.727C170.406 122.492 170.773 122.133 171.023 121.648C171.289 121.164 171.422 120.555 171.422 119.82V93.6406ZM170.836 87.1016C170.836 85.9766 171.242 85.0547 172.055 84.3359C172.867 83.6172 173.922 83.2578 175.219 83.2578C176.516 83.2578 177.57 83.6172 178.383 84.3359C179.195 85.0547 179.602 85.9766 179.602 87.1016C179.602 88.2266 179.195 89.1484 178.383 89.8672C177.57 90.5859 176.516 90.9453 175.219 90.9453C173.922 90.9453 172.867 90.5859 172.055 89.8672C171.242 89.1484 170.836 88.2266 170.836 87.1016ZM196.102 119.469C194.039 119.469 192.195 119.148 190.57 118.508C188.945 117.852 187.57 116.953 186.445 115.812C185.336 114.672 184.484 113.359 183.891 111.875C183.312 110.391 183.023 108.82 183.023 107.164V106.273C183.023 104.414 183.281 102.695 183.797 101.117C184.312 99.5234 185.078 98.1328 186.094 96.9453C187.109 95.7578 188.383 94.8359 189.914 94.1797C191.445 93.5078 193.227 93.1719 195.258 93.1719C197.055 93.1719 198.664 93.4609 200.086 94.0391C201.508 94.6172 202.711 95.4453 203.695 96.5234C204.695 97.6016 205.453 98.9062 205.969 100.438C206.5 101.969 206.766 103.688 206.766 105.594V108.805H186.047V103.859H199.055V103.25C199.07 102.406 198.922 101.688 198.609 101.094C198.312 100.5 197.875 100.047 197.297 99.7344C196.719 99.4219 196.016 99.2656 195.188 99.2656C194.328 99.2656 193.617 99.4531 193.055 99.8281C192.508 100.203 192.078 100.719 191.766 101.375C191.469 102.016 191.258 102.758 191.133 103.602C191.008 104.445 190.945 105.336 190.945 106.273V107.164C190.945 108.102 191.07 108.953 191.32 109.719C191.586 110.484 191.961 111.141 192.445 111.688C192.945 112.219 193.539 112.633 194.227 112.93C194.93 113.227 195.727 113.375 196.617 113.375C197.695 113.375 198.758 113.172 199.805 112.766C200.852 112.359 201.75 111.688 202.5 110.75L206.086 115.016C205.57 115.75 204.836 116.461 203.883 117.148C202.945 117.836 201.82 118.398 200.508 118.836C199.195 119.258 197.727 119.469 196.102 119.469ZM220.688 113.375C221.422 113.375 222.047 113.242 222.562 112.977C223.094 112.695 223.492 112.305 223.758 111.805C224.039 111.289 224.172 110.672 224.156 109.953H231.586C231.602 111.859 231.133 113.531 230.18 114.969C229.242 116.391 227.961 117.5 226.336 118.297C224.727 119.078 222.906 119.469 220.875 119.469C218.891 119.469 217.156 119.148 215.672 118.508C214.188 117.852 212.945 116.945 211.945 115.789C210.961 114.617 210.219 113.25 209.719 111.688C209.234 110.125 208.992 108.43 208.992 106.602V106.062C208.992 104.234 209.234 102.539 209.719 100.977C210.219 99.3984 210.961 98.0312 211.945 96.875C212.945 95.7031 214.18 94.7969 215.648 94.1562C217.133 93.5 218.859 93.1719 220.828 93.1719C222.938 93.1719 224.797 93.5703 226.406 94.3672C228.031 95.1641 229.305 96.3203 230.227 97.8359C231.148 99.3516 231.602 101.188 231.586 103.344H224.156C224.172 102.578 224.055 101.891 223.805 101.281C223.555 100.672 223.164 100.188 222.633 99.8281C222.117 99.4531 221.453 99.2656 220.641 99.2656C219.828 99.2656 219.172 99.4453 218.672 99.8047C218.172 100.164 217.789 100.664 217.523 101.305C217.273 101.93 217.102 102.648 217.008 103.461C216.93 104.273 216.891 105.141 216.891 106.062V106.602C216.891 107.539 216.93 108.422 217.008 109.25C217.102 110.062 217.281 110.781 217.547 111.406C217.812 112.016 218.195 112.5 218.695 112.859C219.195 113.203 219.859 113.375 220.688 113.375ZM248.32 93.6406V99.125H233.039V93.6406H248.32ZM236.25 87.3359H244.148V110.727C244.148 111.398 244.227 111.922 244.383 112.297C244.539 112.656 244.805 112.914 245.18 113.07C245.57 113.211 246.086 113.281 246.727 113.281C247.18 113.281 247.555 113.273 247.852 113.258C248.148 113.227 248.43 113.188 248.695 113.141V118.789C248.023 119.008 247.32 119.172 246.586 119.281C245.852 119.406 245.07 119.469 244.242 119.469C242.555 119.469 241.109 119.203 239.906 118.672C238.719 118.141 237.812 117.305 237.188 116.164C236.562 115.023 236.25 113.539 236.25 111.711V87.3359ZM277.406 107.422H268.922V101.07H277.406C278.562 101.07 279.5 100.875 280.219 100.484C280.938 100.094 281.461 99.5547 281.789 98.8672C282.133 98.1641 282.305 97.375 282.305 96.5C282.305 95.5625 282.133 94.6953 281.789 93.8984C281.461 93.1016 280.938 92.4609 280.219 91.9766C279.5 91.4766 278.562 91.2266 277.406 91.2266H272.016V119H263.789V84.875H277.406C280.141 84.875 282.492 85.375 284.461 86.375C286.445 87.375 287.969 88.75 289.031 90.5C290.094 92.2344 290.625 94.2188 290.625 96.4531C290.625 98.6562 290.094 100.578 289.031 102.219C287.969 103.859 286.445 105.141 284.461 106.062C282.492 106.969 280.141 107.422 277.406 107.422ZM302.414 83V119H294.516V83H302.414ZM301.477 105.453L299.625 105.5C299.625 103.719 299.844 102.078 300.281 100.578C300.719 99.0781 301.344 97.7734 302.156 96.6641C302.969 95.5547 303.945 94.6953 305.086 94.0859C306.227 93.4766 307.492 93.1719 308.883 93.1719C310.133 93.1719 311.273 93.3516 312.305 93.7109C313.352 94.0703 314.25 94.6484 315 95.4453C315.766 96.2422 316.352 97.2812 316.758 98.5625C317.18 99.8438 317.391 101.406 317.391 103.25V119H309.445V103.203C309.445 102.172 309.297 101.375 309 100.812C308.719 100.234 308.312 99.8359 307.781 99.6172C307.25 99.3828 306.602 99.2656 305.836 99.2656C304.914 99.2656 304.164 99.4219 303.586 99.7344C303.008 100.047 302.562 100.484 302.25 101.047C301.953 101.594 301.75 102.242 301.641 102.992C301.531 103.742 301.477 104.562 301.477 105.453ZM330.117 93.6406V119H322.195V93.6406H330.117ZM321.727 87.1016C321.727 85.9766 322.133 85.0547 322.945 84.3359C323.758 83.6172 324.812 83.2578 326.109 83.2578C327.406 83.2578 328.461 83.6172 329.273 84.3359C330.086 85.0547 330.492 85.9766 330.492 87.1016C330.492 88.2266 330.086 89.1484 329.273 89.8672C328.461 90.5859 327.406 90.9453 326.109 90.9453C324.812 90.9453 323.758 90.5859 322.945 89.8672C322.133 89.1484 321.727 88.2266 321.727 87.1016ZM343.336 83V119H335.414V83H343.336ZM347.227 106.578V106.086C347.227 104.227 347.492 102.516 348.023 100.953C348.555 99.375 349.336 98.0078 350.367 96.8516C351.398 95.6953 352.672 94.7969 354.188 94.1562C355.703 93.5 357.453 93.1719 359.438 93.1719C361.438 93.1719 363.195 93.5 364.711 94.1562C366.242 94.7969 367.523 95.6953 368.555 96.8516C369.586 98.0078 370.367 99.375 370.898 100.953C371.43 102.516 371.695 104.227 371.695 106.086V106.578C371.695 108.422 371.43 110.133 370.898 111.711C370.367 113.273 369.586 114.641 368.555 115.812C367.523 116.969 366.25 117.867 364.734 118.508C363.219 119.148 361.469 119.469 359.484 119.469C357.5 119.469 355.742 119.148 354.211 118.508C352.68 117.867 351.398 116.969 350.367 115.812C349.336 114.641 348.555 113.273 348.023 111.711C347.492 110.133 347.227 108.422 347.227 106.578ZM355.125 106.086V106.578C355.125 107.531 355.195 108.422 355.336 109.25C355.477 110.078 355.711 110.805 356.039 111.43C356.367 112.039 356.812 112.516 357.375 112.859C357.938 113.203 358.641 113.375 359.484 113.375C360.312 113.375 361 113.203 361.547 112.859C362.109 112.516 362.555 112.039 362.883 111.43C363.211 110.805 363.445 110.078 363.586 109.25C363.727 108.422 363.797 107.531 363.797 106.578V106.086C363.797 105.164 363.727 104.297 363.586 103.484C363.445 102.656 363.211 101.93 362.883 101.305C362.555 100.664 362.109 100.164 361.547 99.8047C360.984 99.4453 360.281 99.2656 359.438 99.2656C358.609 99.2656 357.914 99.4453 357.352 99.8047C356.805 100.164 356.367 100.664 356.039 101.305C355.711 101.93 355.477 102.656 355.336 103.484C355.195 104.297 355.125 105.164 355.125 106.086ZM388.5 111.875C388.5 111.438 388.352 111.062 388.055 110.75C387.773 110.422 387.273 110.125 386.555 109.859C385.836 109.578 384.828 109.297 383.531 109.016C382.297 108.75 381.133 108.398 380.039 107.961C378.961 107.523 378.016 106.992 377.203 106.367C376.391 105.742 375.75 105 375.281 104.141C374.828 103.281 374.602 102.297 374.602 101.188C374.602 100.109 374.828 99.0938 375.281 98.1406C375.75 97.1719 376.43 96.3203 377.32 95.5859C378.227 94.8359 379.328 94.25 380.625 93.8281C381.922 93.3906 383.398 93.1719 385.055 93.1719C387.336 93.1719 389.305 93.5234 390.961 94.2266C392.617 94.9141 393.891 95.8828 394.781 97.1328C395.688 98.3672 396.141 99.7969 396.141 101.422H388.242C388.242 100.781 388.133 100.234 387.914 99.7812C387.711 99.3281 387.375 98.9844 386.906 98.75C386.438 98.5 385.812 98.375 385.031 98.375C384.484 98.375 383.984 98.4766 383.531 98.6797C383.094 98.8828 382.742 99.1641 382.477 99.5234C382.211 99.8828 382.078 100.305 382.078 100.789C382.078 101.133 382.156 101.445 382.312 101.727C382.484 101.992 382.742 102.242 383.086 102.477C383.43 102.695 383.867 102.898 384.398 103.086C384.93 103.258 385.57 103.414 386.32 103.555C388.023 103.867 389.617 104.312 391.102 104.891C392.586 105.469 393.789 106.289 394.711 107.352C395.648 108.414 396.117 109.844 396.117 111.641C396.117 112.766 395.859 113.805 395.344 114.758C394.828 115.695 394.086 116.523 393.117 117.242C392.148 117.945 390.984 118.492 389.625 118.883C388.266 119.273 386.734 119.469 385.031 119.469C382.609 119.469 380.562 119.039 378.891 118.18C377.219 117.305 375.953 116.211 375.094 114.898C374.25 113.57 373.828 112.227 373.828 110.867H381.188C381.219 111.648 381.406 112.289 381.75 112.789C382.109 113.289 382.586 113.656 383.18 113.891C383.773 114.125 384.461 114.242 385.242 114.242C385.961 114.242 386.555 114.141 387.023 113.938C387.508 113.734 387.875 113.461 388.125 113.117C388.375 112.758 388.5 112.344 388.5 111.875ZM398.836 106.578V106.086C398.836 104.227 399.102 102.516 399.633 100.953C400.164 99.375 400.945 98.0078 401.977 96.8516C403.008 95.6953 404.281 94.7969 405.797 94.1562C407.312 93.5 409.062 93.1719 411.047 93.1719C413.047 93.1719 414.805 93.5 416.32 94.1562C417.852 94.7969 419.133 95.6953 420.164 96.8516C421.195 98.0078 421.977 99.375 422.508 100.953C423.039 102.516 423.305 104.227 423.305 106.086V106.578C423.305 108.422 423.039 110.133 422.508 111.711C421.977 113.273 421.195 114.641 420.164 115.812C419.133 116.969 417.859 117.867 416.344 118.508C414.828 119.148 413.078 119.469 411.094 119.469C409.109 119.469 407.352 119.148 405.82 118.508C404.289 117.867 403.008 116.969 401.977 115.812C400.945 114.641 400.164 113.273 399.633 111.711C399.102 110.133 398.836 108.422 398.836 106.578ZM406.734 106.086V106.578C406.734 107.531 406.805 108.422 406.945 109.25C407.086 110.078 407.32 110.805 407.648 111.43C407.977 112.039 408.422 112.516 408.984 112.859C409.547 113.203 410.25 113.375 411.094 113.375C411.922 113.375 412.609 113.203 413.156 112.859C413.719 112.516 414.164 112.039 414.492 111.43C414.82 110.805 415.055 110.078 415.195 109.25C415.336 108.422 415.406 107.531 415.406 106.578V106.086C415.406 105.164 415.336 104.297 415.195 103.484C415.055 102.656 414.82 101.93 414.492 101.305C414.164 100.664 413.719 100.164 413.156 99.8047C412.594 99.4453 411.891 99.2656 411.047 99.2656C410.219 99.2656 409.523 99.4453 408.961 99.8047C408.414 100.164 407.977 100.664 407.648 101.305C407.32 101.93 407.086 102.656 406.945 103.484C406.805 104.297 406.734 105.164 406.734 106.086ZM434.789 98.5156V128.75H426.891V93.6406H434.25L434.789 98.5156ZM450.352 106.016V106.508C450.352 108.352 450.141 110.062 449.719 111.641C449.297 113.219 448.672 114.594 447.844 115.766C447.016 116.938 445.984 117.852 444.75 118.508C443.531 119.148 442.117 119.469 440.508 119.469C438.992 119.469 437.688 119.133 436.594 118.461C435.5 117.789 434.586 116.859 433.852 115.672C433.117 114.484 432.523 113.125 432.07 111.594C431.617 110.062 431.258 108.445 430.992 106.742V106.109C431.258 104.281 431.617 102.586 432.07 101.023C432.523 99.4453 433.117 98.0703 433.852 96.8984C434.586 95.7266 435.492 94.8125 436.57 94.1562C437.664 93.5 438.969 93.1719 440.484 93.1719C442.094 93.1719 443.508 93.4766 444.727 94.0859C445.961 94.6953 446.992 95.5703 447.82 96.7109C448.664 97.8359 449.297 99.1875 449.719 100.766C450.141 102.344 450.352 104.094 450.352 106.016ZM442.453 106.508V106.016C442.453 105.031 442.383 104.133 442.242 103.32C442.102 102.492 441.875 101.773 441.562 101.164C441.266 100.555 440.867 100.086 440.367 99.7578C439.867 99.4297 439.25 99.2656 438.516 99.2656C437.672 99.2656 436.961 99.3984 436.383 99.6641C435.82 99.9141 435.367 100.305 435.023 100.836C434.695 101.352 434.461 102 434.32 102.781C434.195 103.547 434.141 104.445 434.156 105.477V107.398C434.125 108.586 434.242 109.633 434.508 110.539C434.773 111.43 435.234 112.125 435.891 112.625C436.547 113.125 437.438 113.375 438.562 113.375C439.312 113.375 439.938 113.203 440.438 112.859C440.938 112.5 441.336 112.008 441.633 111.383C441.93 110.742 442.141 110.008 442.266 109.18C442.391 108.352 442.453 107.461 442.453 106.508ZM461.602 83V119H453.703V83H461.602ZM460.664 105.453L458.812 105.5C458.812 103.719 459.031 102.078 459.469 100.578C459.906 99.0781 460.531 97.7734 461.344 96.6641C462.156 95.5547 463.133 94.6953 464.273 94.0859C465.414 93.4766 466.68 93.1719 468.07 93.1719C469.32 93.1719 470.461 93.3516 471.492 93.7109C472.539 94.0703 473.438 94.6484 474.188 95.4453C474.953 96.2422 475.539 97.2812 475.945 98.5625C476.367 99.8438 476.578 101.406 476.578 103.25V119H468.633V103.203C468.633 102.172 468.484 101.375 468.188 100.812C467.906 100.234 467.5 99.8359 466.969 99.6172C466.438 99.3828 465.789 99.2656 465.023 99.2656C464.102 99.2656 463.352 99.4219 462.773 99.7344C462.195 100.047 461.75 100.484 461.438 101.047C461.141 101.594 460.938 102.242 460.828 102.992C460.719 103.742 460.664 104.562 460.664 105.453ZM488.742 116.023L495.305 93.6406H503.789L493.594 122.773C493.375 123.414 493.086 124.102 492.727 124.836C492.367 125.586 491.875 126.297 491.25 126.969C490.625 127.641 489.82 128.188 488.836 128.609C487.867 129.031 486.664 129.242 485.227 129.242C484.461 129.242 483.898 129.203 483.539 129.125C483.195 129.062 482.664 128.945 481.945 128.773V123.125C482.148 123.125 482.32 123.125 482.461 123.125C482.617 123.125 482.789 123.125 482.977 123.125C483.82 123.125 484.492 123.039 484.992 122.867C485.508 122.695 485.898 122.445 486.164 122.117C486.445 121.789 486.664 121.391 486.82 120.922L488.742 116.023ZM487.078 93.6406L492.07 111.383L492.938 119.75H487.641L478.617 93.6406H487.078Z" fill="black"/>
<path d="M1134 0H1348C1356.28 0 1363 6.71573 1363 15V148C1363 156.284 1356.28 163 1348 163H1134V0Z" fill="#F7713D"/>
<path d="M1234.26 103.786H1262.74V109.357H1234.26V103.786ZM1239.96 114.929H1257.04V120.5H1239.96V114.929ZM1248.5 42.5C1240.95 42.5 1233.71 45.4349 1228.37 50.6592C1223.03 55.8834 1220.03 62.969 1220.03 70.3571C1219.84 74.4057 1220.63 78.4412 1222.34 82.1315C1224.05 85.8219 1226.64 89.0616 1229.88 91.5843C1232.73 94.175 1234.26 95.6514 1234.26 98.2143H1239.96C1239.96 93.0886 1236.8 90.2193 1233.72 87.4614C1231.06 85.4676 1228.94 82.8658 1227.55 79.8838C1226.15 76.9019 1225.53 73.6308 1225.72 70.3571C1225.72 64.4466 1228.12 58.7781 1232.39 54.5988C1236.67 50.4194 1242.46 48.0714 1248.5 48.0714C1254.54 48.0714 1260.33 50.4194 1264.61 54.5988C1268.88 58.7781 1271.28 64.4466 1271.28 70.3571C1271.47 73.6333 1270.84 76.9059 1269.44 79.888C1268.04 82.8701 1265.92 85.4706 1263.25 87.4614C1260.2 90.2471 1257.04 93.0329 1257.04 98.2143H1262.74C1262.74 95.6514 1264.25 94.175 1267.12 91.5564C1270.36 89.0381 1272.94 85.8031 1274.66 82.1176C1276.37 78.4321 1277.16 74.4014 1276.97 70.3571C1276.97 66.6989 1276.24 63.0765 1274.81 59.6967C1273.37 56.3169 1271.28 53.2459 1268.63 50.6592C1265.99 48.0724 1262.85 46.0205 1259.4 44.6205C1255.94 43.2205 1252.24 42.5 1248.5 42.5Z" fill="white"/>
</svg>
