<svg width="1363" height="163" viewBox="0 0 1363 163" fill="none" xmlns="http://www.w3.org/2000/svg">
<path d="M0 15C0 6.71573 6.71573 0 15 0H37V163H15C6.71573 163 0 156.284 0 148V15Z" fill="#F7713D"/>
<rect width="1097" height="163" transform="translate(37)" fill="#F0F0F0"/>
<path d="M101.906 53.9219L94.3945 51.2383V48.0859L104.602 52.375V54.6367L101.906 53.9219ZM94.3945 56.1719L101.918 53.4297L104.602 52.7852V55.0352L94.3945 59.3242V56.1719ZM119.578 53.5117H115.195L115.172 51.0977H118.852C119.5 51.0977 120.031 51.0156 120.445 50.8516C120.859 50.6797 121.168 50.4336 121.371 50.1133C121.582 49.7852 121.688 49.3867 121.688 48.918C121.688 48.3867 121.586 47.957 121.383 47.6289C121.188 47.3008 120.879 47.0625 120.457 46.9141C120.043 46.7656 119.508 46.6914 118.852 46.6914H116.414V61H112.898V43.9375H118.852C119.844 43.9375 120.73 44.0312 121.512 44.2188C122.301 44.4062 122.969 44.6914 123.516 45.0742C124.062 45.457 124.48 45.9414 124.77 46.5273C125.059 47.1055 125.203 47.793 125.203 48.5898C125.203 49.293 125.043 49.9414 124.723 50.5352C124.41 51.1289 123.914 51.6133 123.234 51.9883C122.562 52.3633 121.684 52.5703 120.598 52.6094L119.578 53.5117ZM119.426 61H114.234L115.605 58.2578H119.426C120.043 58.2578 120.547 58.1602 120.938 57.9648C121.328 57.7617 121.617 57.4883 121.805 57.1445C121.992 56.8008 122.086 56.4062 122.086 55.9609C122.086 55.4609 122 55.0273 121.828 54.6602C121.664 54.293 121.398 54.0117 121.031 53.8164C120.664 53.6133 120.18 53.5117 119.578 53.5117H116.191L116.215 51.0977H120.434L121.242 52.0469C122.281 52.0312 123.117 52.2148 123.75 52.5977C124.391 52.9727 124.855 53.4609 125.145 54.0625C125.441 54.6641 125.59 55.3086 125.59 55.9961C125.59 57.0898 125.352 58.0117 124.875 58.7617C124.398 59.5039 123.699 60.0625 122.777 60.4375C121.863 60.8125 120.746 61 119.426 61ZM134.859 58.1406V52.4922C134.859 52.0859 134.793 51.7383 134.66 51.4492C134.527 51.1523 134.32 50.9219 134.039 50.7578C133.766 50.5938 133.41 50.5117 132.973 50.5117C132.598 50.5117 132.273 50.5781 132 50.7109C131.727 50.8359 131.516 51.0195 131.367 51.2617C131.219 51.4961 131.145 51.7734 131.145 52.0938H127.77C127.77 51.5547 127.895 51.043 128.145 50.5586C128.395 50.0742 128.758 49.6484 129.234 49.2812C129.711 48.9062 130.277 48.6133 130.934 48.4023C131.598 48.1914 132.34 48.0859 133.16 48.0859C134.145 48.0859 135.02 48.25 135.785 48.5781C136.551 48.9062 137.152 49.3984 137.59 50.0547C138.035 50.7109 138.258 51.5312 138.258 52.5156V57.9414C138.258 58.6367 138.301 59.207 138.387 59.6523C138.473 60.0898 138.598 60.4727 138.762 60.8008V61H135.352C135.188 60.6562 135.062 60.2266 134.977 59.7109C134.898 59.1875 134.859 58.6641 134.859 58.1406ZM135.305 53.2773L135.328 55.1875H133.441C132.996 55.1875 132.609 55.2383 132.281 55.3398C131.953 55.4414 131.684 55.5859 131.473 55.7734C131.262 55.9531 131.105 56.1641 131.004 56.4062C130.91 56.6484 130.863 56.9141 130.863 57.2031C130.863 57.4922 130.93 57.7539 131.062 57.9883C131.195 58.2148 131.387 58.3945 131.637 58.5273C131.887 58.6523 132.18 58.7148 132.516 58.7148C133.023 58.7148 133.465 58.6133 133.84 58.4102C134.215 58.207 134.504 57.957 134.707 57.6602C134.918 57.3633 135.027 57.082 135.035 56.8164L135.926 58.2461C135.801 58.5664 135.629 58.8984 135.41 59.2422C135.199 59.5859 134.93 59.9102 134.602 60.2148C134.273 60.5117 133.879 60.7578 133.418 60.9531C132.957 61.1406 132.41 61.2344 131.777 61.2344C130.973 61.2344 130.242 61.0742 129.586 60.7539C128.938 60.4258 128.422 59.9766 128.039 59.4062C127.664 58.8281 127.477 58.1719 127.477 57.4375C127.477 56.7734 127.602 56.1836 127.852 55.668C128.102 55.1523 128.469 54.7188 128.953 54.3672C129.445 54.0078 130.059 53.7383 130.793 53.5586C131.527 53.3711 132.379 53.2773 133.348 53.2773H135.305ZM147.07 48.3203V50.7109H139.688V48.3203H147.07ZM141.516 45.1914H144.891V57.1797C144.891 57.5469 144.938 57.8281 145.031 58.0234C145.133 58.2188 145.281 58.3555 145.477 58.4336C145.672 58.5039 145.918 58.5391 146.215 58.5391C146.426 58.5391 146.613 58.5312 146.777 58.5156C146.949 58.4922 147.094 58.4688 147.211 58.4453L147.223 60.9297C146.934 61.0234 146.621 61.0977 146.285 61.1523C145.949 61.207 145.578 61.2344 145.172 61.2344C144.43 61.2344 143.781 61.1133 143.227 60.8711C142.68 60.6211 142.258 60.2227 141.961 59.6758C141.664 59.1289 141.516 58.4102 141.516 57.5195V45.1914ZM155.836 58.1406V52.4922C155.836 52.0859 155.77 51.7383 155.637 51.4492C155.504 51.1523 155.297 50.9219 155.016 50.7578C154.742 50.5938 154.387 50.5117 153.949 50.5117C153.574 50.5117 153.25 50.5781 152.977 50.7109C152.703 50.8359 152.492 51.0195 152.344 51.2617C152.195 51.4961 152.121 51.7734 152.121 52.0938H148.746C148.746 51.5547 148.871 51.043 149.121 50.5586C149.371 50.0742 149.734 49.6484 150.211 49.2812C150.688 48.9062 151.254 48.6133 151.91 48.4023C152.574 48.1914 153.316 48.0859 154.137 48.0859C155.121 48.0859 155.996 48.25 156.762 48.5781C157.527 48.9062 158.129 49.3984 158.566 50.0547C159.012 50.7109 159.234 51.5312 159.234 52.5156V57.9414C159.234 58.6367 159.277 59.207 159.363 59.6523C159.449 60.0898 159.574 60.4727 159.738 60.8008V61H156.328C156.164 60.6562 156.039 60.2266 155.953 59.7109C155.875 59.1875 155.836 58.6641 155.836 58.1406ZM156.281 53.2773L156.305 55.1875H154.418C153.973 55.1875 153.586 55.2383 153.258 55.3398C152.93 55.4414 152.66 55.5859 152.449 55.7734C152.238 55.9531 152.082 56.1641 151.98 56.4062C151.887 56.6484 151.84 56.9141 151.84 57.2031C151.84 57.4922 151.906 57.7539 152.039 57.9883C152.172 58.2148 152.363 58.3945 152.613 58.5273C152.863 58.6523 153.156 58.7148 153.492 58.7148C154 58.7148 154.441 58.6133 154.816 58.4102C155.191 58.207 155.48 57.957 155.684 57.6602C155.895 57.3633 156.004 57.082 156.012 56.8164L156.902 58.2461C156.777 58.5664 156.605 58.8984 156.387 59.2422C156.176 59.5859 155.906 59.9102 155.578 60.2148C155.25 60.5117 154.855 60.7578 154.395 60.9531C153.934 61.1406 153.387 61.2344 152.754 61.2344C151.949 61.2344 151.219 61.0742 150.562 60.7539C149.914 60.4258 149.398 59.9766 149.016 59.4062C148.641 58.8281 148.453 58.1719 148.453 57.4375C148.453 56.7734 148.578 56.1836 148.828 55.668C149.078 55.1523 149.445 54.7188 149.93 54.3672C150.422 54.0078 151.035 53.7383 151.77 53.5586C152.504 53.3711 153.355 53.2773 154.324 53.2773H156.281ZM165.398 43V61H162.012V43H165.398ZM168.316 59.3711C168.316 58.8711 168.488 58.4531 168.832 58.1172C169.184 57.7812 169.648 57.6133 170.227 57.6133C170.805 57.6133 171.266 57.7812 171.609 58.1172C171.961 58.4531 172.137 58.8711 172.137 59.3711C172.137 59.8711 171.961 60.2891 171.609 60.625C171.266 60.9609 170.805 61.1289 170.227 61.1289C169.648 61.1289 169.184 60.9609 168.832 60.625C168.488 60.2891 168.316 59.8711 168.316 59.3711ZM168.316 49.7031C168.316 49.2031 168.488 48.7852 168.832 48.4492C169.184 48.1133 169.648 47.9453 170.227 47.9453C170.805 47.9453 171.266 48.1133 171.609 48.4492C171.961 48.7852 172.137 49.2031 172.137 49.7031C172.137 50.2031 171.961 50.6211 171.609 50.957C171.266 51.293 170.805 51.4609 170.227 51.4609C169.648 51.4609 169.184 51.293 168.832 50.957C168.488 50.6211 168.316 50.2031 168.316 49.7031ZM184.664 43.9375V61H181.148V43.9375H184.664ZM191.461 51.2266V53.9688H183.703V51.2266H191.461ZM192.281 43.9375V46.6914H183.703V43.9375H192.281ZM197.672 48.3203V61H194.285V48.3203H197.672ZM194.074 45.0156C194.074 44.5234 194.246 44.1172 194.59 43.7969C194.934 43.4766 195.395 43.3164 195.973 43.3164C196.543 43.3164 197 43.4766 197.344 43.7969C197.695 44.1172 197.871 44.5234 197.871 45.0156C197.871 45.5078 197.695 45.9141 197.344 46.2344C197 46.5547 196.543 46.7148 195.973 46.7148C195.395 46.7148 194.934 46.5547 194.59 46.2344C194.246 45.9141 194.074 45.5078 194.074 45.0156ZM206.672 48.3203V50.7109H199.289V48.3203H206.672ZM201.117 45.1914H204.492V57.1797C204.492 57.5469 204.539 57.8281 204.633 58.0234C204.734 58.2188 204.883 58.3555 205.078 58.4336C205.273 58.5039 205.52 58.5391 205.816 58.5391C206.027 58.5391 206.215 58.5312 206.379 58.5156C206.551 58.4922 206.695 58.4688 206.812 58.4453L206.824 60.9297C206.535 61.0234 206.223 61.0977 205.887 61.1523C205.551 61.207 205.18 61.2344 204.773 61.2344C204.031 61.2344 203.383 61.1133 202.828 60.8711C202.281 60.6211 201.859 60.2227 201.562 59.6758C201.266 59.1289 201.117 58.4102 201.117 57.5195V45.1914ZM211.898 51.0273V61H208.523V48.3203H211.688L211.898 51.0273ZM211.406 54.2148H210.492C210.492 53.2773 210.613 52.4336 210.855 51.6836C211.098 50.9258 211.438 50.2812 211.875 49.75C212.312 49.2109 212.832 48.8008 213.434 48.5195C214.043 48.2305 214.723 48.0859 215.473 48.0859C216.066 48.0859 216.609 48.1719 217.102 48.3438C217.594 48.5156 218.016 48.7891 218.367 49.1641C218.727 49.5391 219 50.0352 219.188 50.6523C219.383 51.2695 219.48 52.0234 219.48 52.9141V61H216.082V52.9023C216.082 52.3398 216.004 51.9023 215.848 51.5898C215.691 51.2773 215.461 51.0586 215.156 50.9336C214.859 50.8008 214.492 50.7344 214.055 50.7344C213.602 50.7344 213.207 50.8242 212.871 51.0039C212.543 51.1836 212.27 51.4336 212.051 51.7539C211.84 52.0664 211.68 52.4336 211.57 52.8555C211.461 53.2773 211.406 53.7305 211.406 54.2148ZM227.883 61.2344C226.898 61.2344 226.016 61.0781 225.234 60.7656C224.453 60.4453 223.789 60.0039 223.242 59.4414C222.703 58.8789 222.289 58.2266 222 57.4844C221.711 56.7344 221.566 55.9375 221.566 55.0938V54.625C221.566 53.6641 221.703 52.7852 221.977 51.9883C222.25 51.1914 222.641 50.5 223.148 49.9141C223.664 49.3281 224.289 48.8789 225.023 48.5664C225.758 48.2461 226.586 48.0859 227.508 48.0859C228.406 48.0859 229.203 48.2344 229.898 48.5312C230.594 48.8281 231.176 49.25 231.645 49.7969C232.121 50.3438 232.48 51 232.723 51.7656C232.965 52.5234 233.086 53.3672 233.086 54.2969V55.7031H223.008V53.4531H229.77V53.1953C229.77 52.7266 229.684 52.3086 229.512 51.9414C229.348 51.5664 229.098 51.2695 228.762 51.0508C228.426 50.832 227.996 50.7227 227.473 50.7227C227.027 50.7227 226.645 50.8203 226.324 51.0156C226.004 51.2109 225.742 51.4844 225.539 51.8359C225.344 52.1875 225.195 52.6016 225.094 53.0781C225 53.5469 224.953 54.0625 224.953 54.625V55.0938C224.953 55.6016 225.023 56.0703 225.164 56.5C225.312 56.9297 225.52 57.3008 225.785 57.6133C226.059 57.9258 226.387 58.168 226.77 58.3398C227.16 58.5117 227.602 58.5977 228.094 58.5977C228.703 58.5977 229.27 58.4805 229.793 58.2461C230.324 58.0039 230.781 57.6406 231.164 57.1562L232.805 58.9375C232.539 59.3203 232.176 59.6875 231.715 60.0391C231.262 60.3906 230.715 60.6797 230.074 60.9062C229.434 61.125 228.703 61.2344 227.883 61.2344ZM241.863 57.4961C241.863 57.2539 241.793 57.0352 241.652 56.8398C241.512 56.6445 241.25 56.4648 240.867 56.3008C240.492 56.1289 239.949 55.9727 239.238 55.832C238.598 55.6914 238 55.5156 237.445 55.3047C236.898 55.0859 236.422 54.8242 236.016 54.5195C235.617 54.2148 235.305 53.8555 235.078 53.4414C234.852 53.0195 234.738 52.5391 234.738 52C234.738 51.4688 234.852 50.9688 235.078 50.5C235.312 50.0312 235.645 49.6172 236.074 49.2578C236.512 48.8906 237.043 48.6055 237.668 48.4023C238.301 48.1914 239.012 48.0859 239.801 48.0859C240.902 48.0859 241.848 48.2617 242.637 48.6133C243.434 48.9648 244.043 49.4492 244.465 50.0664C244.895 50.6758 245.109 51.3711 245.109 52.1523H241.734C241.734 51.8242 241.664 51.5312 241.523 51.2734C241.391 51.0078 241.18 50.8008 240.891 50.6523C240.609 50.4961 240.242 50.418 239.789 50.418C239.414 50.418 239.09 50.4844 238.816 50.6172C238.543 50.7422 238.332 50.9141 238.184 51.1328C238.043 51.3438 237.973 51.5781 237.973 51.8359C237.973 52.0312 238.012 52.207 238.09 52.3633C238.176 52.5117 238.312 52.6484 238.5 52.7734C238.688 52.8984 238.93 53.0156 239.227 53.125C239.531 53.2266 239.906 53.3203 240.352 53.4062C241.266 53.5938 242.082 53.8398 242.801 54.1445C243.52 54.4414 244.09 54.8477 244.512 55.3633C244.934 55.8711 245.145 56.5391 245.145 57.3672C245.145 57.9297 245.02 58.4453 244.77 58.9141C244.52 59.3828 244.16 59.793 243.691 60.1445C243.223 60.4883 242.66 60.7578 242.004 60.9531C241.355 61.1406 240.625 61.2344 239.812 61.2344C238.633 61.2344 237.633 61.0234 236.812 60.6016C236 60.1797 235.383 59.6445 234.961 58.9961C234.547 58.3398 234.34 57.668 234.34 56.9805H237.539C237.555 57.4414 237.672 57.8125 237.891 58.0938C238.117 58.375 238.402 58.5781 238.746 58.7031C239.098 58.8281 239.477 58.8906 239.883 58.8906C240.32 58.8906 240.684 58.832 240.973 58.7148C241.262 58.5898 241.48 58.4258 241.629 58.2227C241.785 58.0117 241.863 57.7695 241.863 57.4961ZM254.191 57.4961C254.191 57.2539 254.121 57.0352 253.98 56.8398C253.84 56.6445 253.578 56.4648 253.195 56.3008C252.82 56.1289 252.277 55.9727 251.566 55.832C250.926 55.6914 250.328 55.5156 249.773 55.3047C249.227 55.0859 248.75 54.8242 248.344 54.5195C247.945 54.2148 247.633 53.8555 247.406 53.4414C247.18 53.0195 247.066 52.5391 247.066 52C247.066 51.4688 247.18 50.9688 247.406 50.5C247.641 50.0312 247.973 49.6172 248.402 49.2578C248.84 48.8906 249.371 48.6055 249.996 48.4023C250.629 48.1914 251.34 48.0859 252.129 48.0859C253.23 48.0859 254.176 48.2617 254.965 48.6133C255.762 48.9648 256.371 49.4492 256.793 50.0664C257.223 50.6758 257.438 51.3711 257.438 52.1523H254.062C254.062 51.8242 253.992 51.5312 253.852 51.2734C253.719 51.0078 253.508 50.8008 253.219 50.6523C252.938 50.4961 252.57 50.418 252.117 50.418C251.742 50.418 251.418 50.4844 251.145 50.6172C250.871 50.7422 250.66 50.9141 250.512 51.1328C250.371 51.3438 250.301 51.5781 250.301 51.8359C250.301 52.0312 250.34 52.207 250.418 52.3633C250.504 52.5117 250.641 52.6484 250.828 52.7734C251.016 52.8984 251.258 53.0156 251.555 53.125C251.859 53.2266 252.234 53.3203 252.68 53.4062C253.594 53.5938 254.41 53.8398 255.129 54.1445C255.848 54.4414 256.418 54.8477 256.84 55.3633C257.262 55.8711 257.473 56.5391 257.473 57.3672C257.473 57.9297 257.348 58.4453 257.098 58.9141C256.848 59.3828 256.488 59.793 256.02 60.1445C255.551 60.4883 254.988 60.7578 254.332 60.9531C253.684 61.1406 252.953 61.2344 252.141 61.2344C250.961 61.2344 249.961 61.0234 249.141 60.6016C248.328 60.1797 247.711 59.6445 247.289 58.9961C246.875 58.3398 246.668 57.668 246.668 56.9805H249.867C249.883 57.4414 250 57.8125 250.219 58.0938C250.445 58.375 250.73 58.5781 251.074 58.7031C251.426 58.8281 251.805 58.8906 252.211 58.8906C252.648 58.8906 253.012 58.832 253.301 58.7148C253.59 58.5898 253.809 58.4258 253.957 58.2227C254.113 58.0117 254.191 57.7695 254.191 57.4961ZM272.496 54.918H268.148V52.1758H272.496C273.168 52.1758 273.715 52.0664 274.137 51.8477C274.559 51.6211 274.867 51.3086 275.062 50.9102C275.258 50.5117 275.355 50.0625 275.355 49.5625C275.355 49.0547 275.258 48.582 275.062 48.1445C274.867 47.707 274.559 47.3555 274.137 47.0898C273.715 46.8242 273.168 46.6914 272.496 46.6914H269.367V61H265.852V43.9375H272.496C273.832 43.9375 274.977 44.1797 275.93 44.6641C276.891 45.1406 277.625 45.8008 278.133 46.6445C278.641 47.4883 278.895 48.4531 278.895 49.5391C278.895 50.6406 278.641 51.5938 278.133 52.3984C277.625 53.2031 276.891 53.8242 275.93 54.2617C274.977 54.6992 273.832 54.918 272.496 54.918ZM280.406 54.7891V54.543C280.406 53.6133 280.539 52.7578 280.805 51.9766C281.07 51.1875 281.457 50.5039 281.965 49.9258C282.473 49.3477 283.098 48.8984 283.84 48.5781C284.582 48.25 285.434 48.0859 286.395 48.0859C287.355 48.0859 288.211 48.25 288.961 48.5781C289.711 48.8984 290.34 49.3477 290.848 49.9258C291.363 50.5039 291.754 51.1875 292.02 51.9766C292.285 52.7578 292.418 53.6133 292.418 54.543V54.7891C292.418 55.7109 292.285 56.5664 292.02 57.3555C291.754 58.1367 291.363 58.8203 290.848 59.4062C290.34 59.9844 289.715 60.4336 288.973 60.7539C288.23 61.0742 287.379 61.2344 286.418 61.2344C285.457 61.2344 284.602 61.0742 283.852 60.7539C283.109 60.4336 282.48 59.9844 281.965 59.4062C281.457 58.8203 281.07 58.1367 280.805 57.3555C280.539 56.5664 280.406 55.7109 280.406 54.7891ZM283.781 54.543V54.7891C283.781 55.3203 283.828 55.8164 283.922 56.2773C284.016 56.7383 284.164 57.1445 284.367 57.4961C284.578 57.8398 284.852 58.1094 285.188 58.3047C285.523 58.5 285.934 58.5977 286.418 58.5977C286.887 58.5977 287.289 58.5 287.625 58.3047C287.961 58.1094 288.23 57.8398 288.434 57.4961C288.637 57.1445 288.785 56.7383 288.879 56.2773C288.98 55.8164 289.031 55.3203 289.031 54.7891V54.543C289.031 54.0273 288.98 53.543 288.879 53.0898C288.785 52.6289 288.633 52.2227 288.422 51.8711C288.219 51.5117 287.949 51.2305 287.613 51.0273C287.277 50.8242 286.871 50.7227 286.395 50.7227C285.918 50.7227 285.512 50.8242 285.176 51.0273C284.848 51.2305 284.578 51.5117 284.367 51.8711C284.164 52.2227 284.016 52.6289 283.922 53.0898C283.828 53.543 283.781 54.0273 283.781 54.543ZM301.348 57.4961C301.348 57.2539 301.277 57.0352 301.137 56.8398C300.996 56.6445 300.734 56.4648 300.352 56.3008C299.977 56.1289 299.434 55.9727 298.723 55.832C298.082 55.6914 297.484 55.5156 296.93 55.3047C296.383 55.0859 295.906 54.8242 295.5 54.5195C295.102 54.2148 294.789 53.8555 294.562 53.4414C294.336 53.0195 294.223 52.5391 294.223 52C294.223 51.4688 294.336 50.9688 294.562 50.5C294.797 50.0312 295.129 49.6172 295.559 49.2578C295.996 48.8906 296.527 48.6055 297.152 48.4023C297.785 48.1914 298.496 48.0859 299.285 48.0859C300.387 48.0859 301.332 48.2617 302.121 48.6133C302.918 48.9648 303.527 49.4492 303.949 50.0664C304.379 50.6758 304.594 51.3711 304.594 52.1523H301.219C301.219 51.8242 301.148 51.5312 301.008 51.2734C300.875 51.0078 300.664 50.8008 300.375 50.6523C300.094 50.4961 299.727 50.418 299.273 50.418C298.898 50.418 298.574 50.4844 298.301 50.6172C298.027 50.7422 297.816 50.9141 297.668 51.1328C297.527 51.3438 297.457 51.5781 297.457 51.8359C297.457 52.0312 297.496 52.207 297.574 52.3633C297.66 52.5117 297.797 52.6484 297.984 52.7734C298.172 52.8984 298.414 53.0156 298.711 53.125C299.016 53.2266 299.391 53.3203 299.836 53.4062C300.75 53.5938 301.566 53.8398 302.285 54.1445C303.004 54.4414 303.574 54.8477 303.996 55.3633C304.418 55.8711 304.629 56.5391 304.629 57.3672C304.629 57.9297 304.504 58.4453 304.254 58.9141C304.004 59.3828 303.645 59.793 303.176 60.1445C302.707 60.4883 302.145 60.7578 301.488 60.9531C300.84 61.1406 300.109 61.2344 299.297 61.2344C298.117 61.2344 297.117 61.0234 296.297 60.6016C295.484 60.1797 294.867 59.6445 294.445 58.9961C294.031 58.3398 293.824 57.668 293.824 56.9805H297.023C297.039 57.4414 297.156 57.8125 297.375 58.0938C297.602 58.375 297.887 58.5781 298.23 58.7031C298.582 58.8281 298.961 58.8906 299.367 58.8906C299.805 58.8906 300.168 58.832 300.457 58.7148C300.746 58.5898 300.965 58.4258 301.113 58.2227C301.27 58.0117 301.348 57.7695 301.348 57.4961ZM312.656 61.2344C311.672 61.2344 310.789 61.0781 310.008 60.7656C309.227 60.4453 308.562 60.0039 308.016 59.4414C307.477 58.8789 307.062 58.2266 306.773 57.4844C306.484 56.7344 306.34 55.9375 306.34 55.0938V54.625C306.34 53.6641 306.477 52.7852 306.75 51.9883C307.023 51.1914 307.414 50.5 307.922 49.9141C308.438 49.3281 309.062 48.8789 309.797 48.5664C310.531 48.2461 311.359 48.0859 312.281 48.0859C313.18 48.0859 313.977 48.2344 314.672 48.5312C315.367 48.8281 315.949 49.25 316.418 49.7969C316.895 50.3438 317.254 51 317.496 51.7656C317.738 52.5234 317.859 53.3672 317.859 54.2969V55.7031H307.781V53.4531H314.543V53.1953C314.543 52.7266 314.457 52.3086 314.285 51.9414C314.121 51.5664 313.871 51.2695 313.535 51.0508C313.199 50.832 312.77 50.7227 312.246 50.7227C311.801 50.7227 311.418 50.8203 311.098 51.0156C310.777 51.2109 310.516 51.4844 310.312 51.8359C310.117 52.1875 309.969 52.6016 309.867 53.0781C309.773 53.5469 309.727 54.0625 309.727 54.625V55.0938C309.727 55.6016 309.797 56.0703 309.938 56.5C310.086 56.9297 310.293 57.3008 310.559 57.6133C310.832 57.9258 311.16 58.168 311.543 58.3398C311.934 58.5117 312.375 58.5977 312.867 58.5977C313.477 58.5977 314.043 58.4805 314.566 58.2461C315.098 58.0039 315.555 57.6406 315.938 57.1562L317.578 58.9375C317.312 59.3203 316.949 59.6875 316.488 60.0391C316.035 60.3906 315.488 60.6797 314.848 60.9062C314.207 61.125 313.477 61.2344 312.656 61.2344ZM331.207 61H327.492L327.516 58.2578H331.207C332.129 58.2578 332.906 58.0508 333.539 57.6367C334.172 57.2148 334.648 56.6016 334.969 55.7969C335.297 54.9922 335.461 54.0195 335.461 52.8789V52.0469C335.461 51.1719 335.367 50.4023 335.18 49.7383C335 49.0742 334.73 48.5156 334.371 48.0625C334.012 47.6094 333.57 47.2695 333.047 47.043C332.523 46.8086 331.922 46.6914 331.242 46.6914H327.422V43.9375H331.242C332.383 43.9375 333.426 44.1328 334.371 44.5234C335.324 44.9062 336.148 45.457 336.844 46.1758C337.539 46.8945 338.074 47.7539 338.449 48.7539C338.832 49.7461 339.023 50.8516 339.023 52.0703V52.8789C339.023 54.0898 338.832 55.1953 338.449 56.1953C338.074 57.1953 337.539 58.0547 336.844 58.7734C336.156 59.4844 335.332 60.0352 334.371 60.4258C333.418 60.8086 332.363 61 331.207 61ZM329.484 43.9375V61H325.969V43.9375H329.484ZM347.203 61.2344C346.219 61.2344 345.336 61.0781 344.555 60.7656C343.773 60.4453 343.109 60.0039 342.562 59.4414C342.023 58.8789 341.609 58.2266 341.32 57.4844C341.031 56.7344 340.887 55.9375 340.887 55.0938V54.625C340.887 53.6641 341.023 52.7852 341.297 51.9883C341.57 51.1914 341.961 50.5 342.469 49.9141C342.984 49.3281 343.609 48.8789 344.344 48.5664C345.078 48.2461 345.906 48.0859 346.828 48.0859C347.727 48.0859 348.523 48.2344 349.219 48.5312C349.914 48.8281 350.496 49.25 350.965 49.7969C351.441 50.3438 351.801 51 352.043 51.7656C352.285 52.5234 352.406 53.3672 352.406 54.2969V55.7031H342.328V53.4531H349.09V53.1953C349.09 52.7266 349.004 52.3086 348.832 51.9414C348.668 51.5664 348.418 51.2695 348.082 51.0508C347.746 50.832 347.316 50.7227 346.793 50.7227C346.348 50.7227 345.965 50.8203 345.645 51.0156C345.324 51.2109 345.062 51.4844 344.859 51.8359C344.664 52.1875 344.516 52.6016 344.414 53.0781C344.32 53.5469 344.273 54.0625 344.273 54.625V55.0938C344.273 55.6016 344.344 56.0703 344.484 56.5C344.633 56.9297 344.84 57.3008 345.105 57.6133C345.379 57.9258 345.707 58.168 346.09 58.3398C346.48 58.5117 346.922 58.5977 347.414 58.5977C348.023 58.5977 348.59 58.4805 349.113 58.2461C349.645 58.0039 350.102 57.6406 350.484 57.1562L352.125 58.9375C351.859 59.3203 351.496 59.6875 351.035 60.0391C350.582 60.3906 350.035 60.6797 349.395 60.9062C348.754 61.125 348.023 61.2344 347.203 61.2344ZM360.539 48.3203V50.7109H353.156V48.3203H360.539ZM354.984 45.1914H358.359V57.1797C358.359 57.5469 358.406 57.8281 358.5 58.0234C358.602 58.2188 358.75 58.3555 358.945 58.4336C359.141 58.5039 359.387 58.5391 359.684 58.5391C359.895 58.5391 360.082 58.5312 360.246 58.5156C360.418 58.4922 360.562 58.4688 360.68 58.4453L360.691 60.9297C360.402 61.0234 360.09 61.0977 359.754 61.1523C359.418 61.207 359.047 61.2344 358.641 61.2344C357.898 61.2344 357.25 61.1133 356.695 60.8711C356.148 60.6211 355.727 60.2227 355.43 59.6758C355.133 59.1289 354.984 58.4102 354.984 57.5195V45.1914ZM368.297 61.2344C367.312 61.2344 366.43 61.0781 365.648 60.7656C364.867 60.4453 364.203 60.0039 363.656 59.4414C363.117 58.8789 362.703 58.2266 362.414 57.4844C362.125 56.7344 361.98 55.9375 361.98 55.0938V54.625C361.98 53.6641 362.117 52.7852 362.391 51.9883C362.664 51.1914 363.055 50.5 363.562 49.9141C364.078 49.3281 364.703 48.8789 365.438 48.5664C366.172 48.2461 367 48.0859 367.922 48.0859C368.82 48.0859 369.617 48.2344 370.312 48.5312C371.008 48.8281 371.59 49.25 372.059 49.7969C372.535 50.3438 372.895 51 373.137 51.7656C373.379 52.5234 373.5 53.3672 373.5 54.2969V55.7031H363.422V53.4531H370.184V53.1953C370.184 52.7266 370.098 52.3086 369.926 51.9414C369.762 51.5664 369.512 51.2695 369.176 51.0508C368.84 50.832 368.41 50.7227 367.887 50.7227C367.441 50.7227 367.059 50.8203 366.738 51.0156C366.418 51.2109 366.156 51.4844 365.953 51.8359C365.758 52.1875 365.609 52.6016 365.508 53.0781C365.414 53.5469 365.367 54.0625 365.367 54.625V55.0938C365.367 55.6016 365.438 56.0703 365.578 56.5C365.727 56.9297 365.934 57.3008 366.199 57.6133C366.473 57.9258 366.801 58.168 367.184 58.3398C367.574 58.5117 368.016 58.5977 368.508 58.5977C369.117 58.5977 369.684 58.4805 370.207 58.2461C370.738 58.0039 371.195 57.6406 371.578 57.1562L373.219 58.9375C372.953 59.3203 372.59 59.6875 372.129 60.0391C371.676 60.3906 371.129 60.6797 370.488 60.9062C369.848 61.125 369.117 61.2344 368.297 61.2344ZM380.66 58.5977C381.074 58.5977 381.441 58.5195 381.762 58.3633C382.082 58.1992 382.332 57.9727 382.512 57.6836C382.699 57.3867 382.797 57.0391 382.805 56.6406H385.98C385.973 57.5312 385.734 58.3242 385.266 59.0195C384.797 59.707 384.168 60.25 383.379 60.6484C382.59 61.0391 381.707 61.2344 380.73 61.2344C379.746 61.2344 378.887 61.0703 378.152 60.7422C377.426 60.4141 376.82 59.9609 376.336 59.3828C375.852 58.7969 375.488 58.1172 375.246 57.3438C375.004 56.5625 374.883 55.7266 374.883 54.8359V54.4961C374.883 53.5977 375.004 52.7617 375.246 51.9883C375.488 51.207 375.852 50.5273 376.336 49.9492C376.82 49.3633 377.426 48.9062 378.152 48.5781C378.879 48.25 379.73 48.0859 380.707 48.0859C381.746 48.0859 382.656 48.2852 383.438 48.6836C384.227 49.082 384.844 49.6523 385.289 50.3945C385.742 51.1289 385.973 52 385.98 53.0078H382.805C382.797 52.5859 382.707 52.2031 382.535 51.8594C382.371 51.5156 382.129 51.2422 381.809 51.0391C381.496 50.8281 381.109 50.7227 380.648 50.7227C380.156 50.7227 379.754 50.8281 379.441 51.0391C379.129 51.2422 378.887 51.5234 378.715 51.8828C378.543 52.2344 378.422 52.6367 378.352 53.0898C378.289 53.5352 378.258 54.0039 378.258 54.4961V54.8359C378.258 55.3281 378.289 55.8008 378.352 56.2539C378.414 56.707 378.531 57.1094 378.703 57.4609C378.883 57.8125 379.129 58.0898 379.441 58.293C379.754 58.4961 380.16 58.5977 380.66 58.5977ZM394.148 48.3203V50.7109H386.766V48.3203H394.148ZM388.594 45.1914H391.969V57.1797C391.969 57.5469 392.016 57.8281 392.109 58.0234C392.211 58.2188 392.359 58.3555 392.555 58.4336C392.75 58.5039 392.996 58.5391 393.293 58.5391C393.504 58.5391 393.691 58.5312 393.855 58.5156C394.027 58.4922 394.172 58.4688 394.289 58.4453L394.301 60.9297C394.012 61.0234 393.699 61.0977 393.363 61.1523C393.027 61.207 392.656 61.2344 392.25 61.2344C391.508 61.2344 390.859 61.1133 390.305 60.8711C389.758 60.6211 389.336 60.2227 389.039 59.6758C388.742 59.1289 388.594 58.4102 388.594 57.5195V45.1914ZM395.227 54.7891V54.543C395.227 53.6133 395.359 52.7578 395.625 51.9766C395.891 51.1875 396.277 50.5039 396.785 49.9258C397.293 49.3477 397.918 48.8984 398.66 48.5781C399.402 48.25 400.254 48.0859 401.215 48.0859C402.176 48.0859 403.031 48.25 403.781 48.5781C404.531 48.8984 405.16 49.3477 405.668 49.9258C406.184 50.5039 406.574 51.1875 406.84 51.9766C407.105 52.7578 407.238 53.6133 407.238 54.543V54.7891C407.238 55.7109 407.105 56.5664 406.84 57.3555C406.574 58.1367 406.184 58.8203 405.668 59.4062C405.16 59.9844 404.535 60.4336 403.793 60.7539C403.051 61.0742 402.199 61.2344 401.238 61.2344C400.277 61.2344 399.422 61.0742 398.672 60.7539C397.93 60.4336 397.301 59.9844 396.785 59.4062C396.277 58.8203 395.891 58.1367 395.625 57.3555C395.359 56.5664 395.227 55.7109 395.227 54.7891ZM398.602 54.543V54.7891C398.602 55.3203 398.648 55.8164 398.742 56.2773C398.836 56.7383 398.984 57.1445 399.188 57.4961C399.398 57.8398 399.672 58.1094 400.008 58.3047C400.344 58.5 400.754 58.5977 401.238 58.5977C401.707 58.5977 402.109 58.5 402.445 58.3047C402.781 58.1094 403.051 57.8398 403.254 57.4961C403.457 57.1445 403.605 56.7383 403.699 56.2773C403.801 55.8164 403.852 55.3203 403.852 54.7891V54.543C403.852 54.0273 403.801 53.543 403.699 53.0898C403.605 52.6289 403.453 52.2227 403.242 51.8711C403.039 51.5117 402.77 51.2305 402.434 51.0273C402.098 50.8242 401.691 50.7227 401.215 50.7227C400.738 50.7227 400.332 50.8242 399.996 51.0273C399.668 51.2305 399.398 51.5117 399.188 51.8711C398.984 52.2227 398.836 52.6289 398.742 53.0898C398.648 53.543 398.602 54.0273 398.602 54.543ZM412.688 51.0859V61H409.312V48.3203H412.488L412.688 51.0859ZM416.508 48.2383L416.449 51.3672C416.285 51.3438 416.086 51.3242 415.852 51.3086C415.625 51.2852 415.418 51.2734 415.23 51.2734C414.754 51.2734 414.34 51.3359 413.988 51.4609C413.645 51.5781 413.355 51.7539 413.121 51.9883C412.895 52.2227 412.723 52.5078 412.605 52.8438C412.496 53.1797 412.434 53.5625 412.418 53.9922L411.738 53.7812C411.738 52.9609 411.82 52.207 411.984 51.5195C412.148 50.8242 412.387 50.2188 412.699 49.7031C413.02 49.1875 413.41 48.7891 413.871 48.5078C414.332 48.2266 414.859 48.0859 415.453 48.0859C415.641 48.0859 415.832 48.1016 416.027 48.1328C416.223 48.1562 416.383 48.1914 416.508 48.2383Z" fill="#888888"/>
<path d="M106.688 119H99.1172L99.1641 112.672H106.688C108.25 112.672 109.57 112.297 110.648 111.547C111.742 110.797 112.57 109.68 113.133 108.195C113.711 106.695 114 104.852 114 102.664V101.188C114 99.5469 113.836 98.1094 113.508 96.875C113.195 95.625 112.727 94.5859 112.102 93.7578C111.477 92.9141 110.695 92.2812 109.758 91.8594C108.836 91.4375 107.773 91.2266 106.57 91.2266H98.9766V84.875H106.57C108.883 84.875 111 85.2734 112.922 86.0703C114.859 86.8516 116.531 87.9766 117.938 89.4453C119.359 90.8984 120.453 92.625 121.219 94.625C122 96.6094 122.391 98.8125 122.391 101.234V102.664C122.391 105.07 122 107.273 121.219 109.273C120.453 111.273 119.367 113 117.961 114.453C116.555 115.906 114.891 117.031 112.969 117.828C111.062 118.609 108.969 119 106.688 119ZM103.828 84.875V119H95.6016V84.875H103.828ZM139.477 112.625V102.172C139.477 101.453 139.375 100.836 139.172 100.32C138.969 99.8047 138.648 99.4062 138.211 99.125C137.773 98.8281 137.188 98.6797 136.453 98.6797C135.859 98.6797 135.352 98.7812 134.93 98.9844C134.508 99.1875 134.188 99.4922 133.969 99.8984C133.75 100.305 133.641 100.82 133.641 101.445H125.742C125.742 100.273 126 99.1875 126.516 98.1875C127.047 97.1719 127.797 96.2891 128.766 95.5391C129.75 94.7891 130.922 94.2109 132.281 93.8047C133.656 93.3828 135.188 93.1719 136.875 93.1719C138.891 93.1719 140.688 93.5078 142.266 94.1797C143.859 94.8516 145.117 95.8594 146.039 97.2031C146.961 98.5312 147.422 100.203 147.422 102.219V112.602C147.422 114.258 147.516 115.516 147.703 116.375C147.891 117.219 148.156 117.961 148.5 118.602V119H140.578C140.203 118.219 139.922 117.266 139.734 116.141C139.562 115 139.477 113.828 139.477 112.625ZM140.438 103.508L140.484 107.727H136.992C136.258 107.727 135.633 107.828 135.117 108.031C134.617 108.234 134.211 108.516 133.898 108.875C133.602 109.219 133.383 109.609 133.242 110.047C133.117 110.484 133.055 110.945 133.055 111.43C133.055 111.898 133.164 112.32 133.383 112.695C133.617 113.055 133.93 113.336 134.32 113.539C134.711 113.742 135.148 113.844 135.633 113.844C136.508 113.844 137.25 113.68 137.859 113.352C138.484 113.008 138.961 112.594 139.289 112.109C139.617 111.625 139.781 111.172 139.781 110.75L141.516 113.984C141.203 114.609 140.844 115.242 140.438 115.883C140.047 116.523 139.555 117.117 138.961 117.664C138.383 118.195 137.672 118.633 136.828 118.977C135.984 119.305 134.961 119.469 133.758 119.469C132.195 119.469 130.758 119.148 129.445 118.508C128.148 117.867 127.109 116.977 126.328 115.836C125.547 114.68 125.156 113.352 125.156 111.852C125.156 110.539 125.391 109.367 125.859 108.336C126.344 107.305 127.07 106.43 128.039 105.711C129.008 104.992 130.242 104.445 131.742 104.07C133.242 103.695 135.008 103.508 137.039 103.508H140.438ZM165.164 93.6406V99.125H149.883V93.6406H165.164ZM153.094 87.3359H160.992V110.727C160.992 111.398 161.07 111.922 161.227 112.297C161.383 112.656 161.648 112.914 162.023 113.07C162.414 113.211 162.93 113.281 163.57 113.281C164.023 113.281 164.398 113.273 164.695 113.258C164.992 113.227 165.273 113.188 165.539 113.141V118.789C164.867 119.008 164.164 119.172 163.43 119.281C162.695 119.406 161.914 119.469 161.086 119.469C159.398 119.469 157.953 119.203 156.75 118.672C155.562 118.141 154.656 117.305 154.031 116.164C153.406 115.023 153.094 113.539 153.094 111.711V87.3359ZM181.477 112.625V102.172C181.477 101.453 181.375 100.836 181.172 100.32C180.969 99.8047 180.648 99.4062 180.211 99.125C179.773 98.8281 179.188 98.6797 178.453 98.6797C177.859 98.6797 177.352 98.7812 176.93 98.9844C176.508 99.1875 176.188 99.4922 175.969 99.8984C175.75 100.305 175.641 100.82 175.641 101.445H167.742C167.742 100.273 168 99.1875 168.516 98.1875C169.047 97.1719 169.797 96.2891 170.766 95.5391C171.75 94.7891 172.922 94.2109 174.281 93.8047C175.656 93.3828 177.188 93.1719 178.875 93.1719C180.891 93.1719 182.688 93.5078 184.266 94.1797C185.859 94.8516 187.117 95.8594 188.039 97.2031C188.961 98.5312 189.422 100.203 189.422 102.219V112.602C189.422 114.258 189.516 115.516 189.703 116.375C189.891 117.219 190.156 117.961 190.5 118.602V119H182.578C182.203 118.219 181.922 117.266 181.734 116.141C181.562 115 181.477 113.828 181.477 112.625ZM182.438 103.508L182.484 107.727H178.992C178.258 107.727 177.633 107.828 177.117 108.031C176.617 108.234 176.211 108.516 175.898 108.875C175.602 109.219 175.383 109.609 175.242 110.047C175.117 110.484 175.055 110.945 175.055 111.43C175.055 111.898 175.164 112.32 175.383 112.695C175.617 113.055 175.93 113.336 176.32 113.539C176.711 113.742 177.148 113.844 177.633 113.844C178.508 113.844 179.25 113.68 179.859 113.352C180.484 113.008 180.961 112.594 181.289 112.109C181.617 111.625 181.781 111.172 181.781 110.75L183.516 113.984C183.203 114.609 182.844 115.242 182.438 115.883C182.047 116.523 181.555 117.117 180.961 117.664C180.383 118.195 179.672 118.633 178.828 118.977C177.984 119.305 176.961 119.469 175.758 119.469C174.195 119.469 172.758 119.148 171.445 118.508C170.148 117.867 169.109 116.977 168.328 115.836C167.547 114.68 167.156 113.352 167.156 111.852C167.156 110.539 167.391 109.367 167.859 108.336C168.344 107.305 169.07 106.43 170.039 105.711C171.008 104.992 172.242 104.445 173.742 104.07C175.242 103.695 177.008 103.508 179.039 103.508H182.438ZM193.875 83H201.773V112.766L200.953 119H193.875V83ZM217.336 106.039V106.531C217.336 108.453 217.141 110.203 216.75 111.781C216.359 113.359 215.758 114.727 214.945 115.883C214.133 117.023 213.109 117.906 211.875 118.531C210.641 119.156 209.18 119.469 207.492 119.469C205.961 119.469 204.648 119.141 203.555 118.484C202.461 117.812 201.547 116.891 200.812 115.719C200.078 114.531 199.484 113.164 199.031 111.617C198.578 110.055 198.219 108.383 197.953 106.602V106.016C198.219 104.25 198.578 102.594 199.031 101.047C199.484 99.4844 200.078 98.1172 200.812 96.9453C201.547 95.7578 202.453 94.8359 203.531 94.1797C204.625 93.5078 205.93 93.1719 207.445 93.1719C209.148 93.1719 210.617 93.4922 211.852 94.1328C213.102 94.7734 214.133 95.6719 214.945 96.8281C215.758 97.9844 216.359 99.3438 216.75 100.906C217.141 102.469 217.336 104.18 217.336 106.039ZM209.438 106.531V106.039C209.438 105.117 209.383 104.25 209.273 103.438C209.164 102.625 208.969 101.906 208.688 101.281C208.406 100.656 208.008 100.164 207.492 99.8047C206.977 99.4453 206.305 99.2656 205.477 99.2656C204.633 99.2656 203.922 99.4062 203.344 99.6875C202.781 99.9688 202.328 100.375 201.984 100.906C201.656 101.422 201.422 102.062 201.281 102.828C201.141 103.578 201.078 104.43 201.094 105.383V107.234C201.062 108.531 201.18 109.641 201.445 110.562C201.711 111.484 202.172 112.188 202.828 112.672C203.484 113.156 204.383 113.398 205.523 113.398C206.367 113.398 207.047 113.234 207.562 112.906C208.094 112.578 208.492 112.109 208.758 111.5C209.023 110.891 209.203 110.164 209.297 109.32C209.391 108.477 209.438 107.547 209.438 106.531ZM234.023 112.625V102.172C234.023 101.453 233.922 100.836 233.719 100.32C233.516 99.8047 233.195 99.4062 232.758 99.125C232.32 98.8281 231.734 98.6797 231 98.6797C230.406 98.6797 229.898 98.7812 229.477 98.9844C229.055 99.1875 228.734 99.4922 228.516 99.8984C228.297 100.305 228.188 100.82 228.188 101.445H220.289C220.289 100.273 220.547 99.1875 221.062 98.1875C221.594 97.1719 222.344 96.2891 223.312 95.5391C224.297 94.7891 225.469 94.2109 226.828 93.8047C228.203 93.3828 229.734 93.1719 231.422 93.1719C233.438 93.1719 235.234 93.5078 236.812 94.1797C238.406 94.8516 239.664 95.8594 240.586 97.2031C241.508 98.5312 241.969 100.203 241.969 102.219V112.602C241.969 114.258 242.062 115.516 242.25 116.375C242.438 117.219 242.703 117.961 243.047 118.602V119H235.125C234.75 118.219 234.469 117.266 234.281 116.141C234.109 115 234.023 113.828 234.023 112.625ZM234.984 103.508L235.031 107.727H231.539C230.805 107.727 230.18 107.828 229.664 108.031C229.164 108.234 228.758 108.516 228.445 108.875C228.148 109.219 227.93 109.609 227.789 110.047C227.664 110.484 227.602 110.945 227.602 111.43C227.602 111.898 227.711 112.32 227.93 112.695C228.164 113.055 228.477 113.336 228.867 113.539C229.258 113.742 229.695 113.844 230.18 113.844C231.055 113.844 231.797 113.68 232.406 113.352C233.031 113.008 233.508 112.594 233.836 112.109C234.164 111.625 234.328 111.172 234.328 110.75L236.062 113.984C235.75 114.609 235.391 115.242 234.984 115.883C234.594 116.523 234.102 117.117 233.508 117.664C232.93 118.195 232.219 118.633 231.375 118.977C230.531 119.305 229.508 119.469 228.305 119.469C226.742 119.469 225.305 119.148 223.992 118.508C222.695 117.867 221.656 116.977 220.875 115.836C220.094 114.68 219.703 113.352 219.703 111.852C219.703 110.539 219.938 109.367 220.406 108.336C220.891 107.305 221.617 106.43 222.586 105.711C223.555 104.992 224.789 104.445 226.289 104.07C227.789 103.695 229.555 103.508 231.586 103.508H234.984ZM259.641 111.875C259.641 111.438 259.492 111.062 259.195 110.75C258.914 110.422 258.414 110.125 257.695 109.859C256.977 109.578 255.969 109.297 254.672 109.016C253.438 108.75 252.273 108.398 251.18 107.961C250.102 107.523 249.156 106.992 248.344 106.367C247.531 105.742 246.891 105 246.422 104.141C245.969 103.281 245.742 102.297 245.742 101.188C245.742 100.109 245.969 99.0938 246.422 98.1406C246.891 97.1719 247.57 96.3203 248.461 95.5859C249.367 94.8359 250.469 94.25 251.766 93.8281C253.062 93.3906 254.539 93.1719 256.195 93.1719C258.477 93.1719 260.445 93.5234 262.102 94.2266C263.758 94.9141 265.031 95.8828 265.922 97.1328C266.828 98.3672 267.281 99.7969 267.281 101.422H259.383C259.383 100.781 259.273 100.234 259.055 99.7812C258.852 99.3281 258.516 98.9844 258.047 98.75C257.578 98.5 256.953 98.375 256.172 98.375C255.625 98.375 255.125 98.4766 254.672 98.6797C254.234 98.8828 253.883 99.1641 253.617 99.5234C253.352 99.8828 253.219 100.305 253.219 100.789C253.219 101.133 253.297 101.445 253.453 101.727C253.625 101.992 253.883 102.242 254.227 102.477C254.57 102.695 255.008 102.898 255.539 103.086C256.07 103.258 256.711 103.414 257.461 103.555C259.164 103.867 260.758 104.312 262.242 104.891C263.727 105.469 264.93 106.289 265.852 107.352C266.789 108.414 267.258 109.844 267.258 111.641C267.258 112.766 267 113.805 266.484 114.758C265.969 115.695 265.227 116.523 264.258 117.242C263.289 117.945 262.125 118.492 260.766 118.883C259.406 119.273 257.875 119.469 256.172 119.469C253.75 119.469 251.703 119.039 250.031 118.18C248.359 117.305 247.094 116.211 246.234 114.898C245.391 113.57 244.969 112.227 244.969 110.867H252.328C252.359 111.648 252.547 112.289 252.891 112.789C253.25 113.289 253.727 113.656 254.32 113.891C254.914 114.125 255.602 114.242 256.383 114.242C257.102 114.242 257.695 114.141 258.164 113.938C258.648 113.734 259.016 113.461 259.266 113.117C259.516 112.758 259.641 112.344 259.641 111.875ZM283.242 119.469C281.18 119.469 279.336 119.148 277.711 118.508C276.086 117.852 274.711 116.953 273.586 115.812C272.477 114.672 271.625 113.359 271.031 111.875C270.453 110.391 270.164 108.82 270.164 107.164V106.273C270.164 104.414 270.422 102.695 270.938 101.117C271.453 99.5234 272.219 98.1328 273.234 96.9453C274.25 95.7578 275.523 94.8359 277.055 94.1797C278.586 93.5078 280.367 93.1719 282.398 93.1719C284.195 93.1719 285.805 93.4609 287.227 94.0391C288.648 94.6172 289.852 95.4453 290.836 96.5234C291.836 97.6016 292.594 98.9062 293.109 100.438C293.641 101.969 293.906 103.688 293.906 105.594V108.805H273.188V103.859H286.195V103.25C286.211 102.406 286.062 101.688 285.75 101.094C285.453 100.5 285.016 100.047 284.438 99.7344C283.859 99.4219 283.156 99.2656 282.328 99.2656C281.469 99.2656 280.758 99.4531 280.195 99.8281C279.648 100.203 279.219 100.719 278.906 101.375C278.609 102.016 278.398 102.758 278.273 103.602C278.148 104.445 278.086 105.336 278.086 106.273V107.164C278.086 108.102 278.211 108.953 278.461 109.719C278.727 110.484 279.102 111.141 279.586 111.688C280.086 112.219 280.68 112.633 281.367 112.93C282.07 113.227 282.867 113.375 283.758 113.375C284.836 113.375 285.898 113.172 286.945 112.766C287.992 112.359 288.891 111.688 289.641 110.75L293.227 115.016C292.711 115.75 291.977 116.461 291.023 117.148C290.086 117.836 288.961 118.398 287.648 118.836C286.336 119.258 284.867 119.469 283.242 119.469ZM320.531 119H312.961L313.008 112.672H320.531C322.094 112.672 323.414 112.297 324.492 111.547C325.586 110.797 326.414 109.68 326.977 108.195C327.555 106.695 327.844 104.852 327.844 102.664V101.188C327.844 99.5469 327.68 98.1094 327.352 96.875C327.039 95.625 326.57 94.5859 325.945 93.7578C325.32 92.9141 324.539 92.2812 323.602 91.8594C322.68 91.4375 321.617 91.2266 320.414 91.2266H312.82V84.875H320.414C322.727 84.875 324.844 85.2734 326.766 86.0703C328.703 86.8516 330.375 87.9766 331.781 89.4453C333.203 90.8984 334.297 92.625 335.062 94.625C335.844 96.6094 336.234 98.8125 336.234 101.234V102.664C336.234 105.07 335.844 107.273 335.062 109.273C334.297 111.273 333.211 113 331.805 114.453C330.398 115.906 328.734 117.031 326.812 117.828C324.906 118.609 322.812 119 320.531 119ZM317.672 84.875V119H309.445V84.875H317.672ZM352.43 119.469C350.367 119.469 348.523 119.148 346.898 118.508C345.273 117.852 343.898 116.953 342.773 115.812C341.664 114.672 340.812 113.359 340.219 111.875C339.641 110.391 339.352 108.82 339.352 107.164V106.273C339.352 104.414 339.609 102.695 340.125 101.117C340.641 99.5234 341.406 98.1328 342.422 96.9453C343.438 95.7578 344.711 94.8359 346.242 94.1797C347.773 93.5078 349.555 93.1719 351.586 93.1719C353.383 93.1719 354.992 93.4609 356.414 94.0391C357.836 94.6172 359.039 95.4453 360.023 96.5234C361.023 97.6016 361.781 98.9062 362.297 100.438C362.828 101.969 363.094 103.688 363.094 105.594V108.805H342.375V103.859H355.383V103.25C355.398 102.406 355.25 101.688 354.938 101.094C354.641 100.5 354.203 100.047 353.625 99.7344C353.047 99.4219 352.344 99.2656 351.516 99.2656C350.656 99.2656 349.945 99.4531 349.383 99.8281C348.836 100.203 348.406 100.719 348.094 101.375C347.797 102.016 347.586 102.758 347.461 103.602C347.336 104.445 347.273 105.336 347.273 106.273V107.164C347.273 108.102 347.398 108.953 347.648 109.719C347.914 110.484 348.289 111.141 348.773 111.688C349.273 112.219 349.867 112.633 350.555 112.93C351.258 113.227 352.055 113.375 352.945 113.375C354.023 113.375 355.086 113.172 356.133 112.766C357.18 112.359 358.078 111.688 358.828 110.75L362.414 115.016C361.898 115.75 361.164 116.461 360.211 117.148C359.273 117.836 358.148 118.398 356.836 118.836C355.523 119.258 354.055 119.469 352.43 119.469ZM379.594 111.875C379.594 111.438 379.445 111.062 379.148 110.75C378.867 110.422 378.367 110.125 377.648 109.859C376.93 109.578 375.922 109.297 374.625 109.016C373.391 108.75 372.227 108.398 371.133 107.961C370.055 107.523 369.109 106.992 368.297 106.367C367.484 105.742 366.844 105 366.375 104.141C365.922 103.281 365.695 102.297 365.695 101.188C365.695 100.109 365.922 99.0938 366.375 98.1406C366.844 97.1719 367.523 96.3203 368.414 95.5859C369.32 94.8359 370.422 94.25 371.719 93.8281C373.016 93.3906 374.492 93.1719 376.148 93.1719C378.43 93.1719 380.398 93.5234 382.055 94.2266C383.711 94.9141 384.984 95.8828 385.875 97.1328C386.781 98.3672 387.234 99.7969 387.234 101.422H379.336C379.336 100.781 379.227 100.234 379.008 99.7812C378.805 99.3281 378.469 98.9844 378 98.75C377.531 98.5 376.906 98.375 376.125 98.375C375.578 98.375 375.078 98.4766 374.625 98.6797C374.188 98.8828 373.836 99.1641 373.57 99.5234C373.305 99.8828 373.172 100.305 373.172 100.789C373.172 101.133 373.25 101.445 373.406 101.727C373.578 101.992 373.836 102.242 374.18 102.477C374.523 102.695 374.961 102.898 375.492 103.086C376.023 103.258 376.664 103.414 377.414 103.555C379.117 103.867 380.711 104.312 382.195 104.891C383.68 105.469 384.883 106.289 385.805 107.352C386.742 108.414 387.211 109.844 387.211 111.641C387.211 112.766 386.953 113.805 386.438 114.758C385.922 115.695 385.18 116.523 384.211 117.242C383.242 117.945 382.078 118.492 380.719 118.883C379.359 119.273 377.828 119.469 376.125 119.469C373.703 119.469 371.656 119.039 369.984 118.18C368.312 117.305 367.047 116.211 366.188 114.898C365.344 113.57 364.922 112.227 364.922 110.867H372.281C372.312 111.648 372.5 112.289 372.844 112.789C373.203 113.289 373.68 113.656 374.273 113.891C374.867 114.125 375.555 114.242 376.336 114.242C377.055 114.242 377.648 114.141 378.117 113.938C378.602 113.734 378.969 113.461 379.219 113.117C379.469 112.758 379.594 112.344 379.594 111.875ZM399.258 93.6406V119H391.336V93.6406H399.258ZM390.867 87.1016C390.867 85.9766 391.273 85.0547 392.086 84.3359C392.898 83.6172 393.953 83.2578 395.25 83.2578C396.547 83.2578 397.602 83.6172 398.414 84.3359C399.227 85.0547 399.633 85.9766 399.633 87.1016C399.633 88.2266 399.227 89.1484 398.414 89.8672C397.602 90.5859 396.547 90.9453 395.25 90.9453C393.953 90.9453 392.898 90.5859 392.086 89.8672C391.273 89.1484 390.867 88.2266 390.867 87.1016ZM420.07 93.6406H427.242V118.016C427.242 120.359 426.703 122.344 425.625 123.969C424.547 125.609 423.039 126.852 421.102 127.695C419.18 128.555 416.93 128.984 414.352 128.984C413.211 128.984 412.047 128.836 410.859 128.539C409.672 128.258 408.562 127.836 407.531 127.273C406.5 126.711 405.633 126.016 404.93 125.188L408.234 120.547C408.875 121.266 409.68 121.875 410.648 122.375C411.617 122.891 412.758 123.148 414.07 123.148C415.211 123.148 416.164 122.945 416.93 122.539C417.711 122.133 418.305 121.539 418.711 120.758C419.117 119.992 419.32 119.062 419.32 117.969V99.6406L420.07 93.6406ZM403.219 106.625V106.133C403.219 104.211 403.453 102.461 403.922 100.883C404.406 99.2891 405.094 97.9219 405.984 96.7812C406.891 95.625 407.984 94.7344 409.266 94.1094C410.547 93.4844 411.992 93.1719 413.602 93.1719C415.336 93.1719 416.758 93.5078 417.867 94.1797C418.992 94.8359 419.891 95.7578 420.562 96.9453C421.25 98.1328 421.781 99.5234 422.156 101.117C422.547 102.695 422.875 104.398 423.141 106.227V106.812C422.875 108.531 422.508 110.156 422.039 111.688C421.586 113.203 420.992 114.547 420.258 115.719C419.523 116.891 418.602 117.812 417.492 118.484C416.398 119.141 415.086 119.469 413.555 119.469C411.961 119.469 410.523 119.148 409.242 118.508C407.977 117.867 406.891 116.969 405.984 115.812C405.094 114.656 404.406 113.297 403.922 111.734C403.453 110.172 403.219 108.469 403.219 106.625ZM411.117 106.133V106.625C411.117 107.578 411.203 108.461 411.375 109.273C411.562 110.086 411.844 110.805 412.219 111.43C412.594 112.039 413.055 112.516 413.602 112.859C414.164 113.203 414.82 113.375 415.57 113.375C416.711 113.375 417.633 113.133 418.336 112.648C419.039 112.164 419.547 111.477 419.859 110.586C420.172 109.695 420.305 108.648 420.258 107.445V105.594C420.289 104.562 420.219 103.656 420.047 102.875C419.875 102.078 419.602 101.414 419.227 100.883C418.867 100.352 418.383 99.9531 417.773 99.6875C417.18 99.4062 416.461 99.2656 415.617 99.2656C414.883 99.2656 414.234 99.4375 413.672 99.7812C413.109 100.125 412.641 100.609 412.266 101.234C411.891 101.844 411.602 102.57 411.398 103.414C411.211 104.242 411.117 105.148 411.117 106.133ZM439.547 99.0547V119H431.648V93.6406H439.055L439.547 99.0547ZM438.609 105.453L436.758 105.5C436.758 103.562 436.992 101.836 437.461 100.32C437.93 98.7891 438.594 97.4922 439.453 96.4297C440.312 95.3672 441.336 94.5625 442.523 94.0156C443.727 93.4531 445.062 93.1719 446.531 93.1719C447.703 93.1719 448.773 93.3438 449.742 93.6875C450.727 94.0312 451.57 94.5859 452.273 95.3516C452.992 96.1172 453.539 97.1328 453.914 98.3984C454.305 99.6484 454.5 101.195 454.5 103.039V119H446.555V103.016C446.555 102 446.414 101.227 446.133 100.695C445.852 100.148 445.445 99.7734 444.914 99.5703C444.383 99.3672 443.734 99.2656 442.969 99.2656C442.156 99.2656 441.469 99.4219 440.906 99.7344C440.344 100.047 439.891 100.484 439.547 101.047C439.219 101.594 438.977 102.242 438.82 102.992C438.68 103.742 438.609 104.562 438.609 105.453Z" fill="black"/>
<path d="M1134 0H1348C1356.28 0 1363 6.71573 1363 15V148C1363 156.284 1356.28 163 1348 163H1134V0Z" fill="#F7713D"/>
<path d="M1217.58 64.1667C1217.58 66.0281 1218.51 67.7419 1220.09 69.2434C1221.67 70.7429 1223.94 72.0619 1226.71 73.1553C1232.26 75.343 1239.93 76.6667 1248.5 76.6667C1257.07 76.6667 1264.74 75.343 1270.29 73.1553C1273.06 72.0619 1275.33 70.7429 1276.91 69.2434C1278.49 67.7419 1279.42 66.0281 1279.42 64.1667C1279.42 62.3052 1278.49 60.5914 1276.91 59.0899C1275.33 57.5904 1273.06 56.2714 1270.29 55.178C1264.74 52.9903 1257.07 51.6667 1248.5 51.6667C1239.93 51.6667 1232.26 52.9903 1226.71 55.178C1223.94 56.2714 1221.67 57.5904 1220.09 59.0899C1218.51 60.5914 1217.58 62.3052 1217.58 64.1667ZM1221.62 64.1667C1221.62 63.0283 1222.37 61.8878 1223.88 60.7921C1225.37 59.7041 1227.52 58.7293 1230.11 57.9144C1235.28 56.2864 1242.07 55.3333 1248.5 55.3333C1254.93 55.3333 1261.72 56.2864 1266.89 57.9144C1269.48 58.7293 1271.63 59.7041 1273.12 60.7921C1274.63 61.8878 1275.37 63.0283 1275.37 64.1667C1275.37 65.305 1274.63 66.4455 1273.12 67.5412C1271.63 68.6292 1269.48 69.604 1266.89 70.4189C1261.72 72.0469 1254.93 73 1248.5 73C1242.07 73 1235.28 72.0469 1230.11 70.4189C1227.52 69.604 1225.37 68.6292 1223.88 67.5412C1222.37 66.4455 1221.62 65.305 1221.62 64.1667Z" fill="white" stroke="white"/>
<path d="M1217.58 74.8333C1217.58 76.6948 1218.51 78.4086 1220.09 79.9101C1221.67 81.4096 1223.94 82.7286 1226.71 83.822C1232.26 86.0097 1239.93 87.3333 1248.5 87.3333C1257.07 87.3333 1264.74 86.0097 1270.29 83.822C1273.06 82.7286 1275.33 81.4096 1276.91 79.9101C1278.49 78.4086 1279.42 76.6948 1279.42 74.8333V64.1667C1279.42 63.6576 1279.19 63.1851 1278.8 62.8479C1278.42 62.5126 1277.91 62.3333 1277.4 62.3333C1276.88 62.3333 1276.37 62.5126 1275.99 62.8479C1275.61 63.1851 1275.37 63.6576 1275.37 64.1667V74.8333C1275.37 75.9717 1274.63 77.1122 1273.12 78.2079C1271.63 79.2959 1269.48 80.2707 1266.89 81.0856C1261.72 82.7136 1254.93 83.6667 1248.5 83.6667C1242.07 83.6667 1235.28 82.7136 1230.11 81.0856C1227.52 80.2707 1225.37 79.2959 1223.88 78.2079C1222.37 77.1122 1221.62 75.9717 1221.62 74.8333V64.1667C1221.62 63.6576 1221.39 63.1851 1221.01 62.8479C1220.63 62.5126 1220.12 62.3333 1219.6 62.3333C1219.09 62.3333 1218.58 62.5126 1218.2 62.8479C1217.81 63.1851 1217.58 63.6576 1217.58 64.1667V74.8333Z" fill="white" stroke="white"/>
<path d="M1217.58 86.8333C1217.58 88.6948 1218.51 90.4086 1220.09 91.9101C1221.67 93.4095 1223.94 94.7286 1226.71 95.8219C1232.26 98.0097 1239.93 99.3333 1248.5 99.3333C1257.07 99.3333 1264.74 98.0097 1270.29 95.8219C1273.06 94.7286 1275.33 93.4095 1276.91 91.9101C1278.49 90.4086 1279.42 88.6948 1279.42 86.8333V74.8333C1279.42 74.3243 1279.19 73.8517 1278.8 73.5146C1278.42 73.1792 1277.91 73 1277.4 73C1276.88 73 1276.37 73.1792 1275.99 73.5146C1275.61 73.8517 1275.37 74.3243 1275.37 74.8333V86.8333C1275.37 87.9717 1274.63 89.1122 1273.12 90.2079C1271.63 91.2958 1269.48 92.2707 1266.89 93.0856C1261.72 94.7136 1254.93 95.6667 1248.5 95.6667C1242.07 95.6667 1235.28 94.7136 1230.11 93.0856C1227.52 92.2707 1225.37 91.2958 1223.88 90.2079C1222.37 89.1122 1221.62 87.9717 1221.62 86.8333V74.8333C1221.62 74.3243 1221.39 73.8517 1221.01 73.5146C1220.63 73.1792 1220.12 73 1219.6 73C1219.09 73 1218.58 73.1792 1218.2 73.5146C1217.81 73.8517 1217.58 74.3243 1217.58 74.8333V86.8333Z" fill="white" stroke="white"/>
<path d="M1217.58 98.8333C1217.58 100.695 1218.51 102.409 1220.09 103.91C1221.67 105.41 1223.94 106.729 1226.71 107.822C1232.26 110.01 1239.93 111.333 1248.5 111.333C1257.07 111.333 1264.74 110.01 1270.29 107.822C1273.06 106.729 1275.33 105.41 1276.91 103.91C1278.49 102.409 1279.42 100.695 1279.42 98.8333V86.8333C1279.42 86.3243 1279.19 85.8517 1278.8 85.5146C1278.42 85.1792 1277.91 85 1277.4 85C1276.88 85 1276.37 85.1792 1275.99 85.5146C1275.61 85.8517 1275.37 86.3243 1275.37 86.8333V98.8333C1275.37 99.9717 1274.63 101.112 1273.12 102.208C1271.63 103.296 1269.48 104.271 1266.89 105.086C1261.72 106.714 1254.93 107.667 1248.5 107.667C1242.07 107.667 1235.28 106.714 1230.11 105.086C1227.52 104.271 1225.37 103.296 1223.88 102.208C1222.37 101.112 1221.62 99.9717 1221.62 98.8333V86.8333C1221.62 86.3243 1221.39 85.8517 1221.01 85.5146C1220.63 85.1792 1220.12 85 1219.6 85C1219.09 85 1218.58 85.1792 1218.2 85.5146C1217.81 85.8517 1217.58 86.3243 1217.58 86.8333V98.8333Z" fill="white" stroke="white"/>
</svg>
