<svg width="1363" height="163" viewBox="0 0 1363 163" fill="none" xmlns="http://www.w3.org/2000/svg">
<path d="M0 15C0 6.71573 6.71573 0 15 0H37V163H15C6.71573 163 0 156.284 0 148V15Z" fill="#F7713D"/>
<rect width="1097" height="163" transform="translate(37)" fill="#F0F0F0"/>
<path d="M101.906 53.9219L94.3945 51.2383V48.0859L104.602 52.375V54.6367L101.906 53.9219ZM94.3945 56.1719L101.918 53.4297L104.602 52.7852V55.0352L94.3945 59.3242V56.1719ZM119.578 53.5117H115.195L115.172 51.0977H118.852C119.5 51.0977 120.031 51.0156 120.445 50.8516C120.859 50.6797 121.168 50.4336 121.371 50.1133C121.582 49.7852 121.688 49.3867 121.688 48.918C121.688 48.3867 121.586 47.957 121.383 47.6289C121.188 47.3008 120.879 47.0625 120.457 46.9141C120.043 46.7656 119.508 46.6914 118.852 46.6914H116.414V61H112.898V43.9375H118.852C119.844 43.9375 120.73 44.0312 121.512 44.2188C122.301 44.4062 122.969 44.6914 123.516 45.0742C124.062 45.457 124.48 45.9414 124.77 46.5273C125.059 47.1055 125.203 47.793 125.203 48.5898C125.203 49.293 125.043 49.9414 124.723 50.5352C124.41 51.1289 123.914 51.6133 123.234 51.9883C122.562 52.3633 121.684 52.5703 120.598 52.6094L119.578 53.5117ZM119.426 61H114.234L115.605 58.2578H119.426C120.043 58.2578 120.547 58.1602 120.938 57.9648C121.328 57.7617 121.617 57.4883 121.805 57.1445C121.992 56.8008 122.086 56.4062 122.086 55.9609C122.086 55.4609 122 55.0273 121.828 54.6602C121.664 54.293 121.398 54.0117 121.031 53.8164C120.664 53.6133 120.18 53.5117 119.578 53.5117H116.191L116.215 51.0977H120.434L121.242 52.0469C122.281 52.0312 123.117 52.2148 123.75 52.5977C124.391 52.9727 124.855 53.4609 125.145 54.0625C125.441 54.6641 125.59 55.3086 125.59 55.9961C125.59 57.0898 125.352 58.0117 124.875 58.7617C124.398 59.5039 123.699 60.0625 122.777 60.4375C121.863 60.8125 120.746 61 119.426 61ZM134.859 58.1406V52.4922C134.859 52.0859 134.793 51.7383 134.66 51.4492C134.527 51.1523 134.32 50.9219 134.039 50.7578C133.766 50.5938 133.41 50.5117 132.973 50.5117C132.598 50.5117 132.273 50.5781 132 50.7109C131.727 50.8359 131.516 51.0195 131.367 51.2617C131.219 51.4961 131.145 51.7734 131.145 52.0938H127.77C127.77 51.5547 127.895 51.043 128.145 50.5586C128.395 50.0742 128.758 49.6484 129.234 49.2812C129.711 48.9062 130.277 48.6133 130.934 48.4023C131.598 48.1914 132.34 48.0859 133.16 48.0859C134.145 48.0859 135.02 48.25 135.785 48.5781C136.551 48.9062 137.152 49.3984 137.59 50.0547C138.035 50.7109 138.258 51.5312 138.258 52.5156V57.9414C138.258 58.6367 138.301 59.207 138.387 59.6523C138.473 60.0898 138.598 60.4727 138.762 60.8008V61H135.352C135.188 60.6562 135.062 60.2266 134.977 59.7109C134.898 59.1875 134.859 58.6641 134.859 58.1406ZM135.305 53.2773L135.328 55.1875H133.441C132.996 55.1875 132.609 55.2383 132.281 55.3398C131.953 55.4414 131.684 55.5859 131.473 55.7734C131.262 55.9531 131.105 56.1641 131.004 56.4062C130.91 56.6484 130.863 56.9141 130.863 57.2031C130.863 57.4922 130.93 57.7539 131.062 57.9883C131.195 58.2148 131.387 58.3945 131.637 58.5273C131.887 58.6523 132.18 58.7148 132.516 58.7148C133.023 58.7148 133.465 58.6133 133.84 58.4102C134.215 58.207 134.504 57.957 134.707 57.6602C134.918 57.3633 135.027 57.082 135.035 56.8164L135.926 58.2461C135.801 58.5664 135.629 58.8984 135.41 59.2422C135.199 59.5859 134.93 59.9102 134.602 60.2148C134.273 60.5117 133.879 60.7578 133.418 60.9531C132.957 61.1406 132.41 61.2344 131.777 61.2344C130.973 61.2344 130.242 61.0742 129.586 60.7539C128.938 60.4258 128.422 59.9766 128.039 59.4062C127.664 58.8281 127.477 58.1719 127.477 57.4375C127.477 56.7734 127.602 56.1836 127.852 55.668C128.102 55.1523 128.469 54.7188 128.953 54.3672C129.445 54.0078 130.059 53.7383 130.793 53.5586C131.527 53.3711 132.379 53.2773 133.348 53.2773H135.305ZM147.07 48.3203V50.7109H139.688V48.3203H147.07ZM141.516 45.1914H144.891V57.1797C144.891 57.5469 144.938 57.8281 145.031 58.0234C145.133 58.2188 145.281 58.3555 145.477 58.4336C145.672 58.5039 145.918 58.5391 146.215 58.5391C146.426 58.5391 146.613 58.5312 146.777 58.5156C146.949 58.4922 147.094 58.4688 147.211 58.4453L147.223 60.9297C146.934 61.0234 146.621 61.0977 146.285 61.1523C145.949 61.207 145.578 61.2344 145.172 61.2344C144.43 61.2344 143.781 61.1133 143.227 60.8711C142.68 60.6211 142.258 60.2227 141.961 59.6758C141.664 59.1289 141.516 58.4102 141.516 57.5195V45.1914ZM155.836 58.1406V52.4922C155.836 52.0859 155.77 51.7383 155.637 51.4492C155.504 51.1523 155.297 50.9219 155.016 50.7578C154.742 50.5938 154.387 50.5117 153.949 50.5117C153.574 50.5117 153.25 50.5781 152.977 50.7109C152.703 50.8359 152.492 51.0195 152.344 51.2617C152.195 51.4961 152.121 51.7734 152.121 52.0938H148.746C148.746 51.5547 148.871 51.043 149.121 50.5586C149.371 50.0742 149.734 49.6484 150.211 49.2812C150.688 48.9062 151.254 48.6133 151.91 48.4023C152.574 48.1914 153.316 48.0859 154.137 48.0859C155.121 48.0859 155.996 48.25 156.762 48.5781C157.527 48.9062 158.129 49.3984 158.566 50.0547C159.012 50.7109 159.234 51.5312 159.234 52.5156V57.9414C159.234 58.6367 159.277 59.207 159.363 59.6523C159.449 60.0898 159.574 60.4727 159.738 60.8008V61H156.328C156.164 60.6562 156.039 60.2266 155.953 59.7109C155.875 59.1875 155.836 58.6641 155.836 58.1406ZM156.281 53.2773L156.305 55.1875H154.418C153.973 55.1875 153.586 55.2383 153.258 55.3398C152.93 55.4414 152.66 55.5859 152.449 55.7734C152.238 55.9531 152.082 56.1641 151.98 56.4062C151.887 56.6484 151.84 56.9141 151.84 57.2031C151.84 57.4922 151.906 57.7539 152.039 57.9883C152.172 58.2148 152.363 58.3945 152.613 58.5273C152.863 58.6523 153.156 58.7148 153.492 58.7148C154 58.7148 154.441 58.6133 154.816 58.4102C155.191 58.207 155.48 57.957 155.684 57.6602C155.895 57.3633 156.004 57.082 156.012 56.8164L156.902 58.2461C156.777 58.5664 156.605 58.8984 156.387 59.2422C156.176 59.5859 155.906 59.9102 155.578 60.2148C155.25 60.5117 154.855 60.7578 154.395 60.9531C153.934 61.1406 153.387 61.2344 152.754 61.2344C151.949 61.2344 151.219 61.0742 150.562 60.7539C149.914 60.4258 149.398 59.9766 149.016 59.4062C148.641 58.8281 148.453 58.1719 148.453 57.4375C148.453 56.7734 148.578 56.1836 148.828 55.668C149.078 55.1523 149.445 54.7188 149.93 54.3672C150.422 54.0078 151.035 53.7383 151.77 53.5586C152.504 53.3711 153.355 53.2773 154.324 53.2773H156.281ZM165.398 43V61H162.012V43H165.398Z" fill="#888888"/>
<path d="M106.688 119H99.1172L99.1641 112.672H106.688C108.25 112.672 109.57 112.297 110.648 111.547C111.742 110.797 112.57 109.68 113.133 108.195C113.711 106.695 114 104.852 114 102.664V101.188C114 99.5469 113.836 98.1094 113.508 96.875C113.195 95.625 112.727 94.5859 112.102 93.7578C111.477 92.9141 110.695 92.2812 109.758 91.8594C108.836 91.4375 107.773 91.2266 106.57 91.2266H98.9766V84.875H106.57C108.883 84.875 111 85.2734 112.922 86.0703C114.859 86.8516 116.531 87.9766 117.938 89.4453C119.359 90.8984 120.453 92.625 121.219 94.625C122 96.6094 122.391 98.8125 122.391 101.234V102.664C122.391 105.07 122 107.273 121.219 109.273C120.453 111.273 119.367 113 117.961 114.453C116.555 115.906 114.891 117.031 112.969 117.828C111.062 118.609 108.969 119 106.688 119ZM103.828 84.875V119H95.6016V84.875H103.828ZM138.586 119.469C136.523 119.469 134.68 119.148 133.055 118.508C131.43 117.852 130.055 116.953 128.93 115.812C127.82 114.672 126.969 113.359 126.375 111.875C125.797 110.391 125.508 108.82 125.508 107.164V106.273C125.508 104.414 125.766 102.695 126.281 101.117C126.797 99.5234 127.562 98.1328 128.578 96.9453C129.594 95.7578 130.867 94.8359 132.398 94.1797C133.93 93.5078 135.711 93.1719 137.742 93.1719C139.539 93.1719 141.148 93.4609 142.57 94.0391C143.992 94.6172 145.195 95.4453 146.18 96.5234C147.18 97.6016 147.938 98.9062 148.453 100.438C148.984 101.969 149.25 103.688 149.25 105.594V108.805H128.531V103.859H141.539V103.25C141.555 102.406 141.406 101.688 141.094 101.094C140.797 100.5 140.359 100.047 139.781 99.7344C139.203 99.4219 138.5 99.2656 137.672 99.2656C136.812 99.2656 136.102 99.4531 135.539 99.8281C134.992 100.203 134.562 100.719 134.25 101.375C133.953 102.016 133.742 102.758 133.617 103.602C133.492 104.445 133.43 105.336 133.43 106.273V107.164C133.43 108.102 133.555 108.953 133.805 109.719C134.07 110.484 134.445 111.141 134.93 111.688C135.43 112.219 136.023 112.633 136.711 112.93C137.414 113.227 138.211 113.375 139.102 113.375C140.18 113.375 141.242 113.172 142.289 112.766C143.336 112.359 144.234 111.688 144.984 110.75L148.57 115.016C148.055 115.75 147.32 116.461 146.367 117.148C145.43 117.836 144.305 118.398 142.992 118.836C141.68 119.258 140.211 119.469 138.586 119.469ZM160.43 99.0078V119H152.531V93.6406H159.938L160.43 99.0078ZM159.469 105.453L157.664 105.5C157.664 103.719 157.875 102.078 158.297 100.578C158.719 99.0781 159.344 97.7734 160.172 96.6641C161 95.5547 162.016 94.6953 163.219 94.0859C164.438 93.4766 165.844 93.1719 167.438 93.1719C168.547 93.1719 169.555 93.3438 170.461 93.6875C171.367 94.0156 172.148 94.5391 172.805 95.2578C173.461 95.9609 173.961 96.8828 174.305 98.0234C174.664 99.1484 174.844 100.5 174.844 102.078V119H166.945V103.086C166.945 102.008 166.82 101.195 166.57 100.648C166.336 100.102 165.992 99.7344 165.539 99.5469C165.086 99.3594 164.531 99.2656 163.875 99.2656C163.188 99.2656 162.57 99.4219 162.023 99.7344C161.477 100.047 161.008 100.484 160.617 101.047C160.242 101.594 159.953 102.242 159.75 102.992C159.562 103.742 159.469 104.562 159.469 105.453ZM173.953 105.453L171.75 105.5C171.75 103.719 171.945 102.078 172.336 100.578C172.742 99.0781 173.344 97.7734 174.141 96.6641C174.953 95.5547 175.961 94.6953 177.164 94.0859C178.367 93.4766 179.766 93.1719 181.359 93.1719C182.516 93.1719 183.578 93.3438 184.547 93.6875C185.516 94.0312 186.352 94.5859 187.055 95.3516C187.758 96.1172 188.305 97.1328 188.695 98.3984C189.086 99.6484 189.281 101.195 189.281 103.039V119H181.359V103.039C181.359 101.992 181.234 101.203 180.984 100.672C180.75 100.125 180.406 99.7578 179.953 99.5703C179.5 99.3672 178.961 99.2656 178.336 99.2656C177.586 99.2656 176.938 99.4219 176.391 99.7344C175.844 100.047 175.383 100.484 175.008 101.047C174.648 101.594 174.383 102.242 174.211 102.992C174.039 103.742 173.953 104.562 173.953 105.453ZM192.82 106.578V106.086C192.82 104.227 193.086 102.516 193.617 100.953C194.148 99.375 194.93 98.0078 195.961 96.8516C196.992 95.6953 198.266 94.7969 199.781 94.1562C201.297 93.5 203.047 93.1719 205.031 93.1719C207.031 93.1719 208.789 93.5 210.305 94.1562C211.836 94.7969 213.117 95.6953 214.148 96.8516C215.18 98.0078 215.961 99.375 216.492 100.953C217.023 102.516 217.289 104.227 217.289 106.086V106.578C217.289 108.422 217.023 110.133 216.492 111.711C215.961 113.273 215.18 114.641 214.148 115.812C213.117 116.969 211.844 117.867 210.328 118.508C208.812 119.148 207.062 119.469 205.078 119.469C203.094 119.469 201.336 119.148 199.805 118.508C198.273 117.867 196.992 116.969 195.961 115.812C194.93 114.641 194.148 113.273 193.617 111.711C193.086 110.133 192.82 108.422 192.82 106.578ZM200.719 106.086V106.578C200.719 107.531 200.789 108.422 200.93 109.25C201.07 110.078 201.305 110.805 201.633 111.43C201.961 112.039 202.406 112.516 202.969 112.859C203.531 113.203 204.234 113.375 205.078 113.375C205.906 113.375 206.594 113.203 207.141 112.859C207.703 112.516 208.148 112.039 208.477 111.43C208.805 110.805 209.039 110.078 209.18 109.25C209.32 108.422 209.391 107.531 209.391 106.578V106.086C209.391 105.164 209.32 104.297 209.18 103.484C209.039 102.656 208.805 101.93 208.477 101.305C208.148 100.664 207.703 100.164 207.141 99.8047C206.578 99.4453 205.875 99.2656 205.031 99.2656C204.203 99.2656 203.508 99.4453 202.945 99.8047C202.398 100.164 201.961 100.664 201.633 101.305C201.305 101.93 201.07 102.656 200.93 103.484C200.789 104.297 200.719 105.164 200.719 106.086Z" fill="black"/>
<path d="M1134 0H1348C1356.28 0 1363 6.71573 1363 15V148C1363 156.284 1356.28 163 1348 163H1134V0Z" fill="#F7713D"/>
<path d="M1280.07 47.5H1216.93L1214.5 49.9286V113.071L1216.93 115.5H1280.07L1282.5 113.071V49.9286L1280.07 47.5ZM1277.64 110.643H1233.93V100.929H1245.1C1246.56 103.843 1249.96 105.786 1253.36 105.786C1258.7 105.786 1263.07 101.414 1263.07 96.0714C1263.07 90.7286 1258.7 86.3571 1253.36 86.3571C1248.01 86.3571 1243.64 90.7286 1243.64 96.0714H1229.07V110.643H1219.36V52.3571H1229.07V63.5286C1226.16 64.9857 1224.21 68.3857 1224.21 71.7857C1224.21 77.1286 1228.59 81.5 1233.93 81.5C1239.27 81.5 1243.64 77.1286 1243.64 71.7857H1253.36C1253.36 77.1286 1257.73 81.5 1263.07 81.5C1268.41 81.5 1272.79 77.1286 1272.79 71.7857C1272.79 66.4429 1268.41 62.0714 1263.07 62.0714C1259.67 62.0714 1256.27 64.0143 1254.81 66.9286H1242.19C1240.73 64.0143 1237.33 62.0714 1233.93 62.0714V52.3571H1277.64V110.643ZM1248.5 96.0714C1248.5 93.1571 1250.44 91.2143 1253.36 91.2143C1256.27 91.2143 1258.21 93.1571 1258.21 96.0714C1258.21 98.9857 1256.27 100.929 1253.36 100.929C1250.44 100.929 1248.5 98.9857 1248.5 96.0714ZM1233.93 66.9286C1236.84 66.9286 1238.79 68.8714 1238.79 71.7857C1238.79 74.7 1236.84 76.6429 1233.93 76.6429C1231.01 76.6429 1229.07 74.7 1229.07 71.7857C1229.07 68.8714 1231.01 66.9286 1233.93 66.9286ZM1263.07 66.9286C1265.99 66.9286 1267.93 68.8714 1267.93 71.7857C1267.93 74.7 1265.99 76.6429 1263.07 76.6429C1260.16 76.6429 1258.21 74.7 1258.21 71.7857C1258.21 68.8714 1260.16 66.9286 1263.07 66.9286Z" fill="white"/>
</svg>
