<svg width="1363" height="163" viewBox="0 0 1363 163" fill="none" xmlns="http://www.w3.org/2000/svg">
<path d="M0 15C0 6.71573 6.71573 0 15 0H37V163H15C6.71573 163 0 156.284 0 148V15Z" fill="#F7713D"/>
<rect width="1097" height="163" transform="translate(37)" fill="#F0F0F0"/>
<path d="M101.906 53.9219L94.3945 51.2383V48.0859L104.602 52.375V54.6367L101.906 53.9219ZM94.3945 56.1719L101.918 53.4297L104.602 52.7852V55.0352L94.3945 59.3242V56.1719ZM119.578 53.5117H115.195L115.172 51.0977H118.852C119.5 51.0977 120.031 51.0156 120.445 50.8516C120.859 50.6797 121.168 50.4336 121.371 50.1133C121.582 49.7852 121.688 49.3867 121.688 48.918C121.688 48.3867 121.586 47.957 121.383 47.6289C121.188 47.3008 120.879 47.0625 120.457 46.9141C120.043 46.7656 119.508 46.6914 118.852 46.6914H116.414V61H112.898V43.9375H118.852C119.844 43.9375 120.73 44.0312 121.512 44.2188C122.301 44.4062 122.969 44.6914 123.516 45.0742C124.062 45.457 124.48 45.9414 124.77 46.5273C125.059 47.1055 125.203 47.793 125.203 48.5898C125.203 49.293 125.043 49.9414 124.723 50.5352C124.41 51.1289 123.914 51.6133 123.234 51.9883C122.562 52.3633 121.684 52.5703 120.598 52.6094L119.578 53.5117ZM119.426 61H114.234L115.605 58.2578H119.426C120.043 58.2578 120.547 58.1602 120.938 57.9648C121.328 57.7617 121.617 57.4883 121.805 57.1445C121.992 56.8008 122.086 56.4062 122.086 55.9609C122.086 55.4609 122 55.0273 121.828 54.6602C121.664 54.293 121.398 54.0117 121.031 53.8164C120.664 53.6133 120.18 53.5117 119.578 53.5117H116.191L116.215 51.0977H120.434L121.242 52.0469C122.281 52.0312 123.117 52.2148 123.75 52.5977C124.391 52.9727 124.855 53.4609 125.145 54.0625C125.441 54.6641 125.59 55.3086 125.59 55.9961C125.59 57.0898 125.352 58.0117 124.875 58.7617C124.398 59.5039 123.699 60.0625 122.777 60.4375C121.863 60.8125 120.746 61 119.426 61ZM134.859 58.1406V52.4922C134.859 52.0859 134.793 51.7383 134.66 51.4492C134.527 51.1523 134.32 50.9219 134.039 50.7578C133.766 50.5938 133.41 50.5117 132.973 50.5117C132.598 50.5117 132.273 50.5781 132 50.7109C131.727 50.8359 131.516 51.0195 131.367 51.2617C131.219 51.4961 131.145 51.7734 131.145 52.0938H127.77C127.77 51.5547 127.895 51.043 128.145 50.5586C128.395 50.0742 128.758 49.6484 129.234 49.2812C129.711 48.9062 130.277 48.6133 130.934 48.4023C131.598 48.1914 132.34 48.0859 133.16 48.0859C134.145 48.0859 135.02 48.25 135.785 48.5781C136.551 48.9062 137.152 49.3984 137.59 50.0547C138.035 50.7109 138.258 51.5312 138.258 52.5156V57.9414C138.258 58.6367 138.301 59.207 138.387 59.6523C138.473 60.0898 138.598 60.4727 138.762 60.8008V61H135.352C135.188 60.6562 135.062 60.2266 134.977 59.7109C134.898 59.1875 134.859 58.6641 134.859 58.1406ZM135.305 53.2773L135.328 55.1875H133.441C132.996 55.1875 132.609 55.2383 132.281 55.3398C131.953 55.4414 131.684 55.5859 131.473 55.7734C131.262 55.9531 131.105 56.1641 131.004 56.4062C130.91 56.6484 130.863 56.9141 130.863 57.2031C130.863 57.4922 130.93 57.7539 131.062 57.9883C131.195 58.2148 131.387 58.3945 131.637 58.5273C131.887 58.6523 132.18 58.7148 132.516 58.7148C133.023 58.7148 133.465 58.6133 133.84 58.4102C134.215 58.207 134.504 57.957 134.707 57.6602C134.918 57.3633 135.027 57.082 135.035 56.8164L135.926 58.2461C135.801 58.5664 135.629 58.8984 135.41 59.2422C135.199 59.5859 134.93 59.9102 134.602 60.2148C134.273 60.5117 133.879 60.7578 133.418 60.9531C132.957 61.1406 132.41 61.2344 131.777 61.2344C130.973 61.2344 130.242 61.0742 129.586 60.7539C128.938 60.4258 128.422 59.9766 128.039 59.4062C127.664 58.8281 127.477 58.1719 127.477 57.4375C127.477 56.7734 127.602 56.1836 127.852 55.668C128.102 55.1523 128.469 54.7188 128.953 54.3672C129.445 54.0078 130.059 53.7383 130.793 53.5586C131.527 53.3711 132.379 53.2773 133.348 53.2773H135.305ZM147.07 48.3203V50.7109H139.688V48.3203H147.07ZM141.516 45.1914H144.891V57.1797C144.891 57.5469 144.938 57.8281 145.031 58.0234C145.133 58.2188 145.281 58.3555 145.477 58.4336C145.672 58.5039 145.918 58.5391 146.215 58.5391C146.426 58.5391 146.613 58.5312 146.777 58.5156C146.949 58.4922 147.094 58.4688 147.211 58.4453L147.223 60.9297C146.934 61.0234 146.621 61.0977 146.285 61.1523C145.949 61.207 145.578 61.2344 145.172 61.2344C144.43 61.2344 143.781 61.1133 143.227 60.8711C142.68 60.6211 142.258 60.2227 141.961 59.6758C141.664 59.1289 141.516 58.4102 141.516 57.5195V45.1914ZM155.836 58.1406V52.4922C155.836 52.0859 155.77 51.7383 155.637 51.4492C155.504 51.1523 155.297 50.9219 155.016 50.7578C154.742 50.5938 154.387 50.5117 153.949 50.5117C153.574 50.5117 153.25 50.5781 152.977 50.7109C152.703 50.8359 152.492 51.0195 152.344 51.2617C152.195 51.4961 152.121 51.7734 152.121 52.0938H148.746C148.746 51.5547 148.871 51.043 149.121 50.5586C149.371 50.0742 149.734 49.6484 150.211 49.2812C150.688 48.9062 151.254 48.6133 151.91 48.4023C152.574 48.1914 153.316 48.0859 154.137 48.0859C155.121 48.0859 155.996 48.25 156.762 48.5781C157.527 48.9062 158.129 49.3984 158.566 50.0547C159.012 50.7109 159.234 51.5312 159.234 52.5156V57.9414C159.234 58.6367 159.277 59.207 159.363 59.6523C159.449 60.0898 159.574 60.4727 159.738 60.8008V61H156.328C156.164 60.6562 156.039 60.2266 155.953 59.7109C155.875 59.1875 155.836 58.6641 155.836 58.1406ZM156.281 53.2773L156.305 55.1875H154.418C153.973 55.1875 153.586 55.2383 153.258 55.3398C152.93 55.4414 152.66 55.5859 152.449 55.7734C152.238 55.9531 152.082 56.1641 151.98 56.4062C151.887 56.6484 151.84 56.9141 151.84 57.2031C151.84 57.4922 151.906 57.7539 152.039 57.9883C152.172 58.2148 152.363 58.3945 152.613 58.5273C152.863 58.6523 153.156 58.7148 153.492 58.7148C154 58.7148 154.441 58.6133 154.816 58.4102C155.191 58.207 155.48 57.957 155.684 57.6602C155.895 57.3633 156.004 57.082 156.012 56.8164L156.902 58.2461C156.777 58.5664 156.605 58.8984 156.387 59.2422C156.176 59.5859 155.906 59.9102 155.578 60.2148C155.25 60.5117 154.855 60.7578 154.395 60.9531C153.934 61.1406 153.387 61.2344 152.754 61.2344C151.949 61.2344 151.219 61.0742 150.562 60.7539C149.914 60.4258 149.398 59.9766 149.016 59.4062C148.641 58.8281 148.453 58.1719 148.453 57.4375C148.453 56.7734 148.578 56.1836 148.828 55.668C149.078 55.1523 149.445 54.7188 149.93 54.3672C150.422 54.0078 151.035 53.7383 151.77 53.5586C152.504 53.3711 153.355 53.2773 154.324 53.2773H156.281ZM165.398 43V61H162.012V43H165.398ZM168.316 59.3711C168.316 58.8711 168.488 58.4531 168.832 58.1172C169.184 57.7812 169.648 57.6133 170.227 57.6133C170.805 57.6133 171.266 57.7812 171.609 58.1172C171.961 58.4531 172.137 58.8711 172.137 59.3711C172.137 59.8711 171.961 60.2891 171.609 60.625C171.266 60.9609 170.805 61.1289 170.227 61.1289C169.648 61.1289 169.184 60.9609 168.832 60.625C168.488 60.2891 168.316 59.8711 168.316 59.3711ZM168.316 49.7031C168.316 49.2031 168.488 48.7852 168.832 48.4492C169.184 48.1133 169.648 47.9453 170.227 47.9453C170.805 47.9453 171.266 48.1133 171.609 48.4492C171.961 48.7852 172.137 49.2031 172.137 49.7031C172.137 50.2031 171.961 50.6211 171.609 50.957C171.266 51.293 170.805 51.4609 170.227 51.4609C169.648 51.4609 169.184 51.293 168.832 50.957C168.488 50.6211 168.316 50.2031 168.316 49.7031ZM184.664 43.9375V61H181.148V43.9375H184.664ZM191.461 51.2266V53.9688H183.703V51.2266H191.461ZM192.281 43.9375V46.6914H183.703V43.9375H192.281ZM197.672 48.3203V61H194.285V48.3203H197.672ZM194.074 45.0156C194.074 44.5234 194.246 44.1172 194.59 43.7969C194.934 43.4766 195.395 43.3164 195.973 43.3164C196.543 43.3164 197 43.4766 197.344 43.7969C197.695 44.1172 197.871 44.5234 197.871 45.0156C197.871 45.5078 197.695 45.9141 197.344 46.2344C197 46.5547 196.543 46.7148 195.973 46.7148C195.395 46.7148 194.934 46.5547 194.59 46.2344C194.246 45.9141 194.074 45.5078 194.074 45.0156ZM206.672 48.3203V50.7109H199.289V48.3203H206.672ZM201.117 45.1914H204.492V57.1797C204.492 57.5469 204.539 57.8281 204.633 58.0234C204.734 58.2188 204.883 58.3555 205.078 58.4336C205.273 58.5039 205.52 58.5391 205.816 58.5391C206.027 58.5391 206.215 58.5312 206.379 58.5156C206.551 58.4922 206.695 58.4688 206.812 58.4453L206.824 60.9297C206.535 61.0234 206.223 61.0977 205.887 61.1523C205.551 61.207 205.18 61.2344 204.773 61.2344C204.031 61.2344 203.383 61.1133 202.828 60.8711C202.281 60.6211 201.859 60.2227 201.562 59.6758C201.266 59.1289 201.117 58.4102 201.117 57.5195V45.1914ZM211.898 51.0273V61H208.523V48.3203H211.688L211.898 51.0273ZM211.406 54.2148H210.492C210.492 53.2773 210.613 52.4336 210.855 51.6836C211.098 50.9258 211.438 50.2812 211.875 49.75C212.312 49.2109 212.832 48.8008 213.434 48.5195C214.043 48.2305 214.723 48.0859 215.473 48.0859C216.066 48.0859 216.609 48.1719 217.102 48.3438C217.594 48.5156 218.016 48.7891 218.367 49.1641C218.727 49.5391 219 50.0352 219.188 50.6523C219.383 51.2695 219.48 52.0234 219.48 52.9141V61H216.082V52.9023C216.082 52.3398 216.004 51.9023 215.848 51.5898C215.691 51.2773 215.461 51.0586 215.156 50.9336C214.859 50.8008 214.492 50.7344 214.055 50.7344C213.602 50.7344 213.207 50.8242 212.871 51.0039C212.543 51.1836 212.27 51.4336 212.051 51.7539C211.84 52.0664 211.68 52.4336 211.57 52.8555C211.461 53.2773 211.406 53.7305 211.406 54.2148ZM227.883 61.2344C226.898 61.2344 226.016 61.0781 225.234 60.7656C224.453 60.4453 223.789 60.0039 223.242 59.4414C222.703 58.8789 222.289 58.2266 222 57.4844C221.711 56.7344 221.566 55.9375 221.566 55.0938V54.625C221.566 53.6641 221.703 52.7852 221.977 51.9883C222.25 51.1914 222.641 50.5 223.148 49.9141C223.664 49.3281 224.289 48.8789 225.023 48.5664C225.758 48.2461 226.586 48.0859 227.508 48.0859C228.406 48.0859 229.203 48.2344 229.898 48.5312C230.594 48.8281 231.176 49.25 231.645 49.7969C232.121 50.3438 232.48 51 232.723 51.7656C232.965 52.5234 233.086 53.3672 233.086 54.2969V55.7031H223.008V53.4531H229.77V53.1953C229.77 52.7266 229.684 52.3086 229.512 51.9414C229.348 51.5664 229.098 51.2695 228.762 51.0508C228.426 50.832 227.996 50.7227 227.473 50.7227C227.027 50.7227 226.645 50.8203 226.324 51.0156C226.004 51.2109 225.742 51.4844 225.539 51.8359C225.344 52.1875 225.195 52.6016 225.094 53.0781C225 53.5469 224.953 54.0625 224.953 54.625V55.0938C224.953 55.6016 225.023 56.0703 225.164 56.5C225.312 56.9297 225.52 57.3008 225.785 57.6133C226.059 57.9258 226.387 58.168 226.77 58.3398C227.16 58.5117 227.602 58.5977 228.094 58.5977C228.703 58.5977 229.27 58.4805 229.793 58.2461C230.324 58.0039 230.781 57.6406 231.164 57.1562L232.805 58.9375C232.539 59.3203 232.176 59.6875 231.715 60.0391C231.262 60.3906 230.715 60.6797 230.074 60.9062C229.434 61.125 228.703 61.2344 227.883 61.2344ZM241.863 57.4961C241.863 57.2539 241.793 57.0352 241.652 56.8398C241.512 56.6445 241.25 56.4648 240.867 56.3008C240.492 56.1289 239.949 55.9727 239.238 55.832C238.598 55.6914 238 55.5156 237.445 55.3047C236.898 55.0859 236.422 54.8242 236.016 54.5195C235.617 54.2148 235.305 53.8555 235.078 53.4414C234.852 53.0195 234.738 52.5391 234.738 52C234.738 51.4688 234.852 50.9688 235.078 50.5C235.312 50.0312 235.645 49.6172 236.074 49.2578C236.512 48.8906 237.043 48.6055 237.668 48.4023C238.301 48.1914 239.012 48.0859 239.801 48.0859C240.902 48.0859 241.848 48.2617 242.637 48.6133C243.434 48.9648 244.043 49.4492 244.465 50.0664C244.895 50.6758 245.109 51.3711 245.109 52.1523H241.734C241.734 51.8242 241.664 51.5312 241.523 51.2734C241.391 51.0078 241.18 50.8008 240.891 50.6523C240.609 50.4961 240.242 50.418 239.789 50.418C239.414 50.418 239.09 50.4844 238.816 50.6172C238.543 50.7422 238.332 50.9141 238.184 51.1328C238.043 51.3438 237.973 51.5781 237.973 51.8359C237.973 52.0312 238.012 52.207 238.09 52.3633C238.176 52.5117 238.312 52.6484 238.5 52.7734C238.688 52.8984 238.93 53.0156 239.227 53.125C239.531 53.2266 239.906 53.3203 240.352 53.4062C241.266 53.5938 242.082 53.8398 242.801 54.1445C243.52 54.4414 244.09 54.8477 244.512 55.3633C244.934 55.8711 245.145 56.5391 245.145 57.3672C245.145 57.9297 245.02 58.4453 244.77 58.9141C244.52 59.3828 244.16 59.793 243.691 60.1445C243.223 60.4883 242.66 60.7578 242.004 60.9531C241.355 61.1406 240.625 61.2344 239.812 61.2344C238.633 61.2344 237.633 61.0234 236.812 60.6016C236 60.1797 235.383 59.6445 234.961 58.9961C234.547 58.3398 234.34 57.668 234.34 56.9805H237.539C237.555 57.4414 237.672 57.8125 237.891 58.0938C238.117 58.375 238.402 58.5781 238.746 58.7031C239.098 58.8281 239.477 58.8906 239.883 58.8906C240.32 58.8906 240.684 58.832 240.973 58.7148C241.262 58.5898 241.48 58.4258 241.629 58.2227C241.785 58.0117 241.863 57.7695 241.863 57.4961ZM254.191 57.4961C254.191 57.2539 254.121 57.0352 253.98 56.8398C253.84 56.6445 253.578 56.4648 253.195 56.3008C252.82 56.1289 252.277 55.9727 251.566 55.832C250.926 55.6914 250.328 55.5156 249.773 55.3047C249.227 55.0859 248.75 54.8242 248.344 54.5195C247.945 54.2148 247.633 53.8555 247.406 53.4414C247.18 53.0195 247.066 52.5391 247.066 52C247.066 51.4688 247.18 50.9688 247.406 50.5C247.641 50.0312 247.973 49.6172 248.402 49.2578C248.84 48.8906 249.371 48.6055 249.996 48.4023C250.629 48.1914 251.34 48.0859 252.129 48.0859C253.23 48.0859 254.176 48.2617 254.965 48.6133C255.762 48.9648 256.371 49.4492 256.793 50.0664C257.223 50.6758 257.438 51.3711 257.438 52.1523H254.062C254.062 51.8242 253.992 51.5312 253.852 51.2734C253.719 51.0078 253.508 50.8008 253.219 50.6523C252.938 50.4961 252.57 50.418 252.117 50.418C251.742 50.418 251.418 50.4844 251.145 50.6172C250.871 50.7422 250.66 50.9141 250.512 51.1328C250.371 51.3438 250.301 51.5781 250.301 51.8359C250.301 52.0312 250.34 52.207 250.418 52.3633C250.504 52.5117 250.641 52.6484 250.828 52.7734C251.016 52.8984 251.258 53.0156 251.555 53.125C251.859 53.2266 252.234 53.3203 252.68 53.4062C253.594 53.5938 254.41 53.8398 255.129 54.1445C255.848 54.4414 256.418 54.8477 256.84 55.3633C257.262 55.8711 257.473 56.5391 257.473 57.3672C257.473 57.9297 257.348 58.4453 257.098 58.9141C256.848 59.3828 256.488 59.793 256.02 60.1445C255.551 60.4883 254.988 60.7578 254.332 60.9531C253.684 61.1406 252.953 61.2344 252.141 61.2344C250.961 61.2344 249.961 61.0234 249.141 60.6016C248.328 60.1797 247.711 59.6445 247.289 58.9961C246.875 58.3398 246.668 57.668 246.668 56.9805H249.867C249.883 57.4414 250 57.8125 250.219 58.0938C250.445 58.375 250.73 58.5781 251.074 58.7031C251.426 58.8281 251.805 58.8906 252.211 58.8906C252.648 58.8906 253.012 58.832 253.301 58.7148C253.59 58.5898 253.809 58.4258 253.957 58.2227C254.113 58.0117 254.191 57.7695 254.191 57.4961ZM272.496 54.918H268.148V52.1758H272.496C273.168 52.1758 273.715 52.0664 274.137 51.8477C274.559 51.6211 274.867 51.3086 275.062 50.9102C275.258 50.5117 275.355 50.0625 275.355 49.5625C275.355 49.0547 275.258 48.582 275.062 48.1445C274.867 47.707 274.559 47.3555 274.137 47.0898C273.715 46.8242 273.168 46.6914 272.496 46.6914H269.367V61H265.852V43.9375H272.496C273.832 43.9375 274.977 44.1797 275.93 44.6641C276.891 45.1406 277.625 45.8008 278.133 46.6445C278.641 47.4883 278.895 48.4531 278.895 49.5391C278.895 50.6406 278.641 51.5938 278.133 52.3984C277.625 53.2031 276.891 53.8242 275.93 54.2617C274.977 54.6992 273.832 54.918 272.496 54.918ZM280.406 54.7891V54.543C280.406 53.6133 280.539 52.7578 280.805 51.9766C281.07 51.1875 281.457 50.5039 281.965 49.9258C282.473 49.3477 283.098 48.8984 283.84 48.5781C284.582 48.25 285.434 48.0859 286.395 48.0859C287.355 48.0859 288.211 48.25 288.961 48.5781C289.711 48.8984 290.34 49.3477 290.848 49.9258C291.363 50.5039 291.754 51.1875 292.02 51.9766C292.285 52.7578 292.418 53.6133 292.418 54.543V54.7891C292.418 55.7109 292.285 56.5664 292.02 57.3555C291.754 58.1367 291.363 58.8203 290.848 59.4062C290.34 59.9844 289.715 60.4336 288.973 60.7539C288.23 61.0742 287.379 61.2344 286.418 61.2344C285.457 61.2344 284.602 61.0742 283.852 60.7539C283.109 60.4336 282.48 59.9844 281.965 59.4062C281.457 58.8203 281.07 58.1367 280.805 57.3555C280.539 56.5664 280.406 55.7109 280.406 54.7891ZM283.781 54.543V54.7891C283.781 55.3203 283.828 55.8164 283.922 56.2773C284.016 56.7383 284.164 57.1445 284.367 57.4961C284.578 57.8398 284.852 58.1094 285.188 58.3047C285.523 58.5 285.934 58.5977 286.418 58.5977C286.887 58.5977 287.289 58.5 287.625 58.3047C287.961 58.1094 288.23 57.8398 288.434 57.4961C288.637 57.1445 288.785 56.7383 288.879 56.2773C288.98 55.8164 289.031 55.3203 289.031 54.7891V54.543C289.031 54.0273 288.98 53.543 288.879 53.0898C288.785 52.6289 288.633 52.2227 288.422 51.8711C288.219 51.5117 287.949 51.2305 287.613 51.0273C287.277 50.8242 286.871 50.7227 286.395 50.7227C285.918 50.7227 285.512 50.8242 285.176 51.0273C284.848 51.2305 284.578 51.5117 284.367 51.8711C284.164 52.2227 284.016 52.6289 283.922 53.0898C283.828 53.543 283.781 54.0273 283.781 54.543ZM301.348 57.4961C301.348 57.2539 301.277 57.0352 301.137 56.8398C300.996 56.6445 300.734 56.4648 300.352 56.3008C299.977 56.1289 299.434 55.9727 298.723 55.832C298.082 55.6914 297.484 55.5156 296.93 55.3047C296.383 55.0859 295.906 54.8242 295.5 54.5195C295.102 54.2148 294.789 53.8555 294.562 53.4414C294.336 53.0195 294.223 52.5391 294.223 52C294.223 51.4688 294.336 50.9688 294.562 50.5C294.797 50.0312 295.129 49.6172 295.559 49.2578C295.996 48.8906 296.527 48.6055 297.152 48.4023C297.785 48.1914 298.496 48.0859 299.285 48.0859C300.387 48.0859 301.332 48.2617 302.121 48.6133C302.918 48.9648 303.527 49.4492 303.949 50.0664C304.379 50.6758 304.594 51.3711 304.594 52.1523H301.219C301.219 51.8242 301.148 51.5312 301.008 51.2734C300.875 51.0078 300.664 50.8008 300.375 50.6523C300.094 50.4961 299.727 50.418 299.273 50.418C298.898 50.418 298.574 50.4844 298.301 50.6172C298.027 50.7422 297.816 50.9141 297.668 51.1328C297.527 51.3438 297.457 51.5781 297.457 51.8359C297.457 52.0312 297.496 52.207 297.574 52.3633C297.66 52.5117 297.797 52.6484 297.984 52.7734C298.172 52.8984 298.414 53.0156 298.711 53.125C299.016 53.2266 299.391 53.3203 299.836 53.4062C300.75 53.5938 301.566 53.8398 302.285 54.1445C303.004 54.4414 303.574 54.8477 303.996 55.3633C304.418 55.8711 304.629 56.5391 304.629 57.3672C304.629 57.9297 304.504 58.4453 304.254 58.9141C304.004 59.3828 303.645 59.793 303.176 60.1445C302.707 60.4883 302.145 60.7578 301.488 60.9531C300.84 61.1406 300.109 61.2344 299.297 61.2344C298.117 61.2344 297.117 61.0234 296.297 60.6016C295.484 60.1797 294.867 59.6445 294.445 58.9961C294.031 58.3398 293.824 57.668 293.824 56.9805H297.023C297.039 57.4414 297.156 57.8125 297.375 58.0938C297.602 58.375 297.887 58.5781 298.23 58.7031C298.582 58.8281 298.961 58.8906 299.367 58.8906C299.805 58.8906 300.168 58.832 300.457 58.7148C300.746 58.5898 300.965 58.4258 301.113 58.2227C301.27 58.0117 301.348 57.7695 301.348 57.4961ZM312.656 61.2344C311.672 61.2344 310.789 61.0781 310.008 60.7656C309.227 60.4453 308.562 60.0039 308.016 59.4414C307.477 58.8789 307.062 58.2266 306.773 57.4844C306.484 56.7344 306.34 55.9375 306.34 55.0938V54.625C306.34 53.6641 306.477 52.7852 306.75 51.9883C307.023 51.1914 307.414 50.5 307.922 49.9141C308.438 49.3281 309.062 48.8789 309.797 48.5664C310.531 48.2461 311.359 48.0859 312.281 48.0859C313.18 48.0859 313.977 48.2344 314.672 48.5312C315.367 48.8281 315.949 49.25 316.418 49.7969C316.895 50.3438 317.254 51 317.496 51.7656C317.738 52.5234 317.859 53.3672 317.859 54.2969V55.7031H307.781V53.4531H314.543V53.1953C314.543 52.7266 314.457 52.3086 314.285 51.9414C314.121 51.5664 313.871 51.2695 313.535 51.0508C313.199 50.832 312.77 50.7227 312.246 50.7227C311.801 50.7227 311.418 50.8203 311.098 51.0156C310.777 51.2109 310.516 51.4844 310.312 51.8359C310.117 52.1875 309.969 52.6016 309.867 53.0781C309.773 53.5469 309.727 54.0625 309.727 54.625V55.0938C309.727 55.6016 309.797 56.0703 309.938 56.5C310.086 56.9297 310.293 57.3008 310.559 57.6133C310.832 57.9258 311.16 58.168 311.543 58.3398C311.934 58.5117 312.375 58.5977 312.867 58.5977C313.477 58.5977 314.043 58.4805 314.566 58.2461C315.098 58.0039 315.555 57.6406 315.938 57.1562L317.578 58.9375C317.312 59.3203 316.949 59.6875 316.488 60.0391C316.035 60.3906 315.488 60.6797 314.848 60.9062C314.207 61.125 313.477 61.2344 312.656 61.2344ZM331.207 61H327.492L327.516 58.2578H331.207C332.129 58.2578 332.906 58.0508 333.539 57.6367C334.172 57.2148 334.648 56.6016 334.969 55.7969C335.297 54.9922 335.461 54.0195 335.461 52.8789V52.0469C335.461 51.1719 335.367 50.4023 335.18 49.7383C335 49.0742 334.73 48.5156 334.371 48.0625C334.012 47.6094 333.57 47.2695 333.047 47.043C332.523 46.8086 331.922 46.6914 331.242 46.6914H327.422V43.9375H331.242C332.383 43.9375 333.426 44.1328 334.371 44.5234C335.324 44.9062 336.148 45.457 336.844 46.1758C337.539 46.8945 338.074 47.7539 338.449 48.7539C338.832 49.7461 339.023 50.8516 339.023 52.0703V52.8789C339.023 54.0898 338.832 55.1953 338.449 56.1953C338.074 57.1953 337.539 58.0547 336.844 58.7734C336.156 59.4844 335.332 60.0352 334.371 60.4258C333.418 60.8086 332.363 61 331.207 61ZM329.484 43.9375V61H325.969V43.9375H329.484ZM347.203 61.2344C346.219 61.2344 345.336 61.0781 344.555 60.7656C343.773 60.4453 343.109 60.0039 342.562 59.4414C342.023 58.8789 341.609 58.2266 341.32 57.4844C341.031 56.7344 340.887 55.9375 340.887 55.0938V54.625C340.887 53.6641 341.023 52.7852 341.297 51.9883C341.57 51.1914 341.961 50.5 342.469 49.9141C342.984 49.3281 343.609 48.8789 344.344 48.5664C345.078 48.2461 345.906 48.0859 346.828 48.0859C347.727 48.0859 348.523 48.2344 349.219 48.5312C349.914 48.8281 350.496 49.25 350.965 49.7969C351.441 50.3438 351.801 51 352.043 51.7656C352.285 52.5234 352.406 53.3672 352.406 54.2969V55.7031H342.328V53.4531H349.09V53.1953C349.09 52.7266 349.004 52.3086 348.832 51.9414C348.668 51.5664 348.418 51.2695 348.082 51.0508C347.746 50.832 347.316 50.7227 346.793 50.7227C346.348 50.7227 345.965 50.8203 345.645 51.0156C345.324 51.2109 345.062 51.4844 344.859 51.8359C344.664 52.1875 344.516 52.6016 344.414 53.0781C344.32 53.5469 344.273 54.0625 344.273 54.625V55.0938C344.273 55.6016 344.344 56.0703 344.484 56.5C344.633 56.9297 344.84 57.3008 345.105 57.6133C345.379 57.9258 345.707 58.168 346.09 58.3398C346.48 58.5117 346.922 58.5977 347.414 58.5977C348.023 58.5977 348.59 58.4805 349.113 58.2461C349.645 58.0039 350.102 57.6406 350.484 57.1562L352.125 58.9375C351.859 59.3203 351.496 59.6875 351.035 60.0391C350.582 60.3906 350.035 60.6797 349.395 60.9062C348.754 61.125 348.023 61.2344 347.203 61.2344ZM360.539 48.3203V50.7109H353.156V48.3203H360.539ZM354.984 45.1914H358.359V57.1797C358.359 57.5469 358.406 57.8281 358.5 58.0234C358.602 58.2188 358.75 58.3555 358.945 58.4336C359.141 58.5039 359.387 58.5391 359.684 58.5391C359.895 58.5391 360.082 58.5312 360.246 58.5156C360.418 58.4922 360.562 58.4688 360.68 58.4453L360.691 60.9297C360.402 61.0234 360.09 61.0977 359.754 61.1523C359.418 61.207 359.047 61.2344 358.641 61.2344C357.898 61.2344 357.25 61.1133 356.695 60.8711C356.148 60.6211 355.727 60.2227 355.43 59.6758C355.133 59.1289 354.984 58.4102 354.984 57.5195V45.1914ZM368.297 61.2344C367.312 61.2344 366.43 61.0781 365.648 60.7656C364.867 60.4453 364.203 60.0039 363.656 59.4414C363.117 58.8789 362.703 58.2266 362.414 57.4844C362.125 56.7344 361.98 55.9375 361.98 55.0938V54.625C361.98 53.6641 362.117 52.7852 362.391 51.9883C362.664 51.1914 363.055 50.5 363.562 49.9141C364.078 49.3281 364.703 48.8789 365.438 48.5664C366.172 48.2461 367 48.0859 367.922 48.0859C368.82 48.0859 369.617 48.2344 370.312 48.5312C371.008 48.8281 371.59 49.25 372.059 49.7969C372.535 50.3438 372.895 51 373.137 51.7656C373.379 52.5234 373.5 53.3672 373.5 54.2969V55.7031H363.422V53.4531H370.184V53.1953C370.184 52.7266 370.098 52.3086 369.926 51.9414C369.762 51.5664 369.512 51.2695 369.176 51.0508C368.84 50.832 368.41 50.7227 367.887 50.7227C367.441 50.7227 367.059 50.8203 366.738 51.0156C366.418 51.2109 366.156 51.4844 365.953 51.8359C365.758 52.1875 365.609 52.6016 365.508 53.0781C365.414 53.5469 365.367 54.0625 365.367 54.625V55.0938C365.367 55.6016 365.438 56.0703 365.578 56.5C365.727 56.9297 365.934 57.3008 366.199 57.6133C366.473 57.9258 366.801 58.168 367.184 58.3398C367.574 58.5117 368.016 58.5977 368.508 58.5977C369.117 58.5977 369.684 58.4805 370.207 58.2461C370.738 58.0039 371.195 57.6406 371.578 57.1562L373.219 58.9375C372.953 59.3203 372.59 59.6875 372.129 60.0391C371.676 60.3906 371.129 60.6797 370.488 60.9062C369.848 61.125 369.117 61.2344 368.297 61.2344ZM380.66 58.5977C381.074 58.5977 381.441 58.5195 381.762 58.3633C382.082 58.1992 382.332 57.9727 382.512 57.6836C382.699 57.3867 382.797 57.0391 382.805 56.6406H385.98C385.973 57.5312 385.734 58.3242 385.266 59.0195C384.797 59.707 384.168 60.25 383.379 60.6484C382.59 61.0391 381.707 61.2344 380.73 61.2344C379.746 61.2344 378.887 61.0703 378.152 60.7422C377.426 60.4141 376.82 59.9609 376.336 59.3828C375.852 58.7969 375.488 58.1172 375.246 57.3438C375.004 56.5625 374.883 55.7266 374.883 54.8359V54.4961C374.883 53.5977 375.004 52.7617 375.246 51.9883C375.488 51.207 375.852 50.5273 376.336 49.9492C376.82 49.3633 377.426 48.9062 378.152 48.5781C378.879 48.25 379.73 48.0859 380.707 48.0859C381.746 48.0859 382.656 48.2852 383.438 48.6836C384.227 49.082 384.844 49.6523 385.289 50.3945C385.742 51.1289 385.973 52 385.98 53.0078H382.805C382.797 52.5859 382.707 52.2031 382.535 51.8594C382.371 51.5156 382.129 51.2422 381.809 51.0391C381.496 50.8281 381.109 50.7227 380.648 50.7227C380.156 50.7227 379.754 50.8281 379.441 51.0391C379.129 51.2422 378.887 51.5234 378.715 51.8828C378.543 52.2344 378.422 52.6367 378.352 53.0898C378.289 53.5352 378.258 54.0039 378.258 54.4961V54.8359C378.258 55.3281 378.289 55.8008 378.352 56.2539C378.414 56.707 378.531 57.1094 378.703 57.4609C378.883 57.8125 379.129 58.0898 379.441 58.293C379.754 58.4961 380.16 58.5977 380.66 58.5977ZM394.148 48.3203V50.7109H386.766V48.3203H394.148ZM388.594 45.1914H391.969V57.1797C391.969 57.5469 392.016 57.8281 392.109 58.0234C392.211 58.2188 392.359 58.3555 392.555 58.4336C392.75 58.5039 392.996 58.5391 393.293 58.5391C393.504 58.5391 393.691 58.5312 393.855 58.5156C394.027 58.4922 394.172 58.4688 394.289 58.4453L394.301 60.9297C394.012 61.0234 393.699 61.0977 393.363 61.1523C393.027 61.207 392.656 61.2344 392.25 61.2344C391.508 61.2344 390.859 61.1133 390.305 60.8711C389.758 60.6211 389.336 60.2227 389.039 59.6758C388.742 59.1289 388.594 58.4102 388.594 57.5195V45.1914ZM395.227 54.7891V54.543C395.227 53.6133 395.359 52.7578 395.625 51.9766C395.891 51.1875 396.277 50.5039 396.785 49.9258C397.293 49.3477 397.918 48.8984 398.66 48.5781C399.402 48.25 400.254 48.0859 401.215 48.0859C402.176 48.0859 403.031 48.25 403.781 48.5781C404.531 48.8984 405.16 49.3477 405.668 49.9258C406.184 50.5039 406.574 51.1875 406.84 51.9766C407.105 52.7578 407.238 53.6133 407.238 54.543V54.7891C407.238 55.7109 407.105 56.5664 406.84 57.3555C406.574 58.1367 406.184 58.8203 405.668 59.4062C405.16 59.9844 404.535 60.4336 403.793 60.7539C403.051 61.0742 402.199 61.2344 401.238 61.2344C400.277 61.2344 399.422 61.0742 398.672 60.7539C397.93 60.4336 397.301 59.9844 396.785 59.4062C396.277 58.8203 395.891 58.1367 395.625 57.3555C395.359 56.5664 395.227 55.7109 395.227 54.7891ZM398.602 54.543V54.7891C398.602 55.3203 398.648 55.8164 398.742 56.2773C398.836 56.7383 398.984 57.1445 399.188 57.4961C399.398 57.8398 399.672 58.1094 400.008 58.3047C400.344 58.5 400.754 58.5977 401.238 58.5977C401.707 58.5977 402.109 58.5 402.445 58.3047C402.781 58.1094 403.051 57.8398 403.254 57.4961C403.457 57.1445 403.605 56.7383 403.699 56.2773C403.801 55.8164 403.852 55.3203 403.852 54.7891V54.543C403.852 54.0273 403.801 53.543 403.699 53.0898C403.605 52.6289 403.453 52.2227 403.242 51.8711C403.039 51.5117 402.77 51.2305 402.434 51.0273C402.098 50.8242 401.691 50.7227 401.215 50.7227C400.738 50.7227 400.332 50.8242 399.996 51.0273C399.668 51.2305 399.398 51.5117 399.188 51.8711C398.984 52.2227 398.836 52.6289 398.742 53.0898C398.648 53.543 398.602 54.0273 398.602 54.543ZM412.688 51.0859V61H409.312V48.3203H412.488L412.688 51.0859ZM416.508 48.2383L416.449 51.3672C416.285 51.3438 416.086 51.3242 415.852 51.3086C415.625 51.2852 415.418 51.2734 415.23 51.2734C414.754 51.2734 414.34 51.3359 413.988 51.4609C413.645 51.5781 413.355 51.7539 413.121 51.9883C412.895 52.2227 412.723 52.5078 412.605 52.8438C412.496 53.1797 412.434 53.5625 412.418 53.9922L411.738 53.7812C411.738 52.9609 411.82 52.207 411.984 51.5195C412.148 50.8242 412.387 50.2188 412.699 49.7031C413.02 49.1875 413.41 48.7891 413.871 48.5078C414.332 48.2266 414.859 48.0859 415.453 48.0859C415.641 48.0859 415.832 48.1016 416.027 48.1328C416.223 48.1562 416.383 48.1914 416.508 48.2383Z" fill="#888888"/>
<path d="M104.344 84.875V119H96.1406V84.875H104.344ZM117.727 99.0078V119H109.828V93.6406H117.234L117.727 99.0078ZM116.766 105.453L114.961 105.5C114.961 103.719 115.172 102.078 115.594 100.578C116.016 99.0781 116.641 97.7734 117.469 96.6641C118.297 95.5547 119.312 94.6953 120.516 94.0859C121.734 93.4766 123.141 93.1719 124.734 93.1719C125.844 93.1719 126.852 93.3438 127.758 93.6875C128.664 94.0156 129.445 94.5391 130.102 95.2578C130.758 95.9609 131.258 96.8828 131.602 98.0234C131.961 99.1484 132.141 100.5 132.141 102.078V119H124.242V103.086C124.242 102.008 124.117 101.195 123.867 100.648C123.633 100.102 123.289 99.7344 122.836 99.5469C122.383 99.3594 121.828 99.2656 121.172 99.2656C120.484 99.2656 119.867 99.4219 119.32 99.7344C118.773 100.047 118.305 100.484 117.914 101.047C117.539 101.594 117.25 102.242 117.047 102.992C116.859 103.742 116.766 104.562 116.766 105.453ZM131.25 105.453L129.047 105.5C129.047 103.719 129.242 102.078 129.633 100.578C130.039 99.0781 130.641 97.7734 131.438 96.6641C132.25 95.5547 133.258 94.6953 134.461 94.0859C135.664 93.4766 137.062 93.1719 138.656 93.1719C139.812 93.1719 140.875 93.3438 141.844 93.6875C142.812 94.0312 143.648 94.5859 144.352 95.3516C145.055 96.1172 145.602 97.1328 145.992 98.3984C146.383 99.6484 146.578 101.195 146.578 103.039V119H138.656V103.039C138.656 101.992 138.531 101.203 138.281 100.672C138.047 100.125 137.703 99.7578 137.25 99.5703C136.797 99.3672 136.258 99.2656 135.633 99.2656C134.883 99.2656 134.234 99.4219 133.688 99.7344C133.141 100.047 132.68 100.484 132.305 101.047C131.945 101.594 131.68 102.242 131.508 102.992C131.336 103.742 131.25 104.562 131.25 105.453ZM159.07 98.5156V128.75H151.172V93.6406H158.531L159.07 98.5156ZM174.633 106.016V106.508C174.633 108.352 174.422 110.062 174 111.641C173.578 113.219 172.953 114.594 172.125 115.766C171.297 116.938 170.266 117.852 169.031 118.508C167.812 119.148 166.398 119.469 164.789 119.469C163.273 119.469 161.969 119.133 160.875 118.461C159.781 117.789 158.867 116.859 158.133 115.672C157.398 114.484 156.805 113.125 156.352 111.594C155.898 110.062 155.539 108.445 155.273 106.742V106.109C155.539 104.281 155.898 102.586 156.352 101.023C156.805 99.4453 157.398 98.0703 158.133 96.8984C158.867 95.7266 159.773 94.8125 160.852 94.1562C161.945 93.5 163.25 93.1719 164.766 93.1719C166.375 93.1719 167.789 93.4766 169.008 94.0859C170.242 94.6953 171.273 95.5703 172.102 96.7109C172.945 97.8359 173.578 99.1875 174 100.766C174.422 102.344 174.633 104.094 174.633 106.016ZM166.734 106.508V106.016C166.734 105.031 166.664 104.133 166.523 103.32C166.383 102.492 166.156 101.773 165.844 101.164C165.547 100.555 165.148 100.086 164.648 99.7578C164.148 99.4297 163.531 99.2656 162.797 99.2656C161.953 99.2656 161.242 99.3984 160.664 99.6641C160.102 99.9141 159.648 100.305 159.305 100.836C158.977 101.352 158.742 102 158.602 102.781C158.477 103.547 158.422 104.445 158.438 105.477V107.398C158.406 108.586 158.523 109.633 158.789 110.539C159.055 111.43 159.516 112.125 160.172 112.625C160.828 113.125 161.719 113.375 162.844 113.375C163.594 113.375 164.219 113.203 164.719 112.859C165.219 112.5 165.617 112.008 165.914 111.383C166.211 110.742 166.422 110.008 166.547 109.18C166.672 108.352 166.734 107.461 166.734 106.508ZM186.492 83V119H178.57V83H186.492ZM203.648 119.469C201.586 119.469 199.742 119.148 198.117 118.508C196.492 117.852 195.117 116.953 193.992 115.812C192.883 114.672 192.031 113.359 191.438 111.875C190.859 110.391 190.57 108.82 190.57 107.164V106.273C190.57 104.414 190.828 102.695 191.344 101.117C191.859 99.5234 192.625 98.1328 193.641 96.9453C194.656 95.7578 195.93 94.8359 197.461 94.1797C198.992 93.5078 200.773 93.1719 202.805 93.1719C204.602 93.1719 206.211 93.4609 207.633 94.0391C209.055 94.6172 210.258 95.4453 211.242 96.5234C212.242 97.6016 213 98.9062 213.516 100.438C214.047 101.969 214.312 103.688 214.312 105.594V108.805H193.594V103.859H206.602V103.25C206.617 102.406 206.469 101.688 206.156 101.094C205.859 100.5 205.422 100.047 204.844 99.7344C204.266 99.4219 203.562 99.2656 202.734 99.2656C201.875 99.2656 201.164 99.4531 200.602 99.8281C200.055 100.203 199.625 100.719 199.312 101.375C199.016 102.016 198.805 102.758 198.68 103.602C198.555 104.445 198.492 105.336 198.492 106.273V107.164C198.492 108.102 198.617 108.953 198.867 109.719C199.133 110.484 199.508 111.141 199.992 111.688C200.492 112.219 201.086 112.633 201.773 112.93C202.477 113.227 203.273 113.375 204.164 113.375C205.242 113.375 206.305 113.172 207.352 112.766C208.398 112.359 209.297 111.688 210.047 110.75L213.633 115.016C213.117 115.75 212.383 116.461 211.43 117.148C210.492 117.836 209.367 118.398 208.055 118.836C206.742 119.258 205.273 119.469 203.648 119.469ZM225.492 99.0078V119H217.594V93.6406H225L225.492 99.0078ZM224.531 105.453L222.727 105.5C222.727 103.719 222.938 102.078 223.359 100.578C223.781 99.0781 224.406 97.7734 225.234 96.6641C226.062 95.5547 227.078 94.6953 228.281 94.0859C229.5 93.4766 230.906 93.1719 232.5 93.1719C233.609 93.1719 234.617 93.3438 235.523 93.6875C236.43 94.0156 237.211 94.5391 237.867 95.2578C238.523 95.9609 239.023 96.8828 239.367 98.0234C239.727 99.1484 239.906 100.5 239.906 102.078V119H232.008V103.086C232.008 102.008 231.883 101.195 231.633 100.648C231.398 100.102 231.055 99.7344 230.602 99.5469C230.148 99.3594 229.594 99.2656 228.938 99.2656C228.25 99.2656 227.633 99.4219 227.086 99.7344C226.539 100.047 226.07 100.484 225.68 101.047C225.305 101.594 225.016 102.242 224.812 102.992C224.625 103.742 224.531 104.562 224.531 105.453ZM239.016 105.453L236.812 105.5C236.812 103.719 237.008 102.078 237.398 100.578C237.805 99.0781 238.406 97.7734 239.203 96.6641C240.016 95.5547 241.023 94.6953 242.227 94.0859C243.43 93.4766 244.828 93.1719 246.422 93.1719C247.578 93.1719 248.641 93.3438 249.609 93.6875C250.578 94.0312 251.414 94.5859 252.117 95.3516C252.82 96.1172 253.367 97.1328 253.758 98.3984C254.148 99.6484 254.344 101.195 254.344 103.039V119H246.422V103.039C246.422 101.992 246.297 101.203 246.047 100.672C245.812 100.125 245.469 99.7578 245.016 99.5703C244.562 99.3672 244.023 99.2656 243.398 99.2656C242.648 99.2656 242 99.4219 241.453 99.7344C240.906 100.047 240.445 100.484 240.07 101.047C239.711 101.594 239.445 102.242 239.273 102.992C239.102 103.742 239.016 104.562 239.016 105.453ZM271.148 119.469C269.086 119.469 267.242 119.148 265.617 118.508C263.992 117.852 262.617 116.953 261.492 115.812C260.383 114.672 259.531 113.359 258.938 111.875C258.359 110.391 258.07 108.82 258.07 107.164V106.273C258.07 104.414 258.328 102.695 258.844 101.117C259.359 99.5234 260.125 98.1328 261.141 96.9453C262.156 95.7578 263.43 94.8359 264.961 94.1797C266.492 93.5078 268.273 93.1719 270.305 93.1719C272.102 93.1719 273.711 93.4609 275.133 94.0391C276.555 94.6172 277.758 95.4453 278.742 96.5234C279.742 97.6016 280.5 98.9062 281.016 100.438C281.547 101.969 281.812 103.688 281.812 105.594V108.805H261.094V103.859H274.102V103.25C274.117 102.406 273.969 101.688 273.656 101.094C273.359 100.5 272.922 100.047 272.344 99.7344C271.766 99.4219 271.062 99.2656 270.234 99.2656C269.375 99.2656 268.664 99.4531 268.102 99.8281C267.555 100.203 267.125 100.719 266.812 101.375C266.516 102.016 266.305 102.758 266.18 103.602C266.055 104.445 265.992 105.336 265.992 106.273V107.164C265.992 108.102 266.117 108.953 266.367 109.719C266.633 110.484 267.008 111.141 267.492 111.688C267.992 112.219 268.586 112.633 269.273 112.93C269.977 113.227 270.773 113.375 271.664 113.375C272.742 113.375 273.805 113.172 274.852 112.766C275.898 112.359 276.797 111.688 277.547 110.75L281.133 115.016C280.617 115.75 279.883 116.461 278.93 117.148C277.992 117.836 276.867 118.398 275.555 118.836C274.242 119.258 272.773 119.469 271.148 119.469ZM292.781 99.0547V119H284.883V93.6406H292.289L292.781 99.0547ZM291.844 105.453L289.992 105.5C289.992 103.562 290.227 101.836 290.695 100.32C291.164 98.7891 291.828 97.4922 292.688 96.4297C293.547 95.3672 294.57 94.5625 295.758 94.0156C296.961 93.4531 298.297 93.1719 299.766 93.1719C300.938 93.1719 302.008 93.3438 302.977 93.6875C303.961 94.0312 304.805 94.5859 305.508 95.3516C306.227 96.1172 306.773 97.1328 307.148 98.3984C307.539 99.6484 307.734 101.195 307.734 103.039V119H299.789V103.016C299.789 102 299.648 101.227 299.367 100.695C299.086 100.148 298.68 99.7734 298.148 99.5703C297.617 99.3672 296.969 99.2656 296.203 99.2656C295.391 99.2656 294.703 99.4219 294.141 99.7344C293.578 100.047 293.125 100.484 292.781 101.047C292.453 101.594 292.211 102.242 292.055 102.992C291.914 103.742 291.844 104.562 291.844 105.453ZM325.477 93.6406V99.125H310.195V93.6406H325.477ZM313.406 87.3359H321.305V110.727C321.305 111.398 321.383 111.922 321.539 112.297C321.695 112.656 321.961 112.914 322.336 113.07C322.727 113.211 323.242 113.281 323.883 113.281C324.336 113.281 324.711 113.273 325.008 113.258C325.305 113.227 325.586 113.188 325.852 113.141V118.789C325.18 119.008 324.477 119.172 323.742 119.281C323.008 119.406 322.227 119.469 321.398 119.469C319.711 119.469 318.266 119.203 317.062 118.672C315.875 118.141 314.969 117.305 314.344 116.164C313.719 115.023 313.406 113.539 313.406 111.711V87.3359ZM341.789 112.625V102.172C341.789 101.453 341.688 100.836 341.484 100.32C341.281 99.8047 340.961 99.4062 340.523 99.125C340.086 98.8281 339.5 98.6797 338.766 98.6797C338.172 98.6797 337.664 98.7812 337.242 98.9844C336.82 99.1875 336.5 99.4922 336.281 99.8984C336.062 100.305 335.953 100.82 335.953 101.445H328.055C328.055 100.273 328.312 99.1875 328.828 98.1875C329.359 97.1719 330.109 96.2891 331.078 95.5391C332.062 94.7891 333.234 94.2109 334.594 93.8047C335.969 93.3828 337.5 93.1719 339.188 93.1719C341.203 93.1719 343 93.5078 344.578 94.1797C346.172 94.8516 347.43 95.8594 348.352 97.2031C349.273 98.5312 349.734 100.203 349.734 102.219V112.602C349.734 114.258 349.828 115.516 350.016 116.375C350.203 117.219 350.469 117.961 350.812 118.602V119H342.891C342.516 118.219 342.234 117.266 342.047 116.141C341.875 115 341.789 113.828 341.789 112.625ZM342.75 103.508L342.797 107.727H339.305C338.57 107.727 337.945 107.828 337.43 108.031C336.93 108.234 336.523 108.516 336.211 108.875C335.914 109.219 335.695 109.609 335.555 110.047C335.43 110.484 335.367 110.945 335.367 111.43C335.367 111.898 335.477 112.32 335.695 112.695C335.93 113.055 336.242 113.336 336.633 113.539C337.023 113.742 337.461 113.844 337.945 113.844C338.82 113.844 339.562 113.68 340.172 113.352C340.797 113.008 341.273 112.594 341.602 112.109C341.93 111.625 342.094 111.172 342.094 110.75L343.828 113.984C343.516 114.609 343.156 115.242 342.75 115.883C342.359 116.523 341.867 117.117 341.273 117.664C340.695 118.195 339.984 118.633 339.141 118.977C338.297 119.305 337.273 119.469 336.07 119.469C334.508 119.469 333.07 119.148 331.758 118.508C330.461 117.867 329.422 116.977 328.641 115.836C327.859 114.68 327.469 113.352 327.469 111.852C327.469 110.539 327.703 109.367 328.172 108.336C328.656 107.305 329.383 106.43 330.352 105.711C331.32 104.992 332.555 104.445 334.055 104.07C335.555 103.695 337.32 103.508 339.352 103.508H342.75ZM367.477 93.6406V99.125H352.195V93.6406H367.477ZM355.406 87.3359H363.305V110.727C363.305 111.398 363.383 111.922 363.539 112.297C363.695 112.656 363.961 112.914 364.336 113.07C364.727 113.211 365.242 113.281 365.883 113.281C366.336 113.281 366.711 113.273 367.008 113.258C367.305 113.227 367.586 113.188 367.852 113.141V118.789C367.18 119.008 366.477 119.172 365.742 119.281C365.008 119.406 364.227 119.469 363.398 119.469C361.711 119.469 360.266 119.203 359.062 118.672C357.875 118.141 356.969 117.305 356.344 116.164C355.719 115.023 355.406 113.539 355.406 111.711V87.3359ZM378.961 93.6406V119H371.039V93.6406H378.961ZM370.57 87.1016C370.57 85.9766 370.977 85.0547 371.789 84.3359C372.602 83.6172 373.656 83.2578 374.953 83.2578C376.25 83.2578 377.305 83.6172 378.117 84.3359C378.93 85.0547 379.336 85.9766 379.336 87.1016C379.336 88.2266 378.93 89.1484 378.117 89.8672C377.305 90.5859 376.25 90.9453 374.953 90.9453C373.656 90.9453 372.602 90.5859 371.789 89.8672C370.977 89.1484 370.57 88.2266 370.57 87.1016ZM382.852 106.578V106.086C382.852 104.227 383.117 102.516 383.648 100.953C384.18 99.375 384.961 98.0078 385.992 96.8516C387.023 95.6953 388.297 94.7969 389.812 94.1562C391.328 93.5 393.078 93.1719 395.062 93.1719C397.062 93.1719 398.82 93.5 400.336 94.1562C401.867 94.7969 403.148 95.6953 404.18 96.8516C405.211 98.0078 405.992 99.375 406.523 100.953C407.055 102.516 407.32 104.227 407.32 106.086V106.578C407.32 108.422 407.055 110.133 406.523 111.711C405.992 113.273 405.211 114.641 404.18 115.812C403.148 116.969 401.875 117.867 400.359 118.508C398.844 119.148 397.094 119.469 395.109 119.469C393.125 119.469 391.367 119.148 389.836 118.508C388.305 117.867 387.023 116.969 385.992 115.812C384.961 114.641 384.18 113.273 383.648 111.711C383.117 110.133 382.852 108.422 382.852 106.578ZM390.75 106.086V106.578C390.75 107.531 390.82 108.422 390.961 109.25C391.102 110.078 391.336 110.805 391.664 111.43C391.992 112.039 392.438 112.516 393 112.859C393.562 113.203 394.266 113.375 395.109 113.375C395.938 113.375 396.625 113.203 397.172 112.859C397.734 112.516 398.18 112.039 398.508 111.43C398.836 110.805 399.07 110.078 399.211 109.25C399.352 108.422 399.422 107.531 399.422 106.578V106.086C399.422 105.164 399.352 104.297 399.211 103.484C399.07 102.656 398.836 101.93 398.508 101.305C398.18 100.664 397.734 100.164 397.172 99.8047C396.609 99.4453 395.906 99.2656 395.062 99.2656C394.234 99.2656 393.539 99.4453 392.977 99.8047C392.43 100.164 391.992 100.664 391.664 101.305C391.336 101.93 391.102 102.656 390.961 103.484C390.82 104.297 390.75 105.164 390.75 106.086ZM418.594 99.0547V119H410.695V93.6406H418.102L418.594 99.0547ZM417.656 105.453L415.805 105.5C415.805 103.562 416.039 101.836 416.508 100.32C416.977 98.7891 417.641 97.4922 418.5 96.4297C419.359 95.3672 420.383 94.5625 421.57 94.0156C422.773 93.4531 424.109 93.1719 425.578 93.1719C426.75 93.1719 427.82 93.3438 428.789 93.6875C429.773 94.0312 430.617 94.5859 431.32 95.3516C432.039 96.1172 432.586 97.1328 432.961 98.3984C433.352 99.6484 433.547 101.195 433.547 103.039V119H425.602V103.016C425.602 102 425.461 101.227 425.18 100.695C424.898 100.148 424.492 99.7734 423.961 99.5703C423.43 99.3672 422.781 99.2656 422.016 99.2656C421.203 99.2656 420.516 99.4219 419.953 99.7344C419.391 100.047 418.938 100.484 418.594 101.047C418.266 101.594 418.023 102.242 417.867 102.992C417.727 103.742 417.656 104.562 417.656 105.453Z" fill="black"/>
<path d="M1134 0H1348C1356.28 0 1363 6.71573 1363 15V148C1363 156.284 1356.28 163 1348 163H1134V0Z" fill="#F7713D"/>
<path d="M1280.07 47.5H1216.93L1214.5 49.9286V113.071L1216.93 115.5H1280.07L1282.5 113.071V49.9286L1280.07 47.5ZM1277.64 110.643H1233.93V100.929H1245.1C1246.56 103.843 1249.96 105.786 1253.36 105.786C1258.7 105.786 1263.07 101.414 1263.07 96.0714C1263.07 90.7286 1258.7 86.3571 1253.36 86.3571C1248.01 86.3571 1243.64 90.7286 1243.64 96.0714H1229.07V110.643H1219.36V52.3571H1229.07V63.5286C1226.16 64.9857 1224.21 68.3857 1224.21 71.7857C1224.21 77.1286 1228.59 81.5 1233.93 81.5C1239.27 81.5 1243.64 77.1286 1243.64 71.7857H1253.36C1253.36 77.1286 1257.73 81.5 1263.07 81.5C1268.41 81.5 1272.79 77.1286 1272.79 71.7857C1272.79 66.4429 1268.41 62.0714 1263.07 62.0714C1259.67 62.0714 1256.27 64.0143 1254.81 66.9286H1242.19C1240.73 64.0143 1237.33 62.0714 1233.93 62.0714V52.3571H1277.64V110.643ZM1248.5 96.0714C1248.5 93.1571 1250.44 91.2143 1253.36 91.2143C1256.27 91.2143 1258.21 93.1571 1258.21 96.0714C1258.21 98.9857 1256.27 100.929 1253.36 100.929C1250.44 100.929 1248.5 98.9857 1248.5 96.0714ZM1233.93 66.9286C1236.84 66.9286 1238.79 68.8714 1238.79 71.7857C1238.79 74.7 1236.84 76.6429 1233.93 76.6429C1231.01 76.6429 1229.07 74.7 1229.07 71.7857C1229.07 68.8714 1231.01 66.9286 1233.93 66.9286ZM1263.07 66.9286C1265.99 66.9286 1267.93 68.8714 1267.93 71.7857C1267.93 74.7 1265.99 76.6429 1263.07 76.6429C1260.16 76.6429 1258.21 74.7 1258.21 71.7857C1258.21 68.8714 1260.16 66.9286 1263.07 66.9286Z" fill="white"/>
</svg>
