<svg width="1363" height="163" viewBox="0 0 1363 163" fill="none" xmlns="http://www.w3.org/2000/svg">
<path d="M0 15C0 6.71573 6.71573 0 15 0H37V163H15C6.71573 163 0 156.284 0 148V15Z" fill="#F7713D"/>
<rect width="1097" height="163" transform="translate(37)" fill="#F0F0F0"/>
<path d="M101.906 53.9219L94.3945 51.2383V48.0859L104.602 52.375V54.6367L101.906 53.9219ZM94.3945 56.1719L101.918 53.4297L104.602 52.7852V55.0352L94.3945 59.3242V56.1719ZM119.578 53.5117H115.195L115.172 51.0977H118.852C119.5 51.0977 120.031 51.0156 120.445 50.8516C120.859 50.6797 121.168 50.4336 121.371 50.1133C121.582 49.7852 121.688 49.3867 121.688 48.918C121.688 48.3867 121.586 47.957 121.383 47.6289C121.188 47.3008 120.879 47.0625 120.457 46.9141C120.043 46.7656 119.508 46.6914 118.852 46.6914H116.414V61H112.898V43.9375H118.852C119.844 43.9375 120.73 44.0312 121.512 44.2188C122.301 44.4062 122.969 44.6914 123.516 45.0742C124.062 45.457 124.48 45.9414 124.77 46.5273C125.059 47.1055 125.203 47.793 125.203 48.5898C125.203 49.293 125.043 49.9414 124.723 50.5352C124.41 51.1289 123.914 51.6133 123.234 51.9883C122.562 52.3633 121.684 52.5703 120.598 52.6094L119.578 53.5117ZM119.426 61H114.234L115.605 58.2578H119.426C120.043 58.2578 120.547 58.1602 120.938 57.9648C121.328 57.7617 121.617 57.4883 121.805 57.1445C121.992 56.8008 122.086 56.4062 122.086 55.9609C122.086 55.4609 122 55.0273 121.828 54.6602C121.664 54.293 121.398 54.0117 121.031 53.8164C120.664 53.6133 120.18 53.5117 119.578 53.5117H116.191L116.215 51.0977H120.434L121.242 52.0469C122.281 52.0312 123.117 52.2148 123.75 52.5977C124.391 52.9727 124.855 53.4609 125.145 54.0625C125.441 54.6641 125.59 55.3086 125.59 55.9961C125.59 57.0898 125.352 58.0117 124.875 58.7617C124.398 59.5039 123.699 60.0625 122.777 60.4375C121.863 60.8125 120.746 61 119.426 61ZM134.859 58.1406V52.4922C134.859 52.0859 134.793 51.7383 134.66 51.4492C134.527 51.1523 134.32 50.9219 134.039 50.7578C133.766 50.5938 133.41 50.5117 132.973 50.5117C132.598 50.5117 132.273 50.5781 132 50.7109C131.727 50.8359 131.516 51.0195 131.367 51.2617C131.219 51.4961 131.145 51.7734 131.145 52.0938H127.77C127.77 51.5547 127.895 51.043 128.145 50.5586C128.395 50.0742 128.758 49.6484 129.234 49.2812C129.711 48.9062 130.277 48.6133 130.934 48.4023C131.598 48.1914 132.34 48.0859 133.16 48.0859C134.145 48.0859 135.02 48.25 135.785 48.5781C136.551 48.9062 137.152 49.3984 137.59 50.0547C138.035 50.7109 138.258 51.5312 138.258 52.5156V57.9414C138.258 58.6367 138.301 59.207 138.387 59.6523C138.473 60.0898 138.598 60.4727 138.762 60.8008V61H135.352C135.188 60.6562 135.062 60.2266 134.977 59.7109C134.898 59.1875 134.859 58.6641 134.859 58.1406ZM135.305 53.2773L135.328 55.1875H133.441C132.996 55.1875 132.609 55.2383 132.281 55.3398C131.953 55.4414 131.684 55.5859 131.473 55.7734C131.262 55.9531 131.105 56.1641 131.004 56.4062C130.91 56.6484 130.863 56.9141 130.863 57.2031C130.863 57.4922 130.93 57.7539 131.062 57.9883C131.195 58.2148 131.387 58.3945 131.637 58.5273C131.887 58.6523 132.18 58.7148 132.516 58.7148C133.023 58.7148 133.465 58.6133 133.84 58.4102C134.215 58.207 134.504 57.957 134.707 57.6602C134.918 57.3633 135.027 57.082 135.035 56.8164L135.926 58.2461C135.801 58.5664 135.629 58.8984 135.41 59.2422C135.199 59.5859 134.93 59.9102 134.602 60.2148C134.273 60.5117 133.879 60.7578 133.418 60.9531C132.957 61.1406 132.41 61.2344 131.777 61.2344C130.973 61.2344 130.242 61.0742 129.586 60.7539C128.938 60.4258 128.422 59.9766 128.039 59.4062C127.664 58.8281 127.477 58.1719 127.477 57.4375C127.477 56.7734 127.602 56.1836 127.852 55.668C128.102 55.1523 128.469 54.7188 128.953 54.3672C129.445 54.0078 130.059 53.7383 130.793 53.5586C131.527 53.3711 132.379 53.2773 133.348 53.2773H135.305ZM147.07 48.3203V50.7109H139.688V48.3203H147.07ZM141.516 45.1914H144.891V57.1797C144.891 57.5469 144.938 57.8281 145.031 58.0234C145.133 58.2188 145.281 58.3555 145.477 58.4336C145.672 58.5039 145.918 58.5391 146.215 58.5391C146.426 58.5391 146.613 58.5312 146.777 58.5156C146.949 58.4922 147.094 58.4688 147.211 58.4453L147.223 60.9297C146.934 61.0234 146.621 61.0977 146.285 61.1523C145.949 61.207 145.578 61.2344 145.172 61.2344C144.43 61.2344 143.781 61.1133 143.227 60.8711C142.68 60.6211 142.258 60.2227 141.961 59.6758C141.664 59.1289 141.516 58.4102 141.516 57.5195V45.1914ZM155.836 58.1406V52.4922C155.836 52.0859 155.77 51.7383 155.637 51.4492C155.504 51.1523 155.297 50.9219 155.016 50.7578C154.742 50.5938 154.387 50.5117 153.949 50.5117C153.574 50.5117 153.25 50.5781 152.977 50.7109C152.703 50.8359 152.492 51.0195 152.344 51.2617C152.195 51.4961 152.121 51.7734 152.121 52.0938H148.746C148.746 51.5547 148.871 51.043 149.121 50.5586C149.371 50.0742 149.734 49.6484 150.211 49.2812C150.688 48.9062 151.254 48.6133 151.91 48.4023C152.574 48.1914 153.316 48.0859 154.137 48.0859C155.121 48.0859 155.996 48.25 156.762 48.5781C157.527 48.9062 158.129 49.3984 158.566 50.0547C159.012 50.7109 159.234 51.5312 159.234 52.5156V57.9414C159.234 58.6367 159.277 59.207 159.363 59.6523C159.449 60.0898 159.574 60.4727 159.738 60.8008V61H156.328C156.164 60.6562 156.039 60.2266 155.953 59.7109C155.875 59.1875 155.836 58.6641 155.836 58.1406ZM156.281 53.2773L156.305 55.1875H154.418C153.973 55.1875 153.586 55.2383 153.258 55.3398C152.93 55.4414 152.66 55.5859 152.449 55.7734C152.238 55.9531 152.082 56.1641 151.98 56.4062C151.887 56.6484 151.84 56.9141 151.84 57.2031C151.84 57.4922 151.906 57.7539 152.039 57.9883C152.172 58.2148 152.363 58.3945 152.613 58.5273C152.863 58.6523 153.156 58.7148 153.492 58.7148C154 58.7148 154.441 58.6133 154.816 58.4102C155.191 58.207 155.48 57.957 155.684 57.6602C155.895 57.3633 156.004 57.082 156.012 56.8164L156.902 58.2461C156.777 58.5664 156.605 58.8984 156.387 59.2422C156.176 59.5859 155.906 59.9102 155.578 60.2148C155.25 60.5117 154.855 60.7578 154.395 60.9531C153.934 61.1406 153.387 61.2344 152.754 61.2344C151.949 61.2344 151.219 61.0742 150.562 60.7539C149.914 60.4258 149.398 59.9766 149.016 59.4062C148.641 58.8281 148.453 58.1719 148.453 57.4375C148.453 56.7734 148.578 56.1836 148.828 55.668C149.078 55.1523 149.445 54.7188 149.93 54.3672C150.422 54.0078 151.035 53.7383 151.77 53.5586C152.504 53.3711 153.355 53.2773 154.324 53.2773H156.281ZM165.398 43V61H162.012V43H165.398ZM168.316 59.3711C168.316 58.8711 168.488 58.4531 168.832 58.1172C169.184 57.7812 169.648 57.6133 170.227 57.6133C170.805 57.6133 171.266 57.7812 171.609 58.1172C171.961 58.4531 172.137 58.8711 172.137 59.3711C172.137 59.8711 171.961 60.2891 171.609 60.625C171.266 60.9609 170.805 61.1289 170.227 61.1289C169.648 61.1289 169.184 60.9609 168.832 60.625C168.488 60.2891 168.316 59.8711 168.316 59.3711ZM168.316 49.7031C168.316 49.2031 168.488 48.7852 168.832 48.4492C169.184 48.1133 169.648 47.9453 170.227 47.9453C170.805 47.9453 171.266 48.1133 171.609 48.4492C171.961 48.7852 172.137 49.2031 172.137 49.7031C172.137 50.2031 171.961 50.6211 171.609 50.957C171.266 51.293 170.805 51.4609 170.227 51.4609C169.648 51.4609 169.184 51.293 168.832 50.957C168.488 50.6211 168.316 50.2031 168.316 49.7031ZM184.664 43.9375V61H181.148V43.9375H184.664ZM191.461 51.2266V53.9688H183.703V51.2266H191.461ZM192.281 43.9375V46.6914H183.703V43.9375H192.281ZM197.672 48.3203V61H194.285V48.3203H197.672ZM194.074 45.0156C194.074 44.5234 194.246 44.1172 194.59 43.7969C194.934 43.4766 195.395 43.3164 195.973 43.3164C196.543 43.3164 197 43.4766 197.344 43.7969C197.695 44.1172 197.871 44.5234 197.871 45.0156C197.871 45.5078 197.695 45.9141 197.344 46.2344C197 46.5547 196.543 46.7148 195.973 46.7148C195.395 46.7148 194.934 46.5547 194.59 46.2344C194.246 45.9141 194.074 45.5078 194.074 45.0156ZM206.672 48.3203V50.7109H199.289V48.3203H206.672ZM201.117 45.1914H204.492V57.1797C204.492 57.5469 204.539 57.8281 204.633 58.0234C204.734 58.2188 204.883 58.3555 205.078 58.4336C205.273 58.5039 205.52 58.5391 205.816 58.5391C206.027 58.5391 206.215 58.5312 206.379 58.5156C206.551 58.4922 206.695 58.4688 206.812 58.4453L206.824 60.9297C206.535 61.0234 206.223 61.0977 205.887 61.1523C205.551 61.207 205.18 61.2344 204.773 61.2344C204.031 61.2344 203.383 61.1133 202.828 60.8711C202.281 60.6211 201.859 60.2227 201.562 59.6758C201.266 59.1289 201.117 58.4102 201.117 57.5195V45.1914ZM211.898 51.0273V61H208.523V48.3203H211.688L211.898 51.0273ZM211.406 54.2148H210.492C210.492 53.2773 210.613 52.4336 210.855 51.6836C211.098 50.9258 211.438 50.2812 211.875 49.75C212.312 49.2109 212.832 48.8008 213.434 48.5195C214.043 48.2305 214.723 48.0859 215.473 48.0859C216.066 48.0859 216.609 48.1719 217.102 48.3438C217.594 48.5156 218.016 48.7891 218.367 49.1641C218.727 49.5391 219 50.0352 219.188 50.6523C219.383 51.2695 219.48 52.0234 219.48 52.9141V61H216.082V52.9023C216.082 52.3398 216.004 51.9023 215.848 51.5898C215.691 51.2773 215.461 51.0586 215.156 50.9336C214.859 50.8008 214.492 50.7344 214.055 50.7344C213.602 50.7344 213.207 50.8242 212.871 51.0039C212.543 51.1836 212.27 51.4336 212.051 51.7539C211.84 52.0664 211.68 52.4336 211.57 52.8555C211.461 53.2773 211.406 53.7305 211.406 54.2148ZM227.883 61.2344C226.898 61.2344 226.016 61.0781 225.234 60.7656C224.453 60.4453 223.789 60.0039 223.242 59.4414C222.703 58.8789 222.289 58.2266 222 57.4844C221.711 56.7344 221.566 55.9375 221.566 55.0938V54.625C221.566 53.6641 221.703 52.7852 221.977 51.9883C222.25 51.1914 222.641 50.5 223.148 49.9141C223.664 49.3281 224.289 48.8789 225.023 48.5664C225.758 48.2461 226.586 48.0859 227.508 48.0859C228.406 48.0859 229.203 48.2344 229.898 48.5312C230.594 48.8281 231.176 49.25 231.645 49.7969C232.121 50.3438 232.48 51 232.723 51.7656C232.965 52.5234 233.086 53.3672 233.086 54.2969V55.7031H223.008V53.4531H229.77V53.1953C229.77 52.7266 229.684 52.3086 229.512 51.9414C229.348 51.5664 229.098 51.2695 228.762 51.0508C228.426 50.832 227.996 50.7227 227.473 50.7227C227.027 50.7227 226.645 50.8203 226.324 51.0156C226.004 51.2109 225.742 51.4844 225.539 51.8359C225.344 52.1875 225.195 52.6016 225.094 53.0781C225 53.5469 224.953 54.0625 224.953 54.625V55.0938C224.953 55.6016 225.023 56.0703 225.164 56.5C225.312 56.9297 225.52 57.3008 225.785 57.6133C226.059 57.9258 226.387 58.168 226.77 58.3398C227.16 58.5117 227.602 58.5977 228.094 58.5977C228.703 58.5977 229.27 58.4805 229.793 58.2461C230.324 58.0039 230.781 57.6406 231.164 57.1562L232.805 58.9375C232.539 59.3203 232.176 59.6875 231.715 60.0391C231.262 60.3906 230.715 60.6797 230.074 60.9062C229.434 61.125 228.703 61.2344 227.883 61.2344ZM241.863 57.4961C241.863 57.2539 241.793 57.0352 241.652 56.8398C241.512 56.6445 241.25 56.4648 240.867 56.3008C240.492 56.1289 239.949 55.9727 239.238 55.832C238.598 55.6914 238 55.5156 237.445 55.3047C236.898 55.0859 236.422 54.8242 236.016 54.5195C235.617 54.2148 235.305 53.8555 235.078 53.4414C234.852 53.0195 234.738 52.5391 234.738 52C234.738 51.4688 234.852 50.9688 235.078 50.5C235.312 50.0312 235.645 49.6172 236.074 49.2578C236.512 48.8906 237.043 48.6055 237.668 48.4023C238.301 48.1914 239.012 48.0859 239.801 48.0859C240.902 48.0859 241.848 48.2617 242.637 48.6133C243.434 48.9648 244.043 49.4492 244.465 50.0664C244.895 50.6758 245.109 51.3711 245.109 52.1523H241.734C241.734 51.8242 241.664 51.5312 241.523 51.2734C241.391 51.0078 241.18 50.8008 240.891 50.6523C240.609 50.4961 240.242 50.418 239.789 50.418C239.414 50.418 239.09 50.4844 238.816 50.6172C238.543 50.7422 238.332 50.9141 238.184 51.1328C238.043 51.3438 237.973 51.5781 237.973 51.8359C237.973 52.0312 238.012 52.207 238.09 52.3633C238.176 52.5117 238.312 52.6484 238.5 52.7734C238.688 52.8984 238.93 53.0156 239.227 53.125C239.531 53.2266 239.906 53.3203 240.352 53.4062C241.266 53.5938 242.082 53.8398 242.801 54.1445C243.52 54.4414 244.09 54.8477 244.512 55.3633C244.934 55.8711 245.145 56.5391 245.145 57.3672C245.145 57.9297 245.02 58.4453 244.77 58.9141C244.52 59.3828 244.16 59.793 243.691 60.1445C243.223 60.4883 242.66 60.7578 242.004 60.9531C241.355 61.1406 240.625 61.2344 239.812 61.2344C238.633 61.2344 237.633 61.0234 236.812 60.6016C236 60.1797 235.383 59.6445 234.961 58.9961C234.547 58.3398 234.34 57.668 234.34 56.9805H237.539C237.555 57.4414 237.672 57.8125 237.891 58.0938C238.117 58.375 238.402 58.5781 238.746 58.7031C239.098 58.8281 239.477 58.8906 239.883 58.8906C240.32 58.8906 240.684 58.832 240.973 58.7148C241.262 58.5898 241.48 58.4258 241.629 58.2227C241.785 58.0117 241.863 57.7695 241.863 57.4961ZM254.191 57.4961C254.191 57.2539 254.121 57.0352 253.98 56.8398C253.84 56.6445 253.578 56.4648 253.195 56.3008C252.82 56.1289 252.277 55.9727 251.566 55.832C250.926 55.6914 250.328 55.5156 249.773 55.3047C249.227 55.0859 248.75 54.8242 248.344 54.5195C247.945 54.2148 247.633 53.8555 247.406 53.4414C247.18 53.0195 247.066 52.5391 247.066 52C247.066 51.4688 247.18 50.9688 247.406 50.5C247.641 50.0312 247.973 49.6172 248.402 49.2578C248.84 48.8906 249.371 48.6055 249.996 48.4023C250.629 48.1914 251.34 48.0859 252.129 48.0859C253.23 48.0859 254.176 48.2617 254.965 48.6133C255.762 48.9648 256.371 49.4492 256.793 50.0664C257.223 50.6758 257.438 51.3711 257.438 52.1523H254.062C254.062 51.8242 253.992 51.5312 253.852 51.2734C253.719 51.0078 253.508 50.8008 253.219 50.6523C252.938 50.4961 252.57 50.418 252.117 50.418C251.742 50.418 251.418 50.4844 251.145 50.6172C250.871 50.7422 250.66 50.9141 250.512 51.1328C250.371 51.3438 250.301 51.5781 250.301 51.8359C250.301 52.0312 250.34 52.207 250.418 52.3633C250.504 52.5117 250.641 52.6484 250.828 52.7734C251.016 52.8984 251.258 53.0156 251.555 53.125C251.859 53.2266 252.234 53.3203 252.68 53.4062C253.594 53.5938 254.41 53.8398 255.129 54.1445C255.848 54.4414 256.418 54.8477 256.84 55.3633C257.262 55.8711 257.473 56.5391 257.473 57.3672C257.473 57.9297 257.348 58.4453 257.098 58.9141C256.848 59.3828 256.488 59.793 256.02 60.1445C255.551 60.4883 254.988 60.7578 254.332 60.9531C253.684 61.1406 252.953 61.2344 252.141 61.2344C250.961 61.2344 249.961 61.0234 249.141 60.6016C248.328 60.1797 247.711 59.6445 247.289 58.9961C246.875 58.3398 246.668 57.668 246.668 56.9805H249.867C249.883 57.4414 250 57.8125 250.219 58.0938C250.445 58.375 250.73 58.5781 251.074 58.7031C251.426 58.8281 251.805 58.8906 252.211 58.8906C252.648 58.8906 253.012 58.832 253.301 58.7148C253.59 58.5898 253.809 58.4258 253.957 58.2227C254.113 58.0117 254.191 57.7695 254.191 57.4961ZM272.496 54.918H268.148V52.1758H272.496C273.168 52.1758 273.715 52.0664 274.137 51.8477C274.559 51.6211 274.867 51.3086 275.062 50.9102C275.258 50.5117 275.355 50.0625 275.355 49.5625C275.355 49.0547 275.258 48.582 275.062 48.1445C274.867 47.707 274.559 47.3555 274.137 47.0898C273.715 46.8242 273.168 46.6914 272.496 46.6914H269.367V61H265.852V43.9375H272.496C273.832 43.9375 274.977 44.1797 275.93 44.6641C276.891 45.1406 277.625 45.8008 278.133 46.6445C278.641 47.4883 278.895 48.4531 278.895 49.5391C278.895 50.6406 278.641 51.5938 278.133 52.3984C277.625 53.2031 276.891 53.8242 275.93 54.2617C274.977 54.6992 273.832 54.918 272.496 54.918ZM280.406 54.7891V54.543C280.406 53.6133 280.539 52.7578 280.805 51.9766C281.07 51.1875 281.457 50.5039 281.965 49.9258C282.473 49.3477 283.098 48.8984 283.84 48.5781C284.582 48.25 285.434 48.0859 286.395 48.0859C287.355 48.0859 288.211 48.25 288.961 48.5781C289.711 48.8984 290.34 49.3477 290.848 49.9258C291.363 50.5039 291.754 51.1875 292.02 51.9766C292.285 52.7578 292.418 53.6133 292.418 54.543V54.7891C292.418 55.7109 292.285 56.5664 292.02 57.3555C291.754 58.1367 291.363 58.8203 290.848 59.4062C290.34 59.9844 289.715 60.4336 288.973 60.7539C288.23 61.0742 287.379 61.2344 286.418 61.2344C285.457 61.2344 284.602 61.0742 283.852 60.7539C283.109 60.4336 282.48 59.9844 281.965 59.4062C281.457 58.8203 281.07 58.1367 280.805 57.3555C280.539 56.5664 280.406 55.7109 280.406 54.7891ZM283.781 54.543V54.7891C283.781 55.3203 283.828 55.8164 283.922 56.2773C284.016 56.7383 284.164 57.1445 284.367 57.4961C284.578 57.8398 284.852 58.1094 285.188 58.3047C285.523 58.5 285.934 58.5977 286.418 58.5977C286.887 58.5977 287.289 58.5 287.625 58.3047C287.961 58.1094 288.23 57.8398 288.434 57.4961C288.637 57.1445 288.785 56.7383 288.879 56.2773C288.98 55.8164 289.031 55.3203 289.031 54.7891V54.543C289.031 54.0273 288.98 53.543 288.879 53.0898C288.785 52.6289 288.633 52.2227 288.422 51.8711C288.219 51.5117 287.949 51.2305 287.613 51.0273C287.277 50.8242 286.871 50.7227 286.395 50.7227C285.918 50.7227 285.512 50.8242 285.176 51.0273C284.848 51.2305 284.578 51.5117 284.367 51.8711C284.164 52.2227 284.016 52.6289 283.922 53.0898C283.828 53.543 283.781 54.0273 283.781 54.543ZM301.348 57.4961C301.348 57.2539 301.277 57.0352 301.137 56.8398C300.996 56.6445 300.734 56.4648 300.352 56.3008C299.977 56.1289 299.434 55.9727 298.723 55.832C298.082 55.6914 297.484 55.5156 296.93 55.3047C296.383 55.0859 295.906 54.8242 295.5 54.5195C295.102 54.2148 294.789 53.8555 294.562 53.4414C294.336 53.0195 294.223 52.5391 294.223 52C294.223 51.4688 294.336 50.9688 294.562 50.5C294.797 50.0312 295.129 49.6172 295.559 49.2578C295.996 48.8906 296.527 48.6055 297.152 48.4023C297.785 48.1914 298.496 48.0859 299.285 48.0859C300.387 48.0859 301.332 48.2617 302.121 48.6133C302.918 48.9648 303.527 49.4492 303.949 50.0664C304.379 50.6758 304.594 51.3711 304.594 52.1523H301.219C301.219 51.8242 301.148 51.5312 301.008 51.2734C300.875 51.0078 300.664 50.8008 300.375 50.6523C300.094 50.4961 299.727 50.418 299.273 50.418C298.898 50.418 298.574 50.4844 298.301 50.6172C298.027 50.7422 297.816 50.9141 297.668 51.1328C297.527 51.3438 297.457 51.5781 297.457 51.8359C297.457 52.0312 297.496 52.207 297.574 52.3633C297.66 52.5117 297.797 52.6484 297.984 52.7734C298.172 52.8984 298.414 53.0156 298.711 53.125C299.016 53.2266 299.391 53.3203 299.836 53.4062C300.75 53.5938 301.566 53.8398 302.285 54.1445C303.004 54.4414 303.574 54.8477 303.996 55.3633C304.418 55.8711 304.629 56.5391 304.629 57.3672C304.629 57.9297 304.504 58.4453 304.254 58.9141C304.004 59.3828 303.645 59.793 303.176 60.1445C302.707 60.4883 302.145 60.7578 301.488 60.9531C300.84 61.1406 300.109 61.2344 299.297 61.2344C298.117 61.2344 297.117 61.0234 296.297 60.6016C295.484 60.1797 294.867 59.6445 294.445 58.9961C294.031 58.3398 293.824 57.668 293.824 56.9805H297.023C297.039 57.4414 297.156 57.8125 297.375 58.0938C297.602 58.375 297.887 58.5781 298.23 58.7031C298.582 58.8281 298.961 58.8906 299.367 58.8906C299.805 58.8906 300.168 58.832 300.457 58.7148C300.746 58.5898 300.965 58.4258 301.113 58.2227C301.27 58.0117 301.348 57.7695 301.348 57.4961ZM312.656 61.2344C311.672 61.2344 310.789 61.0781 310.008 60.7656C309.227 60.4453 308.562 60.0039 308.016 59.4414C307.477 58.8789 307.062 58.2266 306.773 57.4844C306.484 56.7344 306.34 55.9375 306.34 55.0938V54.625C306.34 53.6641 306.477 52.7852 306.75 51.9883C307.023 51.1914 307.414 50.5 307.922 49.9141C308.438 49.3281 309.062 48.8789 309.797 48.5664C310.531 48.2461 311.359 48.0859 312.281 48.0859C313.18 48.0859 313.977 48.2344 314.672 48.5312C315.367 48.8281 315.949 49.25 316.418 49.7969C316.895 50.3438 317.254 51 317.496 51.7656C317.738 52.5234 317.859 53.3672 317.859 54.2969V55.7031H307.781V53.4531H314.543V53.1953C314.543 52.7266 314.457 52.3086 314.285 51.9414C314.121 51.5664 313.871 51.2695 313.535 51.0508C313.199 50.832 312.77 50.7227 312.246 50.7227C311.801 50.7227 311.418 50.8203 311.098 51.0156C310.777 51.2109 310.516 51.4844 310.312 51.8359C310.117 52.1875 309.969 52.6016 309.867 53.0781C309.773 53.5469 309.727 54.0625 309.727 54.625V55.0938C309.727 55.6016 309.797 56.0703 309.938 56.5C310.086 56.9297 310.293 57.3008 310.559 57.6133C310.832 57.9258 311.16 58.168 311.543 58.3398C311.934 58.5117 312.375 58.5977 312.867 58.5977C313.477 58.5977 314.043 58.4805 314.566 58.2461C315.098 58.0039 315.555 57.6406 315.938 57.1562L317.578 58.9375C317.312 59.3203 316.949 59.6875 316.488 60.0391C316.035 60.3906 315.488 60.6797 314.848 60.9062C314.207 61.125 313.477 61.2344 312.656 61.2344ZM331.207 61H327.492L327.516 58.2578H331.207C332.129 58.2578 332.906 58.0508 333.539 57.6367C334.172 57.2148 334.648 56.6016 334.969 55.7969C335.297 54.9922 335.461 54.0195 335.461 52.8789V52.0469C335.461 51.1719 335.367 50.4023 335.18 49.7383C335 49.0742 334.73 48.5156 334.371 48.0625C334.012 47.6094 333.57 47.2695 333.047 47.043C332.523 46.8086 331.922 46.6914 331.242 46.6914H327.422V43.9375H331.242C332.383 43.9375 333.426 44.1328 334.371 44.5234C335.324 44.9062 336.148 45.457 336.844 46.1758C337.539 46.8945 338.074 47.7539 338.449 48.7539C338.832 49.7461 339.023 50.8516 339.023 52.0703V52.8789C339.023 54.0898 338.832 55.1953 338.449 56.1953C338.074 57.1953 337.539 58.0547 336.844 58.7734C336.156 59.4844 335.332 60.0352 334.371 60.4258C333.418 60.8086 332.363 61 331.207 61ZM329.484 43.9375V61H325.969V43.9375H329.484ZM347.203 61.2344C346.219 61.2344 345.336 61.0781 344.555 60.7656C343.773 60.4453 343.109 60.0039 342.562 59.4414C342.023 58.8789 341.609 58.2266 341.32 57.4844C341.031 56.7344 340.887 55.9375 340.887 55.0938V54.625C340.887 53.6641 341.023 52.7852 341.297 51.9883C341.57 51.1914 341.961 50.5 342.469 49.9141C342.984 49.3281 343.609 48.8789 344.344 48.5664C345.078 48.2461 345.906 48.0859 346.828 48.0859C347.727 48.0859 348.523 48.2344 349.219 48.5312C349.914 48.8281 350.496 49.25 350.965 49.7969C351.441 50.3438 351.801 51 352.043 51.7656C352.285 52.5234 352.406 53.3672 352.406 54.2969V55.7031H342.328V53.4531H349.09V53.1953C349.09 52.7266 349.004 52.3086 348.832 51.9414C348.668 51.5664 348.418 51.2695 348.082 51.0508C347.746 50.832 347.316 50.7227 346.793 50.7227C346.348 50.7227 345.965 50.8203 345.645 51.0156C345.324 51.2109 345.062 51.4844 344.859 51.8359C344.664 52.1875 344.516 52.6016 344.414 53.0781C344.32 53.5469 344.273 54.0625 344.273 54.625V55.0938C344.273 55.6016 344.344 56.0703 344.484 56.5C344.633 56.9297 344.84 57.3008 345.105 57.6133C345.379 57.9258 345.707 58.168 346.09 58.3398C346.48 58.5117 346.922 58.5977 347.414 58.5977C348.023 58.5977 348.59 58.4805 349.113 58.2461C349.645 58.0039 350.102 57.6406 350.484 57.1562L352.125 58.9375C351.859 59.3203 351.496 59.6875 351.035 60.0391C350.582 60.3906 350.035 60.6797 349.395 60.9062C348.754 61.125 348.023 61.2344 347.203 61.2344ZM360.539 48.3203V50.7109H353.156V48.3203H360.539ZM354.984 45.1914H358.359V57.1797C358.359 57.5469 358.406 57.8281 358.5 58.0234C358.602 58.2188 358.75 58.3555 358.945 58.4336C359.141 58.5039 359.387 58.5391 359.684 58.5391C359.895 58.5391 360.082 58.5312 360.246 58.5156C360.418 58.4922 360.562 58.4688 360.68 58.4453L360.691 60.9297C360.402 61.0234 360.09 61.0977 359.754 61.1523C359.418 61.207 359.047 61.2344 358.641 61.2344C357.898 61.2344 357.25 61.1133 356.695 60.8711C356.148 60.6211 355.727 60.2227 355.43 59.6758C355.133 59.1289 354.984 58.4102 354.984 57.5195V45.1914ZM368.297 61.2344C367.312 61.2344 366.43 61.0781 365.648 60.7656C364.867 60.4453 364.203 60.0039 363.656 59.4414C363.117 58.8789 362.703 58.2266 362.414 57.4844C362.125 56.7344 361.98 55.9375 361.98 55.0938V54.625C361.98 53.6641 362.117 52.7852 362.391 51.9883C362.664 51.1914 363.055 50.5 363.562 49.9141C364.078 49.3281 364.703 48.8789 365.438 48.5664C366.172 48.2461 367 48.0859 367.922 48.0859C368.82 48.0859 369.617 48.2344 370.312 48.5312C371.008 48.8281 371.59 49.25 372.059 49.7969C372.535 50.3438 372.895 51 373.137 51.7656C373.379 52.5234 373.5 53.3672 373.5 54.2969V55.7031H363.422V53.4531H370.184V53.1953C370.184 52.7266 370.098 52.3086 369.926 51.9414C369.762 51.5664 369.512 51.2695 369.176 51.0508C368.84 50.832 368.41 50.7227 367.887 50.7227C367.441 50.7227 367.059 50.8203 366.738 51.0156C366.418 51.2109 366.156 51.4844 365.953 51.8359C365.758 52.1875 365.609 52.6016 365.508 53.0781C365.414 53.5469 365.367 54.0625 365.367 54.625V55.0938C365.367 55.6016 365.438 56.0703 365.578 56.5C365.727 56.9297 365.934 57.3008 366.199 57.6133C366.473 57.9258 366.801 58.168 367.184 58.3398C367.574 58.5117 368.016 58.5977 368.508 58.5977C369.117 58.5977 369.684 58.4805 370.207 58.2461C370.738 58.0039 371.195 57.6406 371.578 57.1562L373.219 58.9375C372.953 59.3203 372.59 59.6875 372.129 60.0391C371.676 60.3906 371.129 60.6797 370.488 60.9062C369.848 61.125 369.117 61.2344 368.297 61.2344ZM380.66 58.5977C381.074 58.5977 381.441 58.5195 381.762 58.3633C382.082 58.1992 382.332 57.9727 382.512 57.6836C382.699 57.3867 382.797 57.0391 382.805 56.6406H385.98C385.973 57.5312 385.734 58.3242 385.266 59.0195C384.797 59.707 384.168 60.25 383.379 60.6484C382.59 61.0391 381.707 61.2344 380.73 61.2344C379.746 61.2344 378.887 61.0703 378.152 60.7422C377.426 60.4141 376.82 59.9609 376.336 59.3828C375.852 58.7969 375.488 58.1172 375.246 57.3438C375.004 56.5625 374.883 55.7266 374.883 54.8359V54.4961C374.883 53.5977 375.004 52.7617 375.246 51.9883C375.488 51.207 375.852 50.5273 376.336 49.9492C376.82 49.3633 377.426 48.9062 378.152 48.5781C378.879 48.25 379.73 48.0859 380.707 48.0859C381.746 48.0859 382.656 48.2852 383.438 48.6836C384.227 49.082 384.844 49.6523 385.289 50.3945C385.742 51.1289 385.973 52 385.98 53.0078H382.805C382.797 52.5859 382.707 52.2031 382.535 51.8594C382.371 51.5156 382.129 51.2422 381.809 51.0391C381.496 50.8281 381.109 50.7227 380.648 50.7227C380.156 50.7227 379.754 50.8281 379.441 51.0391C379.129 51.2422 378.887 51.5234 378.715 51.8828C378.543 52.2344 378.422 52.6367 378.352 53.0898C378.289 53.5352 378.258 54.0039 378.258 54.4961V54.8359C378.258 55.3281 378.289 55.8008 378.352 56.2539C378.414 56.707 378.531 57.1094 378.703 57.4609C378.883 57.8125 379.129 58.0898 379.441 58.293C379.754 58.4961 380.16 58.5977 380.66 58.5977ZM394.148 48.3203V50.7109H386.766V48.3203H394.148ZM388.594 45.1914H391.969V57.1797C391.969 57.5469 392.016 57.8281 392.109 58.0234C392.211 58.2188 392.359 58.3555 392.555 58.4336C392.75 58.5039 392.996 58.5391 393.293 58.5391C393.504 58.5391 393.691 58.5312 393.855 58.5156C394.027 58.4922 394.172 58.4688 394.289 58.4453L394.301 60.9297C394.012 61.0234 393.699 61.0977 393.363 61.1523C393.027 61.207 392.656 61.2344 392.25 61.2344C391.508 61.2344 390.859 61.1133 390.305 60.8711C389.758 60.6211 389.336 60.2227 389.039 59.6758C388.742 59.1289 388.594 58.4102 388.594 57.5195V45.1914ZM395.227 54.7891V54.543C395.227 53.6133 395.359 52.7578 395.625 51.9766C395.891 51.1875 396.277 50.5039 396.785 49.9258C397.293 49.3477 397.918 48.8984 398.66 48.5781C399.402 48.25 400.254 48.0859 401.215 48.0859C402.176 48.0859 403.031 48.25 403.781 48.5781C404.531 48.8984 405.16 49.3477 405.668 49.9258C406.184 50.5039 406.574 51.1875 406.84 51.9766C407.105 52.7578 407.238 53.6133 407.238 54.543V54.7891C407.238 55.7109 407.105 56.5664 406.84 57.3555C406.574 58.1367 406.184 58.8203 405.668 59.4062C405.16 59.9844 404.535 60.4336 403.793 60.7539C403.051 61.0742 402.199 61.2344 401.238 61.2344C400.277 61.2344 399.422 61.0742 398.672 60.7539C397.93 60.4336 397.301 59.9844 396.785 59.4062C396.277 58.8203 395.891 58.1367 395.625 57.3555C395.359 56.5664 395.227 55.7109 395.227 54.7891ZM398.602 54.543V54.7891C398.602 55.3203 398.648 55.8164 398.742 56.2773C398.836 56.7383 398.984 57.1445 399.188 57.4961C399.398 57.8398 399.672 58.1094 400.008 58.3047C400.344 58.5 400.754 58.5977 401.238 58.5977C401.707 58.5977 402.109 58.5 402.445 58.3047C402.781 58.1094 403.051 57.8398 403.254 57.4961C403.457 57.1445 403.605 56.7383 403.699 56.2773C403.801 55.8164 403.852 55.3203 403.852 54.7891V54.543C403.852 54.0273 403.801 53.543 403.699 53.0898C403.605 52.6289 403.453 52.2227 403.242 51.8711C403.039 51.5117 402.77 51.2305 402.434 51.0273C402.098 50.8242 401.691 50.7227 401.215 50.7227C400.738 50.7227 400.332 50.8242 399.996 51.0273C399.668 51.2305 399.398 51.5117 399.188 51.8711C398.984 52.2227 398.836 52.6289 398.742 53.0898C398.648 53.543 398.602 54.0273 398.602 54.543ZM412.688 51.0859V61H409.312V48.3203H412.488L412.688 51.0859ZM416.508 48.2383L416.449 51.3672C416.285 51.3438 416.086 51.3242 415.852 51.3086C415.625 51.2852 415.418 51.2734 415.23 51.2734C414.754 51.2734 414.34 51.3359 413.988 51.4609C413.645 51.5781 413.355 51.7539 413.121 51.9883C412.895 52.2227 412.723 52.5078 412.605 52.8438C412.496 53.1797 412.434 53.5625 412.418 53.9922L411.738 53.7812C411.738 52.9609 411.82 52.207 411.984 51.5195C412.148 50.8242 412.387 50.2188 412.699 49.7031C413.02 49.1875 413.41 48.7891 413.871 48.5078C414.332 48.2266 414.859 48.0859 415.453 48.0859C415.641 48.0859 415.832 48.1016 416.027 48.1328C416.223 48.1562 416.383 48.1914 416.508 48.2383Z" fill="#888888"/>
<path d="M112.125 84.875V119H103.898V84.875H112.125ZM122.391 84.875V91.2266H93.8672V84.875H122.391ZM135.68 119.469C133.617 119.469 131.773 119.148 130.148 118.508C128.523 117.852 127.148 116.953 126.023 115.812C124.914 114.672 124.062 113.359 123.469 111.875C122.891 110.391 122.602 108.82 122.602 107.164V106.273C122.602 104.414 122.859 102.695 123.375 101.117C123.891 99.5234 124.656 98.1328 125.672 96.9453C126.688 95.7578 127.961 94.8359 129.492 94.1797C131.023 93.5078 132.805 93.1719 134.836 93.1719C136.633 93.1719 138.242 93.4609 139.664 94.0391C141.086 94.6172 142.289 95.4453 143.273 96.5234C144.273 97.6016 145.031 98.9062 145.547 100.438C146.078 101.969 146.344 103.688 146.344 105.594V108.805H125.625V103.859H138.633V103.25C138.648 102.406 138.5 101.688 138.188 101.094C137.891 100.5 137.453 100.047 136.875 99.7344C136.297 99.4219 135.594 99.2656 134.766 99.2656C133.906 99.2656 133.195 99.4531 132.633 99.8281C132.086 100.203 131.656 100.719 131.344 101.375C131.047 102.016 130.836 102.758 130.711 103.602C130.586 104.445 130.523 105.336 130.523 106.273V107.164C130.523 108.102 130.648 108.953 130.898 109.719C131.164 110.484 131.539 111.141 132.023 111.688C132.523 112.219 133.117 112.633 133.805 112.93C134.508 113.227 135.305 113.375 136.195 113.375C137.273 113.375 138.336 113.172 139.383 112.766C140.43 112.359 141.328 111.688 142.078 110.75L145.664 115.016C145.148 115.75 144.414 116.461 143.461 117.148C142.523 117.836 141.398 118.398 140.086 118.836C138.773 119.258 137.305 119.469 135.68 119.469ZM160.266 113.375C161 113.375 161.625 113.242 162.141 112.977C162.672 112.695 163.07 112.305 163.336 111.805C163.617 111.289 163.75 110.672 163.734 109.953H171.164C171.18 111.859 170.711 113.531 169.758 114.969C168.82 116.391 167.539 117.5 165.914 118.297C164.305 119.078 162.484 119.469 160.453 119.469C158.469 119.469 156.734 119.148 155.25 118.508C153.766 117.852 152.523 116.945 151.523 115.789C150.539 114.617 149.797 113.25 149.297 111.688C148.812 110.125 148.57 108.43 148.57 106.602V106.062C148.57 104.234 148.812 102.539 149.297 100.977C149.797 99.3984 150.539 98.0312 151.523 96.875C152.523 95.7031 153.758 94.7969 155.227 94.1562C156.711 93.5 158.438 93.1719 160.406 93.1719C162.516 93.1719 164.375 93.5703 165.984 94.3672C167.609 95.1641 168.883 96.3203 169.805 97.8359C170.727 99.3516 171.18 101.188 171.164 103.344H163.734C163.75 102.578 163.633 101.891 163.383 101.281C163.133 100.672 162.742 100.188 162.211 99.8281C161.695 99.4531 161.031 99.2656 160.219 99.2656C159.406 99.2656 158.75 99.4453 158.25 99.8047C157.75 100.164 157.367 100.664 157.102 101.305C156.852 101.93 156.68 102.648 156.586 103.461C156.508 104.273 156.469 105.141 156.469 106.062V106.602C156.469 107.539 156.508 108.422 156.586 109.25C156.68 110.062 156.859 110.781 157.125 111.406C157.391 112.016 157.773 112.5 158.273 112.859C158.773 113.203 159.438 113.375 160.266 113.375ZM182.273 83V119H174.375V83H182.273ZM181.336 105.453L179.484 105.5C179.484 103.719 179.703 102.078 180.141 100.578C180.578 99.0781 181.203 97.7734 182.016 96.6641C182.828 95.5547 183.805 94.6953 184.945 94.0859C186.086 93.4766 187.352 93.1719 188.742 93.1719C189.992 93.1719 191.133 93.3516 192.164 93.7109C193.211 94.0703 194.109 94.6484 194.859 95.4453C195.625 96.2422 196.211 97.2812 196.617 98.5625C197.039 99.8438 197.25 101.406 197.25 103.25V119H189.305V103.203C189.305 102.172 189.156 101.375 188.859 100.812C188.578 100.234 188.172 99.8359 187.641 99.6172C187.109 99.3828 186.461 99.2656 185.695 99.2656C184.773 99.2656 184.023 99.4219 183.445 99.7344C182.867 100.047 182.422 100.484 182.109 101.047C181.812 101.594 181.609 102.242 181.5 102.992C181.391 103.742 181.336 104.562 181.336 105.453ZM231.539 109.93C231.539 109.398 231.461 108.922 231.305 108.5C231.148 108.062 230.859 107.656 230.438 107.281C230.016 106.906 229.406 106.531 228.609 106.156C227.828 105.766 226.797 105.359 225.516 104.938C224.016 104.438 222.57 103.875 221.18 103.25C219.789 102.609 218.547 101.867 217.453 101.023C216.359 100.164 215.492 99.1641 214.852 98.0234C214.211 96.8672 213.891 95.5234 213.891 93.9922C213.891 92.5234 214.219 91.2031 214.875 90.0312C215.531 88.8438 216.445 87.8359 217.617 87.0078C218.805 86.1641 220.195 85.5234 221.789 85.0859C223.383 84.6328 225.125 84.4062 227.016 84.4062C229.516 84.4062 231.719 84.8438 233.625 85.7188C235.547 86.5781 237.047 87.8047 238.125 89.3984C239.219 90.9766 239.766 92.8438 239.766 95H231.586C231.586 94.1406 231.406 93.3828 231.047 92.7266C230.703 92.0703 230.18 91.5547 229.477 91.1797C228.773 90.8047 227.891 90.6172 226.828 90.6172C225.797 90.6172 224.93 90.7734 224.227 91.0859C223.523 91.3984 222.992 91.8203 222.633 92.3516C222.273 92.8672 222.094 93.4375 222.094 94.0625C222.094 94.5781 222.234 95.0469 222.516 95.4688C222.812 95.875 223.227 96.2578 223.758 96.6172C224.305 96.9766 224.961 97.3203 225.727 97.6484C226.508 97.9766 227.383 98.2969 228.352 98.6094C230.164 99.1875 231.773 99.8359 233.18 100.555C234.602 101.258 235.797 102.062 236.766 102.969C237.75 103.859 238.492 104.875 238.992 106.016C239.508 107.156 239.766 108.445 239.766 109.883C239.766 111.414 239.469 112.773 238.875 113.961C238.281 115.148 237.43 116.156 236.32 116.984C235.211 117.797 233.883 118.414 232.336 118.836C230.789 119.258 229.062 119.469 227.156 119.469C225.406 119.469 223.68 119.25 221.977 118.812C220.289 118.359 218.758 117.672 217.383 116.75C216.008 115.812 214.906 114.617 214.078 113.164C213.266 111.695 212.859 109.953 212.859 107.938H221.109C221.109 108.938 221.242 109.781 221.508 110.469C221.773 111.156 222.164 111.711 222.68 112.133C223.195 112.539 223.828 112.836 224.578 113.023C225.328 113.195 226.188 113.281 227.156 113.281C228.203 113.281 229.047 113.133 229.688 112.836C230.328 112.523 230.797 112.117 231.094 111.617C231.391 111.102 231.539 110.539 231.539 109.93ZM256.992 93.6406V99.125H241.711V93.6406H256.992ZM244.922 87.3359H252.82V110.727C252.82 111.398 252.898 111.922 253.055 112.297C253.211 112.656 253.477 112.914 253.852 113.07C254.242 113.211 254.758 113.281 255.398 113.281C255.852 113.281 256.227 113.273 256.523 113.258C256.82 113.227 257.102 113.188 257.367 113.141V118.789C256.695 119.008 255.992 119.172 255.258 119.281C254.523 119.406 253.742 119.469 252.914 119.469C251.227 119.469 249.781 119.203 248.578 118.672C247.391 118.141 246.484 117.305 245.859 116.164C245.234 115.023 244.922 113.539 244.922 111.711V87.3359ZM273.305 112.625V102.172C273.305 101.453 273.203 100.836 273 100.32C272.797 99.8047 272.477 99.4062 272.039 99.125C271.602 98.8281 271.016 98.6797 270.281 98.6797C269.688 98.6797 269.18 98.7812 268.758 98.9844C268.336 99.1875 268.016 99.4922 267.797 99.8984C267.578 100.305 267.469 100.82 267.469 101.445H259.57C259.57 100.273 259.828 99.1875 260.344 98.1875C260.875 97.1719 261.625 96.2891 262.594 95.5391C263.578 94.7891 264.75 94.2109 266.109 93.8047C267.484 93.3828 269.016 93.1719 270.703 93.1719C272.719 93.1719 274.516 93.5078 276.094 94.1797C277.688 94.8516 278.945 95.8594 279.867 97.2031C280.789 98.5312 281.25 100.203 281.25 102.219V112.602C281.25 114.258 281.344 115.516 281.531 116.375C281.719 117.219 281.984 117.961 282.328 118.602V119H274.406C274.031 118.219 273.75 117.266 273.562 116.141C273.391 115 273.305 113.828 273.305 112.625ZM274.266 103.508L274.312 107.727H270.82C270.086 107.727 269.461 107.828 268.945 108.031C268.445 108.234 268.039 108.516 267.727 108.875C267.43 109.219 267.211 109.609 267.07 110.047C266.945 110.484 266.883 110.945 266.883 111.43C266.883 111.898 266.992 112.32 267.211 112.695C267.445 113.055 267.758 113.336 268.148 113.539C268.539 113.742 268.977 113.844 269.461 113.844C270.336 113.844 271.078 113.68 271.688 113.352C272.312 113.008 272.789 112.594 273.117 112.109C273.445 111.625 273.609 111.172 273.609 110.75L275.344 113.984C275.031 114.609 274.672 115.242 274.266 115.883C273.875 116.523 273.383 117.117 272.789 117.664C272.211 118.195 271.5 118.633 270.656 118.977C269.812 119.305 268.789 119.469 267.586 119.469C266.023 119.469 264.586 119.148 263.273 118.508C261.977 117.867 260.938 116.977 260.156 115.836C259.375 114.68 258.984 113.352 258.984 111.852C258.984 110.539 259.219 109.367 259.688 108.336C260.172 107.305 260.898 106.43 261.867 105.711C262.836 104.992 264.07 104.445 265.57 104.07C267.07 103.695 268.836 103.508 270.867 103.508H274.266ZM296.344 113.375C297.078 113.375 297.703 113.242 298.219 112.977C298.75 112.695 299.148 112.305 299.414 111.805C299.695 111.289 299.828 110.672 299.812 109.953H307.242C307.258 111.859 306.789 113.531 305.836 114.969C304.898 116.391 303.617 117.5 301.992 118.297C300.383 119.078 298.562 119.469 296.531 119.469C294.547 119.469 292.812 119.148 291.328 118.508C289.844 117.852 288.602 116.945 287.602 115.789C286.617 114.617 285.875 113.25 285.375 111.688C284.891 110.125 284.648 108.43 284.648 106.602V106.062C284.648 104.234 284.891 102.539 285.375 100.977C285.875 99.3984 286.617 98.0312 287.602 96.875C288.602 95.7031 289.836 94.7969 291.305 94.1562C292.789 93.5 294.516 93.1719 296.484 93.1719C298.594 93.1719 300.453 93.5703 302.062 94.3672C303.688 95.1641 304.961 96.3203 305.883 97.8359C306.805 99.3516 307.258 101.188 307.242 103.344H299.812C299.828 102.578 299.711 101.891 299.461 101.281C299.211 100.672 298.82 100.188 298.289 99.8281C297.773 99.4531 297.109 99.2656 296.297 99.2656C295.484 99.2656 294.828 99.4453 294.328 99.8047C293.828 100.164 293.445 100.664 293.18 101.305C292.93 101.93 292.758 102.648 292.664 103.461C292.586 104.273 292.547 105.141 292.547 106.062V106.602C292.547 107.539 292.586 108.422 292.664 109.25C292.758 110.062 292.938 110.781 293.203 111.406C293.469 112.016 293.852 112.5 294.352 112.859C294.852 113.203 295.516 113.375 296.344 113.375ZM318.586 82.9766V119H310.688V82.9766H318.586ZM334.805 93.6406L323.789 106.555L318.023 112.32L314.578 107.305L319.383 101.047L325.336 93.6406H334.805ZM326.344 119L319.57 107.445L325.406 103.297L335.391 119H326.344ZM350.156 111.875C350.156 111.438 350.008 111.062 349.711 110.75C349.43 110.422 348.93 110.125 348.211 109.859C347.492 109.578 346.484 109.297 345.188 109.016C343.953 108.75 342.789 108.398 341.695 107.961C340.617 107.523 339.672 106.992 338.859 106.367C338.047 105.742 337.406 105 336.938 104.141C336.484 103.281 336.258 102.297 336.258 101.188C336.258 100.109 336.484 99.0938 336.938 98.1406C337.406 97.1719 338.086 96.3203 338.977 95.5859C339.883 94.8359 340.984 94.25 342.281 93.8281C343.578 93.3906 345.055 93.1719 346.711 93.1719C348.992 93.1719 350.961 93.5234 352.617 94.2266C354.273 94.9141 355.547 95.8828 356.438 97.1328C357.344 98.3672 357.797 99.7969 357.797 101.422H349.898C349.898 100.781 349.789 100.234 349.57 99.7812C349.367 99.3281 349.031 98.9844 348.562 98.75C348.094 98.5 347.469 98.375 346.688 98.375C346.141 98.375 345.641 98.4766 345.188 98.6797C344.75 98.8828 344.398 99.1641 344.133 99.5234C343.867 99.8828 343.734 100.305 343.734 100.789C343.734 101.133 343.812 101.445 343.969 101.727C344.141 101.992 344.398 102.242 344.742 102.477C345.086 102.695 345.523 102.898 346.055 103.086C346.586 103.258 347.227 103.414 347.977 103.555C349.68 103.867 351.273 104.312 352.758 104.891C354.242 105.469 355.445 106.289 356.367 107.352C357.305 108.414 357.773 109.844 357.773 111.641C357.773 112.766 357.516 113.805 357 114.758C356.484 115.695 355.742 116.523 354.773 117.242C353.805 117.945 352.641 118.492 351.281 118.883C349.922 119.273 348.391 119.469 346.688 119.469C344.266 119.469 342.219 119.039 340.547 118.18C338.875 117.305 337.609 116.211 336.75 114.898C335.906 113.57 335.484 112.227 335.484 110.867H342.844C342.875 111.648 343.062 112.289 343.406 112.789C343.766 113.289 344.242 113.656 344.836 113.891C345.43 114.125 346.117 114.242 346.898 114.242C347.617 114.242 348.211 114.141 348.68 113.938C349.164 113.734 349.531 113.461 349.781 113.117C350.031 112.758 350.156 112.344 350.156 111.875Z" fill="black"/>
<path d="M1134 0H1348C1356.28 0 1363 6.71573 1363 15V148C1363 156.284 1356.28 163 1348 163H1134V0Z" fill="#F7713D"/>
<path fill-rule="evenodd" clip-rule="evenodd" d="M1219.98 53C1219.85 53 1219.73 53.0527 1219.64 53.1464C1219.55 53.2402 1219.5 53.3674 1219.5 53.5V109.5C1219.5 109.633 1219.55 109.76 1219.64 109.854C1219.73 109.947 1219.85 110 1219.98 110H1277.02C1277.15 110 1277.27 109.947 1277.36 109.854C1277.45 109.76 1277.5 109.633 1277.5 109.5V64C1277.5 63.8674 1277.45 63.7402 1277.36 63.6464C1277.27 63.5527 1277.15 63.5 1277.02 63.5H1248.5C1247.65 63.5 1246.84 63.1045 1246.29 62.4206L1238.77 53H1219.98ZM1215.58 48.9038C1216.74 47.6848 1218.33 47 1219.98 47H1240.11C1240.97 47 1241.77 47.3955 1242.32 48.0794L1249.85 57.5H1277.02C1278.67 57.5 1280.26 58.1848 1281.42 59.4038C1282.59 60.6228 1283.25 62.2761 1283.25 64V109.5C1283.25 111.224 1282.59 112.877 1281.42 114.096C1280.26 115.315 1278.67 116 1277.02 116H1219.98C1218.33 116 1216.74 115.315 1215.58 114.096C1214.41 112.877 1213.75 111.224 1213.75 109.5V53.5C1213.75 51.7761 1214.41 50.1228 1215.58 48.9038Z" fill="white"/>
<path fill-rule="evenodd" clip-rule="evenodd" d="M1244.16 75.5251C1245.47 76.892 1245.47 79.108 1244.16 80.4749L1238.15 86.75L1244.16 93.0251C1245.47 94.392 1245.47 96.608 1244.16 97.9749C1242.85 99.3417 1240.73 99.3417 1239.42 97.9749L1231.03 89.2249C1229.72 87.858 1229.72 85.642 1231.03 84.2751L1239.42 75.5251C1240.73 74.1583 1242.85 74.1583 1244.16 75.5251Z" fill="white"/>
<path fill-rule="evenodd" clip-rule="evenodd" d="M1252.12 97.9749C1250.81 96.608 1250.81 94.392 1252.12 93.0251L1258.13 86.75L1252.12 80.4749C1250.81 79.108 1250.81 76.892 1252.12 75.5251C1253.43 74.1583 1255.55 74.1583 1256.86 75.5251L1265.25 84.2751C1266.56 85.642 1266.56 87.858 1265.25 89.2249L1256.86 97.9749C1255.55 99.3417 1253.43 99.3417 1252.12 97.9749Z" fill="white"/>
</svg>
