<svg width="1363" height="297" viewBox="0 0 1363 297" fill="none" xmlns="http://www.w3.org/2000/svg">
<path d="M0 15C0 6.71573 6.71573 0 15 0H37V297H15C6.71573 297 0 290.284 0 282V15Z" fill="#F7713D"/>
<path d="M37 0H1066V297H37V0Z" fill="#F0F0F0"/>
<path d="M100.893 49.4062V75H95.6367V49.4062H100.893ZM105.516 48H110.578V70.6406L110.068 75H105.516V48ZM122.619 65.2969V65.666C122.619 67.084 122.467 68.3848 122.162 69.5684C121.869 70.752 121.412 71.7773 120.791 72.6445C120.17 73.5 119.396 74.168 118.471 74.6484C117.557 75.1172 116.479 75.3516 115.236 75.3516C114.076 75.3516 113.068 75.1172 112.213 74.6484C111.369 74.1797 110.66 73.5176 110.086 72.6621C109.512 71.8066 109.049 70.8047 108.697 69.6562C108.346 68.5078 108.082 67.2539 107.906 65.8945V65.0859C108.082 63.7266 108.346 62.4727 108.697 61.3242C109.049 60.1758 109.512 59.1738 110.086 58.3184C110.66 57.4629 111.369 56.8008 112.213 56.332C113.057 55.8633 114.053 55.6289 115.201 55.6289C116.455 55.6289 117.545 55.8691 118.471 56.3496C119.408 56.8184 120.182 57.4863 120.791 58.3535C121.412 59.209 121.869 60.2285 122.162 61.4121C122.467 62.584 122.619 63.8789 122.619 65.2969ZM117.557 65.666V65.2969C117.557 64.5234 117.498 63.7969 117.381 63.1172C117.275 62.4258 117.088 61.8223 116.818 61.3066C116.549 60.7793 116.18 60.3633 115.711 60.0586C115.254 59.7539 114.662 59.6016 113.936 59.6016C113.244 59.6016 112.658 59.7188 112.178 59.9531C111.697 60.1875 111.299 60.5156 110.982 60.9375C110.678 61.3594 110.449 61.8633 110.297 62.4492C110.145 63.0234 110.051 63.6562 110.016 64.3477V66.6504C110.051 67.5762 110.203 68.3965 110.473 69.1113C110.754 69.8145 111.176 70.3711 111.738 70.7812C112.312 71.1797 113.057 71.3789 113.971 71.3789C114.686 71.3789 115.277 71.2383 115.746 70.957C116.215 70.6758 116.578 70.2773 116.836 69.7617C117.105 69.2461 117.293 68.6426 117.398 67.9512C117.504 67.248 117.557 66.4863 117.557 65.666ZM130.828 60.1289V75H125.766V55.9805H130.529L130.828 60.1289ZM136.559 55.8574L136.471 60.5508C136.225 60.5156 135.926 60.4863 135.574 60.4629C135.234 60.4277 134.924 60.4102 134.643 60.4102C133.928 60.4102 133.307 60.5039 132.779 60.6914C132.264 60.8672 131.83 61.1309 131.479 61.4824C131.139 61.834 130.881 62.2617 130.705 62.7656C130.541 63.2695 130.447 63.8438 130.424 64.4883L129.404 64.1719C129.404 62.9414 129.527 61.8105 129.773 60.7793C130.02 59.7363 130.377 58.8281 130.846 58.0547C131.326 57.2812 131.912 56.6836 132.604 56.2617C133.295 55.8398 134.086 55.6289 134.977 55.6289C135.258 55.6289 135.545 55.6523 135.838 55.6992C136.131 55.7344 136.371 55.7871 136.559 55.8574ZM148.617 70.7109V62.2383C148.617 61.6289 148.518 61.1074 148.318 60.6738C148.119 60.2285 147.809 59.8828 147.387 59.6367C146.977 59.3906 146.443 59.2676 145.787 59.2676C145.225 59.2676 144.738 59.3672 144.328 59.5664C143.918 59.7539 143.602 60.0293 143.379 60.3926C143.156 60.7441 143.045 61.1602 143.045 61.6406H137.982C137.982 60.832 138.17 60.0645 138.545 59.3379C138.92 58.6113 139.465 57.9727 140.18 57.4219C140.895 56.8594 141.744 56.4199 142.729 56.1035C143.725 55.7871 144.838 55.6289 146.068 55.6289C147.545 55.6289 148.857 55.875 150.006 56.3672C151.154 56.8594 152.057 57.5977 152.713 58.582C153.381 59.5664 153.715 60.7969 153.715 62.2734V70.4121C153.715 71.4551 153.779 72.3105 153.908 72.9785C154.037 73.6348 154.225 74.209 154.471 74.7012V75H149.355C149.109 74.4844 148.922 73.8398 148.793 73.0664C148.676 72.2812 148.617 71.4961 148.617 70.7109ZM149.285 63.416L149.32 66.2812H146.49C145.822 66.2812 145.242 66.3574 144.75 66.5098C144.258 66.6621 143.854 66.8789 143.537 67.1602C143.221 67.4297 142.986 67.7461 142.834 68.1094C142.693 68.4727 142.623 68.8711 142.623 69.3047C142.623 69.7383 142.723 70.1309 142.922 70.4824C143.121 70.8223 143.408 71.0918 143.783 71.291C144.158 71.4785 144.598 71.5723 145.102 71.5723C145.863 71.5723 146.525 71.4199 147.088 71.1152C147.65 70.8105 148.084 70.4355 148.389 69.9902C148.705 69.5449 148.869 69.123 148.881 68.7246L150.217 70.8691C150.029 71.3496 149.771 71.8477 149.443 72.3633C149.127 72.8789 148.723 73.3652 148.23 73.8223C147.738 74.2676 147.146 74.6367 146.455 74.9297C145.764 75.2109 144.943 75.3516 143.994 75.3516C142.787 75.3516 141.691 75.1113 140.707 74.6309C139.734 74.1387 138.961 73.4648 138.387 72.6094C137.824 71.7422 137.543 70.7578 137.543 69.6562C137.543 68.6602 137.73 67.7754 138.105 67.002C138.48 66.2285 139.031 65.5781 139.758 65.0508C140.496 64.5117 141.416 64.1074 142.518 63.8379C143.619 63.5566 144.896 63.416 146.35 63.416H149.285ZM162.557 48V75H157.494V48H162.557ZM161.836 64.8223H160.447C160.459 63.498 160.635 62.2793 160.975 61.166C161.314 60.041 161.801 59.0684 162.434 58.248C163.066 57.416 163.822 56.7715 164.701 56.3145C165.592 55.8574 166.576 55.6289 167.654 55.6289C168.592 55.6289 169.441 55.7637 170.203 56.0332C170.977 56.291 171.639 56.7129 172.189 57.2988C172.752 57.873 173.186 58.6289 173.49 59.5664C173.795 60.5039 173.947 61.6406 173.947 62.9766V75H168.85V62.9414C168.85 62.0977 168.727 61.4355 168.48 60.9551C168.246 60.4629 167.9 60.1172 167.443 59.918C166.998 59.707 166.447 59.6016 165.791 59.6016C165.064 59.6016 164.443 59.7363 163.928 60.0059C163.424 60.2754 163.02 60.6504 162.715 61.1309C162.41 61.5996 162.188 62.1504 162.047 62.7832C161.906 63.416 161.836 64.0957 161.836 64.8223ZM183.141 55.9805V75H178.061V55.9805H183.141ZM177.744 51.0234C177.744 50.2852 178.002 49.6758 178.518 49.1953C179.033 48.7148 179.725 48.4746 180.592 48.4746C181.447 48.4746 182.133 48.7148 182.648 49.1953C183.176 49.6758 183.439 50.2852 183.439 51.0234C183.439 51.7617 183.176 52.3711 182.648 52.8516C182.133 53.332 181.447 53.5723 180.592 53.5723C179.725 53.5723 179.033 53.332 178.518 52.8516C178.002 52.3711 177.744 51.7617 177.744 51.0234ZM192.387 59.918V75H187.307V55.9805H192.07L192.387 59.918ZM191.684 64.8223H190.277C190.277 63.498 190.436 62.2793 190.752 61.166C191.08 60.041 191.555 59.0684 192.176 58.248C192.809 57.416 193.588 56.7715 194.514 56.3145C195.439 55.8574 196.512 55.6289 197.73 55.6289C198.574 55.6289 199.348 55.7578 200.051 56.0156C200.754 56.2617 201.357 56.6543 201.861 57.1934C202.377 57.7207 202.775 58.4121 203.057 59.2676C203.338 60.1113 203.479 61.125 203.479 62.3086V75H198.416V62.8711C198.416 62.0039 198.299 61.3359 198.064 60.8672C197.83 60.3984 197.496 60.0703 197.062 59.8828C196.641 59.6953 196.131 59.6016 195.533 59.6016C194.877 59.6016 194.303 59.7363 193.811 60.0059C193.33 60.2754 192.932 60.6504 192.615 61.1309C192.299 61.5996 192.064 62.1504 191.912 62.7832C191.76 63.416 191.684 64.0957 191.684 64.8223ZM203.004 64.2422L201.193 64.4707C201.193 63.2285 201.346 62.0742 201.65 61.0078C201.967 59.9414 202.43 59.0039 203.039 58.1953C203.66 57.3867 204.428 56.7598 205.342 56.3145C206.256 55.8574 207.311 55.6289 208.506 55.6289C209.42 55.6289 210.252 55.7637 211.002 56.0332C211.752 56.291 212.391 56.707 212.918 57.2812C213.457 57.8438 213.867 58.582 214.148 59.4961C214.441 60.4102 214.588 61.5293 214.588 62.8535V75H209.508V62.8535C209.508 61.9746 209.391 61.3066 209.156 60.8496C208.934 60.3809 208.605 60.0586 208.172 59.8828C207.75 59.6953 207.246 59.6016 206.66 59.6016C206.051 59.6016 205.518 59.7246 205.061 59.9707C204.604 60.2051 204.223 60.5332 203.918 60.9551C203.613 61.377 203.385 61.8691 203.232 62.4316C203.08 62.9824 203.004 63.5859 203.004 64.2422ZM244.857 59.8301V63.9434H231.498V59.8301H244.857ZM233.062 49.4062V75H227.789V49.4062H233.062ZM248.619 49.4062V75H243.363V49.4062H248.619ZM263.156 70.7109V62.2383C263.156 61.6289 263.057 61.1074 262.857 60.6738C262.658 60.2285 262.348 59.8828 261.926 59.6367C261.516 59.3906 260.982 59.2676 260.326 59.2676C259.764 59.2676 259.277 59.3672 258.867 59.5664C258.457 59.7539 258.141 60.0293 257.918 60.3926C257.695 60.7441 257.584 61.1602 257.584 61.6406H252.521C252.521 60.832 252.709 60.0645 253.084 59.3379C253.459 58.6113 254.004 57.9727 254.719 57.4219C255.434 56.8594 256.283 56.4199 257.268 56.1035C258.264 55.7871 259.377 55.6289 260.607 55.6289C262.084 55.6289 263.396 55.875 264.545 56.3672C265.693 56.8594 266.596 57.5977 267.252 58.582C267.92 59.5664 268.254 60.7969 268.254 62.2734V70.4121C268.254 71.4551 268.318 72.3105 268.447 72.9785C268.576 73.6348 268.764 74.209 269.01 74.7012V75H263.895C263.648 74.4844 263.461 73.8398 263.332 73.0664C263.215 72.2812 263.156 71.4961 263.156 70.7109ZM263.824 63.416L263.859 66.2812H261.029C260.361 66.2812 259.781 66.3574 259.289 66.5098C258.797 66.6621 258.393 66.8789 258.076 67.1602C257.76 67.4297 257.525 67.7461 257.373 68.1094C257.232 68.4727 257.162 68.8711 257.162 69.3047C257.162 69.7383 257.262 70.1309 257.461 70.4824C257.66 70.8223 257.947 71.0918 258.322 71.291C258.697 71.4785 259.137 71.5723 259.641 71.5723C260.402 71.5723 261.064 71.4199 261.627 71.1152C262.189 70.8105 262.623 70.4355 262.928 69.9902C263.244 69.5449 263.408 69.123 263.42 68.7246L264.756 70.8691C264.568 71.3496 264.311 71.8477 263.982 72.3633C263.666 72.8789 263.262 73.3652 262.77 73.8223C262.277 74.2676 261.686 74.6367 260.994 74.9297C260.303 75.2109 259.482 75.3516 258.533 75.3516C257.326 75.3516 256.23 75.1113 255.246 74.6309C254.273 74.1387 253.5 73.4648 252.926 72.6094C252.363 71.7422 252.082 70.7578 252.082 69.6562C252.082 68.6602 252.27 67.7754 252.645 67.002C253.02 66.2285 253.57 65.5781 254.297 65.0508C255.035 64.5117 255.955 64.1074 257.057 63.8379C258.158 63.5566 259.436 63.416 260.889 63.416H263.824ZM282.439 69.7441C282.439 69.3809 282.334 69.0527 282.123 68.7598C281.912 68.4668 281.52 68.1973 280.945 67.9512C280.383 67.6934 279.568 67.459 278.502 67.248C277.541 67.0371 276.645 66.7734 275.812 66.457C274.992 66.1289 274.277 65.7363 273.668 65.2793C273.07 64.8223 272.602 64.2832 272.262 63.6621C271.922 63.0293 271.752 62.3086 271.752 61.5C271.752 60.7031 271.922 59.9531 272.262 59.25C272.613 58.5469 273.111 57.9258 273.756 57.3867C274.412 56.8359 275.209 56.4082 276.146 56.1035C277.096 55.7871 278.162 55.6289 279.346 55.6289C280.998 55.6289 282.416 55.8926 283.6 56.4199C284.795 56.9473 285.709 57.6738 286.342 58.5996C286.986 59.5137 287.309 60.5566 287.309 61.7285H282.246C282.246 61.2363 282.141 60.7969 281.93 60.4102C281.73 60.0117 281.414 59.7012 280.98 59.4785C280.559 59.2441 280.008 59.127 279.328 59.127C278.766 59.127 278.279 59.2266 277.869 59.4258C277.459 59.6133 277.143 59.8711 276.92 60.1992C276.709 60.5156 276.604 60.8672 276.604 61.2539C276.604 61.5469 276.662 61.8105 276.779 62.0449C276.908 62.2676 277.113 62.4727 277.395 62.6602C277.676 62.8477 278.039 63.0234 278.484 63.1875C278.941 63.3398 279.504 63.4805 280.172 63.6094C281.543 63.8906 282.768 64.2598 283.846 64.7168C284.924 65.1621 285.779 65.7715 286.412 66.5449C287.045 67.3066 287.361 68.3086 287.361 69.5508C287.361 70.3945 287.174 71.168 286.799 71.8711C286.424 72.5742 285.885 73.1895 285.182 73.7168C284.479 74.2324 283.635 74.6367 282.65 74.9297C281.678 75.2109 280.582 75.3516 279.363 75.3516C277.594 75.3516 276.094 75.0352 274.863 74.4023C273.645 73.7695 272.719 72.9668 272.086 71.9941C271.465 71.0098 271.154 70.002 271.154 68.9707H275.953C275.977 69.6621 276.152 70.2188 276.48 70.6406C276.82 71.0625 277.248 71.3672 277.764 71.5547C278.291 71.7422 278.859 71.8359 279.469 71.8359C280.125 71.8359 280.67 71.748 281.104 71.5723C281.537 71.3848 281.865 71.1387 282.088 70.834C282.322 70.5176 282.439 70.1543 282.439 69.7441ZM300.932 69.7441C300.932 69.3809 300.826 69.0527 300.615 68.7598C300.404 68.4668 300.012 68.1973 299.438 67.9512C298.875 67.6934 298.061 67.459 296.994 67.248C296.033 67.0371 295.137 66.7734 294.305 66.457C293.484 66.1289 292.77 65.7363 292.16 65.2793C291.562 64.8223 291.094 64.2832 290.754 63.6621C290.414 63.0293 290.244 62.3086 290.244 61.5C290.244 60.7031 290.414 59.9531 290.754 59.25C291.105 58.5469 291.604 57.9258 292.248 57.3867C292.904 56.8359 293.701 56.4082 294.639 56.1035C295.588 55.7871 296.654 55.6289 297.838 55.6289C299.49 55.6289 300.908 55.8926 302.092 56.4199C303.287 56.9473 304.201 57.6738 304.834 58.5996C305.479 59.5137 305.801 60.5566 305.801 61.7285H300.738C300.738 61.2363 300.633 60.7969 300.422 60.4102C300.223 60.0117 299.906 59.7012 299.473 59.4785C299.051 59.2441 298.5 59.127 297.82 59.127C297.258 59.127 296.771 59.2266 296.361 59.4258C295.951 59.6133 295.635 59.8711 295.412 60.1992C295.201 60.5156 295.096 60.8672 295.096 61.2539C295.096 61.5469 295.154 61.8105 295.271 62.0449C295.4 62.2676 295.605 62.4727 295.887 62.6602C296.168 62.8477 296.531 63.0234 296.977 63.1875C297.434 63.3398 297.996 63.4805 298.664 63.6094C300.035 63.8906 301.26 64.2598 302.338 64.7168C303.416 65.1621 304.271 65.7715 304.904 66.5449C305.537 67.3066 305.854 68.3086 305.854 69.5508C305.854 70.3945 305.666 71.168 305.291 71.8711C304.916 72.5742 304.377 73.1895 303.674 73.7168C302.971 74.2324 302.127 74.6367 301.143 74.9297C300.17 75.2109 299.074 75.3516 297.855 75.3516C296.086 75.3516 294.586 75.0352 293.355 74.4023C292.137 73.7695 291.211 72.9668 290.578 71.9941C289.957 71.0098 289.646 70.002 289.646 68.9707H294.445C294.469 69.6621 294.645 70.2188 294.973 70.6406C295.312 71.0625 295.74 71.3672 296.256 71.5547C296.783 71.7422 297.352 71.8359 297.961 71.8359C298.617 71.8359 299.162 71.748 299.596 71.5723C300.029 71.3848 300.357 71.1387 300.58 70.834C300.814 70.5176 300.932 70.1543 300.932 69.7441ZM308.332 65.6836V65.3145C308.332 63.9199 308.531 62.6367 308.93 61.4648C309.328 60.2812 309.908 59.2559 310.67 58.3887C311.432 57.5215 312.369 56.8477 313.482 56.3672C314.596 55.875 315.873 55.6289 317.314 55.6289C318.756 55.6289 320.039 55.875 321.164 56.3672C322.289 56.8477 323.232 57.5215 323.994 58.3887C324.768 59.2559 325.354 60.2812 325.752 61.4648C326.15 62.6367 326.35 63.9199 326.35 65.3145V65.6836C326.35 67.0664 326.15 68.3496 325.752 69.5332C325.354 70.7051 324.768 71.7305 323.994 72.6094C323.232 73.4766 322.295 74.1504 321.182 74.6309C320.068 75.1113 318.791 75.3516 317.35 75.3516C315.908 75.3516 314.625 75.1113 313.5 74.6309C312.387 74.1504 311.443 73.4766 310.67 72.6094C309.908 71.7305 309.328 70.7051 308.93 69.5332C308.531 68.3496 308.332 67.0664 308.332 65.6836ZM313.395 65.3145V65.6836C313.395 66.4805 313.465 67.2246 313.605 67.916C313.746 68.6074 313.969 69.2168 314.273 69.7441C314.59 70.2598 315 70.6641 315.504 70.957C316.008 71.25 316.623 71.3965 317.35 71.3965C318.053 71.3965 318.656 71.25 319.16 70.957C319.664 70.6641 320.068 70.2598 320.373 69.7441C320.678 69.2168 320.9 68.6074 321.041 67.916C321.193 67.2246 321.27 66.4805 321.27 65.6836V65.3145C321.27 64.541 321.193 63.8145 321.041 63.1348C320.9 62.4434 320.672 61.834 320.355 61.3066C320.051 60.7676 319.646 60.3457 319.143 60.041C318.639 59.7363 318.029 59.584 317.314 59.584C316.6 59.584 315.99 59.7363 315.486 60.041C314.994 60.3457 314.59 60.7676 314.273 61.3066C313.969 61.834 313.746 62.4434 313.605 63.1348C313.465 63.8145 313.395 64.541 313.395 65.3145ZM340.711 70.4473V55.9805H345.773V75H341.01L340.711 70.4473ZM341.273 66.5449L342.768 66.5098C342.768 67.7754 342.621 68.9531 342.328 70.043C342.035 71.1211 341.596 72.0586 341.01 72.8555C340.424 73.6406 339.686 74.2559 338.795 74.7012C337.904 75.1348 336.855 75.3516 335.648 75.3516C334.723 75.3516 333.867 75.2227 333.082 74.9648C332.309 74.6953 331.641 74.2793 331.078 73.7168C330.527 73.1426 330.094 72.4102 329.777 71.5195C329.473 70.6172 329.32 69.5332 329.32 68.2676V55.9805H334.383V68.3027C334.383 68.8652 334.447 69.3398 334.576 69.7266C334.717 70.1133 334.91 70.4297 335.156 70.6758C335.402 70.9219 335.689 71.0977 336.018 71.2031C336.357 71.3086 336.732 71.3613 337.143 71.3613C338.186 71.3613 339.006 71.1504 339.604 70.7285C340.213 70.3066 340.641 69.7324 340.887 69.0059C341.145 68.2676 341.273 67.4473 341.273 66.5449ZM354.598 60.041V75H349.535V55.9805H354.281L354.598 60.041ZM353.859 64.8223H352.488C352.488 63.416 352.67 62.1504 353.033 61.0254C353.396 59.8887 353.906 58.9219 354.562 58.125C355.219 57.3164 355.998 56.7012 356.9 56.2793C357.814 55.8457 358.834 55.6289 359.959 55.6289C360.85 55.6289 361.664 55.7578 362.402 56.0156C363.141 56.2734 363.773 56.6836 364.301 57.2461C364.84 57.8086 365.25 58.5527 365.531 59.4785C365.824 60.4043 365.971 61.5352 365.971 62.8711V75H360.873V62.8535C360.873 62.0098 360.756 61.3535 360.521 60.8848C360.287 60.416 359.941 60.0879 359.484 59.9004C359.039 59.7012 358.488 59.6016 357.832 59.6016C357.152 59.6016 356.561 59.7363 356.057 60.0059C355.564 60.2754 355.154 60.6504 354.826 61.1309C354.51 61.5996 354.27 62.1504 354.105 62.7832C353.941 63.416 353.859 64.0957 353.859 64.8223Z" fill="#888888"/>
<path d="M112.277 123.074H102.023L101.969 116.785H110.281C111.776 116.785 112.97 116.621 113.863 116.293C114.757 115.947 115.404 115.445 115.805 114.789C116.224 114.133 116.434 113.312 116.434 112.328C116.434 111.198 116.224 110.286 115.805 109.594C115.385 108.901 114.72 108.4 113.809 108.09C112.915 107.762 111.758 107.598 110.336 107.598H105.633V140H96.0352V100.188H110.336C112.797 100.188 114.993 100.415 116.926 100.871C118.858 101.309 120.499 101.983 121.848 102.895C123.215 103.806 124.254 104.954 124.965 106.34C125.676 107.707 126.031 109.32 126.031 111.18C126.031 112.802 125.685 114.324 124.992 115.746C124.299 117.168 123.142 118.326 121.52 119.219C119.915 120.094 117.719 120.549 114.93 120.586L112.277 123.074ZM111.895 140H99.6992L102.98 132.617H111.895C113.207 132.617 114.255 132.417 115.039 132.016C115.841 131.596 116.415 131.049 116.762 130.375C117.126 129.682 117.309 128.917 117.309 128.078C117.309 127.057 117.135 126.173 116.789 125.426C116.461 124.678 115.932 124.104 115.203 123.703C114.474 123.284 113.499 123.074 112.277 123.074H104.211L104.266 116.785H113.918L116.16 119.301C118.822 119.191 120.927 119.565 122.477 120.422C124.044 121.279 125.165 122.409 125.84 123.812C126.514 125.216 126.852 126.684 126.852 128.215C126.852 130.822 126.286 133 125.156 134.75C124.044 136.5 122.376 137.812 120.152 138.688C117.928 139.562 115.176 140 111.895 140ZM147.113 132.562V120.367C147.113 119.529 146.995 118.809 146.758 118.207C146.521 117.605 146.147 117.141 145.637 116.812C145.126 116.466 144.443 116.293 143.586 116.293C142.893 116.293 142.301 116.411 141.809 116.648C141.316 116.885 140.943 117.241 140.688 117.715C140.432 118.189 140.305 118.79 140.305 119.52H131.09C131.09 118.152 131.391 116.885 131.992 115.719C132.612 114.534 133.487 113.504 134.617 112.629C135.766 111.754 137.133 111.079 138.719 110.605C140.323 110.113 142.109 109.867 144.078 109.867C146.43 109.867 148.526 110.259 150.367 111.043C152.227 111.827 153.694 113.003 154.77 114.57C155.845 116.12 156.383 118.07 156.383 120.422V132.535C156.383 134.467 156.492 135.935 156.711 136.938C156.93 137.922 157.24 138.788 157.641 139.535V140H148.398C147.961 139.089 147.633 137.977 147.414 136.664C147.214 135.333 147.113 133.966 147.113 132.562ZM148.234 121.926L148.289 126.848H144.215C143.358 126.848 142.629 126.966 142.027 127.203C141.444 127.44 140.97 127.768 140.605 128.188C140.259 128.589 140.004 129.044 139.84 129.555C139.694 130.065 139.621 130.603 139.621 131.168C139.621 131.715 139.749 132.207 140.004 132.645C140.277 133.064 140.642 133.392 141.098 133.629C141.553 133.866 142.064 133.984 142.629 133.984C143.65 133.984 144.516 133.793 145.227 133.41C145.956 133.009 146.512 132.526 146.895 131.961C147.277 131.396 147.469 130.867 147.469 130.375L149.492 134.148C149.128 134.878 148.708 135.616 148.234 136.363C147.779 137.111 147.204 137.803 146.512 138.441C145.837 139.061 145.008 139.572 144.023 139.973C143.039 140.355 141.845 140.547 140.441 140.547C138.618 140.547 136.941 140.173 135.41 139.426C133.897 138.678 132.685 137.639 131.773 136.309C130.862 134.96 130.406 133.41 130.406 131.66C130.406 130.129 130.68 128.762 131.227 127.559C131.792 126.355 132.639 125.335 133.77 124.496C134.9 123.658 136.34 123.02 138.09 122.582C139.84 122.145 141.9 121.926 144.27 121.926H148.234ZM177.082 110.414V116.812H159.254V110.414H177.082ZM163 103.059H172.215V130.348C172.215 131.132 172.306 131.742 172.488 132.18C172.671 132.599 172.98 132.9 173.418 133.082C173.874 133.246 174.475 133.328 175.223 133.328C175.751 133.328 176.189 133.319 176.535 133.301C176.882 133.264 177.21 133.219 177.52 133.164V139.754C176.736 140.009 175.915 140.201 175.059 140.328C174.202 140.474 173.29 140.547 172.324 140.547C170.355 140.547 168.669 140.237 167.266 139.617C165.88 138.997 164.823 138.022 164.094 136.691C163.365 135.361 163 133.629 163 131.496V103.059ZM196.113 132.562V120.367C196.113 119.529 195.995 118.809 195.758 118.207C195.521 117.605 195.147 117.141 194.637 116.812C194.126 116.466 193.443 116.293 192.586 116.293C191.893 116.293 191.301 116.411 190.809 116.648C190.316 116.885 189.943 117.241 189.688 117.715C189.432 118.189 189.305 118.79 189.305 119.52H180.09C180.09 118.152 180.391 116.885 180.992 115.719C181.612 114.534 182.487 113.504 183.617 112.629C184.766 111.754 186.133 111.079 187.719 110.605C189.323 110.113 191.109 109.867 193.078 109.867C195.43 109.867 197.526 110.259 199.367 111.043C201.227 111.827 202.694 113.003 203.77 114.57C204.845 116.12 205.383 118.07 205.383 120.422V132.535C205.383 134.467 205.492 135.935 205.711 136.938C205.93 137.922 206.24 138.788 206.641 139.535V140H197.398C196.961 139.089 196.633 137.977 196.414 136.664C196.214 135.333 196.113 133.966 196.113 132.562ZM197.234 121.926L197.289 126.848H193.215C192.358 126.848 191.629 126.966 191.027 127.203C190.444 127.44 189.97 127.768 189.605 128.188C189.259 128.589 189.004 129.044 188.84 129.555C188.694 130.065 188.621 130.603 188.621 131.168C188.621 131.715 188.749 132.207 189.004 132.645C189.277 133.064 189.642 133.392 190.098 133.629C190.553 133.866 191.064 133.984 191.629 133.984C192.65 133.984 193.516 133.793 194.227 133.41C194.956 133.009 195.512 132.526 195.895 131.961C196.277 131.396 196.469 130.867 196.469 130.375L198.492 134.148C198.128 134.878 197.708 135.616 197.234 136.363C196.779 137.111 196.204 137.803 195.512 138.441C194.837 139.061 194.008 139.572 193.023 139.973C192.039 140.355 190.845 140.547 189.441 140.547C187.618 140.547 185.941 140.173 184.41 139.426C182.897 138.678 181.685 137.639 180.773 136.309C179.862 134.96 179.406 133.41 179.406 131.66C179.406 130.129 179.68 128.762 180.227 127.559C180.792 126.355 181.639 125.335 182.77 124.496C183.9 123.658 185.34 123.02 187.09 122.582C188.84 122.145 190.9 121.926 193.27 121.926H197.234ZM220.23 98V140H210.988V98H220.23ZM226.547 135.68C226.547 134.367 227.021 133.273 227.969 132.398C228.917 131.505 230.138 131.059 231.633 131.059C233.146 131.059 234.367 131.505 235.297 132.398C236.245 133.273 236.719 134.367 236.719 135.68C236.719 136.992 236.245 138.095 235.297 138.988C234.367 139.863 233.146 140.301 231.633 140.301C230.138 140.301 228.917 139.863 227.969 138.988C227.021 138.095 226.547 136.992 226.547 135.68ZM226.547 113.859C226.547 112.547 227.021 111.453 227.969 110.578C228.917 109.685 230.138 109.238 231.633 109.238C233.146 109.238 234.367 109.685 235.297 110.578C236.245 111.453 236.719 112.547 236.719 113.859C236.719 115.172 236.245 116.275 235.297 117.168C234.367 118.043 233.146 118.48 231.633 118.48C230.138 118.48 228.917 118.043 227.969 117.168C227.021 116.275 226.547 115.172 226.547 113.859ZM266.742 100.188V140H257.145V100.188H266.742ZM282.219 116.758V124.141H264.008V116.758H282.219ZM283.777 100.188V107.598H264.008V100.188H283.777ZM297.066 110.414V140H287.824V110.414H297.066ZM287.277 102.785C287.277 101.473 287.751 100.397 288.699 99.5586C289.647 98.7201 290.878 98.3008 292.391 98.3008C293.904 98.3008 295.134 98.7201 296.082 99.5586C297.03 100.397 297.504 101.473 297.504 102.785C297.504 104.098 297.03 105.173 296.082 106.012C295.134 106.85 293.904 107.27 292.391 107.27C290.878 107.27 289.647 106.85 288.699 106.012C287.751 105.173 287.277 104.098 287.277 102.785ZM318.34 110.414V116.812H300.512V110.414H318.34ZM304.258 103.059H313.473V130.348C313.473 131.132 313.564 131.742 313.746 132.18C313.928 132.599 314.238 132.9 314.676 133.082C315.132 133.246 315.733 133.328 316.48 133.328C317.009 133.328 317.447 133.319 317.793 133.301C318.139 133.264 318.467 133.219 318.777 133.164V139.754C317.993 140.009 317.173 140.201 316.316 140.328C315.46 140.474 314.548 140.547 313.582 140.547C311.613 140.547 309.927 140.237 308.523 139.617C307.138 138.997 306.081 138.022 305.352 136.691C304.622 135.361 304.258 133.629 304.258 131.496V103.059ZM331.055 116.73V140H321.84V110.414H330.48L331.055 116.73ZM329.961 124.195L327.801 124.25C327.801 121.99 328.074 119.975 328.621 118.207C329.168 116.421 329.943 114.908 330.945 113.668C331.948 112.428 333.142 111.49 334.527 110.852C335.931 110.195 337.49 109.867 339.203 109.867C340.57 109.867 341.819 110.068 342.949 110.469C344.098 110.87 345.082 111.517 345.902 112.41C346.741 113.303 347.379 114.488 347.816 115.965C348.272 117.423 348.5 119.228 348.5 121.379V140H339.23V121.352C339.23 120.167 339.066 119.264 338.738 118.645C338.41 118.007 337.936 117.569 337.316 117.332C336.697 117.095 335.94 116.977 335.047 116.977C334.099 116.977 333.297 117.159 332.641 117.523C331.984 117.888 331.456 118.398 331.055 119.055C330.672 119.693 330.389 120.449 330.207 121.324C330.043 122.199 329.961 123.156 329.961 124.195ZM367.941 140.547C365.535 140.547 363.384 140.173 361.488 139.426C359.592 138.66 357.988 137.612 356.676 136.281C355.382 134.951 354.388 133.419 353.695 131.688C353.021 129.956 352.684 128.124 352.684 126.191V125.152C352.684 122.983 352.984 120.978 353.586 119.137C354.188 117.277 355.081 115.655 356.266 114.27C357.451 112.884 358.936 111.809 360.723 111.043C362.509 110.259 364.587 109.867 366.957 109.867C369.053 109.867 370.931 110.204 372.59 110.879C374.249 111.553 375.652 112.52 376.801 113.777C377.967 115.035 378.852 116.557 379.453 118.344C380.073 120.13 380.383 122.135 380.383 124.359V128.105H356.211V122.336H371.387V121.625C371.405 120.641 371.232 119.802 370.867 119.109C370.521 118.417 370.01 117.888 369.336 117.523C368.661 117.159 367.841 116.977 366.875 116.977C365.872 116.977 365.043 117.195 364.387 117.633C363.749 118.07 363.247 118.672 362.883 119.438C362.536 120.185 362.29 121.051 362.145 122.035C361.999 123.02 361.926 124.059 361.926 125.152V126.191C361.926 127.285 362.072 128.279 362.363 129.172C362.673 130.065 363.111 130.831 363.676 131.469C364.259 132.089 364.952 132.572 365.754 132.918C366.574 133.264 367.504 133.438 368.543 133.438C369.801 133.438 371.04 133.201 372.262 132.727C373.483 132.253 374.531 131.469 375.406 130.375L379.59 135.352C378.988 136.208 378.132 137.038 377.02 137.84C375.926 138.642 374.613 139.298 373.082 139.809C371.551 140.301 369.837 140.547 367.941 140.547ZM399.633 131.688C399.633 131.177 399.46 130.74 399.113 130.375C398.785 129.992 398.202 129.646 397.363 129.336C396.525 129.008 395.349 128.68 393.836 128.352C392.396 128.042 391.038 127.632 389.762 127.121C388.504 126.611 387.401 125.991 386.453 125.262C385.505 124.533 384.758 123.667 384.211 122.664C383.682 121.661 383.418 120.513 383.418 119.219C383.418 117.961 383.682 116.776 384.211 115.664C384.758 114.534 385.551 113.54 386.59 112.684C387.647 111.809 388.932 111.125 390.445 110.633C391.958 110.122 393.681 109.867 395.613 109.867C398.275 109.867 400.572 110.277 402.504 111.098C404.436 111.9 405.922 113.03 406.961 114.488C408.018 115.928 408.547 117.596 408.547 119.492H399.332C399.332 118.745 399.204 118.107 398.949 117.578C398.712 117.049 398.32 116.648 397.773 116.375C397.227 116.083 396.497 115.938 395.586 115.938C394.948 115.938 394.365 116.056 393.836 116.293C393.326 116.53 392.915 116.858 392.605 117.277C392.296 117.697 392.141 118.189 392.141 118.754C392.141 119.155 392.232 119.52 392.414 119.848C392.615 120.158 392.915 120.449 393.316 120.723C393.717 120.978 394.228 121.215 394.848 121.434C395.467 121.634 396.215 121.816 397.09 121.98C399.077 122.345 400.936 122.865 402.668 123.539C404.4 124.214 405.803 125.171 406.879 126.41C407.973 127.65 408.52 129.318 408.52 131.414C408.52 132.727 408.219 133.939 407.617 135.051C407.016 136.145 406.15 137.111 405.02 137.949C403.889 138.77 402.531 139.408 400.945 139.863C399.359 140.319 397.573 140.547 395.586 140.547C392.76 140.547 390.372 140.046 388.422 139.043C386.471 138.022 384.995 136.746 383.992 135.215C383.008 133.665 382.516 132.098 382.516 130.512H391.102C391.138 131.423 391.357 132.171 391.758 132.754C392.177 133.337 392.733 133.766 393.426 134.039C394.118 134.312 394.921 134.449 395.832 134.449C396.671 134.449 397.363 134.331 397.91 134.094C398.475 133.857 398.904 133.538 399.195 133.137C399.487 132.717 399.633 132.234 399.633 131.688ZM428.344 131.688C428.344 131.177 428.171 130.74 427.824 130.375C427.496 129.992 426.913 129.646 426.074 129.336C425.236 129.008 424.06 128.68 422.547 128.352C421.107 128.042 419.749 127.632 418.473 127.121C417.215 126.611 416.112 125.991 415.164 125.262C414.216 124.533 413.469 123.667 412.922 122.664C412.393 121.661 412.129 120.513 412.129 119.219C412.129 117.961 412.393 116.776 412.922 115.664C413.469 114.534 414.262 113.54 415.301 112.684C416.358 111.809 417.643 111.125 419.156 110.633C420.669 110.122 422.392 109.867 424.324 109.867C426.986 109.867 429.283 110.277 431.215 111.098C433.147 111.9 434.633 113.03 435.672 114.488C436.729 115.928 437.258 117.596 437.258 119.492H428.043C428.043 118.745 427.915 118.107 427.66 117.578C427.423 117.049 427.031 116.648 426.484 116.375C425.938 116.083 425.208 115.938 424.297 115.938C423.659 115.938 423.076 116.056 422.547 116.293C422.036 116.53 421.626 116.858 421.316 117.277C421.007 117.697 420.852 118.189 420.852 118.754C420.852 119.155 420.943 119.52 421.125 119.848C421.326 120.158 421.626 120.449 422.027 120.723C422.428 120.978 422.939 121.215 423.559 121.434C424.178 121.634 424.926 121.816 425.801 121.98C427.788 122.345 429.647 122.865 431.379 123.539C433.111 124.214 434.514 125.171 435.59 126.41C436.684 127.65 437.23 129.318 437.23 131.414C437.23 132.727 436.93 133.939 436.328 135.051C435.727 136.145 434.861 137.111 433.73 137.949C432.6 138.77 431.242 139.408 429.656 139.863C428.07 140.319 426.284 140.547 424.297 140.547C421.471 140.547 419.083 140.046 417.133 139.043C415.182 138.022 413.706 136.746 412.703 135.215C411.719 133.665 411.227 132.098 411.227 130.512H419.812C419.849 131.423 420.068 132.171 420.469 132.754C420.888 133.337 421.444 133.766 422.137 134.039C422.829 134.312 423.632 134.449 424.543 134.449C425.382 134.449 426.074 134.331 426.621 134.094C427.186 133.857 427.615 133.538 427.906 133.137C428.198 132.717 428.344 132.234 428.344 131.688ZM471.82 126.492H461.922V119.082H471.82C473.169 119.082 474.263 118.854 475.102 118.398C475.94 117.943 476.551 117.314 476.934 116.512C477.335 115.691 477.535 114.771 477.535 113.75C477.535 112.656 477.335 111.645 476.934 110.715C476.551 109.785 475.94 109.038 475.102 108.473C474.263 107.889 473.169 107.598 471.82 107.598H465.531V140H455.934V100.188H471.82C475.01 100.188 477.754 100.771 480.051 101.938C482.366 103.104 484.143 104.708 485.383 106.75C486.622 108.773 487.242 111.089 487.242 113.695C487.242 116.266 486.622 118.508 485.383 120.422C484.143 122.336 482.366 123.831 480.051 124.906C477.754 125.964 475.01 126.492 471.82 126.492ZM490.441 125.508V124.934C490.441 122.764 490.751 120.768 491.371 118.945C491.991 117.104 492.902 115.509 494.105 114.16C495.309 112.811 496.794 111.763 498.562 111.016C500.331 110.25 502.372 109.867 504.688 109.867C507.021 109.867 509.072 110.25 510.84 111.016C512.626 111.763 514.121 112.811 515.324 114.16C516.527 115.509 517.439 117.104 518.059 118.945C518.678 120.768 518.988 122.764 518.988 124.934V125.508C518.988 127.659 518.678 129.655 518.059 131.496C517.439 133.319 516.527 134.914 515.324 136.281C514.121 137.63 512.635 138.678 510.867 139.426C509.099 140.173 507.057 140.547 504.742 140.547C502.427 140.547 500.376 140.173 498.59 139.426C496.803 138.678 495.309 137.63 494.105 136.281C492.902 134.914 491.991 133.319 491.371 131.496C490.751 129.655 490.441 127.659 490.441 125.508ZM499.656 124.934V125.508C499.656 126.62 499.738 127.659 499.902 128.625C500.066 129.591 500.34 130.439 500.723 131.168C501.105 131.879 501.625 132.435 502.281 132.836C502.938 133.237 503.758 133.438 504.742 133.438C505.708 133.438 506.51 133.237 507.148 132.836C507.805 132.435 508.324 131.879 508.707 131.168C509.09 130.439 509.363 129.591 509.527 128.625C509.691 127.659 509.773 126.62 509.773 125.508V124.934C509.773 123.858 509.691 122.846 509.527 121.898C509.363 120.932 509.09 120.085 508.707 119.355C508.324 118.608 507.805 118.025 507.148 117.605C506.492 117.186 505.672 116.977 504.688 116.977C503.721 116.977 502.91 117.186 502.254 117.605C501.616 118.025 501.105 118.608 500.723 119.355C500.34 120.085 500.066 120.932 499.902 121.898C499.738 122.846 499.656 123.858 499.656 124.934ZM538.594 131.688C538.594 131.177 538.421 130.74 538.074 130.375C537.746 129.992 537.163 129.646 536.324 129.336C535.486 129.008 534.31 128.68 532.797 128.352C531.357 128.042 529.999 127.632 528.723 127.121C527.465 126.611 526.362 125.991 525.414 125.262C524.466 124.533 523.719 123.667 523.172 122.664C522.643 121.661 522.379 120.513 522.379 119.219C522.379 117.961 522.643 116.776 523.172 115.664C523.719 114.534 524.512 113.54 525.551 112.684C526.608 111.809 527.893 111.125 529.406 110.633C530.919 110.122 532.642 109.867 534.574 109.867C537.236 109.867 539.533 110.277 541.465 111.098C543.397 111.9 544.883 113.03 545.922 114.488C546.979 115.928 547.508 117.596 547.508 119.492H538.293C538.293 118.745 538.165 118.107 537.91 117.578C537.673 117.049 537.281 116.648 536.734 116.375C536.188 116.083 535.458 115.938 534.547 115.938C533.909 115.938 533.326 116.056 532.797 116.293C532.286 116.53 531.876 116.858 531.566 117.277C531.257 117.697 531.102 118.189 531.102 118.754C531.102 119.155 531.193 119.52 531.375 119.848C531.576 120.158 531.876 120.449 532.277 120.723C532.678 120.978 533.189 121.215 533.809 121.434C534.428 121.634 535.176 121.816 536.051 121.98C538.038 122.345 539.897 122.865 541.629 123.539C543.361 124.214 544.764 125.171 545.84 126.41C546.934 127.65 547.48 129.318 547.48 131.414C547.48 132.727 547.18 133.939 546.578 135.051C545.977 136.145 545.111 137.111 543.98 137.949C542.85 138.77 541.492 139.408 539.906 139.863C538.32 140.319 536.534 140.547 534.547 140.547C531.721 140.547 529.333 140.046 527.383 139.043C525.432 138.022 523.956 136.746 522.953 135.215C521.969 133.665 521.477 132.098 521.477 130.512H530.062C530.099 131.423 530.318 132.171 530.719 132.754C531.138 133.337 531.694 133.766 532.387 134.039C533.079 134.312 533.882 134.449 534.793 134.449C535.632 134.449 536.324 134.331 536.871 134.094C537.436 133.857 537.865 133.538 538.156 133.137C538.448 132.717 538.594 132.234 538.594 131.688ZM566.129 140.547C563.723 140.547 561.572 140.173 559.676 139.426C557.78 138.66 556.176 137.612 554.863 136.281C553.569 134.951 552.576 133.419 551.883 131.688C551.208 129.956 550.871 128.124 550.871 126.191V125.152C550.871 122.983 551.172 120.978 551.773 119.137C552.375 117.277 553.268 115.655 554.453 114.27C555.638 112.884 557.124 111.809 558.91 111.043C560.697 110.259 562.775 109.867 565.145 109.867C567.241 109.867 569.118 110.204 570.777 110.879C572.436 111.553 573.84 112.52 574.988 113.777C576.155 115.035 577.039 116.557 577.641 118.344C578.26 120.13 578.57 122.135 578.57 124.359V128.105H554.398V122.336H569.574V121.625C569.592 120.641 569.419 119.802 569.055 119.109C568.708 118.417 568.198 117.888 567.523 117.523C566.849 117.159 566.029 116.977 565.062 116.977C564.06 116.977 563.23 117.195 562.574 117.633C561.936 118.07 561.435 118.672 561.07 119.438C560.724 120.185 560.478 121.051 560.332 122.035C560.186 123.02 560.113 124.059 560.113 125.152V126.191C560.113 127.285 560.259 128.279 560.551 129.172C560.861 130.065 561.298 130.831 561.863 131.469C562.447 132.089 563.139 132.572 563.941 132.918C564.762 133.264 565.691 133.438 566.73 133.438C567.988 133.438 569.228 133.201 570.449 132.727C571.671 132.253 572.719 131.469 573.594 130.375L577.777 135.352C577.176 136.208 576.319 137.038 575.207 137.84C574.113 138.642 572.801 139.298 571.27 139.809C569.738 140.301 568.025 140.547 566.129 140.547ZM609.633 140H600.801L600.855 132.617H609.633C611.456 132.617 612.996 132.18 614.254 131.305C615.53 130.43 616.496 129.126 617.152 127.395C617.827 125.645 618.164 123.493 618.164 120.941V119.219C618.164 117.305 617.973 115.628 617.59 114.188C617.225 112.729 616.678 111.517 615.949 110.551C615.22 109.566 614.309 108.828 613.215 108.336C612.139 107.844 610.9 107.598 609.496 107.598H600.637V100.188H609.496C612.194 100.188 614.664 100.652 616.906 101.582C619.167 102.493 621.117 103.806 622.758 105.52C624.417 107.215 625.693 109.229 626.586 111.562C627.497 113.878 627.953 116.448 627.953 119.273V120.941C627.953 123.749 627.497 126.319 626.586 128.652C625.693 130.986 624.426 133 622.785 134.695C621.145 136.391 619.203 137.703 616.961 138.633C614.737 139.544 612.294 140 609.633 140ZM606.297 100.188V140H596.699V100.188H606.297ZM646.848 140.547C644.441 140.547 642.29 140.173 640.395 139.426C638.499 138.66 636.895 137.612 635.582 136.281C634.288 134.951 633.294 133.419 632.602 131.688C631.927 129.956 631.59 128.124 631.59 126.191V125.152C631.59 122.983 631.891 120.978 632.492 119.137C633.094 117.277 633.987 115.655 635.172 114.27C636.357 112.884 637.842 111.809 639.629 111.043C641.415 110.259 643.493 109.867 645.863 109.867C647.96 109.867 649.837 110.204 651.496 110.879C653.155 111.553 654.559 112.52 655.707 113.777C656.874 115.035 657.758 116.557 658.359 118.344C658.979 120.13 659.289 122.135 659.289 124.359V128.105H635.117V122.336H650.293V121.625C650.311 120.641 650.138 119.802 649.773 119.109C649.427 118.417 648.917 117.888 648.242 117.523C647.568 117.159 646.747 116.977 645.781 116.977C644.779 116.977 643.949 117.195 643.293 117.633C642.655 118.07 642.154 118.672 641.789 119.438C641.443 120.185 641.197 121.051 641.051 122.035C640.905 123.02 640.832 124.059 640.832 125.152V126.191C640.832 127.285 640.978 128.279 641.27 129.172C641.579 130.065 642.017 130.831 642.582 131.469C643.165 132.089 643.858 132.572 644.66 132.918C645.48 133.264 646.41 133.438 647.449 133.438C648.707 133.438 649.947 133.201 651.168 132.727C652.389 132.253 653.438 131.469 654.312 130.375L658.496 135.352C657.895 136.208 657.038 137.038 655.926 137.84C654.832 138.642 653.52 139.298 651.988 139.809C650.457 140.301 648.743 140.547 646.848 140.547ZM678.621 110.414V116.812H660.793V110.414H678.621ZM664.539 103.059H673.754V130.348C673.754 131.132 673.845 131.742 674.027 132.18C674.21 132.599 674.52 132.9 674.957 133.082C675.413 133.246 676.014 133.328 676.762 133.328C677.29 133.328 677.728 133.319 678.074 133.301C678.421 133.264 678.749 133.219 679.059 133.164V139.754C678.275 140.009 677.454 140.201 676.598 140.328C675.741 140.474 674.829 140.547 673.863 140.547C671.895 140.547 670.208 140.237 668.805 139.617C667.419 138.997 666.362 138.022 665.633 136.691C664.904 135.361 664.539 133.629 664.539 131.496V103.059ZM696.613 140.547C694.207 140.547 692.056 140.173 690.16 139.426C688.264 138.66 686.66 137.612 685.348 136.281C684.053 134.951 683.06 133.419 682.367 131.688C681.693 129.956 681.355 128.124 681.355 126.191V125.152C681.355 122.983 681.656 120.978 682.258 119.137C682.859 117.277 683.753 115.655 684.938 114.27C686.122 112.884 687.608 111.809 689.395 111.043C691.181 110.259 693.259 109.867 695.629 109.867C697.725 109.867 699.603 110.204 701.262 110.879C702.921 111.553 704.324 112.52 705.473 113.777C706.639 115.035 707.523 116.557 708.125 118.344C708.745 120.13 709.055 122.135 709.055 124.359V128.105H684.883V122.336H700.059V121.625C700.077 120.641 699.904 119.802 699.539 119.109C699.193 118.417 698.682 117.888 698.008 117.523C697.333 117.159 696.513 116.977 695.547 116.977C694.544 116.977 693.715 117.195 693.059 117.633C692.421 118.07 691.919 118.672 691.555 119.438C691.208 120.185 690.962 121.051 690.816 122.035C690.671 123.02 690.598 124.059 690.598 125.152V126.191C690.598 127.285 690.743 128.279 691.035 129.172C691.345 130.065 691.783 130.831 692.348 131.469C692.931 132.089 693.624 132.572 694.426 132.918C695.246 133.264 696.176 133.438 697.215 133.438C698.473 133.438 699.712 133.201 700.934 132.727C702.155 132.253 703.203 131.469 704.078 130.375L708.262 135.352C707.66 136.208 706.803 137.038 705.691 137.84C704.598 138.642 703.285 139.298 701.754 139.809C700.223 140.301 698.509 140.547 696.613 140.547ZM725.297 133.438C726.154 133.438 726.883 133.283 727.484 132.973C728.104 132.645 728.569 132.189 728.879 131.605C729.207 131.004 729.362 130.284 729.344 129.445H738.012C738.03 131.669 737.483 133.62 736.371 135.297C735.277 136.956 733.783 138.25 731.887 139.18C730.009 140.091 727.885 140.547 725.516 140.547C723.201 140.547 721.177 140.173 719.445 139.426C717.714 138.66 716.264 137.603 715.098 136.254C713.949 134.887 713.083 133.292 712.5 131.469C711.935 129.646 711.652 127.668 711.652 125.535V124.906C711.652 122.773 711.935 120.796 712.5 118.973C713.083 117.132 713.949 115.536 715.098 114.188C716.264 112.82 717.704 111.763 719.418 111.016C721.15 110.25 723.164 109.867 725.461 109.867C727.922 109.867 730.091 110.332 731.969 111.262C733.865 112.191 735.35 113.54 736.426 115.309C737.501 117.077 738.03 119.219 738.012 121.734H729.344C729.362 120.841 729.225 120.039 728.934 119.328C728.642 118.617 728.186 118.052 727.566 117.633C726.965 117.195 726.19 116.977 725.242 116.977C724.294 116.977 723.529 117.186 722.945 117.605C722.362 118.025 721.915 118.608 721.605 119.355C721.314 120.085 721.113 120.923 721.004 121.871C720.913 122.819 720.867 123.831 720.867 124.906V125.535C720.867 126.629 720.913 127.659 721.004 128.625C721.113 129.573 721.323 130.411 721.633 131.141C721.943 131.852 722.389 132.417 722.973 132.836C723.556 133.237 724.331 133.438 725.297 133.438ZM757.535 110.414V116.812H739.707V110.414H757.535ZM743.453 103.059H752.668V130.348C752.668 131.132 752.759 131.742 752.941 132.18C753.124 132.599 753.434 132.9 753.871 133.082C754.327 133.246 754.928 133.328 755.676 133.328C756.204 133.328 756.642 133.319 756.988 133.301C757.335 133.264 757.663 133.219 757.973 133.164V139.754C757.189 140.009 756.368 140.201 755.512 140.328C754.655 140.474 753.743 140.547 752.777 140.547C750.809 140.547 749.122 140.237 747.719 139.617C746.333 138.997 745.276 138.022 744.547 136.691C743.818 135.361 743.453 133.629 743.453 131.496V103.059ZM759.23 125.508V124.934C759.23 122.764 759.54 120.768 760.16 118.945C760.78 117.104 761.691 115.509 762.895 114.16C764.098 112.811 765.583 111.763 767.352 111.016C769.12 110.25 771.161 109.867 773.477 109.867C775.81 109.867 777.861 110.25 779.629 111.016C781.415 111.763 782.91 112.811 784.113 114.16C785.316 115.509 786.228 117.104 786.848 118.945C787.467 120.768 787.777 122.764 787.777 124.934V125.508C787.777 127.659 787.467 129.655 786.848 131.496C786.228 133.319 785.316 134.914 784.113 136.281C782.91 137.63 781.424 138.678 779.656 139.426C777.888 140.173 775.846 140.547 773.531 140.547C771.216 140.547 769.165 140.173 767.379 139.426C765.592 138.678 764.098 137.63 762.895 136.281C761.691 134.914 760.78 133.319 760.16 131.496C759.54 129.655 759.23 127.659 759.23 125.508ZM768.445 124.934V125.508C768.445 126.62 768.527 127.659 768.691 128.625C768.855 129.591 769.129 130.439 769.512 131.168C769.895 131.879 770.414 132.435 771.07 132.836C771.727 133.237 772.547 133.438 773.531 133.438C774.497 133.438 775.299 133.237 775.938 132.836C776.594 132.435 777.113 131.879 777.496 131.168C777.879 130.439 778.152 129.591 778.316 128.625C778.48 127.659 778.562 126.62 778.562 125.508V124.934C778.562 123.858 778.48 122.846 778.316 121.898C778.152 120.932 777.879 120.085 777.496 119.355C777.113 118.608 776.594 118.025 775.938 117.605C775.281 117.186 774.461 116.977 773.477 116.977C772.51 116.977 771.699 117.186 771.043 117.605C770.405 118.025 769.895 118.608 769.512 119.355C769.129 120.085 768.855 120.932 768.691 121.898C768.527 122.846 768.445 123.858 768.445 124.934ZM801.176 117.742V140H791.961V110.414H800.574L801.176 117.742ZM809.926 110.195L809.762 118.754C809.397 118.717 808.905 118.672 808.285 118.617C807.665 118.562 807.146 118.535 806.727 118.535C805.651 118.535 804.721 118.663 803.938 118.918C803.172 119.155 802.534 119.52 802.023 120.012C801.531 120.486 801.167 121.087 800.93 121.816C800.711 122.546 800.611 123.393 800.629 124.359L798.961 123.266C798.961 121.279 799.152 119.474 799.535 117.852C799.936 116.211 800.501 114.798 801.23 113.613C801.96 112.41 802.844 111.49 803.883 110.852C804.922 110.195 806.089 109.867 807.383 109.867C807.839 109.867 808.285 109.895 808.723 109.949C809.178 110.004 809.579 110.086 809.926 110.195Z" fill="black"/>
<rect x="93" y="178" width="917" height="77" rx="10" fill="#D3D3D3"/>
<rect x="111" y="196" width="98" height="41" rx="3" fill="#424242"/>
<rect x="111" y="196" width="98" height="41" rx="3" stroke="#424242" stroke-width="4"/>
<path d="M137.078 210.203V223H133.993V210.203H137.078ZM142.053 215.529V217.902H136.199V215.529H142.053ZM142.554 210.203V212.585H136.199V210.203H142.554ZM146.825 209.5V223H143.854V209.5H146.825ZM154.208 220.688V213.49H157.179V223H154.401L154.208 220.688ZM154.489 218.755L155.263 218.737C155.263 219.376 155.187 219.968 155.034 220.513C154.882 221.052 154.656 221.521 154.357 221.919C154.064 222.317 153.701 222.628 153.268 222.851C152.84 223.067 152.345 223.176 151.782 223.176C151.313 223.176 150.883 223.111 150.49 222.982C150.104 222.848 149.77 222.64 149.488 222.358C149.207 222.071 148.987 221.705 148.829 221.26C148.677 220.809 148.601 220.27 148.601 219.643V213.49H151.562V219.66C151.562 219.871 151.589 220.053 151.642 220.205C151.694 220.357 151.771 220.486 151.87 220.592C151.97 220.691 152.093 220.768 152.239 220.82C152.392 220.867 152.564 220.891 152.758 220.891C153.203 220.891 153.552 220.797 153.804 220.609C154.056 220.422 154.231 220.167 154.331 219.845C154.437 219.522 154.489 219.159 154.489 218.755ZM163.823 213.49V215.547H158.093V213.49H163.823ZM159.297 211.126H162.259V219.897C162.259 220.149 162.288 220.346 162.347 220.486C162.405 220.621 162.505 220.718 162.646 220.776C162.792 220.829 162.985 220.855 163.226 220.855C163.396 220.855 163.536 220.853 163.647 220.847C163.759 220.835 163.864 220.82 163.964 220.803V222.921C163.712 223.003 163.448 223.064 163.173 223.105C162.897 223.152 162.604 223.176 162.294 223.176C161.661 223.176 161.119 223.076 160.668 222.877C160.223 222.678 159.883 222.364 159.648 221.937C159.414 221.509 159.297 220.952 159.297 220.267V211.126ZM170.011 213.49V215.547H164.28V213.49H170.011ZM165.484 211.126H168.446V219.897C168.446 220.149 168.476 220.346 168.534 220.486C168.593 220.621 168.692 220.718 168.833 220.776C168.979 220.829 169.173 220.855 169.413 220.855C169.583 220.855 169.724 220.853 169.835 220.847C169.946 220.835 170.052 220.82 170.151 220.803V222.921C169.899 223.003 169.636 223.064 169.36 223.105C169.085 223.152 168.792 223.176 168.481 223.176C167.849 223.176 167.307 223.076 166.855 222.877C166.41 222.678 166.07 222.364 165.836 221.937C165.602 221.509 165.484 220.952 165.484 220.267V211.126ZM175.794 223.176C175.021 223.176 174.329 223.056 173.72 222.815C173.11 222.569 172.595 222.232 172.173 221.805C171.757 221.377 171.438 220.885 171.215 220.328C170.998 219.771 170.89 219.183 170.89 218.562V218.228C170.89 217.53 170.986 216.886 171.18 216.294C171.373 215.696 171.66 215.175 172.041 214.729C172.422 214.284 172.899 213.938 173.474 213.692C174.048 213.44 174.716 213.314 175.478 213.314C176.151 213.314 176.755 213.423 177.288 213.64C177.821 213.856 178.272 214.167 178.642 214.571C179.017 214.976 179.301 215.465 179.494 216.039C179.693 216.613 179.793 217.258 179.793 217.973V219.177H172.023V217.322H176.901V217.094C176.907 216.777 176.852 216.508 176.734 216.285C176.623 216.062 176.459 215.893 176.242 215.775C176.025 215.658 175.762 215.6 175.451 215.6C175.129 215.6 174.862 215.67 174.651 215.811C174.446 215.951 174.285 216.145 174.168 216.391C174.057 216.631 173.978 216.909 173.931 217.226C173.884 217.542 173.86 217.876 173.86 218.228V218.562C173.86 218.913 173.907 219.232 174.001 219.52C174.101 219.807 174.241 220.053 174.423 220.258C174.61 220.457 174.833 220.612 175.091 220.724C175.354 220.835 175.653 220.891 175.987 220.891C176.392 220.891 176.79 220.814 177.183 220.662C177.575 220.51 177.912 220.258 178.193 219.906L179.538 221.506C179.345 221.781 179.069 222.048 178.712 222.306C178.36 222.563 177.938 222.774 177.446 222.938C176.954 223.097 176.403 223.176 175.794 223.176ZM183.985 215.846V223H181.023V213.49H183.792L183.985 215.846ZM186.798 213.42L186.745 216.171C186.628 216.159 186.47 216.145 186.271 216.127C186.071 216.109 185.904 216.101 185.77 216.101C185.424 216.101 185.125 216.142 184.873 216.224C184.627 216.3 184.422 216.417 184.258 216.575C184.1 216.728 183.982 216.921 183.906 217.155C183.836 217.39 183.804 217.662 183.81 217.973L183.273 217.621C183.273 216.982 183.335 216.402 183.458 215.881C183.587 215.354 183.769 214.899 184.003 214.519C184.237 214.132 184.521 213.836 184.855 213.631C185.189 213.42 185.564 213.314 185.98 213.314C186.127 213.314 186.271 213.323 186.411 213.341C186.558 213.358 186.687 213.385 186.798 213.42Z" fill="white"/>
<rect x="229" y="196" width="91" height="41" rx="3" fill="#424242"/>
<rect x="229" y="196" width="91" height="41" rx="3" stroke="#424242" stroke-width="4"/>
<path d="M252.141 210.203H257.177C258.161 210.203 259.017 210.35 259.743 210.643C260.47 210.936 261.029 211.369 261.422 211.943C261.82 212.518 262.02 213.227 262.02 214.07C262.02 214.803 261.905 215.415 261.677 215.907C261.448 216.399 261.129 216.807 260.719 217.129C260.314 217.445 259.843 217.706 259.304 217.911L258.293 218.482H254.065L254.048 216.101H257.177C257.569 216.101 257.895 216.03 258.152 215.89C258.41 215.749 258.604 215.55 258.732 215.292C258.867 215.028 258.935 214.715 258.935 214.352C258.935 213.982 258.867 213.666 258.732 213.402C258.598 213.139 258.398 212.937 258.135 212.796C257.877 212.655 257.558 212.585 257.177 212.585H255.226V223H252.141V210.203ZM259.146 223L256.315 217.34L259.585 217.322L262.45 222.868V223H259.146ZM268.348 223.176C267.574 223.176 266.883 223.056 266.273 222.815C265.664 222.569 265.148 222.232 264.727 221.805C264.311 221.377 263.991 220.885 263.769 220.328C263.552 219.771 263.443 219.183 263.443 218.562V218.228C263.443 217.53 263.54 216.886 263.733 216.294C263.927 215.696 264.214 215.175 264.595 214.729C264.976 214.284 265.453 213.938 266.027 213.692C266.602 213.44 267.27 213.314 268.031 213.314C268.705 213.314 269.309 213.423 269.842 213.64C270.375 213.856 270.826 214.167 271.195 214.571C271.57 214.976 271.854 215.465 272.048 216.039C272.247 216.613 272.347 217.258 272.347 217.973V219.177H264.577V217.322H269.455V217.094C269.461 216.777 269.405 216.508 269.288 216.285C269.177 216.062 269.013 215.893 268.796 215.775C268.579 215.658 268.315 215.6 268.005 215.6C267.683 215.6 267.416 215.67 267.205 215.811C267 215.951 266.839 216.145 266.722 216.391C266.61 216.631 266.531 216.909 266.484 217.226C266.438 217.542 266.414 217.876 266.414 218.228V218.562C266.414 218.913 266.461 219.232 266.555 219.52C266.654 219.807 266.795 220.053 266.977 220.258C267.164 220.457 267.387 220.612 267.645 220.724C267.908 220.835 268.207 220.891 268.541 220.891C268.945 220.891 269.344 220.814 269.736 220.662C270.129 220.51 270.466 220.258 270.747 219.906L272.092 221.506C271.898 221.781 271.623 222.048 271.266 222.306C270.914 222.563 270.492 222.774 270 222.938C269.508 223.097 268.957 223.176 268.348 223.176ZM278.49 220.609V216.689C278.49 216.42 278.452 216.188 278.376 215.995C278.3 215.802 278.18 215.652 278.016 215.547C277.852 215.436 277.632 215.38 277.356 215.38C277.134 215.38 276.943 215.418 276.785 215.494C276.627 215.57 276.507 215.685 276.425 215.837C276.343 215.989 276.302 216.183 276.302 216.417H273.34C273.34 215.978 273.437 215.57 273.63 215.195C273.829 214.814 274.11 214.483 274.474 214.202C274.843 213.921 275.282 213.704 275.792 213.552C276.308 213.394 276.882 213.314 277.515 213.314C278.271 213.314 278.944 213.44 279.536 213.692C280.134 213.944 280.605 214.322 280.951 214.826C281.297 215.324 281.47 215.951 281.47 216.707V220.601C281.47 221.222 281.505 221.693 281.575 222.016C281.646 222.332 281.745 222.61 281.874 222.851V223H278.903C278.763 222.707 278.657 222.35 278.587 221.928C278.522 221.5 278.49 221.061 278.49 220.609ZM278.851 217.19L278.868 218.772H277.559C277.283 218.772 277.049 218.811 276.855 218.887C276.668 218.963 276.516 219.068 276.398 219.203C276.287 219.332 276.205 219.479 276.152 219.643C276.105 219.807 276.082 219.979 276.082 220.161C276.082 220.337 276.123 220.495 276.205 220.636C276.293 220.771 276.41 220.876 276.557 220.952C276.703 221.028 276.867 221.066 277.049 221.066C277.377 221.066 277.655 221.005 277.884 220.882C278.118 220.753 278.297 220.598 278.42 220.416C278.543 220.234 278.604 220.064 278.604 219.906L279.255 221.119C279.138 221.354 279.003 221.591 278.851 221.831C278.704 222.071 278.52 222.294 278.297 222.499C278.08 222.698 277.813 222.862 277.497 222.991C277.181 223.114 276.797 223.176 276.346 223.176C275.76 223.176 275.221 223.056 274.729 222.815C274.242 222.575 273.853 222.241 273.56 221.813C273.267 221.38 273.12 220.882 273.12 220.319C273.12 219.827 273.208 219.388 273.384 219.001C273.565 218.614 273.838 218.286 274.201 218.017C274.564 217.747 275.027 217.542 275.59 217.401C276.152 217.261 276.814 217.19 277.576 217.19H278.851ZM287.13 220.891C287.405 220.891 287.64 220.841 287.833 220.741C288.032 220.636 288.182 220.489 288.281 220.302C288.387 220.108 288.437 219.877 288.431 219.607H291.217C291.223 220.322 291.047 220.949 290.689 221.488C290.338 222.021 289.857 222.438 289.248 222.736C288.645 223.029 287.962 223.176 287.2 223.176C286.456 223.176 285.806 223.056 285.249 222.815C284.692 222.569 284.227 222.229 283.852 221.796C283.482 221.356 283.204 220.844 283.017 220.258C282.835 219.672 282.744 219.036 282.744 218.351V218.148C282.744 217.463 282.835 216.827 283.017 216.241C283.204 215.649 283.482 215.137 283.852 214.703C284.227 214.264 284.689 213.924 285.24 213.684C285.797 213.438 286.444 213.314 287.183 213.314C287.974 213.314 288.671 213.464 289.274 213.763C289.884 214.062 290.361 214.495 290.707 215.063C291.053 215.632 291.223 216.32 291.217 217.129H288.431C288.437 216.842 288.393 216.584 288.299 216.355C288.205 216.127 288.059 215.945 287.859 215.811C287.666 215.67 287.417 215.6 287.112 215.6C286.808 215.6 286.562 215.667 286.374 215.802C286.187 215.937 286.043 216.124 285.943 216.364C285.85 216.599 285.785 216.868 285.75 217.173C285.721 217.478 285.706 217.803 285.706 218.148V218.351C285.706 218.702 285.721 219.033 285.75 219.344C285.785 219.648 285.853 219.918 285.952 220.152C286.052 220.381 286.195 220.562 286.383 220.697C286.57 220.826 286.819 220.891 287.13 220.891ZM297.492 213.49V215.547H291.762V213.49H297.492ZM292.966 211.126H295.928V219.897C295.928 220.149 295.957 220.346 296.016 220.486C296.074 220.621 296.174 220.718 296.314 220.776C296.461 220.829 296.654 220.855 296.895 220.855C297.064 220.855 297.205 220.853 297.316 220.847C297.428 220.835 297.533 220.82 297.633 220.803V222.921C297.381 223.003 297.117 223.064 296.842 223.105C296.566 223.152 296.273 223.176 295.963 223.176C295.33 223.176 294.788 223.076 294.337 222.877C293.892 222.678 293.552 222.364 293.317 221.937C293.083 221.509 292.966 220.952 292.966 220.267V211.126Z" fill="white"/>
<rect x="340" y="196" width="112" height="41" rx="3" fill="#424242"/>
<rect x="340" y="196" width="112" height="41" rx="3" stroke="#424242" stroke-width="4"/>
<path d="M372.19 220.627V223H365.37V220.627H372.19ZM366.469 210.203V223H363.384V210.203H366.469ZM371.312 215.283V217.577H365.37V215.283H371.312ZM372.217 210.203V212.585H365.37V210.203H372.217ZM376.444 209.5V223H373.474V209.5H376.444ZM382.878 223.176C382.104 223.176 381.413 223.056 380.804 222.815C380.194 222.569 379.679 222.232 379.257 221.805C378.841 221.377 378.521 220.885 378.299 220.328C378.082 219.771 377.974 219.183 377.974 218.562V218.228C377.974 217.53 378.07 216.886 378.264 216.294C378.457 215.696 378.744 215.175 379.125 214.729C379.506 214.284 379.983 213.938 380.558 213.692C381.132 213.44 381.8 213.314 382.562 213.314C383.235 213.314 383.839 213.423 384.372 213.64C384.905 213.856 385.356 214.167 385.726 214.571C386.101 214.976 386.385 215.465 386.578 216.039C386.777 216.613 386.877 217.258 386.877 217.973V219.177H379.107V217.322H383.985V217.094C383.991 216.777 383.936 216.508 383.818 216.285C383.707 216.062 383.543 215.893 383.326 215.775C383.109 215.658 382.846 215.6 382.535 215.6C382.213 215.6 381.946 215.67 381.735 215.811C381.53 215.951 381.369 216.145 381.252 216.391C381.141 216.631 381.062 216.909 381.015 217.226C380.968 217.542 380.944 217.876 380.944 218.228V218.562C380.944 218.913 380.991 219.232 381.085 219.52C381.185 219.807 381.325 220.053 381.507 220.258C381.694 220.457 381.917 220.612 382.175 220.724C382.438 220.835 382.737 220.891 383.071 220.891C383.476 220.891 383.874 220.814 384.267 220.662C384.659 220.51 384.996 220.258 385.277 219.906L386.622 221.506C386.429 221.781 386.153 222.048 385.796 222.306C385.444 222.563 385.022 222.774 384.53 222.938C384.038 223.097 383.487 223.176 382.878 223.176ZM392.098 220.891C392.373 220.891 392.607 220.841 392.801 220.741C393 220.636 393.149 220.489 393.249 220.302C393.354 220.108 393.404 219.877 393.398 219.607H396.185C396.19 220.322 396.015 220.949 395.657 221.488C395.306 222.021 394.825 222.438 394.216 222.736C393.612 223.029 392.93 223.176 392.168 223.176C391.424 223.176 390.773 223.056 390.217 222.815C389.66 222.569 389.194 222.229 388.819 221.796C388.45 221.356 388.172 220.844 387.984 220.258C387.803 219.672 387.712 219.036 387.712 218.351V218.148C387.712 217.463 387.803 216.827 387.984 216.241C388.172 215.649 388.45 215.137 388.819 214.703C389.194 214.264 389.657 213.924 390.208 213.684C390.765 213.438 391.412 213.314 392.15 213.314C392.941 213.314 393.639 213.464 394.242 213.763C394.852 214.062 395.329 214.495 395.675 215.063C396.021 215.632 396.19 216.32 396.185 217.129H393.398C393.404 216.842 393.36 216.584 393.267 216.355C393.173 216.127 393.026 215.945 392.827 215.811C392.634 215.67 392.385 215.6 392.08 215.6C391.775 215.6 391.529 215.667 391.342 215.802C391.154 215.937 391.011 216.124 390.911 216.364C390.817 216.599 390.753 216.868 390.718 217.173C390.688 217.478 390.674 217.803 390.674 218.148V218.351C390.674 218.702 390.688 219.033 390.718 219.344C390.753 219.648 390.82 219.918 390.92 220.152C391.02 220.381 391.163 220.562 391.351 220.697C391.538 220.826 391.787 220.891 392.098 220.891ZM402.46 213.49V215.547H396.729V213.49H402.46ZM397.934 211.126H400.896V219.897C400.896 220.149 400.925 220.346 400.983 220.486C401.042 220.621 401.142 220.718 401.282 220.776C401.429 220.829 401.622 220.855 401.862 220.855C402.032 220.855 402.173 220.853 402.284 220.847C402.396 220.835 402.501 220.82 402.601 220.803V222.921C402.349 223.003 402.085 223.064 401.81 223.105C401.534 223.152 401.241 223.176 400.931 223.176C400.298 223.176 399.756 223.076 399.305 222.877C398.859 222.678 398.52 222.364 398.285 221.937C398.051 221.509 397.934 220.952 397.934 220.267V211.126ZM406.626 215.846V223H403.664V213.49H406.433L406.626 215.846ZM409.438 213.42L409.386 216.171C409.269 216.159 409.11 216.145 408.911 216.127C408.712 216.109 408.545 216.101 408.41 216.101C408.064 216.101 407.766 216.142 407.514 216.224C407.268 216.3 407.062 216.417 406.898 216.575C406.74 216.728 406.623 216.921 406.547 217.155C406.477 217.39 406.444 217.662 406.45 217.973L405.914 217.621C405.914 216.982 405.976 216.402 406.099 215.881C406.228 215.354 406.409 214.899 406.644 214.519C406.878 214.132 407.162 213.836 407.496 213.631C407.83 213.42 408.205 213.314 408.621 213.314C408.768 213.314 408.911 213.323 409.052 213.341C409.198 213.358 409.327 213.385 409.438 213.42ZM409.772 218.342V218.157C409.772 217.46 409.872 216.818 410.071 216.232C410.271 215.641 410.563 215.128 410.95 214.694C411.337 214.261 411.814 213.924 412.383 213.684C412.951 213.438 413.607 213.314 414.352 213.314C415.102 213.314 415.761 213.438 416.329 213.684C416.903 213.924 417.384 214.261 417.771 214.694C418.157 215.128 418.45 215.641 418.649 216.232C418.849 216.818 418.948 217.46 418.948 218.157V218.342C418.948 219.033 418.849 219.675 418.649 220.267C418.45 220.853 418.157 221.365 417.771 221.805C417.384 222.238 416.906 222.575 416.338 222.815C415.77 223.056 415.113 223.176 414.369 223.176C413.625 223.176 412.966 223.056 412.392 222.815C411.817 222.575 411.337 222.238 410.95 221.805C410.563 221.365 410.271 220.853 410.071 220.267C409.872 219.675 409.772 219.033 409.772 218.342ZM412.734 218.157V218.342C412.734 218.699 412.761 219.033 412.813 219.344C412.866 219.654 412.954 219.927 413.077 220.161C413.2 220.39 413.367 220.568 413.578 220.697C413.789 220.826 414.053 220.891 414.369 220.891C414.68 220.891 414.938 220.826 415.143 220.697C415.354 220.568 415.521 220.39 415.644 220.161C415.767 219.927 415.854 219.654 415.907 219.344C415.96 219.033 415.986 218.699 415.986 218.342V218.157C415.986 217.812 415.96 217.486 415.907 217.182C415.854 216.871 415.767 216.599 415.644 216.364C415.521 216.124 415.354 215.937 415.143 215.802C414.932 215.667 414.668 215.6 414.352 215.6C414.041 215.6 413.78 215.667 413.569 215.802C413.364 215.937 413.2 216.124 413.077 216.364C412.954 216.599 412.866 216.871 412.813 217.182C412.761 217.486 412.734 217.812 412.734 218.157ZM423.176 215.521V223H420.214V213.49H422.991L423.176 215.521ZM422.824 217.92L422.13 217.938C422.13 217.211 422.218 216.563 422.394 215.995C422.569 215.421 422.818 214.935 423.141 214.536C423.463 214.138 423.847 213.836 424.292 213.631C424.743 213.42 425.244 213.314 425.795 213.314C426.234 213.314 426.636 213.379 426.999 213.508C427.368 213.637 427.685 213.845 427.948 214.132C428.218 214.419 428.423 214.8 428.563 215.274C428.71 215.743 428.783 216.323 428.783 217.015V223H425.804V217.006C425.804 216.625 425.751 216.335 425.646 216.136C425.54 215.931 425.388 215.79 425.188 215.714C424.989 215.638 424.746 215.6 424.459 215.6C424.154 215.6 423.896 215.658 423.686 215.775C423.475 215.893 423.305 216.057 423.176 216.268C423.053 216.473 422.962 216.716 422.903 216.997C422.851 217.278 422.824 217.586 422.824 217.92Z" fill="white"/>
<rect x="472" y="196" width="112" height="41" rx="3" fill="#424242"/>
<rect x="472" y="196" width="112" height="41" rx="3" stroke="#424242" stroke-width="4"/>
<path d="M501.343 210.203V223H498.258V210.203H501.343ZM505.192 210.203V212.585H494.496V210.203H505.192ZM509.807 220.609V216.689C509.807 216.42 509.769 216.188 509.692 215.995C509.616 215.802 509.496 215.652 509.332 215.547C509.168 215.436 508.948 215.38 508.673 215.38C508.45 215.38 508.26 215.418 508.102 215.494C507.943 215.57 507.823 215.685 507.741 215.837C507.659 215.989 507.618 216.183 507.618 216.417H504.656C504.656 215.978 504.753 215.57 504.946 215.195C505.146 214.814 505.427 214.483 505.79 214.202C506.159 213.921 506.599 213.704 507.108 213.552C507.624 213.394 508.198 213.314 508.831 213.314C509.587 213.314 510.261 213.44 510.853 213.692C511.45 213.944 511.922 214.322 512.268 214.826C512.613 215.324 512.786 215.951 512.786 216.707V220.601C512.786 221.222 512.821 221.693 512.892 222.016C512.962 222.332 513.062 222.61 513.19 222.851V223H510.22C510.079 222.707 509.974 222.35 509.903 221.928C509.839 221.5 509.807 221.061 509.807 220.609ZM510.167 217.19L510.185 218.772H508.875C508.6 218.772 508.365 218.811 508.172 218.887C507.984 218.963 507.832 219.068 507.715 219.203C507.604 219.332 507.521 219.479 507.469 219.643C507.422 219.807 507.398 219.979 507.398 220.161C507.398 220.337 507.439 220.495 507.521 220.636C507.609 220.771 507.727 220.876 507.873 220.952C508.02 221.028 508.184 221.066 508.365 221.066C508.693 221.066 508.972 221.005 509.2 220.882C509.435 220.753 509.613 220.598 509.736 220.416C509.859 220.234 509.921 220.064 509.921 219.906L510.571 221.119C510.454 221.354 510.319 221.591 510.167 221.831C510.021 222.071 509.836 222.294 509.613 222.499C509.396 222.698 509.13 222.862 508.813 222.991C508.497 223.114 508.113 223.176 507.662 223.176C507.076 223.176 506.537 223.056 506.045 222.815C505.559 222.575 505.169 222.241 504.876 221.813C504.583 221.38 504.437 220.882 504.437 220.319C504.437 219.827 504.524 219.388 504.7 219.001C504.882 218.614 505.154 218.286 505.518 218.017C505.881 217.747 506.344 217.542 506.906 217.401C507.469 217.261 508.131 217.19 508.893 217.19H510.167ZM517.559 213.49V223H514.588V213.49H517.559ZM514.412 211.038C514.412 210.616 514.564 210.271 514.869 210.001C515.174 209.731 515.569 209.597 516.056 209.597C516.542 209.597 516.938 209.731 517.242 210.001C517.547 210.271 517.699 210.616 517.699 211.038C517.699 211.46 517.547 211.806 517.242 212.075C516.938 212.345 516.542 212.479 516.056 212.479C515.569 212.479 515.174 212.345 514.869 212.075C514.564 211.806 514.412 211.46 514.412 211.038ZM522.516 209.5V223H519.545V209.5H522.516ZM527.235 220.17L528.993 213.49H530.848L530.188 216.839L528.448 223H526.963L527.235 220.17ZM526.541 213.49L527.631 220.117L527.754 223H525.952L523.702 213.49H526.541ZM532.412 219.977L533.511 213.49H536.35L534.117 223H532.315L532.412 219.977ZM531.059 213.49L532.834 220.152L533.106 223H531.604L529.898 216.856L529.266 213.49H531.059ZM540.551 213.49V223H537.58V213.49H540.551ZM537.404 211.038C537.404 210.616 537.557 210.271 537.861 210.001C538.166 209.731 538.562 209.597 539.048 209.597C539.534 209.597 539.93 209.731 540.234 210.001C540.539 210.271 540.691 210.616 540.691 211.038C540.691 211.46 540.539 211.806 540.234 212.075C539.93 212.345 539.534 212.479 539.048 212.479C538.562 212.479 538.166 212.345 537.861 212.075C537.557 211.806 537.404 211.46 537.404 211.038ZM545.288 215.521V223H542.326V213.49H545.104L545.288 215.521ZM544.937 217.92L544.242 217.938C544.242 217.211 544.33 216.563 544.506 215.995C544.682 215.421 544.931 214.935 545.253 214.536C545.575 214.138 545.959 213.836 546.404 213.631C546.855 213.42 547.356 213.314 547.907 213.314C548.347 213.314 548.748 213.379 549.111 213.508C549.48 213.637 549.797 213.845 550.061 214.132C550.33 214.419 550.535 214.8 550.676 215.274C550.822 215.743 550.896 216.323 550.896 217.015V223H547.916V217.006C547.916 216.625 547.863 216.335 547.758 216.136C547.652 215.931 547.5 215.79 547.301 215.714C547.102 215.638 546.858 215.6 546.571 215.6C546.267 215.6 546.009 215.658 545.798 215.775C545.587 215.893 545.417 216.057 545.288 216.268C545.165 216.473 545.074 216.716 545.016 216.997C544.963 217.278 544.937 217.586 544.937 217.92ZM558.006 220.82V209.5H560.985V223H558.313L558.006 220.82ZM552.17 218.359V218.175C552.17 217.454 552.249 216.798 552.407 216.206C552.565 215.608 552.8 215.096 553.11 214.668C553.421 214.234 553.808 213.9 554.271 213.666C554.733 213.432 555.267 213.314 555.87 213.314C556.409 213.314 556.881 213.44 557.285 213.692C557.689 213.938 558.035 214.284 558.322 214.729C558.609 215.175 558.844 215.696 559.025 216.294C559.207 216.886 559.345 217.524 559.438 218.21V218.43C559.345 219.074 559.207 219.684 559.025 220.258C558.844 220.826 558.609 221.33 558.322 221.77C558.035 222.209 557.687 222.555 557.276 222.807C556.872 223.053 556.397 223.176 555.853 223.176C555.249 223.176 554.716 223.056 554.253 222.815C553.796 222.575 553.412 222.238 553.102 221.805C552.797 221.371 552.565 220.861 552.407 220.275C552.249 219.689 552.17 219.051 552.17 218.359ZM555.132 218.175V218.359C555.132 218.717 555.155 219.048 555.202 219.353C555.249 219.657 555.328 219.927 555.439 220.161C555.557 220.39 555.709 220.568 555.896 220.697C556.09 220.826 556.327 220.891 556.608 220.891C556.989 220.891 557.303 220.8 557.549 220.618C557.801 220.437 557.985 220.179 558.103 219.845C558.226 219.511 558.278 219.118 558.261 218.667V217.973C558.272 217.586 558.246 217.246 558.182 216.953C558.117 216.654 558.015 216.405 557.874 216.206C557.739 216.007 557.566 215.857 557.355 215.758C557.15 215.652 556.907 215.6 556.626 215.6C556.351 215.6 556.116 215.664 555.923 215.793C555.735 215.922 555.583 216.104 555.466 216.338C555.349 216.566 555.264 216.839 555.211 217.155C555.158 217.466 555.132 217.806 555.132 218.175Z" fill="white"/>
<rect x="604" y="196" width="131" height="41" rx="3" fill="#424242"/>
<rect x="604" y="196" width="131" height="41" rx="3" stroke="#424242" stroke-width="4"/>
<path d="M642.72 210.203H645.233L648.09 219.106L650.946 210.203H653.46L649.109 223H647.07L642.72 210.203ZM641.19 210.203H643.792L644.275 220.012V223H641.19V210.203ZM652.388 210.203H654.998V223H651.904V220.012L652.388 210.203ZM659.753 221.884L662.214 213.49H665.396L661.572 224.415C661.49 224.655 661.382 224.913 661.247 225.188C661.112 225.47 660.928 225.736 660.693 225.988C660.459 226.24 660.157 226.445 659.788 226.604C659.425 226.762 658.974 226.841 658.435 226.841C658.147 226.841 657.937 226.826 657.802 226.797C657.673 226.773 657.474 226.729 657.204 226.665V224.547C657.28 224.547 657.345 224.547 657.397 224.547C657.456 224.547 657.521 224.547 657.591 224.547C657.907 224.547 658.159 224.515 658.347 224.45C658.54 224.386 658.687 224.292 658.786 224.169C658.892 224.046 658.974 223.896 659.032 223.721L659.753 221.884ZM659.129 213.49L661.001 220.144L661.326 223.281H659.34L655.956 213.49H659.129ZM672.901 219.599C672.901 219.399 672.872 219.221 672.813 219.062C672.755 218.898 672.646 218.746 672.488 218.605C672.33 218.465 672.102 218.324 671.803 218.184C671.51 218.037 671.123 217.885 670.643 217.727C670.08 217.539 669.538 217.328 669.017 217.094C668.495 216.854 668.029 216.575 667.619 216.259C667.209 215.937 666.884 215.562 666.644 215.134C666.403 214.7 666.283 214.196 666.283 213.622C666.283 213.071 666.406 212.576 666.652 212.137C666.898 211.691 667.241 211.313 667.681 211.003C668.126 210.687 668.647 210.446 669.245 210.282C669.843 210.112 670.496 210.027 671.205 210.027C672.143 210.027 672.969 210.191 673.684 210.52C674.404 210.842 674.967 211.302 675.371 211.899C675.781 212.491 675.986 213.191 675.986 214H672.919C672.919 213.678 672.852 213.394 672.717 213.147C672.588 212.901 672.392 212.708 672.128 212.567C671.864 212.427 671.533 212.356 671.135 212.356C670.748 212.356 670.423 212.415 670.159 212.532C669.896 212.649 669.696 212.808 669.562 213.007C669.427 213.2 669.359 213.414 669.359 213.648C669.359 213.842 669.412 214.018 669.518 214.176C669.629 214.328 669.784 214.472 669.983 214.606C670.188 214.741 670.435 214.87 670.722 214.993C671.015 215.116 671.343 215.236 671.706 215.354C672.386 215.57 672.989 215.813 673.517 216.083C674.05 216.347 674.498 216.648 674.861 216.988C675.23 217.322 675.509 217.703 675.696 218.131C675.89 218.559 675.986 219.042 675.986 219.581C675.986 220.155 675.875 220.665 675.652 221.11C675.43 221.556 675.11 221.934 674.694 222.244C674.278 222.549 673.78 222.78 673.2 222.938C672.62 223.097 671.973 223.176 671.258 223.176C670.602 223.176 669.954 223.094 669.315 222.93C668.683 222.76 668.108 222.502 667.593 222.156C667.077 221.805 666.664 221.356 666.354 220.812C666.049 220.261 665.896 219.607 665.896 218.852H668.99C668.99 219.227 669.04 219.543 669.14 219.801C669.239 220.059 669.386 220.267 669.579 220.425C669.772 220.577 670.01 220.688 670.291 220.759C670.572 220.823 670.895 220.855 671.258 220.855C671.65 220.855 671.967 220.8 672.207 220.688C672.447 220.571 672.623 220.419 672.734 220.231C672.846 220.038 672.901 219.827 672.901 219.599ZM684.714 220.891L688.282 223.721L686.366 225.338L682.859 222.508L684.714 220.891ZM688.432 216.347V216.865C688.432 217.844 688.294 218.723 688.019 219.502C687.749 220.275 687.362 220.938 686.858 221.488C686.36 222.033 685.771 222.452 685.092 222.745C684.412 223.032 683.662 223.176 682.842 223.176C682.016 223.176 681.26 223.032 680.574 222.745C679.895 222.452 679.303 222.033 678.799 221.488C678.301 220.938 677.914 220.275 677.639 219.502C677.369 218.723 677.234 217.844 677.234 216.865V216.347C677.234 215.368 677.369 214.489 677.639 213.71C677.914 212.931 678.298 212.269 678.79 211.724C679.288 211.173 679.877 210.754 680.557 210.467C681.242 210.174 681.998 210.027 682.824 210.027C683.645 210.027 684.395 210.174 685.074 210.467C685.76 210.754 686.352 211.173 686.85 211.724C687.354 212.269 687.743 212.931 688.019 213.71C688.294 214.489 688.432 215.368 688.432 216.347ZM685.294 216.865V216.329C685.294 215.696 685.238 215.14 685.127 214.659C685.021 214.173 684.863 213.766 684.652 213.438C684.441 213.109 684.181 212.863 683.87 212.699C683.565 212.529 683.217 212.444 682.824 212.444C682.414 212.444 682.057 212.529 681.752 212.699C681.447 212.863 681.192 213.109 680.987 213.438C680.782 213.766 680.627 214.173 680.521 214.659C680.422 215.14 680.372 215.696 680.372 216.329V216.865C680.372 217.492 680.422 218.049 680.521 218.535C680.627 219.016 680.782 219.423 680.987 219.757C681.198 220.091 681.456 220.343 681.761 220.513C682.071 220.683 682.432 220.768 682.842 220.768C683.234 220.768 683.583 220.683 683.888 220.513C684.192 220.343 684.447 220.091 684.652 219.757C684.863 219.423 685.021 219.016 685.127 218.535C685.238 218.049 685.294 217.492 685.294 216.865ZM698.46 220.627V223H691.991V220.627H698.46ZM693.09 210.203V223H690.005V210.203H693.09Z" fill="white"/>
<rect x="755" y="196" width="131" height="41" rx="3" fill="#424242"/>
<rect x="755" y="196" width="131" height="41" rx="3" stroke="#424242" stroke-width="4"/>
<path d="M800.312 220.627V223H793.843V220.627H800.312ZM794.941 210.203V223H791.856V210.203H794.941ZM806.411 220.609V216.689C806.411 216.42 806.373 216.188 806.297 215.995C806.221 215.802 806.101 215.652 805.937 215.547C805.772 215.436 805.553 215.38 805.277 215.38C805.055 215.38 804.864 215.418 804.706 215.494C804.548 215.57 804.428 215.685 804.346 215.837C804.264 215.989 804.223 216.183 804.223 216.417H801.261C801.261 215.978 801.357 215.57 801.551 215.195C801.75 214.814 802.031 214.483 802.395 214.202C802.764 213.921 803.203 213.704 803.713 213.552C804.229 213.394 804.803 213.314 805.436 213.314C806.191 213.314 806.865 213.44 807.457 213.692C808.055 213.944 808.526 214.322 808.872 214.826C809.218 215.324 809.391 215.951 809.391 216.707V220.601C809.391 221.222 809.426 221.693 809.496 222.016C809.566 222.332 809.666 222.61 809.795 222.851V223H806.824C806.684 222.707 806.578 222.35 806.508 221.928C806.443 221.5 806.411 221.061 806.411 220.609ZM806.771 217.19L806.789 218.772H805.479C805.204 218.772 804.97 218.811 804.776 218.887C804.589 218.963 804.437 219.068 804.319 219.203C804.208 219.332 804.126 219.479 804.073 219.643C804.026 219.807 804.003 219.979 804.003 220.161C804.003 220.337 804.044 220.495 804.126 220.636C804.214 220.771 804.331 220.876 804.478 220.952C804.624 221.028 804.788 221.066 804.97 221.066C805.298 221.066 805.576 221.005 805.805 220.882C806.039 220.753 806.218 220.598 806.341 220.416C806.464 220.234 806.525 220.064 806.525 219.906L807.176 221.119C807.059 221.354 806.924 221.591 806.771 221.831C806.625 222.071 806.44 222.294 806.218 222.499C806.001 222.698 805.734 222.862 805.418 222.991C805.102 223.114 804.718 223.176 804.267 223.176C803.681 223.176 803.142 223.056 802.649 222.815C802.163 222.575 801.773 222.241 801.48 221.813C801.188 221.38 801.041 220.882 801.041 220.319C801.041 219.827 801.129 219.388 801.305 219.001C801.486 218.614 801.759 218.286 802.122 218.017C802.485 217.747 802.948 217.542 803.511 217.401C804.073 217.261 804.735 217.19 805.497 217.19H806.771ZM814.022 215.846V223H811.061V213.49H813.829L814.022 215.846ZM816.835 213.42L816.782 216.171C816.665 216.159 816.507 216.145 816.308 216.127C816.108 216.109 815.941 216.101 815.807 216.101C815.461 216.101 815.162 216.142 814.91 216.224C814.664 216.3 814.459 216.417 814.295 216.575C814.137 216.728 814.02 216.921 813.943 217.155C813.873 217.39 813.841 217.662 813.847 217.973L813.311 217.621C813.311 216.982 813.372 216.402 813.495 215.881C813.624 215.354 813.806 214.899 814.04 214.519C814.274 214.132 814.559 213.836 814.893 213.631C815.227 213.42 815.602 213.314 816.018 213.314C816.164 213.314 816.308 213.323 816.448 213.341C816.595 213.358 816.724 213.385 816.835 213.42ZM822.53 220.609V216.689C822.53 216.42 822.492 216.188 822.416 215.995C822.34 215.802 822.22 215.652 822.056 215.547C821.892 215.436 821.672 215.38 821.396 215.38C821.174 215.38 820.983 215.418 820.825 215.494C820.667 215.57 820.547 215.685 820.465 215.837C820.383 215.989 820.342 216.183 820.342 216.417H817.38C817.38 215.978 817.477 215.57 817.67 215.195C817.869 214.814 818.15 214.483 818.514 214.202C818.883 213.921 819.322 213.704 819.832 213.552C820.348 213.394 820.922 213.314 821.555 213.314C822.311 213.314 822.984 213.44 823.576 213.692C824.174 213.944 824.646 214.322 824.991 214.826C825.337 215.324 825.51 215.951 825.51 216.707V220.601C825.51 221.222 825.545 221.693 825.615 222.016C825.686 222.332 825.785 222.61 825.914 222.851V223H822.943C822.803 222.707 822.697 222.35 822.627 221.928C822.562 221.5 822.53 221.061 822.53 220.609ZM822.891 217.19L822.908 218.772H821.599C821.323 218.772 821.089 218.811 820.896 218.887C820.708 218.963 820.556 219.068 820.438 219.203C820.327 219.332 820.245 219.479 820.192 219.643C820.146 219.807 820.122 219.979 820.122 220.161C820.122 220.337 820.163 220.495 820.245 220.636C820.333 220.771 820.45 220.876 820.597 220.952C820.743 221.028 820.907 221.066 821.089 221.066C821.417 221.066 821.695 221.005 821.924 220.882C822.158 220.753 822.337 220.598 822.46 220.416C822.583 220.234 822.645 220.064 822.645 219.906L823.295 221.119C823.178 221.354 823.043 221.591 822.891 221.831C822.744 222.071 822.56 222.294 822.337 222.499C822.12 222.698 821.854 222.862 821.537 222.991C821.221 223.114 820.837 223.176 820.386 223.176C819.8 223.176 819.261 223.056 818.769 222.815C818.282 222.575 817.893 222.241 817.6 221.813C817.307 221.38 817.16 220.882 817.16 220.319C817.16 219.827 817.248 219.388 817.424 219.001C817.605 218.614 817.878 218.286 818.241 218.017C818.604 217.747 819.067 217.542 819.63 217.401C820.192 217.261 820.854 217.19 821.616 217.19H822.891ZM830.44 220.97L832.312 213.49H835.433L832.321 223H830.476L830.44 220.97ZM829.333 213.49L831.179 220.97L831.161 223H829.307L826.204 213.49H829.333ZM840.794 223.176C840.021 223.176 839.329 223.056 838.72 222.815C838.11 222.569 837.595 222.232 837.173 221.805C836.757 221.377 836.438 220.885 836.215 220.328C835.998 219.771 835.89 219.183 835.89 218.562V218.228C835.89 217.53 835.986 216.886 836.18 216.294C836.373 215.696 836.66 215.175 837.041 214.729C837.422 214.284 837.899 213.938 838.474 213.692C839.048 213.44 839.716 213.314 840.478 213.314C841.151 213.314 841.755 213.423 842.288 213.64C842.821 213.856 843.272 214.167 843.642 214.571C844.017 214.976 844.301 215.465 844.494 216.039C844.693 216.613 844.793 217.258 844.793 217.973V219.177H837.023V217.322H841.901V217.094C841.907 216.777 841.852 216.508 841.734 216.285C841.623 216.062 841.459 215.893 841.242 215.775C841.025 215.658 840.762 215.6 840.451 215.6C840.129 215.6 839.862 215.67 839.651 215.811C839.446 215.951 839.285 216.145 839.168 216.391C839.057 216.631 838.978 216.909 838.931 217.226C838.884 217.542 838.86 217.876 838.86 218.228V218.562C838.86 218.913 838.907 219.232 839.001 219.52C839.101 219.807 839.241 220.053 839.423 220.258C839.61 220.457 839.833 220.612 840.091 220.724C840.354 220.835 840.653 220.891 840.987 220.891C841.392 220.891 841.79 220.814 842.183 220.662C842.575 220.51 842.912 220.258 843.193 219.906L844.538 221.506C844.345 221.781 844.069 222.048 843.712 222.306C843.36 222.563 842.938 222.774 842.446 222.938C841.954 223.097 841.403 223.176 840.794 223.176ZM849.126 209.5V223H846.155V209.5H849.126Z" fill="white"/>
<path d="M1066 0H1348C1356.28 0 1363 6.71573 1363 15V282C1363 290.284 1356.28 297 1348 297H1066V0Z" fill="white"/>
</svg>
